G04 EAGLE Gerber RS-274X export*
G75*
%MOMM*%
%FSLAX34Y34*%
%LPD*%
%INInner Layer 3*%
%IPPOS*%
%AMOC8*
5,1,8,0,0,1.08239X$1,22.5*%
G01*
%ADD10C,1.447800*%
%ADD11C,2.700000*%
%ADD12C,1.650000*%
%ADD13C,0.654800*%
%ADD14C,0.152400*%

G36*
X266718Y2544D02*
X266718Y2544D01*
X266737Y2542D01*
X266839Y2564D01*
X266941Y2580D01*
X266958Y2590D01*
X266978Y2594D01*
X267067Y2647D01*
X267158Y2696D01*
X267172Y2710D01*
X267189Y2720D01*
X267256Y2799D01*
X267328Y2874D01*
X267336Y2892D01*
X267349Y2907D01*
X267388Y3003D01*
X267431Y3097D01*
X267433Y3117D01*
X267441Y3135D01*
X267459Y3302D01*
X267459Y446698D01*
X267456Y446718D01*
X267458Y446737D01*
X267436Y446839D01*
X267420Y446941D01*
X267410Y446958D01*
X267406Y446978D01*
X267353Y447067D01*
X267304Y447158D01*
X267290Y447172D01*
X267280Y447189D01*
X267201Y447256D01*
X267126Y447328D01*
X267108Y447336D01*
X267093Y447349D01*
X266997Y447388D01*
X266903Y447431D01*
X266883Y447433D01*
X266865Y447441D01*
X266698Y447459D01*
X60048Y447459D01*
X60028Y447456D01*
X60009Y447458D01*
X59907Y447436D01*
X59805Y447420D01*
X59788Y447410D01*
X59768Y447406D01*
X59679Y447353D01*
X59588Y447304D01*
X59574Y447290D01*
X59557Y447280D01*
X59490Y447201D01*
X59418Y447126D01*
X59410Y447108D01*
X59397Y447093D01*
X59358Y446997D01*
X59315Y446903D01*
X59313Y446883D01*
X59305Y446865D01*
X59287Y446698D01*
X59287Y321030D01*
X59290Y321010D01*
X59288Y320991D01*
X59310Y320889D01*
X59326Y320787D01*
X59336Y320770D01*
X59340Y320750D01*
X59393Y320661D01*
X59442Y320570D01*
X59456Y320556D01*
X59466Y320539D01*
X59545Y320472D01*
X59620Y320400D01*
X59638Y320392D01*
X59653Y320379D01*
X59749Y320340D01*
X59843Y320297D01*
X59863Y320295D01*
X59881Y320287D01*
X60048Y320269D01*
X63988Y320269D01*
X66799Y317458D01*
X66799Y313482D01*
X64789Y311472D01*
X64777Y311456D01*
X64762Y311444D01*
X64705Y311356D01*
X64645Y311273D01*
X64639Y311254D01*
X64629Y311237D01*
X64603Y311136D01*
X64573Y311037D01*
X64573Y311018D01*
X64568Y310998D01*
X64576Y310895D01*
X64579Y310792D01*
X64586Y310773D01*
X64588Y310753D01*
X64628Y310658D01*
X64664Y310561D01*
X64676Y310545D01*
X64684Y310527D01*
X64789Y310396D01*
X65799Y309386D01*
X65799Y305410D01*
X62988Y302599D01*
X60048Y302599D01*
X60028Y302596D01*
X60009Y302598D01*
X59907Y302576D01*
X59805Y302560D01*
X59788Y302550D01*
X59768Y302546D01*
X59679Y302493D01*
X59588Y302444D01*
X59574Y302430D01*
X59557Y302420D01*
X59490Y302341D01*
X59418Y302266D01*
X59410Y302248D01*
X59397Y302233D01*
X59358Y302137D01*
X59315Y302043D01*
X59313Y302023D01*
X59305Y302005D01*
X59287Y301838D01*
X59287Y267632D01*
X59290Y267612D01*
X59288Y267593D01*
X59310Y267491D01*
X59326Y267389D01*
X59336Y267372D01*
X59340Y267352D01*
X59393Y267263D01*
X59442Y267172D01*
X59456Y267158D01*
X59466Y267141D01*
X59545Y267074D01*
X59620Y267002D01*
X59638Y266994D01*
X59653Y266981D01*
X59749Y266942D01*
X59843Y266899D01*
X59863Y266897D01*
X59881Y266889D01*
X60048Y266871D01*
X63353Y266871D01*
X66164Y264060D01*
X66164Y260084D01*
X65222Y259143D01*
X65211Y259127D01*
X65195Y259114D01*
X65139Y259027D01*
X65079Y258943D01*
X65073Y258924D01*
X65062Y258907D01*
X65037Y258807D01*
X65006Y258708D01*
X65007Y258688D01*
X65002Y258669D01*
X65010Y258566D01*
X65013Y258462D01*
X65020Y258443D01*
X65021Y258424D01*
X65061Y258329D01*
X65097Y258231D01*
X65110Y258215D01*
X65117Y258197D01*
X65222Y258066D01*
X67301Y255988D01*
X67301Y254082D01*
X67315Y253992D01*
X67323Y253901D01*
X67335Y253871D01*
X67340Y253839D01*
X67383Y253759D01*
X67419Y253675D01*
X67445Y253643D01*
X67456Y253622D01*
X67479Y253600D01*
X67524Y253544D01*
X69889Y251178D01*
X69889Y245941D01*
X69904Y245851D01*
X69911Y245760D01*
X69924Y245730D01*
X69929Y245698D01*
X69972Y245618D01*
X70008Y245534D01*
X70033Y245502D01*
X70044Y245481D01*
X70068Y245459D01*
X70112Y245403D01*
X88795Y226720D01*
X88869Y226667D01*
X88939Y226607D01*
X88969Y226595D01*
X88995Y226576D01*
X89082Y226549D01*
X89167Y226515D01*
X89208Y226511D01*
X89230Y226504D01*
X89262Y226505D01*
X89334Y226497D01*
X177774Y226497D01*
X177864Y226511D01*
X177955Y226519D01*
X177985Y226531D01*
X178017Y226536D01*
X178097Y226579D01*
X178181Y226615D01*
X178213Y226641D01*
X178234Y226652D01*
X178256Y226675D01*
X178312Y226720D01*
X183487Y231895D01*
X225035Y231895D01*
X225125Y231909D01*
X225216Y231917D01*
X225246Y231929D01*
X225278Y231934D01*
X225358Y231977D01*
X225442Y232013D01*
X225474Y232039D01*
X225495Y232050D01*
X225517Y232073D01*
X225573Y232118D01*
X238442Y244987D01*
X238495Y245061D01*
X238555Y245130D01*
X238567Y245160D01*
X238586Y245187D01*
X238613Y245273D01*
X238647Y245358D01*
X238651Y245399D01*
X238658Y245422D01*
X238657Y245454D01*
X238665Y245525D01*
X238665Y281440D01*
X238662Y281460D01*
X238664Y281479D01*
X238642Y281581D01*
X238626Y281683D01*
X238616Y281700D01*
X238612Y281720D01*
X238559Y281809D01*
X238510Y281900D01*
X238496Y281914D01*
X238486Y281931D01*
X238407Y281998D01*
X238332Y282070D01*
X238314Y282078D01*
X238299Y282091D01*
X238203Y282130D01*
X238109Y282173D01*
X238089Y282175D01*
X238071Y282183D01*
X237904Y282201D01*
X235012Y282201D01*
X232201Y285012D01*
X232201Y288988D01*
X235012Y291799D01*
X238440Y291799D01*
X238460Y291802D01*
X238479Y291800D01*
X238581Y291822D01*
X238683Y291838D01*
X238700Y291848D01*
X238720Y291852D01*
X238809Y291905D01*
X238900Y291954D01*
X238914Y291968D01*
X238931Y291978D01*
X238998Y292057D01*
X239070Y292132D01*
X239078Y292150D01*
X239091Y292165D01*
X239130Y292261D01*
X239173Y292355D01*
X239175Y292375D01*
X239183Y292393D01*
X239201Y292560D01*
X239201Y295988D01*
X242012Y298799D01*
X245988Y298799D01*
X248799Y295988D01*
X248799Y292012D01*
X246510Y289723D01*
X246457Y289649D01*
X246397Y289580D01*
X246385Y289550D01*
X246366Y289524D01*
X246339Y289437D01*
X246305Y289352D01*
X246301Y289311D01*
X246294Y289288D01*
X246295Y289256D01*
X246287Y289185D01*
X246287Y257411D01*
X246298Y257340D01*
X246300Y257269D01*
X246318Y257220D01*
X246326Y257168D01*
X246360Y257105D01*
X246385Y257037D01*
X246417Y256997D01*
X246442Y256951D01*
X246493Y256902D01*
X246538Y256845D01*
X246582Y256817D01*
X246620Y256781D01*
X246685Y256751D01*
X246745Y256712D01*
X246796Y256700D01*
X246843Y256678D01*
X246914Y256670D01*
X246984Y256652D01*
X247036Y256656D01*
X247087Y256651D01*
X247158Y256666D01*
X247229Y256672D01*
X247277Y256692D01*
X247328Y256703D01*
X247389Y256740D01*
X247455Y256768D01*
X247511Y256813D01*
X247539Y256829D01*
X247554Y256847D01*
X247586Y256873D01*
X248012Y257299D01*
X251993Y257299D01*
X252032Y257271D01*
X252084Y257221D01*
X252131Y257200D01*
X252173Y257169D01*
X252242Y257148D01*
X252307Y257118D01*
X252359Y257112D01*
X252408Y257097D01*
X252480Y257099D01*
X252551Y257091D01*
X252602Y257102D01*
X252654Y257103D01*
X252722Y257128D01*
X252792Y257143D01*
X252837Y257170D01*
X252885Y257188D01*
X252941Y257232D01*
X253003Y257269D01*
X253037Y257309D01*
X253077Y257341D01*
X253116Y257402D01*
X253163Y257456D01*
X253182Y257504D01*
X253210Y257548D01*
X253228Y257618D01*
X253255Y257684D01*
X253263Y257755D01*
X253271Y257787D01*
X253269Y257810D01*
X253273Y257851D01*
X253273Y303262D01*
X253272Y303271D01*
X253272Y303274D01*
X253269Y303291D01*
X253259Y303352D01*
X253251Y303443D01*
X253239Y303473D01*
X253234Y303505D01*
X253191Y303586D01*
X253155Y303669D01*
X253129Y303702D01*
X253118Y303722D01*
X253095Y303744D01*
X253050Y303800D01*
X247238Y309613D01*
X247164Y309666D01*
X247094Y309726D01*
X247064Y309738D01*
X247038Y309757D01*
X246951Y309783D01*
X246866Y309818D01*
X246825Y309822D01*
X246803Y309829D01*
X246771Y309828D01*
X246699Y309836D01*
X240983Y309836D01*
X228281Y322538D01*
X228207Y322591D01*
X228137Y322651D01*
X228107Y322663D01*
X228081Y322682D01*
X227994Y322709D01*
X227909Y322743D01*
X227868Y322747D01*
X227846Y322754D01*
X227814Y322753D01*
X227742Y322761D01*
X225012Y322761D01*
X223502Y324271D01*
X223486Y324283D01*
X223474Y324298D01*
X223386Y324355D01*
X223303Y324415D01*
X223284Y324421D01*
X223267Y324431D01*
X223166Y324457D01*
X223067Y324487D01*
X223048Y324487D01*
X223028Y324492D01*
X222925Y324484D01*
X222822Y324481D01*
X222803Y324474D01*
X222783Y324472D01*
X222688Y324432D01*
X222591Y324396D01*
X222575Y324384D01*
X222557Y324376D01*
X222426Y324271D01*
X220916Y322761D01*
X217679Y322761D01*
X217588Y322747D01*
X217498Y322739D01*
X217468Y322727D01*
X217436Y322722D01*
X217355Y322679D01*
X217271Y322643D01*
X217239Y322617D01*
X217218Y322606D01*
X217196Y322583D01*
X217140Y322538D01*
X214375Y319773D01*
X197226Y319773D01*
X195663Y321336D01*
X189098Y327901D01*
X189040Y327943D01*
X188988Y327992D01*
X188941Y328014D01*
X188899Y328044D01*
X188830Y328065D01*
X188765Y328096D01*
X188713Y328101D01*
X188663Y328117D01*
X188592Y328115D01*
X188521Y328123D01*
X188470Y328112D01*
X188418Y328110D01*
X188350Y328086D01*
X188280Y328070D01*
X188235Y328044D01*
X188187Y328026D01*
X188131Y327981D01*
X188069Y327944D01*
X188035Y327905D01*
X187995Y327872D01*
X187956Y327812D01*
X187909Y327757D01*
X187890Y327709D01*
X187862Y327665D01*
X187844Y327596D01*
X187817Y327529D01*
X187809Y327458D01*
X187801Y327427D01*
X187803Y327403D01*
X187799Y327362D01*
X187799Y325572D01*
X184988Y322761D01*
X181012Y322761D01*
X178201Y325572D01*
X178201Y329548D01*
X181012Y332359D01*
X182802Y332359D01*
X182873Y332370D01*
X182945Y332372D01*
X182994Y332390D01*
X183045Y332398D01*
X183109Y332432D01*
X183176Y332457D01*
X183217Y332489D01*
X183263Y332514D01*
X183312Y332566D01*
X183368Y332610D01*
X183396Y332654D01*
X183432Y332692D01*
X183462Y332757D01*
X183501Y332817D01*
X183514Y332868D01*
X183536Y332915D01*
X183544Y332986D01*
X183561Y333056D01*
X183557Y333108D01*
X183563Y333159D01*
X183547Y333230D01*
X183542Y333301D01*
X183522Y333349D01*
X183510Y333400D01*
X183474Y333461D01*
X183446Y333527D01*
X183401Y333583D01*
X183384Y333611D01*
X183366Y333626D01*
X183341Y333658D01*
X156586Y360413D01*
X156512Y360466D01*
X156442Y360526D01*
X156412Y360538D01*
X156386Y360557D01*
X156299Y360584D01*
X156214Y360618D01*
X156173Y360622D01*
X156151Y360629D01*
X156119Y360628D01*
X156047Y360636D01*
X152810Y360636D01*
X149999Y363447D01*
X149999Y367423D01*
X152810Y370234D01*
X156786Y370234D01*
X159597Y367423D01*
X159597Y364185D01*
X159611Y364095D01*
X159619Y364004D01*
X159631Y363975D01*
X159636Y363943D01*
X159679Y363862D01*
X159715Y363778D01*
X159741Y363746D01*
X159752Y363725D01*
X159775Y363703D01*
X159820Y363647D01*
X198897Y324570D01*
X198971Y324517D01*
X199041Y324457D01*
X199071Y324445D01*
X199097Y324426D01*
X199184Y324399D01*
X199269Y324365D01*
X199310Y324361D01*
X199332Y324354D01*
X199364Y324355D01*
X199435Y324347D01*
X205885Y324347D01*
X205956Y324358D01*
X206027Y324360D01*
X206076Y324378D01*
X206128Y324386D01*
X206191Y324420D01*
X206259Y324445D01*
X206299Y324477D01*
X206345Y324502D01*
X206395Y324554D01*
X206451Y324598D01*
X206479Y324642D01*
X206515Y324680D01*
X206545Y324745D01*
X206584Y324805D01*
X206596Y324856D01*
X206618Y324903D01*
X206626Y324974D01*
X206644Y325044D01*
X206640Y325096D01*
X206645Y325147D01*
X206630Y325218D01*
X206624Y325289D01*
X206604Y325337D01*
X206593Y325388D01*
X206556Y325449D01*
X206528Y325515D01*
X206483Y325571D01*
X206467Y325599D01*
X206449Y325614D01*
X206423Y325646D01*
X206057Y326012D01*
X206057Y329988D01*
X208868Y332799D01*
X212844Y332799D01*
X214574Y331069D01*
X214590Y331057D01*
X214602Y331042D01*
X214690Y330985D01*
X214773Y330925D01*
X214792Y330919D01*
X214809Y330909D01*
X214910Y330883D01*
X215009Y330853D01*
X215028Y330853D01*
X215048Y330848D01*
X215151Y330856D01*
X215254Y330859D01*
X215273Y330866D01*
X215293Y330868D01*
X215388Y330908D01*
X215485Y330944D01*
X215501Y330956D01*
X215519Y330964D01*
X215650Y331069D01*
X216940Y332359D01*
X220916Y332359D01*
X222426Y330849D01*
X222442Y330837D01*
X222454Y330822D01*
X222524Y330777D01*
X222555Y330750D01*
X222573Y330743D01*
X222625Y330705D01*
X222644Y330699D01*
X222661Y330689D01*
X222762Y330663D01*
X222861Y330633D01*
X222880Y330633D01*
X222900Y330628D01*
X223003Y330636D01*
X223106Y330639D01*
X223125Y330646D01*
X223145Y330648D01*
X223219Y330679D01*
X223220Y330679D01*
X223225Y330682D01*
X223240Y330688D01*
X223337Y330724D01*
X223353Y330736D01*
X223371Y330744D01*
X223427Y330789D01*
X223438Y330794D01*
X223449Y330806D01*
X223502Y330849D01*
X225012Y332359D01*
X228988Y332359D01*
X230962Y330385D01*
X230978Y330373D01*
X230990Y330358D01*
X231078Y330301D01*
X231161Y330241D01*
X231180Y330235D01*
X231197Y330225D01*
X231298Y330199D01*
X231397Y330169D01*
X231416Y330169D01*
X231436Y330164D01*
X231539Y330172D01*
X231642Y330175D01*
X231661Y330182D01*
X231681Y330184D01*
X231776Y330224D01*
X231873Y330260D01*
X231889Y330272D01*
X231907Y330280D01*
X232038Y330385D01*
X234012Y332359D01*
X236778Y332359D01*
X236798Y332362D01*
X236818Y332360D01*
X236919Y332382D01*
X237021Y332398D01*
X237039Y332408D01*
X237058Y332412D01*
X237147Y332465D01*
X237239Y332514D01*
X237252Y332528D01*
X237269Y332538D01*
X237337Y332617D01*
X237408Y332692D01*
X237416Y332710D01*
X237429Y332725D01*
X237468Y332821D01*
X237512Y332915D01*
X237514Y332935D01*
X237521Y332953D01*
X237540Y333120D01*
X237540Y335548D01*
X240351Y338359D01*
X244326Y338359D01*
X247137Y335548D01*
X247137Y331567D01*
X247109Y331528D01*
X247060Y331476D01*
X247038Y331429D01*
X247008Y331387D01*
X246986Y331318D01*
X246956Y331253D01*
X246950Y331201D01*
X246935Y331152D01*
X246937Y331080D01*
X246929Y331009D01*
X246940Y330958D01*
X246942Y330906D01*
X246966Y330838D01*
X246981Y330768D01*
X247008Y330723D01*
X247026Y330675D01*
X247071Y330619D01*
X247108Y330557D01*
X247147Y330523D01*
X247180Y330483D01*
X247240Y330444D01*
X247294Y330397D01*
X247343Y330378D01*
X247387Y330350D01*
X247456Y330332D01*
X247523Y330305D01*
X247594Y330297D01*
X247625Y330289D01*
X247648Y330291D01*
X247689Y330287D01*
X247947Y330287D01*
X249303Y328931D01*
X249309Y328860D01*
X249321Y328831D01*
X249326Y328799D01*
X249369Y328718D01*
X249405Y328634D01*
X249431Y328602D01*
X249442Y328581D01*
X249465Y328559D01*
X249510Y328503D01*
X258070Y319943D01*
X258128Y319901D01*
X258180Y319852D01*
X258227Y319830D01*
X258269Y319800D01*
X258338Y319778D01*
X258403Y319748D01*
X258455Y319742D01*
X258505Y319727D01*
X258576Y319729D01*
X258647Y319721D01*
X258698Y319732D01*
X258750Y319734D01*
X258818Y319758D01*
X258888Y319773D01*
X258932Y319800D01*
X258981Y319818D01*
X259037Y319863D01*
X259099Y319900D01*
X259133Y319939D01*
X259173Y319972D01*
X259212Y320032D01*
X259259Y320086D01*
X259278Y320135D01*
X259306Y320179D01*
X259324Y320248D01*
X259351Y320315D01*
X259359Y320386D01*
X259367Y320417D01*
X259365Y320440D01*
X259369Y320481D01*
X259369Y345081D01*
X259355Y345172D01*
X259347Y345262D01*
X259335Y345292D01*
X259330Y345324D01*
X259287Y345405D01*
X259251Y345489D01*
X259225Y345521D01*
X259214Y345542D01*
X259191Y345564D01*
X259172Y345588D01*
X259168Y345594D01*
X259164Y345598D01*
X259146Y345620D01*
X222276Y382490D01*
X222202Y382543D01*
X222132Y382603D01*
X222102Y382615D01*
X222076Y382634D01*
X221989Y382661D01*
X221904Y382695D01*
X221863Y382699D01*
X221841Y382706D01*
X221809Y382705D01*
X221737Y382713D01*
X219165Y382713D01*
X219075Y382699D01*
X218984Y382691D01*
X218954Y382679D01*
X218922Y382674D01*
X218842Y382631D01*
X218758Y382595D01*
X218726Y382569D01*
X218705Y382558D01*
X218683Y382535D01*
X218627Y382490D01*
X216338Y380201D01*
X212362Y380201D01*
X209551Y383012D01*
X209551Y386988D01*
X212362Y389799D01*
X216338Y389799D01*
X218627Y387510D01*
X218701Y387457D01*
X218770Y387397D01*
X218800Y387385D01*
X218826Y387366D01*
X218913Y387339D01*
X218998Y387305D01*
X219039Y387301D01*
X219062Y387294D01*
X219094Y387295D01*
X219165Y387287D01*
X223947Y387287D01*
X263943Y347291D01*
X263943Y128088D01*
X223083Y87228D01*
X222179Y86324D01*
X222137Y86266D01*
X222088Y86214D01*
X222066Y86167D01*
X222036Y86125D01*
X222015Y86056D01*
X221984Y85991D01*
X221979Y85939D01*
X221963Y85889D01*
X221965Y85818D01*
X221957Y85747D01*
X221968Y85696D01*
X221970Y85644D01*
X221994Y85576D01*
X222010Y85506D01*
X222036Y85461D01*
X222054Y85413D01*
X222099Y85357D01*
X222136Y85295D01*
X222175Y85261D01*
X222208Y85221D01*
X222268Y85182D01*
X222323Y85135D01*
X222371Y85116D01*
X222415Y85088D01*
X222484Y85070D01*
X222551Y85043D01*
X222622Y85035D01*
X222653Y85027D01*
X222677Y85029D01*
X222718Y85025D01*
X223989Y85025D01*
X229511Y82737D01*
X233737Y78511D01*
X236025Y72989D01*
X236025Y67011D01*
X233737Y61489D01*
X229511Y57263D01*
X223989Y54975D01*
X218011Y54975D01*
X212489Y57263D01*
X208263Y61489D01*
X205975Y67011D01*
X205975Y72989D01*
X208263Y78511D01*
X212489Y82737D01*
X216022Y84201D01*
X216105Y84252D01*
X216191Y84298D01*
X216209Y84317D01*
X216231Y84330D01*
X216293Y84405D01*
X216360Y84476D01*
X216371Y84500D01*
X216388Y84520D01*
X216423Y84611D01*
X216464Y84699D01*
X216467Y84725D01*
X216476Y84749D01*
X216480Y84847D01*
X216491Y84943D01*
X216485Y84969D01*
X216487Y84995D01*
X216459Y85089D01*
X216439Y85184D01*
X216425Y85206D01*
X216418Y85231D01*
X216363Y85311D01*
X216313Y85395D01*
X216293Y85412D01*
X216278Y85433D01*
X216200Y85492D01*
X216126Y85555D01*
X216101Y85565D01*
X216080Y85580D01*
X215988Y85610D01*
X215897Y85647D01*
X215865Y85650D01*
X215847Y85656D01*
X215813Y85656D01*
X215731Y85665D01*
X176269Y85665D01*
X176173Y85650D01*
X176076Y85640D01*
X176052Y85630D01*
X176026Y85626D01*
X175941Y85580D01*
X175851Y85540D01*
X175832Y85523D01*
X175809Y85510D01*
X175742Y85440D01*
X175670Y85374D01*
X175658Y85351D01*
X175640Y85332D01*
X175599Y85244D01*
X175552Y85158D01*
X175547Y85133D01*
X175536Y85109D01*
X175525Y85012D01*
X175508Y84916D01*
X175512Y84890D01*
X175509Y84865D01*
X175530Y84769D01*
X175544Y84673D01*
X175556Y84650D01*
X175561Y84624D01*
X175611Y84541D01*
X175655Y84454D01*
X175674Y84435D01*
X175687Y84413D01*
X175761Y84350D01*
X175831Y84282D01*
X175860Y84266D01*
X175874Y84253D01*
X175905Y84241D01*
X175978Y84201D01*
X179511Y82737D01*
X183737Y78511D01*
X186025Y72989D01*
X186025Y67011D01*
X183737Y61489D01*
X179511Y57263D01*
X173989Y54975D01*
X168011Y54975D01*
X162489Y57263D01*
X158263Y61489D01*
X155975Y67011D01*
X155975Y72989D01*
X158263Y78511D01*
X162489Y82737D01*
X166022Y84201D01*
X166105Y84252D01*
X166191Y84298D01*
X166209Y84317D01*
X166231Y84330D01*
X166293Y84405D01*
X166360Y84476D01*
X166371Y84500D01*
X166388Y84520D01*
X166423Y84611D01*
X166464Y84699D01*
X166467Y84725D01*
X166476Y84749D01*
X166480Y84847D01*
X166491Y84943D01*
X166485Y84969D01*
X166487Y84995D01*
X166459Y85089D01*
X166439Y85184D01*
X166425Y85206D01*
X166418Y85231D01*
X166363Y85311D01*
X166313Y85395D01*
X166293Y85412D01*
X166278Y85433D01*
X166200Y85492D01*
X166126Y85555D01*
X166101Y85565D01*
X166080Y85580D01*
X165988Y85610D01*
X165897Y85647D01*
X165865Y85650D01*
X165847Y85656D01*
X165813Y85656D01*
X165731Y85665D01*
X121525Y85665D01*
X121435Y85651D01*
X121344Y85643D01*
X121314Y85631D01*
X121282Y85626D01*
X121202Y85583D01*
X121118Y85547D01*
X121086Y85521D01*
X121065Y85510D01*
X121043Y85487D01*
X120987Y85442D01*
X108210Y72665D01*
X71238Y72665D01*
X68889Y75014D01*
X68815Y75067D01*
X68746Y75127D01*
X68716Y75139D01*
X68690Y75158D01*
X68603Y75185D01*
X68518Y75219D01*
X68477Y75223D01*
X68455Y75230D01*
X68422Y75229D01*
X68351Y75237D01*
X12684Y75237D01*
X9237Y78684D01*
X9237Y96952D01*
X9235Y96965D01*
X9236Y96975D01*
X9235Y96981D01*
X9236Y96991D01*
X9214Y97093D01*
X9198Y97195D01*
X9188Y97212D01*
X9184Y97232D01*
X9131Y97321D01*
X9082Y97412D01*
X9068Y97426D01*
X9058Y97443D01*
X8979Y97510D01*
X8904Y97582D01*
X8886Y97590D01*
X8871Y97603D01*
X8775Y97642D01*
X8681Y97685D01*
X8661Y97687D01*
X8643Y97695D01*
X8476Y97713D01*
X3302Y97713D01*
X3282Y97710D01*
X3263Y97712D01*
X3161Y97690D01*
X3059Y97674D01*
X3042Y97664D01*
X3022Y97660D01*
X2933Y97607D01*
X2842Y97558D01*
X2828Y97544D01*
X2811Y97534D01*
X2744Y97455D01*
X2672Y97380D01*
X2664Y97362D01*
X2651Y97347D01*
X2612Y97251D01*
X2569Y97157D01*
X2567Y97137D01*
X2559Y97119D01*
X2541Y96952D01*
X2541Y3302D01*
X2544Y3282D01*
X2542Y3263D01*
X2564Y3161D01*
X2580Y3059D01*
X2590Y3042D01*
X2594Y3022D01*
X2647Y2933D01*
X2696Y2842D01*
X2710Y2828D01*
X2720Y2811D01*
X2799Y2744D01*
X2874Y2672D01*
X2892Y2664D01*
X2907Y2651D01*
X3003Y2612D01*
X3097Y2569D01*
X3117Y2567D01*
X3135Y2559D01*
X3302Y2541D01*
X266698Y2541D01*
X266718Y2544D01*
G37*
G36*
X2552Y126794D02*
X2552Y126794D01*
X2554Y126723D01*
X2572Y126674D01*
X2580Y126622D01*
X2614Y126559D01*
X2639Y126492D01*
X2671Y126451D01*
X2696Y126405D01*
X2748Y126355D01*
X2792Y126299D01*
X2836Y126271D01*
X2874Y126235D01*
X2939Y126205D01*
X2999Y126166D01*
X3050Y126154D01*
X3097Y126132D01*
X3168Y126124D01*
X3238Y126106D01*
X3290Y126110D01*
X3341Y126105D01*
X3412Y126120D01*
X3483Y126126D01*
X3531Y126146D01*
X3582Y126157D01*
X3643Y126194D01*
X3709Y126222D01*
X3765Y126267D01*
X3793Y126283D01*
X3808Y126301D01*
X3840Y126327D01*
X6612Y129099D01*
X10588Y129099D01*
X13399Y126288D01*
X13399Y122312D01*
X10588Y119501D01*
X6612Y119501D01*
X3840Y122273D01*
X3782Y122315D01*
X3730Y122365D01*
X3683Y122386D01*
X3641Y122417D01*
X3572Y122438D01*
X3507Y122468D01*
X3455Y122474D01*
X3405Y122489D01*
X3334Y122487D01*
X3263Y122495D01*
X3212Y122484D01*
X3160Y122483D01*
X3092Y122458D01*
X3022Y122443D01*
X2977Y122416D01*
X2929Y122398D01*
X2873Y122354D01*
X2811Y122317D01*
X2777Y122277D01*
X2737Y122245D01*
X2698Y122184D01*
X2651Y122130D01*
X2632Y122082D01*
X2604Y122038D01*
X2586Y121968D01*
X2559Y121902D01*
X2551Y121830D01*
X2543Y121799D01*
X2545Y121776D01*
X2541Y121735D01*
X2541Y100000D01*
X2544Y99980D01*
X2542Y99961D01*
X2564Y99859D01*
X2580Y99757D01*
X2590Y99740D01*
X2594Y99720D01*
X2647Y99631D01*
X2696Y99540D01*
X2710Y99526D01*
X2720Y99509D01*
X2799Y99442D01*
X2874Y99371D01*
X2892Y99362D01*
X2907Y99349D01*
X3003Y99310D01*
X3097Y99267D01*
X3117Y99265D01*
X3135Y99257D01*
X3302Y99239D01*
X8476Y99239D01*
X8496Y99242D01*
X8515Y99240D01*
X8617Y99262D01*
X8719Y99279D01*
X8736Y99288D01*
X8756Y99292D01*
X8845Y99345D01*
X8936Y99394D01*
X8950Y99408D01*
X8967Y99418D01*
X9034Y99497D01*
X9106Y99572D01*
X9114Y99590D01*
X9127Y99605D01*
X9166Y99701D01*
X9209Y99795D01*
X9211Y99815D01*
X9219Y99833D01*
X9237Y100000D01*
X9237Y101984D01*
X9236Y101991D01*
X9237Y102000D01*
X9231Y102309D01*
X9450Y102528D01*
X9453Y102534D01*
X9461Y102540D01*
X9675Y102763D01*
X9985Y102763D01*
X9991Y102764D01*
X10000Y102763D01*
X106371Y104750D01*
X106441Y104763D01*
X106984Y104763D01*
X106991Y104764D01*
X107000Y104763D01*
X107309Y104769D01*
X107528Y104550D01*
X107534Y104547D01*
X107540Y104539D01*
X107904Y104189D01*
X107914Y104172D01*
X107936Y104152D01*
X107973Y104106D01*
X112617Y99462D01*
X112691Y99409D01*
X112760Y99349D01*
X112791Y99337D01*
X112817Y99318D01*
X112904Y99291D01*
X112989Y99257D01*
X113029Y99253D01*
X113052Y99246D01*
X113084Y99247D01*
X113155Y99239D01*
X212000Y99239D01*
X212090Y99254D01*
X212181Y99261D01*
X212211Y99273D01*
X212243Y99279D01*
X212323Y99321D01*
X212407Y99357D01*
X212439Y99383D01*
X212460Y99394D01*
X212482Y99417D01*
X212538Y99462D01*
X238607Y125530D01*
X238618Y125546D01*
X238634Y125559D01*
X238690Y125646D01*
X238750Y125730D01*
X238756Y125749D01*
X238767Y125766D01*
X238792Y125866D01*
X238823Y125965D01*
X238822Y125985D01*
X238827Y126004D01*
X238819Y126107D01*
X238816Y126211D01*
X238809Y126230D01*
X238808Y126250D01*
X238768Y126344D01*
X238732Y126442D01*
X238719Y126458D01*
X238712Y126476D01*
X238607Y126607D01*
X238201Y127012D01*
X238201Y130988D01*
X241012Y133799D01*
X242000Y133799D01*
X242020Y133802D01*
X242039Y133800D01*
X242141Y133822D01*
X242243Y133838D01*
X242260Y133848D01*
X242280Y133852D01*
X242369Y133905D01*
X242460Y133954D01*
X242474Y133968D01*
X242491Y133978D01*
X242558Y134057D01*
X242630Y134132D01*
X242638Y134150D01*
X242651Y134165D01*
X242690Y134261D01*
X242733Y134355D01*
X242735Y134375D01*
X242743Y134393D01*
X242761Y134560D01*
X242761Y196000D01*
X242758Y196020D01*
X242760Y196039D01*
X242738Y196141D01*
X242722Y196243D01*
X242712Y196260D01*
X242708Y196280D01*
X242655Y196369D01*
X242606Y196460D01*
X242592Y196474D01*
X242582Y196491D01*
X242503Y196558D01*
X242428Y196630D01*
X242410Y196638D01*
X242395Y196651D01*
X242299Y196690D01*
X242205Y196733D01*
X242185Y196735D01*
X242167Y196743D01*
X242000Y196761D01*
X213310Y196761D01*
X213220Y196747D01*
X213129Y196739D01*
X213100Y196727D01*
X213068Y196722D01*
X212987Y196679D01*
X212903Y196643D01*
X212871Y196617D01*
X212850Y196606D01*
X212828Y196583D01*
X212772Y196538D01*
X185387Y169153D01*
X181471Y169153D01*
X181400Y169142D01*
X181328Y169140D01*
X181280Y169122D01*
X181228Y169114D01*
X181165Y169080D01*
X181097Y169055D01*
X181057Y169023D01*
X181011Y168998D01*
X180961Y168946D01*
X180905Y168902D01*
X180877Y168858D01*
X180841Y168820D01*
X180811Y168755D01*
X180772Y168695D01*
X180760Y168644D01*
X180738Y168597D01*
X180730Y168526D01*
X180712Y168456D01*
X180716Y168404D01*
X180711Y168353D01*
X180726Y168282D01*
X180732Y168211D01*
X180752Y168163D01*
X180763Y168112D01*
X180799Y168052D01*
X180799Y164012D01*
X179325Y162538D01*
X179313Y162522D01*
X179298Y162510D01*
X179241Y162422D01*
X179181Y162339D01*
X179175Y162320D01*
X179165Y162303D01*
X179139Y162202D01*
X179109Y162103D01*
X179109Y162084D01*
X179104Y162064D01*
X179112Y161961D01*
X179115Y161858D01*
X179122Y161839D01*
X179124Y161819D01*
X179164Y161724D01*
X179200Y161627D01*
X179212Y161611D01*
X179220Y161593D01*
X179325Y161462D01*
X180799Y159988D01*
X180799Y156012D01*
X179325Y154538D01*
X179313Y154522D01*
X179298Y154510D01*
X179241Y154422D01*
X179181Y154339D01*
X179175Y154320D01*
X179165Y154303D01*
X179139Y154202D01*
X179109Y154103D01*
X179109Y154084D01*
X179104Y154064D01*
X179112Y153961D01*
X179115Y153858D01*
X179122Y153839D01*
X179124Y153819D01*
X179164Y153724D01*
X179200Y153627D01*
X179212Y153611D01*
X179220Y153593D01*
X179325Y153462D01*
X180799Y151988D01*
X180799Y148012D01*
X177988Y145201D01*
X174012Y145201D01*
X172538Y146675D01*
X172522Y146687D01*
X172510Y146702D01*
X172422Y146759D01*
X172339Y146819D01*
X172320Y146825D01*
X172303Y146835D01*
X172202Y146861D01*
X172103Y146891D01*
X172084Y146891D01*
X172064Y146896D01*
X171961Y146888D01*
X171858Y146885D01*
X171839Y146878D01*
X171819Y146876D01*
X171724Y146836D01*
X171627Y146800D01*
X171611Y146788D01*
X171593Y146780D01*
X171462Y146675D01*
X169988Y145201D01*
X166012Y145201D01*
X164538Y146675D01*
X164522Y146687D01*
X164510Y146702D01*
X164422Y146759D01*
X164339Y146819D01*
X164320Y146825D01*
X164303Y146835D01*
X164202Y146861D01*
X164103Y146891D01*
X164084Y146891D01*
X164064Y146896D01*
X163961Y146888D01*
X163858Y146885D01*
X163839Y146878D01*
X163819Y146876D01*
X163724Y146836D01*
X163627Y146800D01*
X163611Y146788D01*
X163593Y146780D01*
X163462Y146675D01*
X161988Y145201D01*
X158012Y145201D01*
X156538Y146675D01*
X156522Y146687D01*
X156510Y146702D01*
X156422Y146759D01*
X156339Y146819D01*
X156320Y146825D01*
X156303Y146835D01*
X156202Y146861D01*
X156103Y146891D01*
X156084Y146891D01*
X156064Y146896D01*
X155961Y146888D01*
X155858Y146885D01*
X155839Y146878D01*
X155819Y146876D01*
X155724Y146836D01*
X155627Y146800D01*
X155611Y146788D01*
X155593Y146780D01*
X155462Y146675D01*
X153988Y145201D01*
X150012Y145201D01*
X147201Y148012D01*
X147201Y151988D01*
X148675Y153462D01*
X148687Y153478D01*
X148702Y153490D01*
X148759Y153578D01*
X148819Y153661D01*
X148825Y153680D01*
X148835Y153697D01*
X148861Y153798D01*
X148891Y153897D01*
X148891Y153916D01*
X148896Y153936D01*
X148888Y154039D01*
X148885Y154142D01*
X148878Y154161D01*
X148876Y154181D01*
X148836Y154276D01*
X148800Y154373D01*
X148788Y154389D01*
X148780Y154407D01*
X148675Y154538D01*
X147201Y156012D01*
X147201Y159988D01*
X148675Y161462D01*
X148687Y161478D01*
X148702Y161490D01*
X148759Y161578D01*
X148819Y161661D01*
X148825Y161680D01*
X148835Y161697D01*
X148861Y161798D01*
X148891Y161897D01*
X148891Y161916D01*
X148896Y161936D01*
X148888Y162039D01*
X148885Y162142D01*
X148878Y162161D01*
X148876Y162181D01*
X148836Y162276D01*
X148800Y162373D01*
X148788Y162389D01*
X148780Y162407D01*
X148675Y162538D01*
X147201Y164012D01*
X147201Y167988D01*
X148067Y168854D01*
X148109Y168912D01*
X148159Y168964D01*
X148180Y169011D01*
X148211Y169053D01*
X148232Y169122D01*
X148262Y169187D01*
X148268Y169239D01*
X148283Y169289D01*
X148281Y169360D01*
X148289Y169431D01*
X148278Y169482D01*
X148277Y169534D01*
X148252Y169602D01*
X148237Y169672D01*
X148210Y169717D01*
X148192Y169765D01*
X148148Y169821D01*
X148111Y169883D01*
X148071Y169917D01*
X148039Y169957D01*
X147978Y169996D01*
X147924Y170043D01*
X147876Y170062D01*
X147832Y170090D01*
X147762Y170108D01*
X147696Y170135D01*
X147624Y170143D01*
X147593Y170151D01*
X147570Y170149D01*
X147529Y170153D01*
X142486Y170153D01*
X142395Y170139D01*
X142305Y170131D01*
X142275Y170119D01*
X142243Y170114D01*
X142162Y170071D01*
X142078Y170035D01*
X142046Y170009D01*
X142025Y169998D01*
X142003Y169975D01*
X141947Y169930D01*
X140115Y168098D01*
X140073Y168040D01*
X140024Y167988D01*
X140002Y167941D01*
X139972Y167899D01*
X139951Y167830D01*
X139920Y167765D01*
X139915Y167713D01*
X139899Y167663D01*
X139901Y167592D01*
X139893Y167521D01*
X139904Y167470D01*
X139906Y167418D01*
X139930Y167350D01*
X139946Y167280D01*
X139972Y167235D01*
X139990Y167187D01*
X140035Y167131D01*
X140072Y167069D01*
X140111Y167035D01*
X140144Y166995D01*
X140204Y166956D01*
X140259Y166909D01*
X140307Y166890D01*
X140351Y166862D01*
X140420Y166844D01*
X140487Y166817D01*
X140558Y166809D01*
X140589Y166801D01*
X140613Y166803D01*
X140654Y166799D01*
X140790Y166799D01*
X143601Y163988D01*
X143601Y160012D01*
X140790Y157201D01*
X136814Y157201D01*
X134003Y160012D01*
X134003Y160952D01*
X134000Y160972D01*
X134002Y160991D01*
X133980Y161093D01*
X133964Y161195D01*
X133954Y161212D01*
X133950Y161232D01*
X133897Y161321D01*
X133848Y161412D01*
X133834Y161426D01*
X133824Y161443D01*
X133745Y161510D01*
X133670Y161582D01*
X133652Y161590D01*
X133637Y161603D01*
X133541Y161642D01*
X133447Y161685D01*
X133427Y161687D01*
X133409Y161695D01*
X133242Y161713D01*
X129855Y161713D01*
X128078Y163490D01*
X128004Y163543D01*
X127934Y163603D01*
X127904Y163615D01*
X127878Y163634D01*
X127791Y163661D01*
X127706Y163695D01*
X127665Y163699D01*
X127643Y163706D01*
X127611Y163705D01*
X127539Y163713D01*
X122053Y163713D01*
X116276Y169490D01*
X116202Y169543D01*
X116132Y169603D01*
X116102Y169615D01*
X116076Y169634D01*
X115989Y169661D01*
X115904Y169695D01*
X115863Y169699D01*
X115841Y169706D01*
X115809Y169705D01*
X115737Y169713D01*
X110911Y169713D01*
X110840Y169702D01*
X110769Y169700D01*
X110720Y169682D01*
X110668Y169674D01*
X110605Y169640D01*
X110537Y169615D01*
X110497Y169583D01*
X110451Y169558D01*
X110402Y169507D01*
X110345Y169462D01*
X110317Y169418D01*
X110281Y169380D01*
X110251Y169315D01*
X110212Y169255D01*
X110200Y169204D01*
X110178Y169157D01*
X110170Y169086D01*
X110152Y169016D01*
X110156Y168964D01*
X110151Y168913D01*
X110166Y168842D01*
X110172Y168771D01*
X110192Y168723D01*
X110203Y168672D01*
X110240Y168611D01*
X110268Y168545D01*
X110313Y168489D01*
X110329Y168461D01*
X110347Y168446D01*
X110373Y168414D01*
X110799Y167988D01*
X110799Y164012D01*
X109325Y162538D01*
X109313Y162522D01*
X109298Y162510D01*
X109241Y162422D01*
X109181Y162339D01*
X109175Y162320D01*
X109165Y162303D01*
X109139Y162202D01*
X109109Y162103D01*
X109109Y162084D01*
X109104Y162064D01*
X109112Y161961D01*
X109115Y161858D01*
X109122Y161839D01*
X109124Y161819D01*
X109164Y161724D01*
X109200Y161627D01*
X109212Y161611D01*
X109220Y161593D01*
X109325Y161462D01*
X110799Y159988D01*
X110799Y156012D01*
X109325Y154538D01*
X109313Y154522D01*
X109298Y154510D01*
X109241Y154422D01*
X109181Y154339D01*
X109175Y154320D01*
X109165Y154303D01*
X109139Y154202D01*
X109109Y154103D01*
X109109Y154084D01*
X109104Y154064D01*
X109112Y153961D01*
X109115Y153858D01*
X109122Y153839D01*
X109124Y153819D01*
X109164Y153724D01*
X109200Y153627D01*
X109212Y153611D01*
X109220Y153593D01*
X109325Y153462D01*
X110799Y151988D01*
X110799Y148012D01*
X107988Y145201D01*
X104012Y145201D01*
X102538Y146675D01*
X102522Y146687D01*
X102510Y146702D01*
X102422Y146759D01*
X102339Y146819D01*
X102320Y146825D01*
X102303Y146835D01*
X102202Y146861D01*
X102103Y146891D01*
X102084Y146891D01*
X102064Y146896D01*
X101961Y146888D01*
X101858Y146885D01*
X101839Y146878D01*
X101819Y146876D01*
X101724Y146836D01*
X101627Y146800D01*
X101611Y146788D01*
X101593Y146780D01*
X101462Y146675D01*
X99988Y145201D01*
X96012Y145201D01*
X94538Y146675D01*
X94522Y146687D01*
X94510Y146702D01*
X94422Y146759D01*
X94339Y146819D01*
X94320Y146825D01*
X94303Y146835D01*
X94202Y146861D01*
X94103Y146891D01*
X94084Y146891D01*
X94064Y146896D01*
X93961Y146888D01*
X93858Y146885D01*
X93839Y146878D01*
X93819Y146876D01*
X93724Y146836D01*
X93627Y146800D01*
X93611Y146788D01*
X93593Y146780D01*
X93462Y146675D01*
X91988Y145201D01*
X88012Y145201D01*
X86538Y146675D01*
X86522Y146687D01*
X86510Y146702D01*
X86422Y146759D01*
X86339Y146819D01*
X86320Y146825D01*
X86303Y146835D01*
X86202Y146861D01*
X86103Y146891D01*
X86084Y146891D01*
X86064Y146896D01*
X85961Y146888D01*
X85858Y146885D01*
X85839Y146878D01*
X85819Y146876D01*
X85724Y146836D01*
X85627Y146800D01*
X85611Y146788D01*
X85593Y146780D01*
X85462Y146675D01*
X83988Y145201D01*
X80012Y145201D01*
X77201Y148012D01*
X77201Y151988D01*
X78675Y153462D01*
X78687Y153478D01*
X78702Y153490D01*
X78759Y153578D01*
X78819Y153661D01*
X78825Y153680D01*
X78835Y153697D01*
X78861Y153798D01*
X78891Y153897D01*
X78891Y153916D01*
X78896Y153936D01*
X78888Y154039D01*
X78885Y154142D01*
X78878Y154161D01*
X78876Y154181D01*
X78836Y154276D01*
X78800Y154373D01*
X78788Y154389D01*
X78780Y154407D01*
X78675Y154538D01*
X77201Y156012D01*
X77201Y159988D01*
X78675Y161462D01*
X78687Y161478D01*
X78702Y161490D01*
X78759Y161578D01*
X78819Y161661D01*
X78825Y161680D01*
X78835Y161697D01*
X78861Y161798D01*
X78891Y161897D01*
X78891Y161916D01*
X78896Y161936D01*
X78888Y162039D01*
X78885Y162142D01*
X78878Y162161D01*
X78876Y162181D01*
X78836Y162276D01*
X78800Y162373D01*
X78788Y162389D01*
X78780Y162407D01*
X78675Y162538D01*
X77201Y164012D01*
X77201Y166179D01*
X77190Y166250D01*
X77188Y166322D01*
X77170Y166370D01*
X77162Y166422D01*
X77128Y166485D01*
X77103Y166553D01*
X77071Y166593D01*
X77046Y166639D01*
X76994Y166689D01*
X76950Y166745D01*
X76906Y166773D01*
X76868Y166809D01*
X76803Y166839D01*
X76743Y166878D01*
X76692Y166890D01*
X76645Y166912D01*
X76574Y166920D01*
X76504Y166938D01*
X76452Y166934D01*
X76401Y166939D01*
X76330Y166924D01*
X76259Y166918D01*
X76211Y166898D01*
X76160Y166887D01*
X76099Y166850D01*
X76033Y166822D01*
X76009Y166803D01*
X72012Y166803D01*
X70538Y168277D01*
X69201Y169614D01*
X69201Y173590D01*
X70538Y174927D01*
X70591Y175001D01*
X70651Y175070D01*
X70663Y175100D01*
X70682Y175126D01*
X70709Y175213D01*
X70743Y175298D01*
X70747Y175339D01*
X70754Y175362D01*
X70753Y175394D01*
X70761Y175465D01*
X70761Y199566D01*
X70758Y199586D01*
X70760Y199605D01*
X70738Y199707D01*
X70722Y199809D01*
X70712Y199826D01*
X70708Y199846D01*
X70655Y199935D01*
X70606Y200026D01*
X70592Y200040D01*
X70582Y200057D01*
X70503Y200124D01*
X70428Y200196D01*
X70410Y200204D01*
X70395Y200217D01*
X70299Y200256D01*
X70205Y200299D01*
X70185Y200301D01*
X70167Y200309D01*
X70000Y200327D01*
X69312Y200327D01*
X66501Y203138D01*
X66501Y207114D01*
X69312Y209925D01*
X69314Y209925D01*
X69385Y209936D01*
X69456Y209938D01*
X69505Y209956D01*
X69557Y209964D01*
X69620Y209998D01*
X69687Y210023D01*
X69728Y210055D01*
X69774Y210080D01*
X69823Y210131D01*
X69879Y210176D01*
X69908Y210220D01*
X69944Y210258D01*
X69974Y210323D01*
X70012Y210383D01*
X70025Y210434D01*
X70047Y210481D01*
X70055Y210552D01*
X70073Y210622D01*
X70068Y210674D01*
X70074Y210725D01*
X70059Y210796D01*
X70053Y210867D01*
X70033Y210915D01*
X70022Y210966D01*
X69985Y211027D01*
X69957Y211093D01*
X69912Y211149D01*
X69896Y211177D01*
X69878Y211192D01*
X69852Y211224D01*
X57761Y223315D01*
X57761Y243108D01*
X57747Y243198D01*
X57739Y243289D01*
X57727Y243318D01*
X57722Y243350D01*
X57679Y243431D01*
X57643Y243515D01*
X57617Y243547D01*
X57606Y243568D01*
X57583Y243590D01*
X57538Y243646D01*
X57244Y243940D01*
X57244Y247916D01*
X57538Y248210D01*
X57592Y248284D01*
X57651Y248353D01*
X57663Y248384D01*
X57682Y248410D01*
X57709Y248497D01*
X57743Y248582D01*
X57747Y248623D01*
X57754Y248645D01*
X57753Y248677D01*
X57761Y248748D01*
X57761Y251639D01*
X57747Y251729D01*
X57739Y251820D01*
X57727Y251850D01*
X57722Y251882D01*
X57703Y251916D01*
X57703Y256092D01*
X57709Y256109D01*
X57743Y256194D01*
X57747Y256235D01*
X57754Y256257D01*
X57753Y256289D01*
X57761Y256361D01*
X57761Y258574D01*
X57747Y258664D01*
X57739Y258755D01*
X57727Y258785D01*
X57722Y258817D01*
X57679Y258897D01*
X57643Y258981D01*
X57617Y259013D01*
X57606Y259034D01*
X57583Y259056D01*
X57538Y259112D01*
X56566Y260084D01*
X56566Y264060D01*
X57538Y265032D01*
X57591Y265106D01*
X57651Y265175D01*
X57663Y265205D01*
X57682Y265231D01*
X57709Y265319D01*
X57743Y265403D01*
X57747Y265444D01*
X57754Y265467D01*
X57753Y265499D01*
X57761Y265570D01*
X57761Y303535D01*
X57747Y303625D01*
X57739Y303716D01*
X57727Y303746D01*
X57722Y303778D01*
X57679Y303858D01*
X57643Y303942D01*
X57617Y303975D01*
X57606Y303995D01*
X57583Y304017D01*
X57538Y304073D01*
X56201Y305410D01*
X56201Y309386D01*
X57538Y310723D01*
X57591Y310797D01*
X57651Y310866D01*
X57663Y310896D01*
X57682Y310922D01*
X57709Y311009D01*
X57743Y311094D01*
X57747Y311135D01*
X57754Y311158D01*
X57753Y311190D01*
X57761Y311261D01*
X57761Y312607D01*
X57747Y312697D01*
X57739Y312788D01*
X57727Y312818D01*
X57722Y312850D01*
X57679Y312930D01*
X57643Y313014D01*
X57617Y313047D01*
X57606Y313067D01*
X57583Y313089D01*
X57538Y313145D01*
X57201Y313482D01*
X57201Y317458D01*
X57538Y317795D01*
X57592Y317869D01*
X57651Y317938D01*
X57663Y317968D01*
X57682Y317994D01*
X57709Y318081D01*
X57743Y318166D01*
X57747Y318207D01*
X57754Y318230D01*
X57753Y318262D01*
X57761Y318333D01*
X57761Y446698D01*
X57758Y446718D01*
X57760Y446737D01*
X57738Y446839D01*
X57721Y446941D01*
X57712Y446958D01*
X57708Y446978D01*
X57655Y447067D01*
X57606Y447158D01*
X57592Y447172D01*
X57582Y447189D01*
X57503Y447256D01*
X57428Y447328D01*
X57410Y447336D01*
X57395Y447349D01*
X57299Y447388D01*
X57205Y447431D01*
X57185Y447433D01*
X57167Y447441D01*
X57000Y447459D01*
X3302Y447459D01*
X3282Y447456D01*
X3263Y447458D01*
X3161Y447436D01*
X3059Y447420D01*
X3042Y447410D01*
X3022Y447406D01*
X2933Y447353D01*
X2842Y447304D01*
X2828Y447290D01*
X2811Y447280D01*
X2744Y447201D01*
X2672Y447126D01*
X2664Y447108D01*
X2651Y447093D01*
X2612Y446997D01*
X2569Y446903D01*
X2567Y446883D01*
X2559Y446865D01*
X2541Y446698D01*
X2541Y126865D01*
X2552Y126794D01*
G37*
G36*
X120287Y174254D02*
X120287Y174254D01*
X120378Y174261D01*
X120408Y174273D01*
X120440Y174279D01*
X120520Y174321D01*
X120604Y174357D01*
X120636Y174383D01*
X120657Y174394D01*
X120679Y174417D01*
X120735Y174462D01*
X123632Y177359D01*
X127608Y177359D01*
X129012Y175955D01*
X129028Y175943D01*
X129040Y175928D01*
X129121Y175876D01*
X129126Y175872D01*
X129129Y175870D01*
X129211Y175811D01*
X129230Y175805D01*
X129247Y175795D01*
X129348Y175769D01*
X129447Y175739D01*
X129466Y175739D01*
X129486Y175734D01*
X129589Y175742D01*
X129692Y175745D01*
X129711Y175752D01*
X129731Y175754D01*
X129826Y175794D01*
X129923Y175830D01*
X129939Y175842D01*
X129957Y175850D01*
X130088Y175955D01*
X132032Y177899D01*
X136008Y177899D01*
X138823Y175084D01*
X138830Y175037D01*
X138832Y174965D01*
X138850Y174916D01*
X138858Y174865D01*
X138892Y174801D01*
X138917Y174734D01*
X138949Y174693D01*
X138974Y174647D01*
X139025Y174598D01*
X139070Y174542D01*
X139114Y174514D01*
X139152Y174478D01*
X139217Y174448D01*
X139277Y174409D01*
X139328Y174396D01*
X139375Y174374D01*
X139446Y174366D01*
X139516Y174349D01*
X139568Y174353D01*
X139619Y174347D01*
X139690Y174362D01*
X139761Y174368D01*
X139809Y174388D01*
X139860Y174399D01*
X139921Y174436D01*
X139987Y174464D01*
X140043Y174509D01*
X140071Y174526D01*
X140086Y174543D01*
X140118Y174569D01*
X140276Y174727D01*
X179947Y174727D01*
X180212Y174462D01*
X180286Y174409D01*
X180356Y174349D01*
X180386Y174337D01*
X180412Y174318D01*
X180499Y174291D01*
X180584Y174257D01*
X180625Y174253D01*
X180647Y174246D01*
X180679Y174247D01*
X180750Y174239D01*
X183690Y174239D01*
X183780Y174254D01*
X183871Y174261D01*
X183900Y174273D01*
X183932Y174279D01*
X184013Y174321D01*
X184097Y174357D01*
X184129Y174383D01*
X184150Y174394D01*
X184172Y174417D01*
X184228Y174462D01*
X185538Y175772D01*
X185591Y175846D01*
X185651Y175916D01*
X185663Y175946D01*
X185682Y175972D01*
X185709Y176059D01*
X185743Y176144D01*
X185747Y176185D01*
X185754Y176207D01*
X185753Y176239D01*
X185761Y176310D01*
X185761Y200000D01*
X185747Y200090D01*
X185739Y200181D01*
X185727Y200211D01*
X185722Y200243D01*
X185679Y200323D01*
X185643Y200407D01*
X185617Y200439D01*
X185606Y200460D01*
X185583Y200482D01*
X185538Y200538D01*
X167586Y218490D01*
X167512Y218543D01*
X167443Y218603D01*
X167413Y218615D01*
X167387Y218634D01*
X167300Y218661D01*
X167215Y218695D01*
X167174Y218699D01*
X167151Y218706D01*
X167119Y218705D01*
X167048Y218713D01*
X110952Y218713D01*
X110862Y218699D01*
X110771Y218691D01*
X110741Y218679D01*
X110709Y218674D01*
X110629Y218631D01*
X110545Y218595D01*
X110513Y218569D01*
X110492Y218558D01*
X110470Y218535D01*
X110414Y218490D01*
X107620Y215696D01*
X107567Y215622D01*
X107507Y215553D01*
X107495Y215523D01*
X107476Y215496D01*
X107449Y215410D01*
X107415Y215325D01*
X107411Y215284D01*
X107404Y215261D01*
X107405Y215229D01*
X107397Y215158D01*
X107397Y212614D01*
X104586Y209803D01*
X102042Y209803D01*
X101952Y209789D01*
X101861Y209781D01*
X101831Y209769D01*
X101799Y209764D01*
X101719Y209721D01*
X101635Y209685D01*
X101603Y209659D01*
X101582Y209648D01*
X101560Y209625D01*
X101504Y209580D01*
X94510Y202586D01*
X94457Y202512D01*
X94397Y202443D01*
X94385Y202413D01*
X94366Y202387D01*
X94339Y202300D01*
X94305Y202215D01*
X94301Y202174D01*
X94294Y202151D01*
X94295Y202119D01*
X94287Y202053D01*
X87462Y195228D01*
X87409Y195154D01*
X87349Y195084D01*
X87337Y195054D01*
X87318Y195028D01*
X87291Y194941D01*
X87257Y194856D01*
X87253Y194815D01*
X87246Y194793D01*
X87247Y194761D01*
X87239Y194690D01*
X87239Y175048D01*
X87242Y175028D01*
X87240Y175009D01*
X87262Y174907D01*
X87279Y174805D01*
X87288Y174788D01*
X87292Y174768D01*
X87345Y174679D01*
X87394Y174588D01*
X87408Y174574D01*
X87418Y174557D01*
X87497Y174490D01*
X87572Y174418D01*
X87590Y174410D01*
X87605Y174397D01*
X87701Y174358D01*
X87795Y174315D01*
X87815Y174313D01*
X87833Y174305D01*
X88000Y174287D01*
X118071Y174287D01*
X118144Y174257D01*
X118185Y174253D01*
X118207Y174246D01*
X118239Y174247D01*
X118310Y174239D01*
X120197Y174239D01*
X120287Y174254D01*
G37*
G36*
X248670Y128125D02*
X248670Y128125D01*
X248741Y128131D01*
X248789Y128151D01*
X248840Y128162D01*
X248901Y128199D01*
X248967Y128227D01*
X249023Y128272D01*
X249051Y128289D01*
X249066Y128306D01*
X249098Y128332D01*
X253050Y132284D01*
X253103Y132358D01*
X253163Y132428D01*
X253175Y132458D01*
X253194Y132484D01*
X253221Y132571D01*
X253255Y132656D01*
X253259Y132697D01*
X253266Y132719D01*
X253265Y132751D01*
X253273Y132823D01*
X253273Y247149D01*
X253262Y247220D01*
X253260Y247292D01*
X253242Y247341D01*
X253234Y247392D01*
X253200Y247455D01*
X253175Y247523D01*
X253143Y247563D01*
X253118Y247609D01*
X253067Y247658D01*
X253022Y247715D01*
X252978Y247743D01*
X252940Y247779D01*
X252875Y247809D01*
X252815Y247848D01*
X252764Y247860D01*
X252717Y247882D01*
X252646Y247890D01*
X252576Y247908D01*
X252524Y247904D01*
X252473Y247909D01*
X252402Y247894D01*
X252331Y247888D01*
X252283Y247868D01*
X252232Y247857D01*
X252171Y247820D01*
X252105Y247792D01*
X252049Y247747D01*
X252021Y247731D01*
X252006Y247713D01*
X251991Y247701D01*
X248012Y247701D01*
X247586Y248127D01*
X247528Y248169D01*
X247476Y248219D01*
X247429Y248240D01*
X247387Y248271D01*
X247318Y248292D01*
X247253Y248322D01*
X247201Y248328D01*
X247151Y248343D01*
X247080Y248341D01*
X247009Y248349D01*
X246958Y248338D01*
X246906Y248337D01*
X246838Y248312D01*
X246768Y248297D01*
X246723Y248270D01*
X246675Y248252D01*
X246619Y248208D01*
X246557Y248171D01*
X246523Y248131D01*
X246483Y248099D01*
X246444Y248038D01*
X246397Y247984D01*
X246378Y247936D01*
X246350Y247892D01*
X246332Y247822D01*
X246305Y247756D01*
X246297Y247684D01*
X246289Y247653D01*
X246291Y247630D01*
X246287Y247589D01*
X246287Y242053D01*
X228507Y224273D01*
X219851Y224273D01*
X219780Y224262D01*
X219708Y224260D01*
X219659Y224242D01*
X219608Y224234D01*
X219545Y224200D01*
X219477Y224175D01*
X219437Y224143D01*
X219391Y224118D01*
X219342Y224067D01*
X219285Y224022D01*
X219257Y223978D01*
X219221Y223940D01*
X219191Y223875D01*
X219152Y223815D01*
X219140Y223764D01*
X219118Y223717D01*
X219110Y223646D01*
X219092Y223576D01*
X219096Y223524D01*
X219091Y223473D01*
X219106Y223402D01*
X219112Y223331D01*
X219132Y223283D01*
X219143Y223232D01*
X219180Y223171D01*
X219208Y223105D01*
X219253Y223049D01*
X219269Y223021D01*
X219287Y223006D01*
X219299Y222991D01*
X219299Y219012D01*
X217010Y216723D01*
X216957Y216649D01*
X216897Y216580D01*
X216885Y216550D01*
X216866Y216524D01*
X216839Y216436D01*
X216805Y216352D01*
X216801Y216311D01*
X216794Y216288D01*
X216795Y216256D01*
X216787Y216185D01*
X216787Y200553D01*
X215820Y199586D01*
X215778Y199528D01*
X215729Y199476D01*
X215707Y199429D01*
X215677Y199387D01*
X215656Y199318D01*
X215625Y199253D01*
X215620Y199201D01*
X215604Y199151D01*
X215606Y199080D01*
X215598Y199009D01*
X215609Y198958D01*
X215611Y198906D01*
X215635Y198838D01*
X215650Y198768D01*
X215677Y198723D01*
X215695Y198675D01*
X215740Y198619D01*
X215777Y198557D01*
X215816Y198523D01*
X215849Y198483D01*
X215909Y198444D01*
X215964Y198397D01*
X216012Y198378D01*
X216056Y198350D01*
X216125Y198332D01*
X216192Y198305D01*
X216263Y198297D01*
X216294Y198289D01*
X216318Y198291D01*
X216358Y198287D01*
X242947Y198287D01*
X244287Y196947D01*
X244287Y134560D01*
X244290Y134540D01*
X244288Y134521D01*
X244310Y134419D01*
X244326Y134317D01*
X244336Y134300D01*
X244340Y134280D01*
X244393Y134191D01*
X244442Y134100D01*
X244456Y134086D01*
X244466Y134069D01*
X244545Y134002D01*
X244620Y133930D01*
X244638Y133922D01*
X244653Y133909D01*
X244749Y133870D01*
X244843Y133827D01*
X244863Y133825D01*
X244881Y133817D01*
X244980Y133806D01*
X247799Y130988D01*
X247799Y128870D01*
X247810Y128800D01*
X247812Y128728D01*
X247830Y128679D01*
X247838Y128628D01*
X247872Y128564D01*
X247897Y128497D01*
X247929Y128456D01*
X247954Y128410D01*
X248006Y128361D01*
X248050Y128305D01*
X248094Y128277D01*
X248132Y128241D01*
X248197Y128211D01*
X248257Y128172D01*
X248308Y128159D01*
X248355Y128137D01*
X248426Y128129D01*
X248496Y128112D01*
X248548Y128116D01*
X248599Y128110D01*
X248670Y128125D01*
G37*
%LPC*%
G36*
X59024Y9065D02*
X59024Y9065D01*
X52955Y11579D01*
X48311Y16223D01*
X45797Y22292D01*
X45797Y28860D01*
X48311Y34929D01*
X52955Y39573D01*
X59024Y42087D01*
X65592Y42087D01*
X71661Y39573D01*
X76305Y34929D01*
X78819Y28860D01*
X78819Y22292D01*
X76305Y16223D01*
X71661Y11579D01*
X65592Y9065D01*
X59024Y9065D01*
G37*
%LPD*%
G36*
X188158Y178613D02*
X188158Y178613D01*
X188229Y178619D01*
X188277Y178639D01*
X188328Y178650D01*
X188389Y178687D01*
X188455Y178715D01*
X188511Y178760D01*
X188539Y178777D01*
X188554Y178794D01*
X188586Y178820D01*
X211990Y202224D01*
X212034Y202285D01*
X212069Y202321D01*
X212075Y202335D01*
X212103Y202368D01*
X212115Y202398D01*
X212134Y202424D01*
X212161Y202511D01*
X212195Y202596D01*
X212199Y202637D01*
X212206Y202659D01*
X212205Y202691D01*
X212213Y202763D01*
X212213Y216185D01*
X212199Y216275D01*
X212191Y216366D01*
X212179Y216396D01*
X212174Y216428D01*
X212131Y216508D01*
X212095Y216592D01*
X212069Y216625D01*
X212058Y216645D01*
X212035Y216667D01*
X211990Y216723D01*
X209701Y219012D01*
X209701Y222993D01*
X209729Y223032D01*
X209779Y223084D01*
X209800Y223131D01*
X209831Y223173D01*
X209852Y223242D01*
X209882Y223307D01*
X209888Y223359D01*
X209903Y223408D01*
X209901Y223480D01*
X209909Y223551D01*
X209898Y223602D01*
X209897Y223654D01*
X209872Y223722D01*
X209857Y223792D01*
X209830Y223837D01*
X209812Y223885D01*
X209768Y223941D01*
X209731Y224003D01*
X209691Y224037D01*
X209659Y224077D01*
X209598Y224116D01*
X209544Y224163D01*
X209496Y224182D01*
X209452Y224210D01*
X209382Y224228D01*
X209316Y224255D01*
X209245Y224263D01*
X209213Y224271D01*
X209190Y224269D01*
X209149Y224273D01*
X202351Y224273D01*
X202280Y224262D01*
X202209Y224260D01*
X202160Y224242D01*
X202108Y224234D01*
X202045Y224200D01*
X201978Y224175D01*
X201937Y224143D01*
X201891Y224118D01*
X201841Y224066D01*
X201785Y224022D01*
X201757Y223978D01*
X201721Y223940D01*
X201691Y223875D01*
X201652Y223815D01*
X201640Y223764D01*
X201618Y223717D01*
X201610Y223646D01*
X201592Y223576D01*
X201596Y223524D01*
X201591Y223473D01*
X201606Y223402D01*
X201612Y223331D01*
X201632Y223283D01*
X201643Y223232D01*
X201680Y223171D01*
X201708Y223105D01*
X201753Y223049D01*
X201769Y223021D01*
X201787Y223006D01*
X201813Y222974D01*
X204799Y219988D01*
X204799Y216012D01*
X201988Y213201D01*
X198012Y213201D01*
X195201Y216012D01*
X195201Y219988D01*
X198187Y222974D01*
X198229Y223032D01*
X198279Y223084D01*
X198300Y223131D01*
X198331Y223173D01*
X198352Y223242D01*
X198382Y223307D01*
X198388Y223359D01*
X198403Y223409D01*
X198401Y223480D01*
X198409Y223551D01*
X198398Y223602D01*
X198397Y223654D01*
X198372Y223722D01*
X198357Y223792D01*
X198330Y223837D01*
X198312Y223885D01*
X198268Y223941D01*
X198231Y224003D01*
X198191Y224037D01*
X198159Y224077D01*
X198098Y224116D01*
X198044Y224163D01*
X197996Y224182D01*
X197952Y224210D01*
X197882Y224228D01*
X197816Y224255D01*
X197744Y224263D01*
X197713Y224271D01*
X197690Y224269D01*
X197649Y224273D01*
X186959Y224273D01*
X186870Y224259D01*
X186778Y224251D01*
X186749Y224239D01*
X186717Y224234D01*
X186636Y224191D01*
X186552Y224155D01*
X186520Y224129D01*
X186499Y224118D01*
X186477Y224095D01*
X186421Y224050D01*
X185469Y223098D01*
X185427Y223040D01*
X185378Y222988D01*
X185356Y222941D01*
X185326Y222899D01*
X185304Y222830D01*
X185274Y222765D01*
X185269Y222713D01*
X185253Y222663D01*
X185255Y222592D01*
X185247Y222521D01*
X185258Y222470D01*
X185260Y222418D01*
X185284Y222350D01*
X185299Y222280D01*
X185326Y222235D01*
X185344Y222187D01*
X185389Y222131D01*
X185426Y222069D01*
X185465Y222035D01*
X185498Y221995D01*
X185558Y221956D01*
X185613Y221909D01*
X185661Y221890D01*
X185705Y221862D01*
X185774Y221844D01*
X185841Y221817D01*
X185912Y221809D01*
X185943Y221801D01*
X185966Y221803D01*
X186007Y221799D01*
X186988Y221799D01*
X189799Y218988D01*
X189799Y215012D01*
X186988Y212201D01*
X183012Y212201D01*
X180201Y215012D01*
X180201Y217952D01*
X180198Y217972D01*
X180200Y217991D01*
X180178Y218093D01*
X180162Y218195D01*
X180152Y218212D01*
X180148Y218232D01*
X180095Y218321D01*
X180046Y218412D01*
X180032Y218426D01*
X180022Y218443D01*
X179943Y218510D01*
X179868Y218582D01*
X179850Y218590D01*
X179835Y218603D01*
X179739Y218642D01*
X179645Y218685D01*
X179625Y218687D01*
X179607Y218695D01*
X179440Y218713D01*
X171358Y218713D01*
X171288Y218702D01*
X171216Y218700D01*
X171167Y218682D01*
X171116Y218674D01*
X171052Y218640D01*
X170985Y218615D01*
X170944Y218583D01*
X170898Y218558D01*
X170849Y218506D01*
X170793Y218462D01*
X170765Y218418D01*
X170729Y218380D01*
X170699Y218315D01*
X170660Y218255D01*
X170647Y218204D01*
X170625Y218157D01*
X170617Y218086D01*
X170600Y218016D01*
X170604Y217964D01*
X170598Y217913D01*
X170613Y217842D01*
X170619Y217771D01*
X170639Y217723D01*
X170650Y217672D01*
X170687Y217611D01*
X170715Y217545D01*
X170760Y217489D01*
X170777Y217461D01*
X170794Y217446D01*
X170820Y217414D01*
X187287Y200947D01*
X187287Y179358D01*
X187298Y179288D01*
X187300Y179216D01*
X187318Y179167D01*
X187326Y179116D01*
X187360Y179052D01*
X187385Y178985D01*
X187417Y178944D01*
X187442Y178898D01*
X187494Y178849D01*
X187538Y178793D01*
X187582Y178765D01*
X187620Y178729D01*
X187685Y178699D01*
X187745Y178660D01*
X187796Y178647D01*
X187843Y178625D01*
X187914Y178617D01*
X187984Y178600D01*
X188036Y178604D01*
X188087Y178598D01*
X188158Y178613D01*
G37*
%LPC*%
G36*
X139056Y10225D02*
X139056Y10225D01*
X135463Y11713D01*
X132713Y14463D01*
X131225Y18056D01*
X131225Y21944D01*
X132713Y25537D01*
X135463Y28287D01*
X139056Y29775D01*
X142944Y29775D01*
X146537Y28287D01*
X149287Y25537D01*
X150775Y21944D01*
X150775Y18056D01*
X149287Y14463D01*
X146537Y11713D01*
X142944Y10225D01*
X139056Y10225D01*
G37*
%LPD*%
%LPC*%
G36*
X249056Y10225D02*
X249056Y10225D01*
X245463Y11713D01*
X242713Y14463D01*
X241225Y18056D01*
X241225Y21944D01*
X242713Y25537D01*
X245463Y28287D01*
X249056Y29775D01*
X252944Y29775D01*
X256537Y28287D01*
X259287Y25537D01*
X260775Y21944D01*
X260775Y18056D01*
X259287Y14463D01*
X256537Y11713D01*
X252944Y10225D01*
X249056Y10225D01*
G37*
%LPD*%
%LPC*%
G36*
X214012Y114201D02*
X214012Y114201D01*
X211201Y117012D01*
X211201Y119940D01*
X211198Y119960D01*
X211200Y119979D01*
X211178Y120081D01*
X211162Y120183D01*
X211152Y120200D01*
X211148Y120220D01*
X211095Y120309D01*
X211046Y120400D01*
X211032Y120414D01*
X211022Y120431D01*
X210943Y120498D01*
X210868Y120570D01*
X210850Y120578D01*
X210835Y120591D01*
X210739Y120630D01*
X210645Y120673D01*
X210625Y120675D01*
X210607Y120683D01*
X210521Y120692D01*
X207701Y123512D01*
X207701Y127488D01*
X210512Y130299D01*
X214488Y130299D01*
X215712Y129075D01*
X215728Y129063D01*
X215740Y129048D01*
X215828Y128991D01*
X215911Y128931D01*
X215930Y128925D01*
X215947Y128915D01*
X216048Y128889D01*
X216147Y128859D01*
X216166Y128859D01*
X216186Y128854D01*
X216289Y128862D01*
X216392Y128865D01*
X216411Y128872D01*
X216431Y128874D01*
X216526Y128914D01*
X216623Y128950D01*
X216639Y128962D01*
X216657Y128970D01*
X216788Y129075D01*
X218012Y130299D01*
X221988Y130299D01*
X224902Y127385D01*
X224960Y127343D01*
X225012Y127293D01*
X225059Y127272D01*
X225101Y127241D01*
X225170Y127220D01*
X225235Y127190D01*
X225287Y127184D01*
X225337Y127169D01*
X225408Y127171D01*
X225479Y127163D01*
X225530Y127174D01*
X225582Y127175D01*
X225650Y127200D01*
X225720Y127215D01*
X225765Y127242D01*
X225813Y127260D01*
X225869Y127304D01*
X225931Y127341D01*
X225965Y127381D01*
X226005Y127413D01*
X226044Y127474D01*
X226091Y127528D01*
X226110Y127576D01*
X226138Y127620D01*
X226156Y127690D01*
X226183Y127756D01*
X226191Y127828D01*
X226199Y127859D01*
X226197Y127882D01*
X226201Y127923D01*
X226201Y128988D01*
X229012Y131799D01*
X232988Y131799D01*
X235799Y128988D01*
X235799Y125012D01*
X232988Y122201D01*
X229012Y122201D01*
X226098Y125115D01*
X226040Y125157D01*
X225988Y125207D01*
X225941Y125228D01*
X225899Y125259D01*
X225830Y125280D01*
X225765Y125310D01*
X225713Y125316D01*
X225663Y125331D01*
X225592Y125329D01*
X225521Y125337D01*
X225470Y125326D01*
X225418Y125325D01*
X225350Y125300D01*
X225280Y125285D01*
X225235Y125258D01*
X225187Y125240D01*
X225131Y125196D01*
X225069Y125159D01*
X225035Y125119D01*
X224995Y125087D01*
X224956Y125026D01*
X224909Y124972D01*
X224890Y124924D01*
X224862Y124880D01*
X224844Y124810D01*
X224817Y124744D01*
X224809Y124672D01*
X224801Y124641D01*
X224803Y124618D01*
X224799Y124577D01*
X224799Y123512D01*
X221988Y120701D01*
X221560Y120701D01*
X221540Y120698D01*
X221521Y120700D01*
X221419Y120678D01*
X221317Y120662D01*
X221300Y120652D01*
X221280Y120648D01*
X221191Y120595D01*
X221100Y120546D01*
X221086Y120532D01*
X221069Y120522D01*
X221002Y120443D01*
X220930Y120368D01*
X220922Y120350D01*
X220909Y120335D01*
X220870Y120239D01*
X220827Y120145D01*
X220825Y120125D01*
X220817Y120107D01*
X220799Y119940D01*
X220799Y117012D01*
X217988Y114201D01*
X214012Y114201D01*
G37*
%LPD*%
%LPC*%
G36*
X221512Y262701D02*
X221512Y262701D01*
X218701Y265512D01*
X218701Y269515D01*
X218716Y269547D01*
X218746Y269589D01*
X218768Y269658D01*
X218798Y269723D01*
X218803Y269774D01*
X218819Y269824D01*
X218817Y269896D01*
X218825Y269967D01*
X218814Y270018D01*
X218812Y270070D01*
X218788Y270137D01*
X218773Y270207D01*
X218746Y270252D01*
X218728Y270301D01*
X218683Y270357D01*
X218646Y270419D01*
X218607Y270452D01*
X218574Y270493D01*
X218514Y270532D01*
X218459Y270578D01*
X218411Y270598D01*
X218367Y270626D01*
X218298Y270644D01*
X218231Y270670D01*
X218160Y270678D01*
X218129Y270686D01*
X218106Y270684D01*
X218065Y270689D01*
X215560Y270689D01*
X215540Y270686D01*
X215521Y270688D01*
X215419Y270666D01*
X215317Y270649D01*
X215300Y270640D01*
X215280Y270636D01*
X215191Y270582D01*
X215100Y270534D01*
X215086Y270520D01*
X215069Y270509D01*
X215002Y270431D01*
X214930Y270356D01*
X214922Y270338D01*
X214909Y270322D01*
X214870Y270226D01*
X214827Y270133D01*
X214825Y270113D01*
X214817Y270094D01*
X214799Y269928D01*
X214799Y268012D01*
X211988Y265201D01*
X208012Y265201D01*
X205201Y268012D01*
X205201Y271988D01*
X208012Y274799D01*
X210368Y274799D01*
X210388Y274802D01*
X210407Y274800D01*
X210509Y274822D01*
X210611Y274838D01*
X210628Y274848D01*
X210648Y274852D01*
X210737Y274905D01*
X210828Y274954D01*
X210842Y274968D01*
X210859Y274978D01*
X210926Y275057D01*
X210998Y275132D01*
X211006Y275150D01*
X211019Y275165D01*
X211058Y275261D01*
X211101Y275355D01*
X211103Y275375D01*
X211111Y275393D01*
X211129Y275560D01*
X211129Y277475D01*
X213940Y280286D01*
X217916Y280286D01*
X220727Y277475D01*
X220727Y273473D01*
X220712Y273441D01*
X220682Y273399D01*
X220660Y273330D01*
X220630Y273265D01*
X220625Y273213D01*
X220609Y273164D01*
X220611Y273092D01*
X220603Y273021D01*
X220614Y272970D01*
X220616Y272918D01*
X220640Y272850D01*
X220655Y272780D01*
X220682Y272735D01*
X220700Y272687D01*
X220745Y272631D01*
X220782Y272569D01*
X220821Y272535D01*
X220854Y272495D01*
X220914Y272456D01*
X220969Y272409D01*
X221017Y272390D01*
X221061Y272362D01*
X221130Y272344D01*
X221197Y272317D01*
X221268Y272309D01*
X221299Y272301D01*
X221322Y272303D01*
X221363Y272299D01*
X225488Y272299D01*
X228299Y269488D01*
X228299Y265512D01*
X225488Y262701D01*
X221512Y262701D01*
G37*
%LPD*%
%LPC*%
G36*
X64251Y268399D02*
X64251Y268399D01*
X61440Y271210D01*
X61440Y275186D01*
X63622Y277368D01*
X63634Y277384D01*
X63649Y277396D01*
X63705Y277484D01*
X63766Y277567D01*
X63771Y277586D01*
X63782Y277603D01*
X63808Y277704D01*
X63838Y277802D01*
X63837Y277822D01*
X63842Y277842D01*
X63834Y277945D01*
X63832Y278048D01*
X63825Y278067D01*
X63823Y278087D01*
X63783Y278182D01*
X63747Y278279D01*
X63735Y278295D01*
X63727Y278313D01*
X63622Y278444D01*
X61893Y280173D01*
X61893Y284149D01*
X63183Y285439D01*
X63195Y285455D01*
X63210Y285468D01*
X63266Y285555D01*
X63327Y285639D01*
X63332Y285658D01*
X63343Y285675D01*
X63369Y285775D01*
X63399Y285874D01*
X63398Y285894D01*
X63403Y285913D01*
X63395Y286016D01*
X63393Y286120D01*
X63386Y286139D01*
X63384Y286159D01*
X63344Y286253D01*
X63308Y286351D01*
X63296Y286367D01*
X63288Y286385D01*
X63183Y286516D01*
X61001Y288698D01*
X61001Y292673D01*
X63812Y295484D01*
X67788Y295484D01*
X70599Y292673D01*
X70599Y288698D01*
X69308Y287407D01*
X69297Y287391D01*
X69281Y287379D01*
X69225Y287291D01*
X69165Y287208D01*
X69159Y287189D01*
X69148Y287172D01*
X69123Y287071D01*
X69092Y286972D01*
X69093Y286952D01*
X69088Y286933D01*
X69096Y286830D01*
X69099Y286727D01*
X69106Y286708D01*
X69107Y286688D01*
X69148Y286593D01*
X69183Y286496D01*
X69196Y286480D01*
X69203Y286462D01*
X69308Y286331D01*
X71490Y284149D01*
X71490Y280173D01*
X69308Y277992D01*
X69297Y277976D01*
X69281Y277963D01*
X69225Y277876D01*
X69165Y277792D01*
X69159Y277773D01*
X69148Y277756D01*
X69123Y277656D01*
X69092Y277557D01*
X69093Y277537D01*
X69088Y277518D01*
X69096Y277415D01*
X69099Y277311D01*
X69106Y277292D01*
X69107Y277272D01*
X69148Y277178D01*
X69183Y277080D01*
X69196Y277064D01*
X69203Y277046D01*
X69308Y276915D01*
X71038Y275186D01*
X71038Y271210D01*
X68227Y268399D01*
X64251Y268399D01*
G37*
%LPD*%
%LPC*%
G36*
X29012Y131201D02*
X29012Y131201D01*
X26201Y134012D01*
X26201Y136940D01*
X26198Y136960D01*
X26200Y136979D01*
X26178Y137081D01*
X26162Y137183D01*
X26152Y137200D01*
X26148Y137220D01*
X26095Y137309D01*
X26046Y137400D01*
X26032Y137414D01*
X26022Y137431D01*
X25943Y137498D01*
X25868Y137570D01*
X25850Y137578D01*
X25835Y137591D01*
X25739Y137630D01*
X25645Y137673D01*
X25625Y137675D01*
X25607Y137683D01*
X25440Y137701D01*
X25012Y137701D01*
X22201Y140512D01*
X22201Y144488D01*
X25012Y147299D01*
X28988Y147299D01*
X30212Y146075D01*
X30228Y146063D01*
X30240Y146048D01*
X30328Y145991D01*
X30411Y145931D01*
X30430Y145925D01*
X30447Y145915D01*
X30548Y145889D01*
X30647Y145859D01*
X30666Y145859D01*
X30686Y145854D01*
X30789Y145862D01*
X30892Y145865D01*
X30911Y145872D01*
X30931Y145874D01*
X31026Y145914D01*
X31123Y145950D01*
X31139Y145962D01*
X31157Y145970D01*
X31288Y146075D01*
X32512Y147299D01*
X36488Y147299D01*
X39299Y144488D01*
X39299Y140512D01*
X36477Y137691D01*
X36419Y137678D01*
X36317Y137662D01*
X36300Y137652D01*
X36280Y137648D01*
X36191Y137595D01*
X36100Y137546D01*
X36086Y137532D01*
X36069Y137522D01*
X36002Y137443D01*
X35930Y137368D01*
X35922Y137350D01*
X35909Y137335D01*
X35870Y137239D01*
X35827Y137145D01*
X35825Y137125D01*
X35817Y137107D01*
X35799Y136940D01*
X35799Y134012D01*
X32988Y131201D01*
X29012Y131201D01*
G37*
%LPD*%
%LPC*%
G36*
X191862Y415951D02*
X191862Y415951D01*
X189051Y418762D01*
X189051Y420690D01*
X189048Y420710D01*
X189050Y420729D01*
X189028Y420831D01*
X189012Y420933D01*
X189002Y420950D01*
X188998Y420970D01*
X188945Y421059D01*
X188896Y421150D01*
X188882Y421164D01*
X188872Y421181D01*
X188793Y421248D01*
X188718Y421320D01*
X188700Y421328D01*
X188685Y421341D01*
X188589Y421380D01*
X188495Y421423D01*
X188475Y421425D01*
X188457Y421433D01*
X188290Y421451D01*
X185662Y421451D01*
X182851Y424262D01*
X182851Y428238D01*
X185662Y431049D01*
X189638Y431049D01*
X192449Y428238D01*
X192449Y426310D01*
X192452Y426290D01*
X192450Y426271D01*
X192472Y426169D01*
X192488Y426067D01*
X192498Y426050D01*
X192502Y426030D01*
X192555Y425941D01*
X192604Y425850D01*
X192618Y425836D01*
X192628Y425819D01*
X192707Y425752D01*
X192782Y425680D01*
X192800Y425672D01*
X192815Y425659D01*
X192911Y425620D01*
X193005Y425577D01*
X193025Y425575D01*
X193043Y425567D01*
X193210Y425549D01*
X195838Y425549D01*
X198649Y422738D01*
X198649Y418762D01*
X195838Y415951D01*
X191862Y415951D01*
G37*
%LPD*%
%LPC*%
G36*
X78712Y432201D02*
X78712Y432201D01*
X75901Y435012D01*
X75901Y438988D01*
X78712Y441799D01*
X82688Y441799D01*
X85499Y438988D01*
X85499Y435012D01*
X82688Y432201D01*
X78712Y432201D01*
G37*
%LPD*%
%LPC*%
G36*
X94762Y391901D02*
X94762Y391901D01*
X91951Y394712D01*
X91951Y398688D01*
X94762Y401499D01*
X98738Y401499D01*
X101549Y398688D01*
X101549Y394712D01*
X98738Y391901D01*
X94762Y391901D01*
G37*
%LPD*%
%LPC*%
G36*
X142012Y370487D02*
X142012Y370487D01*
X139201Y373298D01*
X139201Y377273D01*
X142012Y380084D01*
X145988Y380084D01*
X148799Y377273D01*
X148799Y373298D01*
X145988Y370487D01*
X142012Y370487D01*
G37*
%LPD*%
%LPC*%
G36*
X206214Y351201D02*
X206214Y351201D01*
X203403Y354012D01*
X203403Y357988D01*
X206214Y360799D01*
X210190Y360799D01*
X213001Y357988D01*
X213001Y354012D01*
X210190Y351201D01*
X206214Y351201D01*
G37*
%LPD*%
%LPC*%
G36*
X142012Y345201D02*
X142012Y345201D01*
X139201Y348012D01*
X139201Y351988D01*
X142012Y354799D01*
X145988Y354799D01*
X148799Y351988D01*
X148799Y348012D01*
X145988Y345201D01*
X142012Y345201D01*
G37*
%LPD*%
%LPC*%
G36*
X165947Y325903D02*
X165947Y325903D01*
X163136Y328714D01*
X163136Y332690D01*
X165947Y335501D01*
X169923Y335501D01*
X172734Y332690D01*
X172734Y328714D01*
X169923Y325903D01*
X165947Y325903D01*
G37*
%LPD*%
%LPC*%
G36*
X182791Y283201D02*
X182791Y283201D01*
X179980Y286012D01*
X179980Y289988D01*
X182791Y292799D01*
X186766Y292799D01*
X189577Y289988D01*
X189577Y286012D01*
X186766Y283201D01*
X182791Y283201D01*
G37*
%LPD*%
%LPC*%
G36*
X191512Y200201D02*
X191512Y200201D01*
X188701Y203012D01*
X188701Y206988D01*
X191512Y209799D01*
X195488Y209799D01*
X198299Y206988D01*
X198299Y203012D01*
X195488Y200201D01*
X191512Y200201D01*
G37*
%LPD*%
D10*
X24970Y90600D03*
X49862Y90600D03*
X75008Y90600D03*
X99900Y90600D03*
D11*
X221000Y70000D03*
X171000Y70000D03*
D12*
X251000Y20000D03*
X141000Y20000D03*
D13*
X184778Y288000D03*
X250000Y252500D03*
X134020Y173100D03*
X193500Y205000D03*
X115000Y440000D03*
X65000Y424000D03*
X224000Y276000D03*
X155000Y263000D03*
X183000Y299000D03*
X175000Y235000D03*
X208000Y208000D03*
X155000Y239000D03*
X155000Y247000D03*
X155000Y255000D03*
X138000Y239000D03*
X138000Y247000D03*
X138000Y255000D03*
X155000Y231000D03*
X138000Y231000D03*
X138000Y263000D03*
X83000Y255000D03*
X91000Y255000D03*
X99000Y255000D03*
X83000Y247000D03*
X91000Y247000D03*
X99000Y247000D03*
X83000Y239000D03*
X91000Y239000D03*
X99000Y239000D03*
X227000Y215000D03*
X94000Y307000D03*
X120000Y317000D03*
X133000Y350000D03*
X131000Y363000D03*
X154000Y351000D03*
X73500Y348000D03*
X81500Y348000D03*
X89500Y348000D03*
X73500Y340000D03*
X81500Y340000D03*
X89500Y340000D03*
X73500Y332000D03*
X81500Y332000D03*
X89500Y332000D03*
X65500Y348000D03*
X65500Y340000D03*
X65500Y332000D03*
X73500Y364500D03*
X81500Y364500D03*
X89500Y364500D03*
X73500Y356500D03*
X81500Y356500D03*
X89500Y356500D03*
X65500Y364500D03*
X65500Y356500D03*
X97500Y348000D03*
X97500Y340000D03*
X97500Y332000D03*
X97500Y364500D03*
X97500Y356500D03*
X106000Y348000D03*
X106000Y340000D03*
X106000Y356500D03*
X166000Y376500D03*
X239000Y356500D03*
D14*
X120263Y87952D02*
X107263Y74952D01*
X56538Y90600D02*
X49862Y90600D01*
X56538Y90600D02*
X72186Y74952D01*
X107263Y74952D01*
X220573Y87952D02*
X261656Y129035D01*
X223000Y385000D02*
X214350Y385000D01*
D13*
X214350Y385000D03*
D14*
X220573Y87952D02*
X120263Y87952D01*
X261656Y129035D02*
X261656Y346344D01*
X223000Y385000D01*
D13*
X144000Y375285D03*
X244733Y318183D03*
X242338Y333560D03*
X183000Y327560D03*
X175000Y189000D03*
X90000Y193000D03*
X92000Y178000D03*
X100000Y178000D03*
X108000Y178000D03*
X162000Y178000D03*
X170000Y178000D03*
X178000Y178000D03*
X155000Y199000D03*
X155000Y207000D03*
X155000Y215000D03*
X138000Y198000D03*
X138000Y206000D03*
X138000Y214000D03*
X155000Y191000D03*
X138000Y190000D03*
X138000Y182000D03*
X146000Y179000D03*
X93824Y212961D03*
X152000Y166000D03*
X243000Y129000D03*
X160000Y166000D03*
X168000Y166000D03*
X176000Y166000D03*
X152000Y158000D03*
X160000Y158000D03*
X168000Y158000D03*
X176000Y158000D03*
X152000Y150000D03*
X160000Y150000D03*
X168000Y150000D03*
X176000Y150000D03*
X216000Y119000D03*
X212500Y125500D03*
X220000Y125500D03*
X71300Y205126D03*
X74000Y171602D03*
X8600Y124300D03*
X90000Y166000D03*
X98000Y166000D03*
X106000Y166000D03*
X90000Y158000D03*
X98000Y158000D03*
X106000Y158000D03*
X90000Y150000D03*
X98000Y150000D03*
X106000Y150000D03*
X82000Y166000D03*
X82000Y158000D03*
X82000Y150000D03*
X27000Y142500D03*
X34500Y142500D03*
X31000Y136000D03*
X49700Y430000D03*
X231500Y138200D03*
X32000Y170000D03*
X40000Y170000D03*
X48000Y170000D03*
X32000Y162000D03*
X40000Y162000D03*
X48000Y162000D03*
X32000Y154000D03*
X40000Y154000D03*
X48000Y154000D03*
X24000Y170000D03*
X24000Y162000D03*
X24000Y154000D03*
X215500Y154000D03*
X223500Y154000D03*
X231500Y154000D03*
X215500Y146000D03*
X223500Y146000D03*
X231500Y146000D03*
X215500Y138000D03*
X223500Y138000D03*
X207500Y154000D03*
X207500Y146000D03*
X207500Y138000D03*
X17000Y340500D03*
X25000Y340500D03*
X33000Y340500D03*
X17000Y332500D03*
X25000Y332500D03*
X33000Y332500D03*
X17000Y324500D03*
X25000Y324500D03*
X33000Y324500D03*
X9000Y340500D03*
X9000Y332500D03*
X9000Y324500D03*
X17000Y365000D03*
X25000Y365000D03*
X33000Y365000D03*
X17000Y357000D03*
X25000Y357000D03*
X33000Y357000D03*
X17000Y349000D03*
X25000Y349000D03*
X33000Y349000D03*
X9000Y365000D03*
X9000Y357000D03*
X9000Y349000D03*
X41000Y340500D03*
X41000Y332500D03*
X41000Y324500D03*
X41000Y365000D03*
X41000Y357000D03*
X41000Y349000D03*
X49500Y340500D03*
X49500Y332500D03*
X49500Y324500D03*
X49500Y365000D03*
X49500Y357000D03*
X49500Y349000D03*
X187650Y426250D03*
X193850Y420750D03*
X61365Y262072D03*
X223500Y267500D03*
D14*
X113900Y90600D02*
X99900Y90600D01*
X113900Y90600D02*
X117900Y94600D01*
X218600Y94600D01*
D13*
X227000Y327560D03*
D14*
X227000Y327053D02*
X241930Y312123D01*
X227000Y327053D02*
X227000Y327560D01*
X241930Y312123D02*
X247962Y312123D01*
X255560Y304525D02*
X255560Y131560D01*
X255560Y304525D02*
X247962Y312123D01*
X255560Y131560D02*
X218600Y94600D01*
D13*
X244000Y294000D03*
X62043Y245928D03*
D14*
X103901Y221162D02*
X104063Y221000D01*
X86809Y221162D02*
X62043Y245928D01*
X86809Y221162D02*
X103901Y221162D01*
X180137Y221000D02*
X185697Y226560D01*
X227560Y226560D01*
X244000Y243000D02*
X244000Y294000D01*
X180137Y221000D02*
X104063Y221000D01*
X227560Y226560D02*
X244000Y243000D01*
D13*
X237000Y287000D03*
X62502Y254000D03*
D14*
X63014Y253488D01*
X64346Y253488D01*
X67603Y250231D01*
X67603Y244679D01*
X88071Y224210D01*
X179036Y224210D02*
X184434Y229608D01*
X240952Y283048D02*
X237000Y287000D01*
X179036Y224210D02*
X88071Y224210D01*
X184434Y229608D02*
X226297Y229608D01*
X240952Y244263D01*
X240952Y283048D01*
X75008Y90600D02*
X75608Y90000D01*
X82000Y90000D01*
X94000Y78000D01*
X106000Y78000D01*
X119000Y91000D01*
X219311Y91000D01*
X258608Y130297D01*
X247000Y327779D02*
X247000Y328000D01*
X258608Y316171D02*
X258608Y130297D01*
X258608Y316171D02*
X247000Y327779D01*
D13*
X236000Y327560D03*
D14*
X236440Y328000D02*
X247000Y328000D01*
X236440Y328000D02*
X236000Y327560D01*
D13*
X185000Y217000D03*
X200000Y218000D03*
X66239Y273198D03*
X125620Y172560D03*
X214500Y221000D03*
D14*
X179000Y172440D02*
X180000Y171440D01*
X179000Y172440D02*
X141223Y172440D01*
X131717Y167540D02*
X126697Y172560D01*
X125620Y172560D01*
X131717Y167540D02*
X136323Y167540D01*
X141223Y172440D01*
X180000Y171440D02*
X184440Y171440D01*
X214500Y201500D02*
X214500Y221000D01*
X214500Y201500D02*
X184440Y171440D01*
D13*
X77680Y215417D03*
X80700Y437000D03*
X96750Y396700D03*
X102598Y214602D03*
X231000Y127000D03*
X85752Y213000D03*
X138802Y162000D03*
D14*
X92000Y206752D02*
X85752Y213000D01*
X92000Y206752D02*
X92000Y203000D01*
X80000Y191000D01*
X80000Y176000D01*
X84000Y172000D01*
X117000Y172000D01*
X136802Y164000D02*
X138802Y162000D01*
X136802Y164000D02*
X130802Y164000D01*
X128802Y166000D01*
X123000Y166000D01*
X117000Y172000D01*
D13*
X65800Y290685D03*
X61000Y307398D03*
X167935Y330702D03*
X210000Y270000D03*
X66691Y282161D03*
X62000Y315470D03*
X144000Y350000D03*
X215928Y275488D03*
X154798Y365435D03*
D14*
X198173Y322060D01*
X213428Y322060D02*
X218928Y327560D01*
X213428Y322060D02*
X198173Y322060D01*
D13*
X218928Y327560D03*
X208202Y356000D03*
X210856Y328000D03*
M02*
