G04 EAGLE Gerber RS-274X export*
G75*
%MOMM*%
%FSLAX34Y34*%
%LPD*%
%INBottom Copper*%
%IPPOS*%
%AMOC8*
5,1,8,0,0,1.08239X$1,22.5*%
G01*
%ADD10R,1.168400X1.600200*%
%ADD11R,1.000000X1.100000*%
%ADD12R,1.905000X1.905000*%
%ADD13C,1.905000*%
%ADD14R,1.200000X3.400000*%
%ADD15R,0.600000X3.400000*%
%ADD16R,0.482600X1.117600*%
%ADD17R,0.533400X1.117600*%
%ADD18R,0.228600X1.574800*%
%ADD19C,1.270000*%
%ADD20R,0.600000X1.700000*%
%ADD21R,1.000000X2.800000*%
%ADD22C,2.700000*%
%ADD23C,1.650000*%
%ADD24R,3.000000X1.000000*%
%ADD25R,0.700000X0.700000*%
%ADD26R,1.000000X3.000000*%
%ADD27C,0.654800*%
%ADD28C,0.152400*%

G36*
X77042Y175764D02*
X77042Y175764D01*
X77094Y175765D01*
X77162Y175790D01*
X77232Y175805D01*
X77277Y175832D01*
X77325Y175850D01*
X77381Y175894D01*
X77443Y175931D01*
X77477Y175971D01*
X77517Y176003D01*
X77556Y176064D01*
X77603Y176118D01*
X77622Y176166D01*
X77650Y176210D01*
X77668Y176280D01*
X77695Y176346D01*
X77703Y176418D01*
X77711Y176449D01*
X77709Y176472D01*
X77713Y176513D01*
X77713Y191947D01*
X91314Y205548D01*
X91367Y205622D01*
X91427Y205691D01*
X91439Y205722D01*
X91458Y205748D01*
X91484Y205835D01*
X91519Y205920D01*
X91523Y205960D01*
X91530Y205983D01*
X91529Y206015D01*
X91537Y206086D01*
X91537Y208146D01*
X91522Y208236D01*
X91515Y208327D01*
X91502Y208357D01*
X91497Y208388D01*
X91455Y208469D01*
X91419Y208553D01*
X91393Y208585D01*
X91382Y208606D01*
X91359Y208628D01*
X91314Y208684D01*
X90306Y209692D01*
X90290Y209703D01*
X90278Y209719D01*
X90191Y209775D01*
X90107Y209835D01*
X90088Y209841D01*
X90071Y209852D01*
X89970Y209877D01*
X89872Y209908D01*
X89852Y209907D01*
X89832Y209912D01*
X89729Y209904D01*
X89626Y209901D01*
X89607Y209894D01*
X89587Y209893D01*
X89492Y209852D01*
X89395Y209817D01*
X89379Y209804D01*
X89361Y209796D01*
X89230Y209692D01*
X87739Y208201D01*
X83764Y208201D01*
X81046Y210920D01*
X81029Y210931D01*
X81017Y210947D01*
X80944Y210994D01*
X80922Y211013D01*
X80909Y211018D01*
X80846Y211063D01*
X80827Y211069D01*
X80810Y211080D01*
X80710Y211105D01*
X80611Y211136D01*
X80591Y211135D01*
X80572Y211140D01*
X80469Y211132D01*
X80365Y211129D01*
X80346Y211122D01*
X80326Y211121D01*
X80231Y211080D01*
X80134Y211045D01*
X80118Y211032D01*
X80100Y211024D01*
X80034Y210972D01*
X80028Y210968D01*
X80021Y210961D01*
X79969Y210920D01*
X79667Y210618D01*
X75692Y210618D01*
X72881Y213429D01*
X72881Y217404D01*
X75692Y220215D01*
X78929Y220215D01*
X79019Y220230D01*
X79110Y220237D01*
X79140Y220250D01*
X79172Y220255D01*
X79253Y220298D01*
X79337Y220334D01*
X79369Y220359D01*
X79389Y220370D01*
X79412Y220394D01*
X79468Y220438D01*
X80705Y221676D01*
X82268Y223239D01*
X142947Y223239D01*
X144510Y221676D01*
X145676Y220510D01*
X145750Y220457D01*
X145820Y220397D01*
X145850Y220385D01*
X145876Y220366D01*
X145963Y220339D01*
X146048Y220305D01*
X146089Y220301D01*
X146111Y220294D01*
X146143Y220295D01*
X146214Y220287D01*
X147352Y220287D01*
X147443Y220301D01*
X147533Y220309D01*
X147563Y220321D01*
X147595Y220326D01*
X147676Y220369D01*
X147760Y220405D01*
X147792Y220431D01*
X147813Y220442D01*
X147835Y220465D01*
X147891Y220510D01*
X149052Y221671D01*
X149063Y221687D01*
X149079Y221699D01*
X149135Y221787D01*
X149195Y221870D01*
X149201Y221889D01*
X149212Y221906D01*
X149237Y222007D01*
X149268Y222106D01*
X149267Y222125D01*
X149272Y222145D01*
X149264Y222248D01*
X149261Y222351D01*
X149254Y222370D01*
X149253Y222390D01*
X149213Y222485D01*
X149177Y222582D01*
X149164Y222598D01*
X149157Y222616D01*
X149052Y222747D01*
X145876Y225923D01*
X144313Y227486D01*
X144313Y231814D01*
X144310Y231834D01*
X144312Y231853D01*
X144290Y231955D01*
X144274Y232057D01*
X144264Y232074D01*
X144260Y232094D01*
X144207Y232183D01*
X144158Y232274D01*
X144144Y232288D01*
X144134Y232305D01*
X144055Y232372D01*
X143980Y232444D01*
X143962Y232452D01*
X143947Y232465D01*
X143851Y232504D01*
X143757Y232547D01*
X143737Y232549D01*
X143719Y232557D01*
X143552Y232575D01*
X142968Y232575D01*
X142075Y233468D01*
X142075Y268732D01*
X142968Y269625D01*
X150232Y269625D01*
X151125Y268732D01*
X151125Y233468D01*
X150232Y232575D01*
X149648Y232575D01*
X149628Y232572D01*
X149609Y232574D01*
X149507Y232552D01*
X149405Y232536D01*
X149388Y232526D01*
X149368Y232522D01*
X149279Y232469D01*
X149188Y232420D01*
X149174Y232406D01*
X149157Y232396D01*
X149090Y232317D01*
X149018Y232242D01*
X149010Y232224D01*
X148997Y232209D01*
X148958Y232113D01*
X148915Y232019D01*
X148913Y231999D01*
X148905Y231981D01*
X148887Y231814D01*
X148887Y229696D01*
X148901Y229605D01*
X148909Y229515D01*
X148921Y229485D01*
X148926Y229453D01*
X148969Y229372D01*
X149005Y229288D01*
X149031Y229256D01*
X149042Y229235D01*
X149065Y229213D01*
X149110Y229157D01*
X151724Y226543D01*
X151798Y226490D01*
X151868Y226430D01*
X151898Y226418D01*
X151924Y226399D01*
X152011Y226372D01*
X152096Y226338D01*
X152137Y226334D01*
X152159Y226327D01*
X152191Y226328D01*
X152263Y226320D01*
X166323Y226320D01*
X166343Y226323D01*
X166362Y226321D01*
X166464Y226343D01*
X166566Y226359D01*
X166583Y226369D01*
X166603Y226373D01*
X166692Y226426D01*
X166783Y226475D01*
X166797Y226489D01*
X166814Y226499D01*
X166881Y226578D01*
X166953Y226653D01*
X166961Y226671D01*
X166974Y226686D01*
X167013Y226782D01*
X167056Y226876D01*
X167058Y226896D01*
X167066Y226914D01*
X167084Y227081D01*
X167084Y230798D01*
X167081Y230818D01*
X167083Y230837D01*
X167072Y230889D01*
X167084Y231000D01*
X167084Y241913D01*
X169538Y244367D01*
X169591Y244441D01*
X169651Y244510D01*
X169663Y244541D01*
X169682Y244567D01*
X169698Y244620D01*
X169717Y244618D01*
X169735Y244610D01*
X169902Y244592D01*
X185837Y244592D01*
X187400Y243029D01*
X188662Y241767D01*
X188736Y241714D01*
X188805Y241654D01*
X188836Y241642D01*
X188862Y241623D01*
X188949Y241596D01*
X189034Y241562D01*
X189075Y241558D01*
X189097Y241551D01*
X189129Y241552D01*
X189200Y241544D01*
X189575Y241544D01*
X189762Y241357D01*
X189778Y241345D01*
X189790Y241329D01*
X189878Y241273D01*
X189961Y241213D01*
X189980Y241207D01*
X189997Y241196D01*
X190098Y241171D01*
X190197Y241141D01*
X190217Y241141D01*
X190236Y241136D01*
X190339Y241144D01*
X190442Y241147D01*
X190461Y241154D01*
X190481Y241155D01*
X190576Y241196D01*
X190673Y241231D01*
X190689Y241244D01*
X190707Y241252D01*
X190838Y241357D01*
X191025Y241544D01*
X194575Y241544D01*
X195468Y240651D01*
X195468Y223639D01*
X194575Y222746D01*
X194296Y222746D01*
X194205Y222732D01*
X194115Y222724D01*
X194085Y222712D01*
X194053Y222707D01*
X193972Y222664D01*
X193888Y222628D01*
X193856Y222602D01*
X193835Y222591D01*
X193813Y222568D01*
X193757Y222523D01*
X190022Y218788D01*
X189969Y218714D01*
X189909Y218644D01*
X189897Y218614D01*
X189878Y218588D01*
X189851Y218501D01*
X189817Y218416D01*
X189813Y218375D01*
X189806Y218353D01*
X189807Y218321D01*
X189799Y218249D01*
X189799Y215012D01*
X186988Y212201D01*
X183012Y212201D01*
X180201Y215012D01*
X180201Y217937D01*
X180198Y217957D01*
X180200Y217976D01*
X180178Y218078D01*
X180162Y218180D01*
X180152Y218197D01*
X180148Y218217D01*
X180095Y218306D01*
X180046Y218397D01*
X180032Y218411D01*
X180022Y218428D01*
X179943Y218495D01*
X179868Y218567D01*
X179850Y218575D01*
X179835Y218588D01*
X179739Y218627D01*
X179645Y218670D01*
X179625Y218672D01*
X179607Y218680D01*
X179440Y218698D01*
X171373Y218698D01*
X171303Y218687D01*
X171231Y218685D01*
X171182Y218667D01*
X171131Y218659D01*
X171067Y218625D01*
X171000Y218600D01*
X170959Y218568D01*
X170913Y218543D01*
X170864Y218491D01*
X170808Y218447D01*
X170780Y218403D01*
X170744Y218365D01*
X170714Y218300D01*
X170675Y218240D01*
X170662Y218189D01*
X170640Y218142D01*
X170632Y218071D01*
X170615Y218001D01*
X170619Y217949D01*
X170613Y217898D01*
X170628Y217827D01*
X170634Y217756D01*
X170654Y217708D01*
X170665Y217657D01*
X170702Y217596D01*
X170730Y217530D01*
X170775Y217474D01*
X170792Y217446D01*
X170809Y217431D01*
X170835Y217399D01*
X185724Y202510D01*
X185962Y202272D01*
X185978Y202261D01*
X185990Y202245D01*
X186077Y202189D01*
X186161Y202129D01*
X186180Y202123D01*
X186197Y202112D01*
X186298Y202087D01*
X186396Y202056D01*
X186416Y202057D01*
X186436Y202052D01*
X186539Y202060D01*
X186642Y202063D01*
X186661Y202070D01*
X186681Y202071D01*
X186776Y202112D01*
X186873Y202147D01*
X186889Y202160D01*
X186907Y202167D01*
X187038Y202272D01*
X188478Y203712D01*
X188531Y203786D01*
X188591Y203856D01*
X188603Y203886D01*
X188622Y203912D01*
X188649Y203999D01*
X188683Y204084D01*
X188687Y204125D01*
X188694Y204147D01*
X188693Y204179D01*
X188701Y204251D01*
X188701Y206988D01*
X191512Y209799D01*
X195488Y209799D01*
X198299Y206988D01*
X198299Y203012D01*
X195488Y200201D01*
X191751Y200201D01*
X191660Y200187D01*
X191570Y200179D01*
X191540Y200167D01*
X191508Y200162D01*
X191427Y200119D01*
X191343Y200083D01*
X191311Y200057D01*
X191290Y200046D01*
X191268Y200023D01*
X191212Y199978D01*
X190510Y199276D01*
X190457Y199202D01*
X190397Y199132D01*
X190385Y199102D01*
X190366Y199076D01*
X190339Y198989D01*
X190305Y198904D01*
X190301Y198863D01*
X190294Y198841D01*
X190295Y198809D01*
X190287Y198737D01*
X190287Y179358D01*
X190298Y179288D01*
X190300Y179216D01*
X190318Y179167D01*
X190326Y179116D01*
X190360Y179052D01*
X190385Y178985D01*
X190417Y178944D01*
X190442Y178898D01*
X190494Y178849D01*
X190538Y178793D01*
X190582Y178765D01*
X190620Y178729D01*
X190685Y178699D01*
X190745Y178660D01*
X190796Y178647D01*
X190843Y178625D01*
X190914Y178617D01*
X190984Y178600D01*
X191036Y178604D01*
X191087Y178598D01*
X191158Y178613D01*
X191229Y178619D01*
X191277Y178639D01*
X191328Y178650D01*
X191389Y178687D01*
X191455Y178715D01*
X191511Y178760D01*
X191539Y178777D01*
X191554Y178794D01*
X191586Y178820D01*
X209490Y196724D01*
X211053Y198287D01*
X242947Y198287D01*
X243270Y197964D01*
X243344Y197910D01*
X243414Y197851D01*
X243444Y197839D01*
X243470Y197820D01*
X243557Y197793D01*
X243642Y197759D01*
X243683Y197755D01*
X243705Y197748D01*
X243737Y197749D01*
X243808Y197741D01*
X253477Y197741D01*
X253477Y190962D01*
X253480Y190942D01*
X253478Y190923D01*
X253500Y190821D01*
X253517Y190719D01*
X253526Y190702D01*
X253530Y190682D01*
X253583Y190593D01*
X253632Y190502D01*
X253646Y190488D01*
X253656Y190471D01*
X253735Y190404D01*
X253810Y190333D01*
X253828Y190324D01*
X253843Y190311D01*
X253939Y190272D01*
X254033Y190229D01*
X254053Y190227D01*
X254071Y190219D01*
X254238Y190201D01*
X255762Y190201D01*
X255782Y190204D01*
X255801Y190202D01*
X255903Y190224D01*
X256005Y190241D01*
X256022Y190250D01*
X256042Y190254D01*
X256131Y190307D01*
X256222Y190356D01*
X256236Y190370D01*
X256253Y190380D01*
X256320Y190459D01*
X256391Y190534D01*
X256400Y190552D01*
X256413Y190567D01*
X256452Y190663D01*
X256495Y190757D01*
X256497Y190777D01*
X256505Y190795D01*
X256523Y190962D01*
X256523Y197741D01*
X266698Y197741D01*
X266718Y197744D01*
X266737Y197742D01*
X266839Y197764D01*
X266941Y197780D01*
X266958Y197790D01*
X266978Y197794D01*
X267067Y197847D01*
X267158Y197896D01*
X267172Y197910D01*
X267189Y197920D01*
X267256Y197999D01*
X267328Y198074D01*
X267336Y198092D01*
X267349Y198107D01*
X267388Y198203D01*
X267431Y198297D01*
X267433Y198317D01*
X267441Y198335D01*
X267459Y198502D01*
X267459Y208314D01*
X267456Y208334D01*
X267458Y208353D01*
X267436Y208455D01*
X267420Y208557D01*
X267410Y208574D01*
X267406Y208594D01*
X267353Y208683D01*
X267304Y208774D01*
X267290Y208788D01*
X267280Y208805D01*
X267201Y208872D01*
X267126Y208944D01*
X267108Y208952D01*
X267093Y208965D01*
X266997Y209004D01*
X266903Y209047D01*
X266883Y209049D01*
X266865Y209057D01*
X266698Y209075D01*
X239368Y209075D01*
X238475Y209968D01*
X238475Y219576D01*
X238461Y219666D01*
X238453Y219757D01*
X238441Y219786D01*
X238436Y219818D01*
X238393Y219899D01*
X238357Y219983D01*
X238331Y220015D01*
X238320Y220036D01*
X238297Y220058D01*
X238252Y220114D01*
X231427Y226939D01*
X231427Y274294D01*
X232990Y275857D01*
X238035Y280902D01*
X238077Y280960D01*
X238126Y281012D01*
X238148Y281059D01*
X238178Y281101D01*
X238200Y281170D01*
X238230Y281235D01*
X238236Y281287D01*
X238251Y281337D01*
X238249Y281408D01*
X238257Y281479D01*
X238246Y281530D01*
X238244Y281582D01*
X238220Y281650D01*
X238205Y281720D01*
X238178Y281765D01*
X238160Y281813D01*
X238115Y281869D01*
X238078Y281931D01*
X238039Y281965D01*
X238006Y282005D01*
X237946Y282044D01*
X237892Y282091D01*
X237843Y282110D01*
X237799Y282138D01*
X237730Y282156D01*
X237663Y282183D01*
X237592Y282191D01*
X237561Y282199D01*
X237538Y282197D01*
X237497Y282201D01*
X235012Y282201D01*
X232201Y285012D01*
X232201Y288988D01*
X235012Y291799D01*
X238440Y291799D01*
X238460Y291802D01*
X238479Y291800D01*
X238581Y291822D01*
X238683Y291838D01*
X238700Y291848D01*
X238720Y291852D01*
X238809Y291905D01*
X238900Y291954D01*
X238914Y291968D01*
X238931Y291978D01*
X238998Y292057D01*
X239070Y292132D01*
X239078Y292150D01*
X239091Y292165D01*
X239130Y292261D01*
X239173Y292355D01*
X239175Y292375D01*
X239183Y292393D01*
X239201Y292560D01*
X239201Y295988D01*
X242012Y298799D01*
X245988Y298799D01*
X246414Y298373D01*
X246472Y298331D01*
X246524Y298281D01*
X246571Y298260D01*
X246613Y298229D01*
X246682Y298208D01*
X246747Y298178D01*
X246799Y298172D01*
X246849Y298157D01*
X246920Y298159D01*
X246991Y298151D01*
X247042Y298162D01*
X247094Y298163D01*
X247162Y298188D01*
X247232Y298203D01*
X247277Y298230D01*
X247325Y298248D01*
X247381Y298292D01*
X247443Y298329D01*
X247477Y298369D01*
X247517Y298401D01*
X247556Y298462D01*
X247603Y298516D01*
X247622Y298564D01*
X247650Y298608D01*
X247668Y298678D01*
X247695Y298744D01*
X247703Y298816D01*
X247711Y298847D01*
X247709Y298870D01*
X247713Y298911D01*
X247713Y309575D01*
X247710Y309595D01*
X247712Y309614D01*
X247690Y309716D01*
X247674Y309818D01*
X247664Y309835D01*
X247660Y309855D01*
X247607Y309944D01*
X247558Y310035D01*
X247544Y310049D01*
X247534Y310066D01*
X247455Y310133D01*
X247380Y310204D01*
X247362Y310213D01*
X247347Y310226D01*
X247251Y310264D01*
X247157Y310308D01*
X247137Y310310D01*
X247119Y310318D01*
X246952Y310336D01*
X241483Y310336D01*
X236886Y314933D01*
X236886Y321433D01*
X236915Y321462D01*
X236957Y321520D01*
X237006Y321572D01*
X237028Y321619D01*
X237058Y321661D01*
X237080Y321730D01*
X237110Y321795D01*
X237116Y321847D01*
X237131Y321897D01*
X237129Y321968D01*
X237137Y322039D01*
X237126Y322090D01*
X237124Y322142D01*
X237100Y322210D01*
X237085Y322280D01*
X237058Y322325D01*
X237040Y322373D01*
X236995Y322429D01*
X236958Y322491D01*
X236919Y322525D01*
X236886Y322565D01*
X236826Y322604D01*
X236772Y322651D01*
X236723Y322670D01*
X236679Y322698D01*
X236610Y322716D01*
X236543Y322743D01*
X236472Y322751D01*
X236441Y322759D01*
X236418Y322757D01*
X236377Y322761D01*
X234012Y322761D01*
X232038Y324735D01*
X232022Y324747D01*
X232010Y324762D01*
X231922Y324819D01*
X231839Y324879D01*
X231820Y324885D01*
X231803Y324895D01*
X231702Y324921D01*
X231603Y324951D01*
X231584Y324951D01*
X231564Y324956D01*
X231461Y324948D01*
X231358Y324945D01*
X231339Y324938D01*
X231319Y324936D01*
X231224Y324896D01*
X231127Y324860D01*
X231111Y324848D01*
X231093Y324840D01*
X230962Y324735D01*
X228988Y322761D01*
X225012Y322761D01*
X223502Y324271D01*
X223486Y324283D01*
X223474Y324298D01*
X223386Y324355D01*
X223303Y324415D01*
X223284Y324421D01*
X223267Y324431D01*
X223166Y324457D01*
X223067Y324487D01*
X223048Y324487D01*
X223028Y324492D01*
X222925Y324484D01*
X222822Y324481D01*
X222803Y324474D01*
X222783Y324472D01*
X222688Y324432D01*
X222591Y324396D01*
X222575Y324384D01*
X222557Y324376D01*
X222426Y324271D01*
X220916Y322761D01*
X216940Y322761D01*
X215210Y324491D01*
X215194Y324503D01*
X215182Y324518D01*
X215094Y324575D01*
X215011Y324635D01*
X214992Y324641D01*
X214975Y324651D01*
X214874Y324677D01*
X214775Y324707D01*
X214756Y324707D01*
X214736Y324712D01*
X214633Y324704D01*
X214530Y324701D01*
X214511Y324694D01*
X214491Y324692D01*
X214396Y324652D01*
X214299Y324616D01*
X214283Y324604D01*
X214265Y324596D01*
X214134Y324491D01*
X212844Y323201D01*
X208868Y323201D01*
X206057Y326012D01*
X206057Y329988D01*
X208868Y332799D01*
X212105Y332799D01*
X212196Y332813D01*
X212286Y332821D01*
X212316Y332833D01*
X212348Y332838D01*
X212429Y332881D01*
X212513Y332917D01*
X212545Y332943D01*
X212566Y332954D01*
X212588Y332977D01*
X212644Y333022D01*
X226990Y347368D01*
X227043Y347442D01*
X227103Y347512D01*
X227115Y347542D01*
X227134Y347568D01*
X227161Y347655D01*
X227195Y347740D01*
X227199Y347781D01*
X227206Y347803D01*
X227205Y347835D01*
X227213Y347907D01*
X227213Y416714D01*
X227210Y416734D01*
X227212Y416753D01*
X227190Y416855D01*
X227174Y416957D01*
X227164Y416974D01*
X227160Y416994D01*
X227107Y417083D01*
X227058Y417174D01*
X227044Y417188D01*
X227034Y417205D01*
X226955Y417272D01*
X226880Y417344D01*
X226862Y417352D01*
X226847Y417365D01*
X226751Y417404D01*
X226657Y417447D01*
X226637Y417449D01*
X226619Y417457D01*
X226452Y417475D01*
X223868Y417475D01*
X222975Y418368D01*
X222975Y446698D01*
X222972Y446718D01*
X222974Y446737D01*
X222952Y446839D01*
X222936Y446941D01*
X222926Y446958D01*
X222922Y446978D01*
X222869Y447067D01*
X222820Y447158D01*
X222806Y447172D01*
X222796Y447189D01*
X222717Y447256D01*
X222642Y447328D01*
X222624Y447336D01*
X222609Y447349D01*
X222513Y447388D01*
X222419Y447431D01*
X222399Y447433D01*
X222381Y447441D01*
X222214Y447459D01*
X212386Y447459D01*
X212366Y447456D01*
X212347Y447458D01*
X212245Y447436D01*
X212143Y447420D01*
X212126Y447410D01*
X212106Y447406D01*
X212017Y447353D01*
X211926Y447304D01*
X211912Y447290D01*
X211895Y447280D01*
X211828Y447201D01*
X211756Y447126D01*
X211748Y447108D01*
X211735Y447093D01*
X211696Y446997D01*
X211653Y446903D01*
X211651Y446883D01*
X211643Y446865D01*
X211625Y446698D01*
X211625Y418368D01*
X210712Y417455D01*
X210659Y417381D01*
X210599Y417312D01*
X210587Y417282D01*
X210568Y417256D01*
X210541Y417169D01*
X210507Y417084D01*
X210503Y417043D01*
X210496Y417021D01*
X210497Y416988D01*
X210489Y416917D01*
X210489Y389763D01*
X210500Y389692D01*
X210502Y389621D01*
X210520Y389572D01*
X210528Y389520D01*
X210562Y389457D01*
X210587Y389390D01*
X210619Y389349D01*
X210644Y389303D01*
X210696Y389253D01*
X210740Y389197D01*
X210784Y389169D01*
X210822Y389133D01*
X210887Y389103D01*
X210947Y389064D01*
X210998Y389052D01*
X211045Y389030D01*
X211116Y389022D01*
X211186Y389004D01*
X211238Y389008D01*
X211289Y389003D01*
X211360Y389018D01*
X211431Y389024D01*
X211479Y389044D01*
X211530Y389055D01*
X211591Y389092D01*
X211657Y389120D01*
X211713Y389165D01*
X211741Y389181D01*
X211756Y389199D01*
X211788Y389225D01*
X212362Y389799D01*
X216338Y389799D01*
X219149Y386988D01*
X219149Y383012D01*
X216338Y380201D01*
X212362Y380201D01*
X211788Y380775D01*
X211730Y380817D01*
X211678Y380867D01*
X211631Y380888D01*
X211589Y380919D01*
X211520Y380940D01*
X211455Y380970D01*
X211403Y380976D01*
X211353Y380991D01*
X211282Y380989D01*
X211211Y380997D01*
X211160Y380986D01*
X211108Y380985D01*
X211040Y380960D01*
X210970Y380945D01*
X210925Y380918D01*
X210877Y380900D01*
X210821Y380856D01*
X210759Y380819D01*
X210725Y380779D01*
X210685Y380747D01*
X210646Y380686D01*
X210599Y380632D01*
X210580Y380584D01*
X210552Y380540D01*
X210534Y380470D01*
X210507Y380404D01*
X210499Y380332D01*
X210491Y380301D01*
X210493Y380278D01*
X210489Y380237D01*
X210489Y360815D01*
X210503Y360725D01*
X210511Y360634D01*
X210523Y360604D01*
X210528Y360572D01*
X210571Y360492D01*
X210607Y360408D01*
X210633Y360376D01*
X210644Y360355D01*
X210667Y360333D01*
X210712Y360277D01*
X213001Y357988D01*
X213001Y354012D01*
X210190Y351201D01*
X206214Y351201D01*
X203403Y354012D01*
X203403Y357988D01*
X205692Y360277D01*
X205745Y360351D01*
X205805Y360420D01*
X205817Y360450D01*
X205836Y360476D01*
X205863Y360563D01*
X205897Y360648D01*
X205901Y360689D01*
X205908Y360712D01*
X205907Y360744D01*
X205915Y360815D01*
X205915Y416714D01*
X205912Y416734D01*
X205914Y416753D01*
X205892Y416855D01*
X205876Y416957D01*
X205866Y416974D01*
X205862Y416994D01*
X205809Y417083D01*
X205760Y417174D01*
X205746Y417188D01*
X205736Y417205D01*
X205657Y417272D01*
X205582Y417344D01*
X205564Y417352D01*
X205549Y417365D01*
X205453Y417404D01*
X205359Y417447D01*
X205339Y417449D01*
X205321Y417457D01*
X205154Y417475D01*
X199468Y417475D01*
X198953Y417990D01*
X198937Y418002D01*
X198925Y418018D01*
X198844Y418069D01*
X198840Y418073D01*
X198837Y418074D01*
X198754Y418134D01*
X198735Y418140D01*
X198718Y418151D01*
X198617Y418176D01*
X198519Y418206D01*
X198499Y418206D01*
X198479Y418211D01*
X198376Y418203D01*
X198273Y418200D01*
X198254Y418193D01*
X198234Y418191D01*
X198139Y418151D01*
X198042Y418115D01*
X198026Y418103D01*
X198008Y418095D01*
X197877Y417990D01*
X195838Y415951D01*
X191862Y415951D01*
X190062Y417752D01*
X190046Y417763D01*
X190033Y417779D01*
X189946Y417835D01*
X189862Y417895D01*
X189843Y417901D01*
X189827Y417912D01*
X189726Y417937D01*
X189627Y417967D01*
X189607Y417967D01*
X189588Y417972D01*
X189485Y417964D01*
X189381Y417961D01*
X189363Y417954D01*
X189343Y417953D01*
X189248Y417912D01*
X189150Y417877D01*
X189135Y417864D01*
X189116Y417856D01*
X188985Y417752D01*
X170147Y398913D01*
X135036Y398913D01*
X135016Y398910D01*
X134997Y398912D01*
X134895Y398890D01*
X134793Y398874D01*
X134776Y398864D01*
X134756Y398860D01*
X134667Y398807D01*
X134576Y398758D01*
X134562Y398744D01*
X134545Y398734D01*
X134478Y398655D01*
X134406Y398580D01*
X134398Y398562D01*
X134385Y398547D01*
X134346Y398451D01*
X134303Y398357D01*
X134301Y398337D01*
X134293Y398319D01*
X134275Y398152D01*
X134275Y384068D01*
X133382Y383175D01*
X130548Y383175D01*
X130528Y383172D01*
X130509Y383174D01*
X130407Y383152D01*
X130305Y383136D01*
X130288Y383126D01*
X130268Y383122D01*
X130179Y383069D01*
X130088Y383020D01*
X130074Y383006D01*
X130057Y382996D01*
X129990Y382917D01*
X129918Y382842D01*
X129910Y382824D01*
X129897Y382809D01*
X129858Y382713D01*
X129815Y382619D01*
X129813Y382599D01*
X129805Y382581D01*
X129787Y382414D01*
X129787Y381786D01*
X129790Y381766D01*
X129788Y381747D01*
X129810Y381645D01*
X129826Y381543D01*
X129836Y381526D01*
X129840Y381506D01*
X129893Y381417D01*
X129942Y381326D01*
X129956Y381312D01*
X129966Y381295D01*
X130045Y381228D01*
X130120Y381156D01*
X130138Y381148D01*
X130153Y381135D01*
X130249Y381096D01*
X130343Y381053D01*
X130363Y381051D01*
X130381Y381043D01*
X130548Y381025D01*
X135132Y381025D01*
X136176Y379981D01*
X136234Y379939D01*
X136286Y379889D01*
X136333Y379867D01*
X136375Y379837D01*
X136444Y379816D01*
X136509Y379786D01*
X136561Y379780D01*
X136611Y379765D01*
X136682Y379767D01*
X136753Y379759D01*
X136804Y379770D01*
X136856Y379771D01*
X136924Y379796D01*
X136994Y379811D01*
X137039Y379838D01*
X137087Y379855D01*
X137143Y379900D01*
X137205Y379937D01*
X137239Y379977D01*
X137279Y380009D01*
X137318Y380069D01*
X137365Y380124D01*
X137384Y380172D01*
X137412Y380216D01*
X137430Y380286D01*
X137457Y380352D01*
X137465Y380423D01*
X137473Y380455D01*
X137471Y380478D01*
X137475Y380519D01*
X137475Y388282D01*
X138368Y389175D01*
X146632Y389175D01*
X146764Y389043D01*
X146859Y388974D01*
X146956Y388903D01*
X146960Y388901D01*
X146963Y388899D01*
X147077Y388864D01*
X147190Y388828D01*
X147195Y388828D01*
X147198Y388827D01*
X147317Y388830D01*
X147436Y388832D01*
X147440Y388833D01*
X147444Y388833D01*
X147555Y388874D01*
X147668Y388913D01*
X147671Y388916D01*
X147675Y388917D01*
X147768Y388992D01*
X147862Y389065D01*
X147865Y389069D01*
X147867Y389071D01*
X147875Y389083D01*
X147961Y389200D01*
X147967Y389210D01*
X148440Y389683D01*
X149019Y390018D01*
X149666Y390191D01*
X151977Y390191D01*
X151977Y384912D01*
X151980Y384892D01*
X151978Y384873D01*
X152000Y384771D01*
X152017Y384669D01*
X152026Y384652D01*
X152030Y384632D01*
X152083Y384543D01*
X152132Y384452D01*
X152146Y384438D01*
X152156Y384421D01*
X152235Y384354D01*
X152310Y384283D01*
X152328Y384274D01*
X152343Y384261D01*
X152439Y384222D01*
X152533Y384179D01*
X152553Y384177D01*
X152571Y384169D01*
X152738Y384151D01*
X153501Y384151D01*
X153501Y384149D01*
X152738Y384149D01*
X152718Y384146D01*
X152699Y384148D01*
X152597Y384126D01*
X152495Y384109D01*
X152478Y384100D01*
X152458Y384096D01*
X152369Y384043D01*
X152278Y383994D01*
X152264Y383980D01*
X152247Y383970D01*
X152180Y383891D01*
X152109Y383816D01*
X152100Y383798D01*
X152087Y383783D01*
X152048Y383687D01*
X152005Y383593D01*
X152003Y383573D01*
X151995Y383555D01*
X151977Y383388D01*
X151977Y378109D01*
X149565Y378109D01*
X149549Y378107D01*
X149521Y378110D01*
X149518Y378109D01*
X149515Y378109D01*
X149398Y378083D01*
X149376Y378078D01*
X149323Y378070D01*
X149313Y378065D01*
X149280Y378057D01*
X149278Y378056D01*
X149275Y378055D01*
X149172Y377993D01*
X149130Y377967D01*
X149105Y377954D01*
X149101Y377951D01*
X149069Y377931D01*
X149067Y377929D01*
X149065Y377928D01*
X148986Y377835D01*
X148941Y377782D01*
X148936Y377776D01*
X148935Y377775D01*
X148909Y377744D01*
X148908Y377742D01*
X148906Y377740D01*
X148862Y377628D01*
X148817Y377516D01*
X148817Y377513D01*
X148816Y377511D01*
X148816Y377502D01*
X148799Y377349D01*
X148799Y373298D01*
X147042Y371541D01*
X147030Y371525D01*
X147015Y371512D01*
X146959Y371425D01*
X146898Y371341D01*
X146893Y371322D01*
X146882Y371305D01*
X146856Y371205D01*
X146826Y371106D01*
X146827Y371086D01*
X146822Y371067D01*
X146830Y370964D01*
X146832Y370860D01*
X146839Y370841D01*
X146841Y370822D01*
X146881Y370727D01*
X146917Y370629D01*
X146929Y370614D01*
X146937Y370595D01*
X147009Y370506D01*
X147015Y370495D01*
X147022Y370489D01*
X147042Y370464D01*
X147462Y370045D01*
X147478Y370033D01*
X147490Y370017D01*
X147577Y369961D01*
X147661Y369901D01*
X147681Y369895D01*
X147697Y369884D01*
X147798Y369859D01*
X147897Y369829D01*
X147916Y369829D01*
X147936Y369824D01*
X148039Y369832D01*
X148142Y369835D01*
X148161Y369842D01*
X148181Y369843D01*
X148276Y369884D01*
X148373Y369920D01*
X148389Y369932D01*
X148407Y369940D01*
X148538Y370045D01*
X149368Y370875D01*
X157632Y370875D01*
X158525Y369982D01*
X158525Y368810D01*
X158539Y368720D01*
X158547Y368629D01*
X158559Y368599D01*
X158564Y368567D01*
X158607Y368487D01*
X158643Y368403D01*
X158669Y368371D01*
X158680Y368350D01*
X158703Y368328D01*
X158748Y368272D01*
X159597Y367423D01*
X159597Y363447D01*
X158748Y362598D01*
X158695Y362524D01*
X158635Y362455D01*
X158623Y362425D01*
X158604Y362398D01*
X158577Y362312D01*
X158543Y362227D01*
X158539Y362186D01*
X158532Y362163D01*
X158533Y362131D01*
X158525Y362060D01*
X158525Y361718D01*
X157632Y360825D01*
X157290Y360825D01*
X157200Y360811D01*
X157109Y360803D01*
X157079Y360791D01*
X157047Y360786D01*
X156967Y360743D01*
X156883Y360707D01*
X156851Y360681D01*
X156830Y360670D01*
X156808Y360647D01*
X156794Y360636D01*
X152797Y360636D01*
X152770Y360655D01*
X152701Y360715D01*
X152671Y360727D01*
X152644Y360746D01*
X152558Y360773D01*
X152473Y360807D01*
X152432Y360811D01*
X152409Y360818D01*
X152377Y360817D01*
X152306Y360825D01*
X149368Y360825D01*
X148538Y361655D01*
X148522Y361667D01*
X148510Y361683D01*
X148430Y361734D01*
X148423Y361740D01*
X148417Y361742D01*
X148339Y361799D01*
X148320Y361805D01*
X148303Y361816D01*
X148202Y361841D01*
X148103Y361871D01*
X148084Y361871D01*
X148064Y361876D01*
X147961Y361868D01*
X147858Y361865D01*
X147839Y361858D01*
X147819Y361857D01*
X147724Y361816D01*
X147627Y361781D01*
X147611Y361768D01*
X147593Y361760D01*
X147513Y361696D01*
X147512Y361696D01*
X147462Y361655D01*
X146632Y360825D01*
X138368Y360825D01*
X137475Y361718D01*
X137475Y367481D01*
X137464Y367552D01*
X137462Y367624D01*
X137444Y367673D01*
X137436Y367724D01*
X137402Y367787D01*
X137377Y367855D01*
X137345Y367895D01*
X137320Y367941D01*
X137268Y367991D01*
X137224Y368047D01*
X137180Y368075D01*
X137142Y368111D01*
X137077Y368141D01*
X137017Y368180D01*
X136966Y368192D01*
X136919Y368214D01*
X136848Y368222D01*
X136778Y368240D01*
X136726Y368236D01*
X136675Y368241D01*
X136604Y368226D01*
X136533Y368221D01*
X136485Y368200D01*
X136434Y368189D01*
X136373Y368152D01*
X136307Y368124D01*
X136251Y368079D01*
X136223Y368063D01*
X136208Y368045D01*
X136176Y368019D01*
X135132Y366975D01*
X123868Y366975D01*
X122975Y367868D01*
X122975Y379404D01*
X122964Y379474D01*
X122962Y379546D01*
X122944Y379595D01*
X122936Y379646D01*
X122902Y379710D01*
X122877Y379777D01*
X122845Y379818D01*
X122820Y379864D01*
X122769Y379913D01*
X122724Y379969D01*
X122680Y379997D01*
X122642Y380033D01*
X122577Y380063D01*
X122517Y380102D01*
X122466Y380115D01*
X122419Y380137D01*
X122348Y380145D01*
X122278Y380162D01*
X122226Y380158D01*
X122175Y380164D01*
X122104Y380149D01*
X122033Y380143D01*
X121985Y380123D01*
X121934Y380112D01*
X121873Y380075D01*
X121807Y380047D01*
X121751Y380002D01*
X121723Y379985D01*
X121708Y379968D01*
X121676Y379942D01*
X119248Y377514D01*
X119195Y377440D01*
X119135Y377370D01*
X119123Y377340D01*
X119104Y377314D01*
X119077Y377227D01*
X119043Y377142D01*
X119039Y377101D01*
X119032Y377079D01*
X119033Y377047D01*
X119025Y376976D01*
X119025Y367868D01*
X118132Y366975D01*
X106868Y366975D01*
X105975Y367868D01*
X105975Y380132D01*
X106868Y381025D01*
X115976Y381025D01*
X116066Y381039D01*
X116157Y381047D01*
X116186Y381059D01*
X116218Y381064D01*
X116299Y381107D01*
X116383Y381143D01*
X116415Y381169D01*
X116436Y381180D01*
X116458Y381203D01*
X116514Y381248D01*
X116990Y381724D01*
X117044Y381798D01*
X117103Y381868D01*
X117115Y381898D01*
X117134Y381924D01*
X117161Y382011D01*
X117195Y382096D01*
X117199Y382137D01*
X117206Y382159D01*
X117205Y382191D01*
X117213Y382263D01*
X117213Y382414D01*
X117211Y382430D01*
X117212Y382444D01*
X117212Y382447D01*
X117212Y382453D01*
X117190Y382555D01*
X117174Y382657D01*
X117164Y382674D01*
X117160Y382694D01*
X117107Y382783D01*
X117058Y382874D01*
X117044Y382888D01*
X117034Y382905D01*
X116955Y382972D01*
X116880Y383044D01*
X116862Y383052D01*
X116847Y383065D01*
X116751Y383104D01*
X116657Y383147D01*
X116637Y383149D01*
X116619Y383157D01*
X116452Y383175D01*
X113618Y383175D01*
X112725Y384068D01*
X112725Y402332D01*
X113618Y403225D01*
X117726Y403225D01*
X117816Y403239D01*
X117907Y403247D01*
X117936Y403259D01*
X117968Y403264D01*
X118049Y403307D01*
X118133Y403343D01*
X118165Y403369D01*
X118186Y403380D01*
X118208Y403403D01*
X118264Y403448D01*
X122303Y407487D01*
X167337Y407487D01*
X167428Y407501D01*
X167518Y407509D01*
X167548Y407521D01*
X167580Y407526D01*
X167661Y407569D01*
X167745Y407605D01*
X167777Y407631D01*
X167798Y407642D01*
X167820Y407665D01*
X167876Y407710D01*
X183102Y422935D01*
X183113Y422952D01*
X183129Y422964D01*
X183185Y423051D01*
X183245Y423135D01*
X183251Y423154D01*
X183262Y423171D01*
X183287Y423271D01*
X183317Y423370D01*
X183317Y423390D01*
X183322Y423410D01*
X183314Y423513D01*
X183311Y423616D01*
X183304Y423635D01*
X183303Y423655D01*
X183262Y423750D01*
X183227Y423847D01*
X183214Y423863D01*
X183206Y423881D01*
X183102Y424012D01*
X182851Y424262D01*
X182851Y428238D01*
X185662Y431049D01*
X189638Y431049D01*
X192449Y428238D01*
X192449Y426310D01*
X192452Y426290D01*
X192450Y426271D01*
X192472Y426169D01*
X192488Y426067D01*
X192498Y426050D01*
X192502Y426030D01*
X192555Y425941D01*
X192604Y425850D01*
X192618Y425836D01*
X192628Y425819D01*
X192707Y425752D01*
X192782Y425680D01*
X192800Y425672D01*
X192815Y425659D01*
X192911Y425620D01*
X193005Y425577D01*
X193025Y425575D01*
X193043Y425567D01*
X193210Y425549D01*
X195838Y425549D01*
X197276Y424111D01*
X197334Y424069D01*
X197386Y424019D01*
X197433Y423998D01*
X197475Y423967D01*
X197544Y423946D01*
X197609Y423916D01*
X197661Y423910D01*
X197711Y423895D01*
X197782Y423897D01*
X197853Y423889D01*
X197904Y423900D01*
X197956Y423901D01*
X198024Y423926D01*
X198094Y423941D01*
X198139Y423968D01*
X198187Y423986D01*
X198243Y424030D01*
X198305Y424067D01*
X198339Y424107D01*
X198379Y424139D01*
X198418Y424200D01*
X198465Y424254D01*
X198484Y424302D01*
X198512Y424346D01*
X198530Y424416D01*
X198557Y424482D01*
X198565Y424554D01*
X198573Y424585D01*
X198571Y424608D01*
X198575Y424649D01*
X198575Y446698D01*
X198572Y446718D01*
X198574Y446737D01*
X198552Y446839D01*
X198536Y446941D01*
X198526Y446958D01*
X198522Y446978D01*
X198469Y447067D01*
X198420Y447158D01*
X198406Y447172D01*
X198396Y447189D01*
X198317Y447256D01*
X198242Y447328D01*
X198224Y447336D01*
X198209Y447349D01*
X198113Y447388D01*
X198019Y447431D01*
X197999Y447433D01*
X197981Y447441D01*
X197814Y447459D01*
X60048Y447459D01*
X60028Y447456D01*
X60009Y447458D01*
X59907Y447436D01*
X59805Y447420D01*
X59788Y447410D01*
X59768Y447406D01*
X59679Y447353D01*
X59588Y447304D01*
X59574Y447290D01*
X59557Y447280D01*
X59490Y447201D01*
X59418Y447126D01*
X59410Y447108D01*
X59397Y447093D01*
X59358Y446997D01*
X59315Y446903D01*
X59313Y446883D01*
X59305Y446865D01*
X59287Y446698D01*
X59287Y438608D01*
X59290Y438588D01*
X59288Y438569D01*
X59310Y438467D01*
X59326Y438365D01*
X59336Y438348D01*
X59340Y438328D01*
X59393Y438239D01*
X59442Y438148D01*
X59456Y438134D01*
X59466Y438117D01*
X59545Y438050D01*
X59620Y437978D01*
X59638Y437970D01*
X59653Y437957D01*
X59749Y437918D01*
X59843Y437875D01*
X59863Y437873D01*
X59881Y437865D01*
X60048Y437847D01*
X75140Y437847D01*
X75160Y437850D01*
X75179Y437848D01*
X75281Y437870D01*
X75383Y437886D01*
X75400Y437896D01*
X75420Y437900D01*
X75509Y437953D01*
X75600Y438002D01*
X75614Y438016D01*
X75631Y438026D01*
X75698Y438105D01*
X75770Y438180D01*
X75778Y438198D01*
X75791Y438213D01*
X75829Y438309D01*
X75873Y438403D01*
X75875Y438423D01*
X75883Y438441D01*
X75901Y438608D01*
X75901Y438988D01*
X78712Y441799D01*
X82688Y441799D01*
X85499Y438988D01*
X85499Y435012D01*
X82688Y432201D01*
X81506Y432201D01*
X81435Y432190D01*
X81364Y432188D01*
X81315Y432170D01*
X81263Y432162D01*
X81200Y432128D01*
X81133Y432103D01*
X81092Y432071D01*
X81046Y432046D01*
X80997Y431995D01*
X80941Y431950D01*
X80912Y431906D01*
X80877Y431868D01*
X80846Y431803D01*
X80808Y431743D01*
X80795Y431692D01*
X80773Y431645D01*
X80765Y431574D01*
X80747Y431504D01*
X80752Y431452D01*
X80746Y431401D01*
X80761Y431330D01*
X80767Y431259D01*
X80787Y431211D01*
X80798Y431160D01*
X80835Y431099D01*
X80863Y431033D01*
X80908Y430977D01*
X80924Y430949D01*
X80942Y430934D01*
X80968Y430902D01*
X81098Y430772D01*
X81098Y428308D01*
X81101Y428288D01*
X81099Y428269D01*
X81121Y428167D01*
X81137Y428065D01*
X81147Y428048D01*
X81151Y428028D01*
X81204Y427939D01*
X81253Y427848D01*
X81267Y427834D01*
X81277Y427817D01*
X81356Y427750D01*
X81431Y427678D01*
X81449Y427670D01*
X81464Y427657D01*
X81560Y427618D01*
X81654Y427575D01*
X81674Y427573D01*
X81692Y427565D01*
X81859Y427547D01*
X85045Y427547D01*
X85938Y426654D01*
X85938Y414214D01*
X85045Y413321D01*
X78811Y413321D01*
X78791Y413318D01*
X78772Y413320D01*
X78670Y413298D01*
X78568Y413282D01*
X78551Y413272D01*
X78531Y413268D01*
X78442Y413215D01*
X78351Y413166D01*
X78337Y413152D01*
X78320Y413142D01*
X78253Y413063D01*
X78181Y412988D01*
X78173Y412970D01*
X78160Y412955D01*
X78121Y412859D01*
X78078Y412765D01*
X78076Y412745D01*
X78068Y412727D01*
X78050Y412560D01*
X78050Y397897D01*
X72177Y392024D01*
X72124Y391950D01*
X72064Y391880D01*
X72052Y391850D01*
X72033Y391824D01*
X72006Y391737D01*
X71972Y391652D01*
X71968Y391611D01*
X71961Y391589D01*
X71962Y391557D01*
X71954Y391485D01*
X71954Y391279D01*
X71972Y391166D01*
X71988Y391052D01*
X71992Y391042D01*
X71993Y391036D01*
X72004Y391016D01*
X72027Y390965D01*
X72208Y390288D01*
X72208Y385699D01*
X67572Y385699D01*
X67552Y385696D01*
X67532Y385698D01*
X67431Y385676D01*
X67329Y385659D01*
X67311Y385650D01*
X67292Y385645D01*
X67203Y385592D01*
X67112Y385544D01*
X67098Y385530D01*
X67081Y385519D01*
X67013Y385441D01*
X67006Y385432D01*
X66931Y385496D01*
X66856Y385567D01*
X66838Y385575D01*
X66823Y385588D01*
X66727Y385627D01*
X66633Y385671D01*
X66614Y385673D01*
X66595Y385680D01*
X66428Y385699D01*
X61792Y385699D01*
X61792Y390288D01*
X61983Y391001D01*
X61984Y391004D01*
X62028Y391112D01*
X62029Y391122D01*
X62031Y391128D01*
X62032Y391150D01*
X62046Y391279D01*
X62046Y391485D01*
X62032Y391576D01*
X62024Y391666D01*
X62012Y391696D01*
X62007Y391728D01*
X61964Y391809D01*
X61928Y391893D01*
X61902Y391925D01*
X61891Y391946D01*
X61868Y391968D01*
X61823Y392024D01*
X60586Y393261D01*
X60528Y393303D01*
X60476Y393352D01*
X60429Y393374D01*
X60387Y393404D01*
X60318Y393425D01*
X60253Y393456D01*
X60201Y393461D01*
X60151Y393477D01*
X60080Y393475D01*
X60009Y393483D01*
X59958Y393472D01*
X59906Y393470D01*
X59838Y393446D01*
X59768Y393431D01*
X59723Y393404D01*
X59675Y393386D01*
X59619Y393341D01*
X59557Y393304D01*
X59523Y393265D01*
X59483Y393232D01*
X59444Y393172D01*
X59397Y393117D01*
X59378Y393069D01*
X59350Y393025D01*
X59332Y392956D01*
X59305Y392889D01*
X59297Y392818D01*
X59289Y392787D01*
X59291Y392763D01*
X59287Y392723D01*
X59287Y321030D01*
X59290Y321010D01*
X59288Y320991D01*
X59310Y320889D01*
X59326Y320787D01*
X59336Y320770D01*
X59340Y320750D01*
X59393Y320661D01*
X59442Y320570D01*
X59456Y320556D01*
X59466Y320539D01*
X59545Y320472D01*
X59620Y320400D01*
X59638Y320392D01*
X59653Y320379D01*
X59749Y320340D01*
X59843Y320297D01*
X59863Y320295D01*
X59881Y320287D01*
X60048Y320269D01*
X63988Y320269D01*
X66799Y317458D01*
X66799Y313482D01*
X64789Y311472D01*
X64777Y311456D01*
X64762Y311444D01*
X64705Y311356D01*
X64645Y311273D01*
X64639Y311254D01*
X64629Y311237D01*
X64603Y311136D01*
X64573Y311037D01*
X64573Y311018D01*
X64568Y310998D01*
X64576Y310895D01*
X64579Y310792D01*
X64586Y310773D01*
X64588Y310753D01*
X64628Y310658D01*
X64664Y310561D01*
X64676Y310545D01*
X64684Y310527D01*
X64789Y310396D01*
X65799Y309386D01*
X65799Y305410D01*
X62988Y302599D01*
X60048Y302599D01*
X60028Y302596D01*
X60009Y302598D01*
X59907Y302576D01*
X59805Y302560D01*
X59788Y302550D01*
X59768Y302546D01*
X59679Y302493D01*
X59588Y302444D01*
X59574Y302430D01*
X59557Y302420D01*
X59490Y302341D01*
X59418Y302266D01*
X59410Y302248D01*
X59397Y302233D01*
X59358Y302137D01*
X59315Y302043D01*
X59313Y302023D01*
X59305Y302005D01*
X59287Y301838D01*
X59287Y267632D01*
X59290Y267612D01*
X59288Y267593D01*
X59310Y267491D01*
X59326Y267389D01*
X59336Y267372D01*
X59340Y267352D01*
X59393Y267263D01*
X59442Y267172D01*
X59456Y267158D01*
X59466Y267141D01*
X59545Y267074D01*
X59620Y267002D01*
X59638Y266994D01*
X59653Y266981D01*
X59749Y266942D01*
X59843Y266899D01*
X59863Y266897D01*
X59881Y266889D01*
X60048Y266871D01*
X63353Y266871D01*
X66164Y264060D01*
X66164Y260084D01*
X65222Y259143D01*
X65211Y259127D01*
X65195Y259114D01*
X65139Y259027D01*
X65079Y258943D01*
X65073Y258924D01*
X65062Y258907D01*
X65037Y258807D01*
X65006Y258708D01*
X65007Y258688D01*
X65002Y258669D01*
X65010Y258566D01*
X65013Y258462D01*
X65020Y258443D01*
X65021Y258424D01*
X65061Y258329D01*
X65097Y258231D01*
X65110Y258215D01*
X65117Y258197D01*
X65222Y258066D01*
X67301Y255988D01*
X67301Y252012D01*
X65561Y250273D01*
X65549Y250256D01*
X65534Y250244D01*
X65478Y250157D01*
X65417Y250073D01*
X65412Y250054D01*
X65401Y250037D01*
X65376Y249937D01*
X65345Y249838D01*
X65346Y249818D01*
X65341Y249799D01*
X65349Y249696D01*
X65351Y249592D01*
X65358Y249573D01*
X65360Y249553D01*
X65400Y249458D01*
X65436Y249361D01*
X65448Y249345D01*
X65456Y249327D01*
X65561Y249196D01*
X66841Y247916D01*
X66841Y243940D01*
X64030Y241129D01*
X60048Y241129D01*
X60028Y241126D01*
X60009Y241128D01*
X59907Y241106D01*
X59805Y241090D01*
X59788Y241080D01*
X59768Y241076D01*
X59679Y241023D01*
X59588Y240974D01*
X59574Y240960D01*
X59557Y240950D01*
X59490Y240871D01*
X59418Y240796D01*
X59410Y240778D01*
X59397Y240763D01*
X59358Y240667D01*
X59315Y240573D01*
X59313Y240553D01*
X59305Y240535D01*
X59287Y240368D01*
X59287Y224263D01*
X59301Y224172D01*
X59309Y224082D01*
X59321Y224052D01*
X59326Y224020D01*
X59369Y223939D01*
X59405Y223855D01*
X59431Y223823D01*
X59442Y223802D01*
X59465Y223780D01*
X59510Y223724D01*
X72287Y210947D01*
X72287Y210686D01*
X72290Y210666D01*
X72288Y210647D01*
X72310Y210545D01*
X72326Y210443D01*
X72336Y210426D01*
X72340Y210406D01*
X72393Y210317D01*
X72442Y210226D01*
X72456Y210212D01*
X72466Y210195D01*
X72545Y210128D01*
X72620Y210056D01*
X72638Y210048D01*
X72653Y210035D01*
X72749Y209996D01*
X72843Y209953D01*
X72863Y209951D01*
X72881Y209943D01*
X73048Y209925D01*
X73288Y209925D01*
X76099Y207114D01*
X76099Y203138D01*
X73810Y200849D01*
X73757Y200775D01*
X73697Y200706D01*
X73685Y200676D01*
X73666Y200650D01*
X73639Y200563D01*
X73605Y200478D01*
X73601Y200437D01*
X73594Y200414D01*
X73595Y200382D01*
X73587Y200311D01*
X73587Y177162D01*
X73590Y177142D01*
X73588Y177123D01*
X73610Y177021D01*
X73626Y176919D01*
X73636Y176902D01*
X73640Y176882D01*
X73693Y176793D01*
X73742Y176702D01*
X73756Y176688D01*
X73766Y176671D01*
X73845Y176604D01*
X73920Y176532D01*
X73938Y176524D01*
X73953Y176511D01*
X74049Y176472D01*
X74143Y176429D01*
X74163Y176427D01*
X74181Y176419D01*
X74348Y176401D01*
X75988Y176401D01*
X76414Y175975D01*
X76472Y175933D01*
X76524Y175883D01*
X76571Y175862D01*
X76613Y175831D01*
X76682Y175810D01*
X76747Y175780D01*
X76799Y175774D01*
X76849Y175759D01*
X76920Y175761D01*
X76991Y175753D01*
X77042Y175764D01*
G37*
G36*
X13179Y99242D02*
X13179Y99242D01*
X13198Y99240D01*
X13300Y99262D01*
X13402Y99279D01*
X13419Y99288D01*
X13439Y99292D01*
X13528Y99345D01*
X13619Y99394D01*
X13633Y99408D01*
X13650Y99418D01*
X13717Y99497D01*
X13789Y99572D01*
X13797Y99590D01*
X13810Y99605D01*
X13849Y99701D01*
X13892Y99795D01*
X13894Y99815D01*
X13902Y99833D01*
X13920Y100000D01*
X13920Y100757D01*
X14813Y101650D01*
X35127Y101650D01*
X36020Y100757D01*
X36020Y100000D01*
X36023Y99980D01*
X36021Y99961D01*
X36043Y99859D01*
X36059Y99757D01*
X36069Y99740D01*
X36073Y99720D01*
X36126Y99631D01*
X36175Y99540D01*
X36189Y99526D01*
X36199Y99509D01*
X36278Y99442D01*
X36353Y99371D01*
X36371Y99362D01*
X36386Y99349D01*
X36482Y99310D01*
X36576Y99267D01*
X36596Y99265D01*
X36614Y99257D01*
X36781Y99239D01*
X42559Y99239D01*
X42649Y99254D01*
X42740Y99261D01*
X42770Y99273D01*
X42802Y99279D01*
X42882Y99321D01*
X42966Y99357D01*
X42998Y99383D01*
X43019Y99394D01*
X43041Y99417D01*
X43097Y99462D01*
X43603Y99967D01*
X47664Y101650D01*
X52060Y101650D01*
X56121Y99967D01*
X56627Y99462D01*
X56701Y99409D01*
X56770Y99349D01*
X56801Y99337D01*
X56827Y99318D01*
X56914Y99291D01*
X56999Y99257D01*
X57039Y99253D01*
X57062Y99246D01*
X57094Y99247D01*
X57165Y99239D01*
X67705Y99239D01*
X67795Y99254D01*
X67886Y99261D01*
X67916Y99273D01*
X67948Y99279D01*
X68028Y99321D01*
X68112Y99357D01*
X68144Y99383D01*
X68165Y99394D01*
X68187Y99417D01*
X68243Y99462D01*
X68749Y99967D01*
X72810Y101650D01*
X77206Y101650D01*
X81267Y99967D01*
X81773Y99462D01*
X81847Y99409D01*
X81916Y99349D01*
X81947Y99337D01*
X81973Y99318D01*
X82060Y99291D01*
X82145Y99257D01*
X82185Y99253D01*
X82208Y99246D01*
X82240Y99247D01*
X82311Y99239D01*
X92597Y99239D01*
X92687Y99254D01*
X92778Y99261D01*
X92808Y99273D01*
X92840Y99279D01*
X92920Y99321D01*
X93004Y99357D01*
X93036Y99383D01*
X93057Y99394D01*
X93079Y99417D01*
X93135Y99462D01*
X93641Y99967D01*
X97702Y101650D01*
X102098Y101650D01*
X106159Y99967D01*
X106665Y99462D01*
X106739Y99409D01*
X106808Y99349D01*
X106839Y99337D01*
X106865Y99318D01*
X106952Y99291D01*
X107037Y99257D01*
X107077Y99253D01*
X107100Y99246D01*
X107132Y99247D01*
X107203Y99239D01*
X212000Y99239D01*
X212090Y99254D01*
X212181Y99261D01*
X212211Y99273D01*
X212243Y99279D01*
X212323Y99321D01*
X212407Y99357D01*
X212439Y99383D01*
X212460Y99394D01*
X212482Y99417D01*
X212538Y99462D01*
X235852Y122776D01*
X235905Y122850D01*
X235965Y122919D01*
X235977Y122949D01*
X235996Y122975D01*
X236023Y123062D01*
X236057Y123147D01*
X236061Y123188D01*
X236068Y123211D01*
X236067Y123243D01*
X236075Y123314D01*
X236075Y123451D01*
X236064Y123522D01*
X236062Y123593D01*
X236044Y123642D01*
X236036Y123694D01*
X236002Y123757D01*
X235977Y123824D01*
X235945Y123865D01*
X235920Y123911D01*
X235868Y123961D01*
X235824Y124017D01*
X235780Y124045D01*
X235742Y124081D01*
X235677Y124111D01*
X235617Y124150D01*
X235566Y124162D01*
X235519Y124184D01*
X235448Y124192D01*
X235378Y124210D01*
X235326Y124206D01*
X235275Y124211D01*
X235204Y124196D01*
X235133Y124190D01*
X235085Y124170D01*
X235034Y124159D01*
X234973Y124122D01*
X234907Y124094D01*
X234851Y124049D01*
X234823Y124033D01*
X234808Y124015D01*
X234776Y123989D01*
X232988Y122201D01*
X229012Y122201D01*
X226098Y125115D01*
X226040Y125157D01*
X225988Y125207D01*
X225941Y125228D01*
X225899Y125259D01*
X225830Y125280D01*
X225765Y125310D01*
X225713Y125316D01*
X225663Y125331D01*
X225592Y125329D01*
X225521Y125337D01*
X225470Y125326D01*
X225418Y125325D01*
X225350Y125300D01*
X225280Y125285D01*
X225235Y125258D01*
X225187Y125240D01*
X225131Y125196D01*
X225069Y125159D01*
X225035Y125119D01*
X224995Y125087D01*
X224956Y125026D01*
X224909Y124972D01*
X224890Y124924D01*
X224862Y124880D01*
X224844Y124810D01*
X224817Y124744D01*
X224809Y124672D01*
X224801Y124641D01*
X224803Y124618D01*
X224799Y124577D01*
X224799Y123512D01*
X221988Y120701D01*
X221560Y120701D01*
X221540Y120698D01*
X221521Y120700D01*
X221419Y120678D01*
X221317Y120662D01*
X221300Y120652D01*
X221280Y120648D01*
X221191Y120595D01*
X221100Y120546D01*
X221086Y120532D01*
X221069Y120522D01*
X221002Y120443D01*
X220930Y120368D01*
X220922Y120350D01*
X220909Y120335D01*
X220870Y120239D01*
X220827Y120145D01*
X220825Y120125D01*
X220817Y120107D01*
X220799Y119940D01*
X220799Y117012D01*
X217988Y114201D01*
X214012Y114201D01*
X211201Y117012D01*
X211201Y119940D01*
X211198Y119960D01*
X211200Y119979D01*
X211178Y120081D01*
X211162Y120183D01*
X211152Y120200D01*
X211148Y120220D01*
X211095Y120309D01*
X211046Y120400D01*
X211032Y120414D01*
X211022Y120431D01*
X210943Y120498D01*
X210868Y120570D01*
X210850Y120578D01*
X210835Y120591D01*
X210739Y120630D01*
X210645Y120673D01*
X210625Y120675D01*
X210607Y120683D01*
X210521Y120692D01*
X207701Y123512D01*
X207701Y127488D01*
X210512Y130299D01*
X214488Y130299D01*
X215712Y129075D01*
X215728Y129063D01*
X215740Y129048D01*
X215828Y128991D01*
X215911Y128931D01*
X215930Y128925D01*
X215947Y128915D01*
X216048Y128889D01*
X216147Y128859D01*
X216166Y128859D01*
X216186Y128854D01*
X216289Y128862D01*
X216392Y128865D01*
X216411Y128872D01*
X216431Y128874D01*
X216526Y128914D01*
X216623Y128950D01*
X216639Y128962D01*
X216657Y128970D01*
X216788Y129075D01*
X218012Y130299D01*
X221988Y130299D01*
X224902Y127385D01*
X224960Y127343D01*
X225012Y127293D01*
X225059Y127272D01*
X225101Y127241D01*
X225170Y127220D01*
X225235Y127190D01*
X225287Y127184D01*
X225337Y127169D01*
X225408Y127171D01*
X225479Y127163D01*
X225530Y127174D01*
X225582Y127175D01*
X225650Y127200D01*
X225720Y127215D01*
X225765Y127242D01*
X225813Y127260D01*
X225869Y127304D01*
X225931Y127341D01*
X225965Y127381D01*
X226005Y127413D01*
X226044Y127474D01*
X226091Y127528D01*
X226110Y127576D01*
X226138Y127620D01*
X226156Y127690D01*
X226183Y127756D01*
X226191Y127828D01*
X226199Y127859D01*
X226197Y127882D01*
X226201Y127923D01*
X226201Y128988D01*
X229012Y131799D01*
X232988Y131799D01*
X234776Y130011D01*
X234834Y129969D01*
X234886Y129919D01*
X234933Y129898D01*
X234975Y129867D01*
X235044Y129846D01*
X235109Y129816D01*
X235161Y129810D01*
X235211Y129795D01*
X235282Y129797D01*
X235353Y129789D01*
X235404Y129800D01*
X235456Y129801D01*
X235524Y129826D01*
X235594Y129841D01*
X235639Y129868D01*
X235687Y129886D01*
X235743Y129930D01*
X235805Y129967D01*
X235839Y130007D01*
X235879Y130039D01*
X235918Y130100D01*
X235965Y130154D01*
X235984Y130202D01*
X236012Y130246D01*
X236030Y130316D01*
X236057Y130382D01*
X236065Y130454D01*
X236073Y130485D01*
X236071Y130508D01*
X236075Y130549D01*
X236075Y134632D01*
X236968Y135525D01*
X242000Y135525D01*
X242020Y135528D01*
X242039Y135526D01*
X242141Y135548D01*
X242243Y135564D01*
X242260Y135574D01*
X242280Y135578D01*
X242369Y135631D01*
X242460Y135680D01*
X242474Y135694D01*
X242491Y135704D01*
X242558Y135783D01*
X242630Y135858D01*
X242638Y135876D01*
X242651Y135891D01*
X242690Y135987D01*
X242733Y136081D01*
X242735Y136101D01*
X242743Y136119D01*
X242761Y136286D01*
X242761Y137714D01*
X242758Y137734D01*
X242760Y137753D01*
X242738Y137855D01*
X242722Y137957D01*
X242712Y137974D01*
X242708Y137994D01*
X242655Y138083D01*
X242606Y138174D01*
X242592Y138188D01*
X242582Y138205D01*
X242503Y138272D01*
X242428Y138344D01*
X242410Y138352D01*
X242395Y138365D01*
X242299Y138404D01*
X242205Y138447D01*
X242185Y138449D01*
X242167Y138457D01*
X242000Y138475D01*
X236968Y138475D01*
X236075Y139368D01*
X236075Y151632D01*
X236455Y152012D01*
X236467Y152028D01*
X236483Y152040D01*
X236513Y152088D01*
X236523Y152098D01*
X236531Y152116D01*
X236539Y152127D01*
X236599Y152211D01*
X236605Y152230D01*
X236616Y152247D01*
X236641Y152348D01*
X236671Y152447D01*
X236671Y152466D01*
X236676Y152486D01*
X236668Y152589D01*
X236665Y152692D01*
X236658Y152711D01*
X236657Y152731D01*
X236616Y152826D01*
X236581Y152923D01*
X236568Y152939D01*
X236560Y152957D01*
X236475Y153063D01*
X236475Y165332D01*
X237368Y166225D01*
X242000Y166225D01*
X242020Y166228D01*
X242039Y166226D01*
X242141Y166248D01*
X242243Y166264D01*
X242260Y166274D01*
X242280Y166278D01*
X242369Y166331D01*
X242460Y166380D01*
X242474Y166394D01*
X242491Y166404D01*
X242558Y166483D01*
X242630Y166558D01*
X242638Y166576D01*
X242651Y166591D01*
X242690Y166687D01*
X242733Y166781D01*
X242735Y166801D01*
X242743Y166819D01*
X242761Y166986D01*
X242761Y182914D01*
X242758Y182934D01*
X242760Y182953D01*
X242738Y183055D01*
X242722Y183157D01*
X242712Y183174D01*
X242708Y183194D01*
X242655Y183283D01*
X242606Y183374D01*
X242592Y183388D01*
X242582Y183405D01*
X242503Y183472D01*
X242428Y183544D01*
X242410Y183552D01*
X242395Y183565D01*
X242299Y183604D01*
X242205Y183647D01*
X242185Y183649D01*
X242167Y183657D01*
X242000Y183675D01*
X239368Y183675D01*
X238475Y184568D01*
X238475Y196000D01*
X238472Y196020D01*
X238474Y196039D01*
X238452Y196141D01*
X238436Y196243D01*
X238426Y196260D01*
X238422Y196280D01*
X238369Y196369D01*
X238320Y196460D01*
X238306Y196474D01*
X238296Y196491D01*
X238217Y196558D01*
X238142Y196630D01*
X238124Y196638D01*
X238109Y196651D01*
X238013Y196690D01*
X237919Y196733D01*
X237899Y196735D01*
X237881Y196743D01*
X237714Y196761D01*
X212000Y196761D01*
X211910Y196747D01*
X211819Y196739D01*
X211789Y196727D01*
X211757Y196722D01*
X211677Y196679D01*
X211593Y196643D01*
X211561Y196617D01*
X211540Y196606D01*
X211518Y196583D01*
X211462Y196538D01*
X190510Y175586D01*
X190457Y175512D01*
X190397Y175443D01*
X190385Y175413D01*
X190366Y175387D01*
X190339Y175300D01*
X190305Y175215D01*
X190301Y175174D01*
X190294Y175151D01*
X190295Y175119D01*
X190287Y175048D01*
X190287Y174053D01*
X185947Y169713D01*
X180911Y169713D01*
X180840Y169702D01*
X180769Y169700D01*
X180720Y169682D01*
X180668Y169674D01*
X180605Y169640D01*
X180537Y169615D01*
X180497Y169583D01*
X180451Y169558D01*
X180402Y169507D01*
X180345Y169462D01*
X180317Y169418D01*
X180281Y169380D01*
X180251Y169315D01*
X180212Y169255D01*
X180200Y169204D01*
X180178Y169157D01*
X180170Y169086D01*
X180152Y169016D01*
X180156Y168964D01*
X180151Y168913D01*
X180166Y168842D01*
X180172Y168771D01*
X180192Y168723D01*
X180203Y168672D01*
X180240Y168611D01*
X180268Y168545D01*
X180313Y168489D01*
X180329Y168461D01*
X180347Y168446D01*
X180373Y168414D01*
X180799Y167988D01*
X180799Y164012D01*
X179325Y162538D01*
X179313Y162522D01*
X179298Y162510D01*
X179241Y162422D01*
X179181Y162339D01*
X179175Y162320D01*
X179165Y162303D01*
X179139Y162202D01*
X179109Y162103D01*
X179109Y162084D01*
X179104Y162064D01*
X179112Y161961D01*
X179115Y161858D01*
X179122Y161839D01*
X179124Y161819D01*
X179164Y161724D01*
X179200Y161627D01*
X179212Y161611D01*
X179220Y161593D01*
X179325Y161462D01*
X180799Y159988D01*
X180799Y156012D01*
X179325Y154538D01*
X179313Y154522D01*
X179298Y154510D01*
X179241Y154422D01*
X179181Y154339D01*
X179175Y154320D01*
X179165Y154303D01*
X179139Y154202D01*
X179109Y154103D01*
X179109Y154084D01*
X179104Y154064D01*
X179112Y153961D01*
X179115Y153858D01*
X179122Y153839D01*
X179124Y153819D01*
X179164Y153724D01*
X179200Y153627D01*
X179212Y153611D01*
X179220Y153593D01*
X179325Y153462D01*
X180799Y151988D01*
X180799Y148012D01*
X177988Y145201D01*
X174012Y145201D01*
X172538Y146675D01*
X172522Y146687D01*
X172510Y146702D01*
X172422Y146759D01*
X172339Y146819D01*
X172320Y146825D01*
X172303Y146835D01*
X172202Y146861D01*
X172103Y146891D01*
X172084Y146891D01*
X172064Y146896D01*
X171961Y146888D01*
X171858Y146885D01*
X171839Y146878D01*
X171819Y146876D01*
X171724Y146836D01*
X171627Y146800D01*
X171611Y146788D01*
X171593Y146780D01*
X171462Y146675D01*
X169988Y145201D01*
X166012Y145201D01*
X164538Y146675D01*
X164522Y146687D01*
X164510Y146702D01*
X164422Y146759D01*
X164339Y146819D01*
X164320Y146825D01*
X164303Y146835D01*
X164202Y146861D01*
X164103Y146891D01*
X164084Y146891D01*
X164064Y146896D01*
X163961Y146888D01*
X163858Y146885D01*
X163839Y146878D01*
X163819Y146876D01*
X163724Y146836D01*
X163627Y146800D01*
X163611Y146788D01*
X163593Y146780D01*
X163462Y146675D01*
X161988Y145201D01*
X158012Y145201D01*
X156538Y146675D01*
X156522Y146687D01*
X156510Y146702D01*
X156422Y146759D01*
X156339Y146819D01*
X156320Y146825D01*
X156303Y146835D01*
X156202Y146861D01*
X156103Y146891D01*
X156084Y146891D01*
X156064Y146896D01*
X155961Y146888D01*
X155858Y146885D01*
X155839Y146878D01*
X155819Y146876D01*
X155724Y146836D01*
X155627Y146800D01*
X155611Y146788D01*
X155593Y146780D01*
X155462Y146675D01*
X153988Y145201D01*
X150012Y145201D01*
X147201Y148012D01*
X147201Y151988D01*
X148675Y153462D01*
X148687Y153478D01*
X148702Y153490D01*
X148759Y153578D01*
X148819Y153661D01*
X148825Y153680D01*
X148835Y153697D01*
X148861Y153798D01*
X148891Y153897D01*
X148891Y153916D01*
X148896Y153936D01*
X148888Y154039D01*
X148885Y154142D01*
X148878Y154161D01*
X148876Y154181D01*
X148836Y154276D01*
X148800Y154373D01*
X148788Y154389D01*
X148780Y154407D01*
X148675Y154538D01*
X147201Y156012D01*
X147201Y159988D01*
X148675Y161462D01*
X148687Y161478D01*
X148702Y161490D01*
X148759Y161578D01*
X148819Y161661D01*
X148825Y161680D01*
X148835Y161697D01*
X148861Y161798D01*
X148891Y161897D01*
X148891Y161916D01*
X148896Y161936D01*
X148888Y162039D01*
X148885Y162142D01*
X148878Y162161D01*
X148876Y162181D01*
X148836Y162276D01*
X148800Y162373D01*
X148788Y162389D01*
X148780Y162407D01*
X148675Y162538D01*
X147201Y164012D01*
X147201Y164512D01*
X147198Y164532D01*
X147200Y164551D01*
X147178Y164653D01*
X147162Y164755D01*
X147152Y164772D01*
X147148Y164792D01*
X147095Y164881D01*
X147046Y164972D01*
X147032Y164986D01*
X147022Y165003D01*
X146943Y165070D01*
X146868Y165142D01*
X146850Y165150D01*
X146835Y165163D01*
X146739Y165202D01*
X146645Y165245D01*
X146625Y165247D01*
X146607Y165255D01*
X146440Y165273D01*
X144153Y165273D01*
X144082Y165262D01*
X144010Y165260D01*
X143961Y165242D01*
X143910Y165234D01*
X143847Y165200D01*
X143779Y165175D01*
X143739Y165143D01*
X143693Y165118D01*
X143644Y165067D01*
X143587Y165022D01*
X143559Y164978D01*
X143523Y164940D01*
X143493Y164875D01*
X143454Y164815D01*
X143442Y164764D01*
X143420Y164717D01*
X143412Y164646D01*
X143394Y164576D01*
X143398Y164524D01*
X143393Y164473D01*
X143408Y164402D01*
X143414Y164331D01*
X143434Y164283D01*
X143445Y164232D01*
X143482Y164171D01*
X143510Y164105D01*
X143555Y164049D01*
X143571Y164021D01*
X143589Y164006D01*
X143601Y163991D01*
X143601Y160012D01*
X140790Y157201D01*
X136814Y157201D01*
X134003Y160012D01*
X134003Y163952D01*
X134001Y163969D01*
X134002Y163984D01*
X134002Y163987D01*
X134002Y163991D01*
X133980Y164093D01*
X133964Y164195D01*
X133954Y164212D01*
X133950Y164232D01*
X133897Y164321D01*
X133848Y164412D01*
X133834Y164426D01*
X133824Y164443D01*
X133745Y164510D01*
X133670Y164582D01*
X133652Y164590D01*
X133637Y164603D01*
X133541Y164642D01*
X133447Y164685D01*
X133427Y164687D01*
X133409Y164695D01*
X133242Y164713D01*
X122370Y164713D01*
X117593Y169490D01*
X117519Y169543D01*
X117449Y169603D01*
X117419Y169615D01*
X117393Y169634D01*
X117306Y169661D01*
X117221Y169695D01*
X117180Y169699D01*
X117158Y169706D01*
X117126Y169705D01*
X117054Y169713D01*
X110911Y169713D01*
X110840Y169702D01*
X110769Y169700D01*
X110720Y169682D01*
X110668Y169674D01*
X110605Y169640D01*
X110537Y169615D01*
X110497Y169583D01*
X110451Y169558D01*
X110402Y169507D01*
X110345Y169462D01*
X110317Y169418D01*
X110281Y169380D01*
X110251Y169315D01*
X110212Y169255D01*
X110200Y169204D01*
X110178Y169157D01*
X110170Y169086D01*
X110152Y169016D01*
X110156Y168964D01*
X110151Y168913D01*
X110166Y168842D01*
X110172Y168771D01*
X110192Y168723D01*
X110203Y168672D01*
X110240Y168611D01*
X110268Y168545D01*
X110313Y168489D01*
X110329Y168461D01*
X110347Y168446D01*
X110373Y168414D01*
X110799Y167988D01*
X110799Y164012D01*
X109325Y162538D01*
X109313Y162522D01*
X109298Y162510D01*
X109241Y162422D01*
X109181Y162339D01*
X109175Y162320D01*
X109165Y162303D01*
X109139Y162202D01*
X109109Y162103D01*
X109109Y162084D01*
X109104Y162064D01*
X109112Y161961D01*
X109115Y161858D01*
X109122Y161839D01*
X109124Y161819D01*
X109164Y161724D01*
X109200Y161627D01*
X109212Y161611D01*
X109220Y161593D01*
X109325Y161462D01*
X110799Y159988D01*
X110799Y156012D01*
X109325Y154538D01*
X109313Y154522D01*
X109298Y154510D01*
X109241Y154422D01*
X109181Y154339D01*
X109175Y154320D01*
X109165Y154303D01*
X109139Y154202D01*
X109109Y154103D01*
X109109Y154084D01*
X109104Y154064D01*
X109112Y153961D01*
X109115Y153858D01*
X109122Y153839D01*
X109124Y153819D01*
X109164Y153724D01*
X109200Y153627D01*
X109212Y153611D01*
X109220Y153593D01*
X109325Y153462D01*
X110799Y151988D01*
X110799Y148012D01*
X107988Y145201D01*
X104012Y145201D01*
X102538Y146675D01*
X102522Y146687D01*
X102510Y146702D01*
X102422Y146759D01*
X102339Y146819D01*
X102320Y146825D01*
X102303Y146835D01*
X102202Y146861D01*
X102103Y146891D01*
X102084Y146891D01*
X102064Y146896D01*
X101961Y146888D01*
X101858Y146885D01*
X101839Y146878D01*
X101819Y146876D01*
X101724Y146836D01*
X101627Y146800D01*
X101611Y146788D01*
X101593Y146780D01*
X101462Y146675D01*
X99988Y145201D01*
X96012Y145201D01*
X94538Y146675D01*
X94522Y146687D01*
X94510Y146702D01*
X94422Y146759D01*
X94339Y146819D01*
X94320Y146825D01*
X94303Y146835D01*
X94202Y146861D01*
X94103Y146891D01*
X94084Y146891D01*
X94064Y146896D01*
X93961Y146888D01*
X93858Y146885D01*
X93839Y146878D01*
X93819Y146876D01*
X93724Y146836D01*
X93627Y146800D01*
X93611Y146788D01*
X93593Y146780D01*
X93462Y146675D01*
X91988Y145201D01*
X88012Y145201D01*
X86538Y146675D01*
X86522Y146687D01*
X86510Y146702D01*
X86422Y146759D01*
X86339Y146819D01*
X86320Y146825D01*
X86303Y146835D01*
X86202Y146861D01*
X86103Y146891D01*
X86084Y146891D01*
X86064Y146896D01*
X85961Y146888D01*
X85858Y146885D01*
X85839Y146878D01*
X85819Y146876D01*
X85724Y146836D01*
X85627Y146800D01*
X85611Y146788D01*
X85593Y146780D01*
X85462Y146675D01*
X83988Y145201D01*
X80012Y145201D01*
X77201Y148012D01*
X77201Y151988D01*
X78675Y153462D01*
X78687Y153478D01*
X78702Y153490D01*
X78759Y153578D01*
X78819Y153661D01*
X78825Y153680D01*
X78835Y153697D01*
X78861Y153798D01*
X78891Y153897D01*
X78891Y153916D01*
X78896Y153936D01*
X78888Y154039D01*
X78885Y154142D01*
X78878Y154161D01*
X78876Y154181D01*
X78836Y154276D01*
X78800Y154373D01*
X78788Y154389D01*
X78780Y154407D01*
X78675Y154538D01*
X77201Y156012D01*
X77201Y159988D01*
X78675Y161462D01*
X78687Y161478D01*
X78702Y161490D01*
X78759Y161578D01*
X78819Y161661D01*
X78825Y161680D01*
X78835Y161697D01*
X78861Y161798D01*
X78891Y161897D01*
X78891Y161916D01*
X78896Y161936D01*
X78888Y162039D01*
X78885Y162142D01*
X78878Y162161D01*
X78876Y162181D01*
X78836Y162276D01*
X78800Y162373D01*
X78788Y162389D01*
X78780Y162407D01*
X78675Y162538D01*
X77201Y164012D01*
X77201Y166179D01*
X77190Y166250D01*
X77188Y166322D01*
X77170Y166370D01*
X77162Y166422D01*
X77128Y166485D01*
X77103Y166553D01*
X77071Y166593D01*
X77046Y166639D01*
X76994Y166689D01*
X76950Y166745D01*
X76906Y166773D01*
X76868Y166809D01*
X76803Y166839D01*
X76743Y166878D01*
X76692Y166890D01*
X76645Y166912D01*
X76574Y166920D01*
X76504Y166938D01*
X76452Y166934D01*
X76401Y166939D01*
X76330Y166924D01*
X76259Y166918D01*
X76211Y166898D01*
X76160Y166887D01*
X76099Y166850D01*
X76033Y166822D01*
X76009Y166803D01*
X72012Y166803D01*
X70538Y168277D01*
X69201Y169614D01*
X69201Y172851D01*
X69199Y172866D01*
X69200Y172877D01*
X69187Y172936D01*
X69187Y172942D01*
X69179Y173032D01*
X69167Y173062D01*
X69162Y173094D01*
X69119Y173175D01*
X69083Y173259D01*
X69057Y173291D01*
X69046Y173312D01*
X69023Y173334D01*
X69013Y173346D01*
X69013Y200311D01*
X68999Y200401D01*
X68991Y200492D01*
X68979Y200522D01*
X68974Y200554D01*
X68931Y200634D01*
X68895Y200718D01*
X68869Y200750D01*
X68858Y200771D01*
X68835Y200793D01*
X68790Y200849D01*
X66501Y203138D01*
X66501Y207114D01*
X69312Y209925D01*
X69314Y209925D01*
X69385Y209936D01*
X69456Y209938D01*
X69505Y209956D01*
X69557Y209964D01*
X69620Y209998D01*
X69687Y210023D01*
X69728Y210055D01*
X69774Y210080D01*
X69823Y210131D01*
X69879Y210176D01*
X69908Y210220D01*
X69944Y210258D01*
X69974Y210323D01*
X70012Y210383D01*
X70025Y210434D01*
X70047Y210481D01*
X70055Y210552D01*
X70073Y210622D01*
X70068Y210674D01*
X70074Y210725D01*
X70059Y210796D01*
X70053Y210867D01*
X70033Y210915D01*
X70022Y210966D01*
X69985Y211027D01*
X69957Y211093D01*
X69912Y211149D01*
X69896Y211177D01*
X69878Y211192D01*
X69852Y211224D01*
X57761Y223315D01*
X57761Y243108D01*
X57747Y243198D01*
X57739Y243289D01*
X57727Y243318D01*
X57722Y243350D01*
X57679Y243431D01*
X57643Y243515D01*
X57617Y243547D01*
X57606Y243568D01*
X57583Y243590D01*
X57538Y243646D01*
X57244Y243940D01*
X57244Y247916D01*
X57538Y248210D01*
X57592Y248284D01*
X57651Y248353D01*
X57663Y248384D01*
X57682Y248410D01*
X57709Y248497D01*
X57743Y248582D01*
X57747Y248623D01*
X57754Y248645D01*
X57753Y248677D01*
X57761Y248748D01*
X57761Y251639D01*
X57747Y251729D01*
X57739Y251820D01*
X57727Y251850D01*
X57722Y251882D01*
X57703Y251916D01*
X57703Y256092D01*
X57709Y256109D01*
X57743Y256194D01*
X57747Y256235D01*
X57754Y256257D01*
X57753Y256289D01*
X57761Y256361D01*
X57761Y258574D01*
X57747Y258664D01*
X57739Y258755D01*
X57727Y258785D01*
X57722Y258817D01*
X57679Y258897D01*
X57643Y258981D01*
X57617Y259013D01*
X57606Y259034D01*
X57583Y259056D01*
X57538Y259112D01*
X56566Y260084D01*
X56566Y264060D01*
X57538Y265032D01*
X57591Y265106D01*
X57651Y265175D01*
X57663Y265205D01*
X57682Y265231D01*
X57709Y265319D01*
X57743Y265403D01*
X57747Y265444D01*
X57754Y265467D01*
X57753Y265499D01*
X57761Y265570D01*
X57761Y303535D01*
X57747Y303625D01*
X57739Y303716D01*
X57727Y303746D01*
X57722Y303778D01*
X57679Y303858D01*
X57643Y303942D01*
X57617Y303975D01*
X57606Y303995D01*
X57583Y304017D01*
X57538Y304073D01*
X56201Y305410D01*
X56201Y309386D01*
X57538Y310723D01*
X57591Y310797D01*
X57651Y310866D01*
X57663Y310896D01*
X57682Y310922D01*
X57709Y311009D01*
X57743Y311094D01*
X57747Y311135D01*
X57754Y311158D01*
X57753Y311190D01*
X57761Y311261D01*
X57761Y312607D01*
X57747Y312697D01*
X57739Y312788D01*
X57727Y312818D01*
X57722Y312850D01*
X57679Y312930D01*
X57643Y313014D01*
X57617Y313047D01*
X57606Y313067D01*
X57583Y313089D01*
X57538Y313145D01*
X57201Y313482D01*
X57201Y317458D01*
X57538Y317795D01*
X57592Y317869D01*
X57651Y317938D01*
X57663Y317968D01*
X57682Y317994D01*
X57709Y318081D01*
X57743Y318166D01*
X57747Y318207D01*
X57754Y318230D01*
X57753Y318262D01*
X57761Y318333D01*
X57761Y395771D01*
X57746Y395861D01*
X57739Y395952D01*
X57727Y395981D01*
X57721Y396013D01*
X57679Y396094D01*
X57643Y396178D01*
X57617Y396210D01*
X57606Y396231D01*
X57583Y396253D01*
X57538Y396309D01*
X55950Y397897D01*
X55950Y429509D01*
X57427Y430986D01*
X57460Y431004D01*
X57474Y431018D01*
X57491Y431028D01*
X57558Y431107D01*
X57629Y431182D01*
X57638Y431200D01*
X57651Y431215D01*
X57690Y431311D01*
X57733Y431405D01*
X57735Y431425D01*
X57743Y431443D01*
X57761Y431610D01*
X57761Y432512D01*
X57758Y432532D01*
X57760Y432551D01*
X57738Y432653D01*
X57721Y432755D01*
X57712Y432772D01*
X57708Y432792D01*
X57655Y432881D01*
X57606Y432972D01*
X57592Y432986D01*
X57582Y433003D01*
X57503Y433070D01*
X57428Y433142D01*
X57410Y433150D01*
X57395Y433163D01*
X57299Y433202D01*
X57205Y433245D01*
X57185Y433247D01*
X57167Y433255D01*
X57000Y433273D01*
X48659Y433273D01*
X48569Y433259D01*
X48478Y433251D01*
X48449Y433239D01*
X48417Y433234D01*
X48336Y433191D01*
X48252Y433155D01*
X48220Y433129D01*
X48199Y433118D01*
X48177Y433095D01*
X48121Y433050D01*
X46650Y431579D01*
X46597Y431505D01*
X46537Y431435D01*
X46525Y431405D01*
X46506Y431379D01*
X46479Y431292D01*
X46445Y431207D01*
X46441Y431166D01*
X46434Y431144D01*
X46435Y431112D01*
X46427Y431041D01*
X46427Y418323D01*
X46441Y418233D01*
X46449Y418142D01*
X46461Y418112D01*
X46466Y418080D01*
X46509Y417999D01*
X46545Y417915D01*
X46571Y417883D01*
X46582Y417863D01*
X46605Y417840D01*
X46650Y417784D01*
X54287Y410147D01*
X54287Y392240D01*
X54290Y392220D01*
X54288Y392201D01*
X54310Y392099D01*
X54326Y391997D01*
X54336Y391980D01*
X54340Y391960D01*
X54393Y391871D01*
X54442Y391780D01*
X54456Y391766D01*
X54466Y391749D01*
X54545Y391682D01*
X54620Y391610D01*
X54638Y391602D01*
X54653Y391589D01*
X54749Y391550D01*
X54843Y391507D01*
X54863Y391505D01*
X54881Y391497D01*
X55044Y391479D01*
X55938Y390586D01*
X55938Y378146D01*
X55045Y377253D01*
X48955Y377253D01*
X48062Y378146D01*
X48062Y390586D01*
X48956Y391479D01*
X48972Y391482D01*
X48991Y391480D01*
X49093Y391502D01*
X49195Y391518D01*
X49212Y391528D01*
X49232Y391532D01*
X49321Y391585D01*
X49412Y391634D01*
X49426Y391648D01*
X49443Y391658D01*
X49510Y391737D01*
X49582Y391812D01*
X49590Y391830D01*
X49603Y391845D01*
X49642Y391941D01*
X49685Y392035D01*
X49687Y392055D01*
X49695Y392073D01*
X49713Y392240D01*
X49713Y407938D01*
X49699Y408028D01*
X49691Y408119D01*
X49679Y408148D01*
X49674Y408180D01*
X49631Y408261D01*
X49595Y408345D01*
X49569Y408377D01*
X49558Y408398D01*
X49535Y408420D01*
X49490Y408476D01*
X41853Y416113D01*
X41853Y433250D01*
X46450Y437847D01*
X57000Y437847D01*
X57020Y437850D01*
X57039Y437848D01*
X57141Y437870D01*
X57243Y437886D01*
X57260Y437896D01*
X57280Y437900D01*
X57369Y437953D01*
X57460Y438002D01*
X57474Y438016D01*
X57491Y438026D01*
X57558Y438105D01*
X57629Y438180D01*
X57638Y438198D01*
X57651Y438213D01*
X57690Y438309D01*
X57733Y438403D01*
X57735Y438423D01*
X57743Y438441D01*
X57761Y438608D01*
X57761Y446698D01*
X57758Y446718D01*
X57760Y446737D01*
X57738Y446839D01*
X57721Y446941D01*
X57712Y446958D01*
X57708Y446978D01*
X57655Y447067D01*
X57606Y447158D01*
X57592Y447172D01*
X57582Y447189D01*
X57503Y447256D01*
X57428Y447328D01*
X57410Y447336D01*
X57395Y447349D01*
X57299Y447388D01*
X57205Y447431D01*
X57185Y447433D01*
X57167Y447441D01*
X57000Y447459D01*
X3302Y447459D01*
X3282Y447456D01*
X3263Y447458D01*
X3161Y447436D01*
X3059Y447420D01*
X3042Y447410D01*
X3022Y447406D01*
X2933Y447353D01*
X2842Y447304D01*
X2828Y447290D01*
X2811Y447280D01*
X2744Y447201D01*
X2672Y447126D01*
X2664Y447108D01*
X2651Y447093D01*
X2612Y446997D01*
X2569Y446903D01*
X2567Y446883D01*
X2559Y446865D01*
X2541Y446698D01*
X2541Y165586D01*
X2544Y165566D01*
X2542Y165547D01*
X2564Y165445D01*
X2580Y165343D01*
X2590Y165326D01*
X2594Y165306D01*
X2647Y165217D01*
X2696Y165126D01*
X2710Y165112D01*
X2720Y165095D01*
X2799Y165028D01*
X2874Y164956D01*
X2892Y164948D01*
X2907Y164935D01*
X3003Y164896D01*
X3097Y164853D01*
X3117Y164851D01*
X3135Y164843D01*
X3302Y164825D01*
X13832Y164825D01*
X14725Y163932D01*
X14725Y151668D01*
X13832Y150775D01*
X11703Y150775D01*
X11685Y150772D01*
X11668Y150774D01*
X11564Y150753D01*
X11460Y150736D01*
X11444Y150727D01*
X11427Y150724D01*
X11336Y150670D01*
X11242Y150620D01*
X11230Y150608D01*
X11215Y150599D01*
X11146Y150519D01*
X11073Y150442D01*
X11066Y150426D01*
X11054Y150413D01*
X11014Y150315D01*
X10969Y150219D01*
X10967Y150202D01*
X10961Y150186D01*
X10941Y150019D01*
X10941Y150005D01*
X10935Y149091D01*
X10939Y149069D01*
X10936Y149047D01*
X10958Y148948D01*
X10974Y148848D01*
X10984Y148828D01*
X10989Y148806D01*
X11041Y148719D01*
X11087Y148630D01*
X11103Y148614D01*
X11115Y148595D01*
X11192Y148529D01*
X11265Y148459D01*
X11285Y148450D01*
X11302Y148435D01*
X11396Y148397D01*
X11487Y148354D01*
X11509Y148352D01*
X11530Y148343D01*
X11697Y148325D01*
X14232Y148325D01*
X15125Y147432D01*
X15125Y135168D01*
X14232Y134275D01*
X3302Y134275D01*
X3282Y134272D01*
X3263Y134274D01*
X3161Y134252D01*
X3059Y134236D01*
X3042Y134226D01*
X3022Y134222D01*
X2933Y134169D01*
X2842Y134120D01*
X2828Y134106D01*
X2811Y134096D01*
X2744Y134017D01*
X2672Y133942D01*
X2664Y133924D01*
X2651Y133909D01*
X2612Y133813D01*
X2569Y133719D01*
X2567Y133699D01*
X2559Y133681D01*
X2541Y133514D01*
X2541Y132086D01*
X2544Y132066D01*
X2542Y132047D01*
X2564Y131945D01*
X2580Y131843D01*
X2590Y131826D01*
X2594Y131806D01*
X2647Y131717D01*
X2696Y131626D01*
X2710Y131612D01*
X2720Y131595D01*
X2799Y131528D01*
X2874Y131456D01*
X2892Y131448D01*
X2907Y131435D01*
X3003Y131396D01*
X3097Y131353D01*
X3117Y131351D01*
X3135Y131343D01*
X3302Y131325D01*
X14232Y131325D01*
X15125Y130432D01*
X15125Y118168D01*
X14232Y117275D01*
X3302Y117275D01*
X3282Y117272D01*
X3263Y117274D01*
X3161Y117252D01*
X3059Y117236D01*
X3042Y117226D01*
X3022Y117222D01*
X2933Y117169D01*
X2842Y117120D01*
X2828Y117106D01*
X2811Y117096D01*
X2744Y117017D01*
X2672Y116942D01*
X2664Y116924D01*
X2651Y116909D01*
X2612Y116813D01*
X2569Y116719D01*
X2567Y116699D01*
X2559Y116681D01*
X2541Y116514D01*
X2541Y100000D01*
X2544Y99980D01*
X2542Y99961D01*
X2564Y99859D01*
X2580Y99757D01*
X2590Y99740D01*
X2594Y99720D01*
X2647Y99631D01*
X2696Y99540D01*
X2710Y99526D01*
X2720Y99509D01*
X2799Y99442D01*
X2874Y99371D01*
X2892Y99362D01*
X2907Y99349D01*
X3003Y99310D01*
X3097Y99267D01*
X3117Y99265D01*
X3135Y99257D01*
X3302Y99239D01*
X13159Y99239D01*
X13179Y99242D01*
G37*
G36*
X266718Y2544D02*
X266718Y2544D01*
X266737Y2542D01*
X266839Y2564D01*
X266941Y2580D01*
X266958Y2590D01*
X266978Y2594D01*
X267067Y2647D01*
X267158Y2696D01*
X267172Y2710D01*
X267189Y2720D01*
X267256Y2799D01*
X267328Y2874D01*
X267336Y2892D01*
X267349Y2907D01*
X267388Y3003D01*
X267431Y3097D01*
X267433Y3117D01*
X267441Y3135D01*
X267459Y3302D01*
X267459Y181898D01*
X267456Y181918D01*
X267458Y181937D01*
X267436Y182039D01*
X267420Y182141D01*
X267410Y182158D01*
X267406Y182178D01*
X267353Y182267D01*
X267304Y182358D01*
X267290Y182372D01*
X267280Y182389D01*
X267201Y182456D01*
X267126Y182528D01*
X267108Y182536D01*
X267093Y182549D01*
X266997Y182588D01*
X266903Y182631D01*
X266883Y182633D01*
X266865Y182641D01*
X266698Y182659D01*
X256523Y182659D01*
X256523Y189438D01*
X256520Y189458D01*
X256522Y189477D01*
X256500Y189579D01*
X256483Y189681D01*
X256474Y189698D01*
X256470Y189718D01*
X256417Y189807D01*
X256368Y189898D01*
X256354Y189912D01*
X256344Y189929D01*
X256265Y189996D01*
X256190Y190067D01*
X256172Y190076D01*
X256157Y190089D01*
X256061Y190128D01*
X255967Y190171D01*
X255947Y190173D01*
X255929Y190181D01*
X255762Y190199D01*
X254238Y190199D01*
X254218Y190196D01*
X254199Y190198D01*
X254097Y190176D01*
X253995Y190159D01*
X253978Y190150D01*
X253958Y190146D01*
X253869Y190093D01*
X253778Y190044D01*
X253764Y190030D01*
X253747Y190020D01*
X253680Y189941D01*
X253609Y189866D01*
X253600Y189848D01*
X253587Y189833D01*
X253548Y189737D01*
X253505Y189643D01*
X253503Y189623D01*
X253495Y189605D01*
X253477Y189438D01*
X253477Y182659D01*
X245048Y182659D01*
X245028Y182656D01*
X245009Y182658D01*
X244907Y182636D01*
X244805Y182620D01*
X244788Y182610D01*
X244768Y182606D01*
X244679Y182553D01*
X244588Y182504D01*
X244574Y182490D01*
X244557Y182480D01*
X244490Y182401D01*
X244418Y182326D01*
X244410Y182308D01*
X244397Y182293D01*
X244358Y182197D01*
X244315Y182103D01*
X244313Y182083D01*
X244305Y182065D01*
X244287Y181898D01*
X244287Y166986D01*
X244290Y166966D01*
X244288Y166947D01*
X244310Y166845D01*
X244326Y166743D01*
X244336Y166726D01*
X244340Y166706D01*
X244393Y166617D01*
X244442Y166526D01*
X244456Y166512D01*
X244466Y166495D01*
X244545Y166428D01*
X244620Y166356D01*
X244638Y166348D01*
X244653Y166335D01*
X244749Y166296D01*
X244843Y166253D01*
X244863Y166251D01*
X244881Y166243D01*
X245048Y166225D01*
X248632Y166225D01*
X249525Y165332D01*
X249525Y153068D01*
X249145Y152688D01*
X249133Y152672D01*
X249117Y152660D01*
X249061Y152573D01*
X249001Y152489D01*
X248995Y152470D01*
X248984Y152453D01*
X248959Y152352D01*
X248929Y152253D01*
X248929Y152234D01*
X248924Y152214D01*
X248932Y152111D01*
X248935Y152008D01*
X248942Y151989D01*
X248943Y151969D01*
X248984Y151874D01*
X249019Y151777D01*
X249032Y151761D01*
X249040Y151743D01*
X249125Y151637D01*
X249125Y139368D01*
X248232Y138475D01*
X245048Y138475D01*
X245028Y138472D01*
X245009Y138474D01*
X244907Y138452D01*
X244805Y138436D01*
X244788Y138426D01*
X244768Y138422D01*
X244679Y138369D01*
X244588Y138320D01*
X244574Y138306D01*
X244557Y138296D01*
X244490Y138217D01*
X244418Y138142D01*
X244410Y138124D01*
X244397Y138109D01*
X244358Y138013D01*
X244315Y137919D01*
X244313Y137899D01*
X244305Y137881D01*
X244287Y137714D01*
X244287Y136286D01*
X244290Y136266D01*
X244288Y136247D01*
X244310Y136145D01*
X244326Y136043D01*
X244336Y136026D01*
X244340Y136006D01*
X244393Y135917D01*
X244442Y135826D01*
X244456Y135812D01*
X244466Y135795D01*
X244545Y135728D01*
X244620Y135656D01*
X244638Y135648D01*
X244653Y135635D01*
X244749Y135596D01*
X244843Y135553D01*
X244863Y135551D01*
X244881Y135543D01*
X245048Y135525D01*
X248232Y135525D01*
X249125Y134632D01*
X249125Y122368D01*
X248232Y121475D01*
X237025Y121475D01*
X236934Y121461D01*
X236844Y121453D01*
X236814Y121441D01*
X236782Y121436D01*
X236701Y121393D01*
X236617Y121357D01*
X236585Y121331D01*
X236564Y121320D01*
X236542Y121297D01*
X236486Y121252D01*
X212947Y97713D01*
X110053Y97713D01*
X110008Y97706D01*
X109962Y97708D01*
X109887Y97686D01*
X109810Y97674D01*
X109770Y97652D01*
X109726Y97639D01*
X109662Y97595D01*
X109593Y97558D01*
X109561Y97525D01*
X109524Y97499D01*
X109477Y97436D01*
X109424Y97380D01*
X109404Y97338D01*
X109377Y97302D01*
X109353Y97228D01*
X109320Y97157D01*
X109315Y97111D01*
X109301Y97068D01*
X109301Y96990D01*
X109293Y96913D01*
X109303Y96868D01*
X109303Y96822D01*
X109341Y96690D01*
X109345Y96672D01*
X109348Y96668D01*
X109350Y96661D01*
X110950Y92798D01*
X110950Y88402D01*
X109267Y84341D01*
X106159Y81233D01*
X102098Y79550D01*
X97702Y79550D01*
X93641Y81233D01*
X90533Y84341D01*
X88850Y88402D01*
X88850Y92798D01*
X90450Y96661D01*
X90460Y96702D01*
X90473Y96731D01*
X90474Y96733D01*
X90480Y96747D01*
X90489Y96824D01*
X90506Y96900D01*
X90502Y96946D01*
X90507Y96991D01*
X90491Y97068D01*
X90483Y97145D01*
X90465Y97187D01*
X90455Y97232D01*
X90415Y97299D01*
X90383Y97370D01*
X90352Y97404D01*
X90329Y97443D01*
X90270Y97494D01*
X90217Y97551D01*
X90177Y97573D01*
X90142Y97603D01*
X90070Y97632D01*
X90001Y97669D01*
X89956Y97678D01*
X89914Y97695D01*
X89778Y97710D01*
X89759Y97713D01*
X89754Y97712D01*
X89747Y97713D01*
X85161Y97713D01*
X85116Y97706D01*
X85070Y97708D01*
X84995Y97686D01*
X84918Y97674D01*
X84878Y97652D01*
X84834Y97639D01*
X84770Y97595D01*
X84701Y97558D01*
X84669Y97525D01*
X84632Y97499D01*
X84585Y97436D01*
X84532Y97380D01*
X84512Y97338D01*
X84485Y97302D01*
X84461Y97228D01*
X84428Y97157D01*
X84423Y97111D01*
X84409Y97068D01*
X84409Y96990D01*
X84401Y96913D01*
X84411Y96868D01*
X84411Y96822D01*
X84449Y96690D01*
X84453Y96672D01*
X84456Y96668D01*
X84458Y96661D01*
X86058Y92798D01*
X86058Y88402D01*
X84375Y84341D01*
X81267Y81233D01*
X77206Y79550D01*
X72810Y79550D01*
X68749Y81233D01*
X65641Y84341D01*
X63958Y88402D01*
X63958Y92798D01*
X65558Y96661D01*
X65568Y96702D01*
X65581Y96731D01*
X65582Y96733D01*
X65588Y96747D01*
X65597Y96824D01*
X65614Y96900D01*
X65610Y96946D01*
X65615Y96991D01*
X65599Y97068D01*
X65591Y97145D01*
X65573Y97187D01*
X65563Y97232D01*
X65523Y97299D01*
X65491Y97370D01*
X65460Y97404D01*
X65437Y97443D01*
X65378Y97494D01*
X65325Y97551D01*
X65285Y97573D01*
X65250Y97603D01*
X65178Y97632D01*
X65109Y97669D01*
X65064Y97678D01*
X65022Y97695D01*
X64886Y97710D01*
X64867Y97713D01*
X64862Y97712D01*
X64855Y97713D01*
X60015Y97713D01*
X59970Y97706D01*
X59924Y97708D01*
X59849Y97686D01*
X59772Y97674D01*
X59732Y97652D01*
X59688Y97639D01*
X59624Y97595D01*
X59555Y97558D01*
X59523Y97525D01*
X59486Y97499D01*
X59439Y97437D01*
X59385Y97380D01*
X59366Y97338D01*
X59339Y97302D01*
X59315Y97228D01*
X59282Y97157D01*
X59277Y97111D01*
X59263Y97068D01*
X59263Y96990D01*
X59255Y96913D01*
X59265Y96868D01*
X59265Y96822D01*
X59303Y96690D01*
X59307Y96672D01*
X59310Y96668D01*
X59312Y96661D01*
X60912Y92798D01*
X60912Y88402D01*
X59229Y84341D01*
X56121Y81233D01*
X52060Y79550D01*
X47664Y79550D01*
X43603Y81233D01*
X40495Y84341D01*
X38812Y88402D01*
X38812Y92798D01*
X40412Y96661D01*
X40422Y96702D01*
X40435Y96731D01*
X40436Y96733D01*
X40442Y96747D01*
X40451Y96824D01*
X40468Y96900D01*
X40464Y96946D01*
X40469Y96991D01*
X40453Y97068D01*
X40445Y97145D01*
X40427Y97187D01*
X40417Y97232D01*
X40377Y97299D01*
X40345Y97370D01*
X40314Y97404D01*
X40291Y97443D01*
X40232Y97494D01*
X40179Y97551D01*
X40139Y97573D01*
X40104Y97603D01*
X40032Y97632D01*
X39963Y97669D01*
X39918Y97678D01*
X39876Y97695D01*
X39740Y97710D01*
X39721Y97713D01*
X39716Y97712D01*
X39709Y97713D01*
X37797Y97713D01*
X37777Y97710D01*
X37758Y97712D01*
X37656Y97690D01*
X37554Y97674D01*
X37537Y97664D01*
X37517Y97660D01*
X37428Y97607D01*
X37337Y97558D01*
X37323Y97544D01*
X37306Y97534D01*
X37239Y97455D01*
X37167Y97380D01*
X37159Y97362D01*
X37146Y97347D01*
X37107Y97251D01*
X37064Y97157D01*
X37062Y97137D01*
X37054Y97119D01*
X37036Y96952D01*
X37036Y92123D01*
X25732Y92123D01*
X25712Y92120D01*
X25693Y92122D01*
X25591Y92100D01*
X25489Y92083D01*
X25472Y92074D01*
X25452Y92070D01*
X25363Y92017D01*
X25272Y91968D01*
X25258Y91954D01*
X25241Y91944D01*
X25174Y91865D01*
X25103Y91790D01*
X25094Y91772D01*
X25081Y91757D01*
X25043Y91661D01*
X24999Y91567D01*
X24997Y91547D01*
X24989Y91529D01*
X24971Y91362D01*
X24971Y90599D01*
X24969Y90599D01*
X24969Y91362D01*
X24966Y91382D01*
X24968Y91401D01*
X24946Y91503D01*
X24929Y91605D01*
X24920Y91622D01*
X24916Y91642D01*
X24863Y91731D01*
X24814Y91822D01*
X24800Y91836D01*
X24790Y91853D01*
X24711Y91920D01*
X24636Y91991D01*
X24618Y92000D01*
X24603Y92013D01*
X24507Y92052D01*
X24413Y92095D01*
X24393Y92097D01*
X24375Y92105D01*
X24208Y92123D01*
X12904Y92123D01*
X12904Y96952D01*
X12902Y96965D01*
X12903Y96975D01*
X12902Y96981D01*
X12903Y96991D01*
X12881Y97093D01*
X12865Y97195D01*
X12855Y97212D01*
X12851Y97232D01*
X12798Y97321D01*
X12749Y97412D01*
X12735Y97426D01*
X12725Y97443D01*
X12646Y97510D01*
X12571Y97582D01*
X12553Y97590D01*
X12538Y97603D01*
X12442Y97642D01*
X12348Y97685D01*
X12328Y97687D01*
X12310Y97695D01*
X12143Y97713D01*
X3302Y97713D01*
X3282Y97710D01*
X3263Y97712D01*
X3161Y97690D01*
X3059Y97674D01*
X3042Y97664D01*
X3022Y97660D01*
X2933Y97607D01*
X2842Y97558D01*
X2828Y97544D01*
X2811Y97534D01*
X2744Y97455D01*
X2672Y97380D01*
X2664Y97362D01*
X2651Y97347D01*
X2612Y97251D01*
X2569Y97157D01*
X2567Y97137D01*
X2559Y97119D01*
X2541Y96952D01*
X2541Y3302D01*
X2544Y3282D01*
X2542Y3263D01*
X2564Y3161D01*
X2580Y3059D01*
X2590Y3042D01*
X2594Y3022D01*
X2647Y2933D01*
X2696Y2842D01*
X2710Y2828D01*
X2720Y2811D01*
X2799Y2744D01*
X2874Y2672D01*
X2892Y2664D01*
X2907Y2651D01*
X3003Y2612D01*
X3097Y2569D01*
X3117Y2567D01*
X3135Y2559D01*
X3302Y2541D01*
X266698Y2541D01*
X266718Y2544D01*
G37*
G36*
X266718Y272928D02*
X266718Y272928D01*
X266737Y272926D01*
X266839Y272948D01*
X266941Y272964D01*
X266958Y272974D01*
X266978Y272978D01*
X267067Y273031D01*
X267158Y273080D01*
X267172Y273094D01*
X267189Y273104D01*
X267256Y273183D01*
X267328Y273258D01*
X267336Y273276D01*
X267349Y273291D01*
X267388Y273387D01*
X267431Y273481D01*
X267433Y273501D01*
X267441Y273519D01*
X267459Y273686D01*
X267459Y446698D01*
X267456Y446718D01*
X267458Y446737D01*
X267436Y446839D01*
X267420Y446941D01*
X267410Y446958D01*
X267406Y446978D01*
X267353Y447067D01*
X267304Y447158D01*
X267290Y447172D01*
X267280Y447189D01*
X267201Y447256D01*
X267126Y447328D01*
X267108Y447336D01*
X267093Y447349D01*
X266997Y447388D01*
X266903Y447431D01*
X266883Y447433D01*
X266865Y447441D01*
X266698Y447459D01*
X263202Y447459D01*
X263182Y447456D01*
X263163Y447458D01*
X263061Y447436D01*
X262959Y447420D01*
X262942Y447410D01*
X262922Y447406D01*
X262833Y447353D01*
X262742Y447304D01*
X262728Y447290D01*
X262711Y447280D01*
X262644Y447201D01*
X262572Y447126D01*
X262564Y447108D01*
X262551Y447093D01*
X262512Y446997D01*
X262469Y446903D01*
X262467Y446883D01*
X262459Y446865D01*
X262441Y446698D01*
X262441Y435523D01*
X255662Y435523D01*
X255642Y435520D01*
X255623Y435522D01*
X255521Y435500D01*
X255419Y435483D01*
X255402Y435474D01*
X255382Y435470D01*
X255293Y435417D01*
X255202Y435368D01*
X255188Y435354D01*
X255171Y435344D01*
X255104Y435265D01*
X255033Y435190D01*
X255024Y435172D01*
X255011Y435157D01*
X254972Y435061D01*
X254929Y434967D01*
X254927Y434947D01*
X254919Y434929D01*
X254901Y434762D01*
X254901Y433999D01*
X254899Y433999D01*
X254899Y434762D01*
X254896Y434782D01*
X254898Y434801D01*
X254876Y434903D01*
X254859Y435005D01*
X254850Y435022D01*
X254846Y435042D01*
X254793Y435131D01*
X254744Y435222D01*
X254730Y435236D01*
X254720Y435253D01*
X254641Y435320D01*
X254566Y435391D01*
X254548Y435400D01*
X254533Y435413D01*
X254437Y435452D01*
X254343Y435495D01*
X254323Y435497D01*
X254305Y435505D01*
X254138Y435523D01*
X247359Y435523D01*
X247359Y446698D01*
X247356Y446718D01*
X247358Y446737D01*
X247336Y446839D01*
X247320Y446941D01*
X247310Y446958D01*
X247306Y446978D01*
X247253Y447067D01*
X247204Y447158D01*
X247190Y447172D01*
X247180Y447189D01*
X247101Y447256D01*
X247026Y447328D01*
X247008Y447336D01*
X246993Y447349D01*
X246897Y447388D01*
X246803Y447431D01*
X246783Y447433D01*
X246765Y447441D01*
X246598Y447459D01*
X236786Y447459D01*
X236766Y447456D01*
X236747Y447458D01*
X236645Y447436D01*
X236543Y447420D01*
X236526Y447410D01*
X236506Y447406D01*
X236417Y447353D01*
X236326Y447304D01*
X236312Y447290D01*
X236295Y447280D01*
X236228Y447201D01*
X236156Y447126D01*
X236148Y447108D01*
X236135Y447093D01*
X236096Y446997D01*
X236053Y446903D01*
X236051Y446883D01*
X236043Y446865D01*
X236025Y446698D01*
X236025Y418368D01*
X235132Y417475D01*
X232548Y417475D01*
X232528Y417472D01*
X232509Y417474D01*
X232407Y417452D01*
X232305Y417436D01*
X232288Y417426D01*
X232268Y417422D01*
X232179Y417369D01*
X232088Y417320D01*
X232074Y417306D01*
X232057Y417296D01*
X231990Y417217D01*
X231918Y417142D01*
X231910Y417124D01*
X231897Y417109D01*
X231858Y417013D01*
X231815Y416919D01*
X231813Y416899D01*
X231805Y416881D01*
X231787Y416714D01*
X231787Y345697D01*
X230224Y344134D01*
X219748Y333658D01*
X219706Y333600D01*
X219657Y333548D01*
X219635Y333501D01*
X219605Y333459D01*
X219584Y333390D01*
X219553Y333325D01*
X219548Y333273D01*
X219532Y333223D01*
X219534Y333152D01*
X219526Y333081D01*
X219537Y333030D01*
X219539Y332978D01*
X219563Y332910D01*
X219578Y332840D01*
X219605Y332795D01*
X219623Y332747D01*
X219668Y332691D01*
X219705Y332629D01*
X219744Y332595D01*
X219777Y332555D01*
X219837Y332516D01*
X219892Y332469D01*
X219940Y332450D01*
X219984Y332422D01*
X220053Y332404D01*
X220120Y332377D01*
X220191Y332369D01*
X220222Y332361D01*
X220246Y332363D01*
X220286Y332359D01*
X220916Y332359D01*
X222426Y330849D01*
X222442Y330837D01*
X222454Y330822D01*
X222524Y330777D01*
X222555Y330750D01*
X222573Y330743D01*
X222625Y330705D01*
X222644Y330699D01*
X222661Y330689D01*
X222762Y330663D01*
X222861Y330633D01*
X222880Y330633D01*
X222900Y330628D01*
X223003Y330636D01*
X223106Y330639D01*
X223125Y330646D01*
X223145Y330648D01*
X223219Y330679D01*
X223220Y330679D01*
X223225Y330682D01*
X223240Y330688D01*
X223337Y330724D01*
X223353Y330736D01*
X223371Y330744D01*
X223427Y330789D01*
X223438Y330794D01*
X223449Y330806D01*
X223502Y330849D01*
X225012Y332359D01*
X228988Y332359D01*
X230962Y330385D01*
X230978Y330373D01*
X230990Y330358D01*
X231078Y330301D01*
X231161Y330241D01*
X231180Y330235D01*
X231197Y330225D01*
X231298Y330199D01*
X231397Y330169D01*
X231416Y330169D01*
X231436Y330164D01*
X231539Y330172D01*
X231642Y330175D01*
X231661Y330182D01*
X231681Y330184D01*
X231776Y330224D01*
X231873Y330260D01*
X231889Y330272D01*
X231907Y330280D01*
X232038Y330385D01*
X234012Y332359D01*
X236778Y332359D01*
X236798Y332362D01*
X236818Y332360D01*
X236919Y332382D01*
X237021Y332398D01*
X237039Y332408D01*
X237058Y332412D01*
X237147Y332465D01*
X237239Y332514D01*
X237252Y332528D01*
X237269Y332538D01*
X237337Y332617D01*
X237408Y332692D01*
X237416Y332710D01*
X237429Y332725D01*
X237468Y332821D01*
X237512Y332915D01*
X237514Y332935D01*
X237521Y332953D01*
X237540Y333120D01*
X237540Y335548D01*
X240351Y338359D01*
X244326Y338359D01*
X245135Y337550D01*
X245214Y337493D01*
X245289Y337431D01*
X245313Y337422D01*
X245334Y337406D01*
X245428Y337378D01*
X245518Y337343D01*
X245545Y337342D01*
X245570Y337334D01*
X245667Y337337D01*
X245764Y337333D01*
X245789Y337340D01*
X245815Y337340D01*
X245907Y337374D01*
X246000Y337401D01*
X246022Y337416D01*
X246046Y337425D01*
X246123Y337486D01*
X246202Y337541D01*
X246218Y337562D01*
X246239Y337579D01*
X246291Y337661D01*
X246349Y337739D01*
X246357Y337763D01*
X246372Y337786D01*
X246395Y337880D01*
X246425Y337973D01*
X246425Y337999D01*
X246432Y338024D01*
X246424Y338121D01*
X246423Y338219D01*
X246414Y338250D01*
X246412Y338269D01*
X246400Y338300D01*
X246376Y338380D01*
X245951Y339407D01*
X245738Y340477D01*
X252977Y340477D01*
X252977Y333238D01*
X251907Y333451D01*
X250289Y334121D01*
X248833Y335094D01*
X248437Y335490D01*
X248378Y335532D01*
X248326Y335581D01*
X248279Y335603D01*
X248237Y335633D01*
X248168Y335655D01*
X248103Y335685D01*
X248052Y335691D01*
X248002Y335706D01*
X247930Y335704D01*
X247859Y335712D01*
X247808Y335701D01*
X247756Y335699D01*
X247689Y335675D01*
X247619Y335660D01*
X247574Y335633D01*
X247525Y335615D01*
X247469Y335570D01*
X247407Y335533D01*
X247374Y335494D01*
X247333Y335461D01*
X247294Y335401D01*
X247248Y335347D01*
X247228Y335298D01*
X247200Y335254D01*
X247182Y335185D01*
X247156Y335118D01*
X247148Y335047D01*
X247140Y335016D01*
X247142Y334993D01*
X247137Y334952D01*
X247137Y331572D01*
X244848Y329283D01*
X244795Y329209D01*
X244736Y329140D01*
X244723Y329110D01*
X244705Y329084D01*
X244678Y328997D01*
X244644Y328912D01*
X244639Y328871D01*
X244632Y328848D01*
X244633Y328816D01*
X244625Y328745D01*
X244625Y323743D01*
X244628Y323723D01*
X244626Y323703D01*
X244648Y323602D01*
X244665Y323500D01*
X244674Y323482D01*
X244678Y323463D01*
X244732Y323374D01*
X244780Y323283D01*
X244794Y323269D01*
X244805Y323252D01*
X244883Y323185D01*
X244958Y323113D01*
X244976Y323105D01*
X244991Y323092D01*
X245088Y323053D01*
X245181Y323010D01*
X245201Y323007D01*
X245220Y323000D01*
X245386Y322982D01*
X246721Y322982D01*
X249532Y320171D01*
X249532Y319328D01*
X249546Y319238D01*
X249554Y319147D01*
X249566Y319117D01*
X249571Y319085D01*
X249614Y319005D01*
X249650Y318921D01*
X249676Y318889D01*
X249687Y318868D01*
X249710Y318846D01*
X249755Y318790D01*
X255335Y313210D01*
X255335Y286734D01*
X242825Y274224D01*
X242783Y274166D01*
X242734Y274114D01*
X242712Y274067D01*
X242682Y274025D01*
X242661Y273956D01*
X242630Y273891D01*
X242625Y273839D01*
X242609Y273789D01*
X242611Y273718D01*
X242603Y273647D01*
X242614Y273596D01*
X242616Y273544D01*
X242640Y273476D01*
X242656Y273406D01*
X242682Y273361D01*
X242700Y273313D01*
X242745Y273257D01*
X242782Y273195D01*
X242821Y273161D01*
X242854Y273121D01*
X242914Y273082D01*
X242969Y273035D01*
X243017Y273016D01*
X243061Y272988D01*
X243130Y272970D01*
X243197Y272943D01*
X243268Y272935D01*
X243299Y272927D01*
X243323Y272929D01*
X243364Y272925D01*
X266698Y272925D01*
X266718Y272928D01*
G37*
G36*
X120150Y173818D02*
X120150Y173818D01*
X120202Y173820D01*
X120270Y173844D01*
X120340Y173859D01*
X120385Y173886D01*
X120433Y173904D01*
X120489Y173949D01*
X120551Y173986D01*
X120585Y174025D01*
X120625Y174058D01*
X120664Y174118D01*
X120711Y174173D01*
X120730Y174221D01*
X120758Y174265D01*
X120776Y174334D01*
X120803Y174401D01*
X120811Y174472D01*
X120819Y174503D01*
X120817Y174526D01*
X120819Y174545D01*
X123632Y177359D01*
X127608Y177359D01*
X129012Y175955D01*
X129028Y175943D01*
X129040Y175928D01*
X129128Y175871D01*
X129211Y175811D01*
X129230Y175805D01*
X129247Y175795D01*
X129348Y175769D01*
X129447Y175739D01*
X129466Y175739D01*
X129486Y175734D01*
X129589Y175742D01*
X129692Y175745D01*
X129711Y175752D01*
X129731Y175754D01*
X129826Y175794D01*
X129923Y175830D01*
X129939Y175842D01*
X129957Y175850D01*
X130088Y175955D01*
X132032Y177899D01*
X136008Y177899D01*
X138819Y175088D01*
X138819Y175048D01*
X138822Y175028D01*
X138820Y175009D01*
X138842Y174907D01*
X138858Y174805D01*
X138868Y174788D01*
X138872Y174768D01*
X138925Y174679D01*
X138974Y174588D01*
X138988Y174574D01*
X138998Y174557D01*
X139077Y174490D01*
X139152Y174418D01*
X139170Y174410D01*
X139185Y174397D01*
X139281Y174358D01*
X139375Y174315D01*
X139395Y174313D01*
X139413Y174305D01*
X139580Y174287D01*
X183737Y174287D01*
X183828Y174301D01*
X183918Y174309D01*
X183948Y174321D01*
X183980Y174326D01*
X184061Y174369D01*
X184145Y174405D01*
X184177Y174431D01*
X184198Y174442D01*
X184220Y174465D01*
X184276Y174510D01*
X185490Y175724D01*
X185543Y175798D01*
X185603Y175868D01*
X185615Y175898D01*
X185634Y175924D01*
X185661Y176011D01*
X185695Y176096D01*
X185699Y176137D01*
X185706Y176159D01*
X185705Y176191D01*
X185713Y176263D01*
X185713Y200048D01*
X185699Y200138D01*
X185691Y200229D01*
X185679Y200259D01*
X185674Y200291D01*
X185631Y200371D01*
X185595Y200455D01*
X185569Y200487D01*
X185558Y200508D01*
X185535Y200530D01*
X185490Y200586D01*
X167601Y218475D01*
X167527Y218528D01*
X167458Y218588D01*
X167428Y218600D01*
X167402Y218619D01*
X167315Y218646D01*
X167230Y218680D01*
X167189Y218684D01*
X167166Y218691D01*
X167134Y218690D01*
X167063Y218698D01*
X152862Y218698D01*
X152772Y218684D01*
X152681Y218676D01*
X152652Y218664D01*
X152620Y218659D01*
X152539Y218616D01*
X152455Y218580D01*
X152423Y218554D01*
X152402Y218543D01*
X152380Y218520D01*
X152324Y218475D01*
X151348Y217499D01*
X151295Y217425D01*
X151235Y217355D01*
X151223Y217325D01*
X151204Y217299D01*
X151177Y217212D01*
X151143Y217127D01*
X151139Y217086D01*
X151132Y217064D01*
X151133Y217032D01*
X151125Y216961D01*
X151125Y183468D01*
X150232Y182575D01*
X142968Y182575D01*
X142075Y183468D01*
X142075Y217328D01*
X142061Y217418D01*
X142053Y217509D01*
X142041Y217538D01*
X142036Y217570D01*
X141993Y217651D01*
X141957Y217735D01*
X141931Y217767D01*
X141920Y217788D01*
X141897Y217810D01*
X141852Y217866D01*
X141276Y218442D01*
X141202Y218496D01*
X141132Y218555D01*
X141102Y218567D01*
X141076Y218586D01*
X140989Y218613D01*
X140904Y218647D01*
X140863Y218651D01*
X140841Y218658D01*
X140809Y218657D01*
X140737Y218665D01*
X110904Y218665D01*
X110814Y218651D01*
X110723Y218643D01*
X110693Y218631D01*
X110661Y218626D01*
X110581Y218583D01*
X110497Y218547D01*
X110465Y218521D01*
X110444Y218510D01*
X110422Y218487D01*
X110366Y218442D01*
X107620Y215696D01*
X107567Y215622D01*
X107507Y215553D01*
X107495Y215523D01*
X107476Y215496D01*
X107449Y215410D01*
X107415Y215325D01*
X107411Y215284D01*
X107404Y215261D01*
X107405Y215229D01*
X107397Y215158D01*
X107397Y212614D01*
X104586Y209803D01*
X102042Y209803D01*
X101952Y209789D01*
X101861Y209781D01*
X101831Y209769D01*
X101799Y209764D01*
X101719Y209721D01*
X101635Y209685D01*
X101603Y209659D01*
X101582Y209648D01*
X101560Y209625D01*
X101504Y209580D01*
X96333Y204410D01*
X96280Y204336D01*
X96221Y204267D01*
X96209Y204236D01*
X96190Y204210D01*
X96163Y204123D01*
X96129Y204038D01*
X96124Y203997D01*
X96118Y203975D01*
X96118Y203943D01*
X96111Y203877D01*
X87462Y195228D01*
X87409Y195154D01*
X87349Y195084D01*
X87337Y195054D01*
X87318Y195028D01*
X87291Y194941D01*
X87257Y194856D01*
X87253Y194815D01*
X87246Y194793D01*
X87247Y194761D01*
X87239Y194690D01*
X87239Y175048D01*
X87242Y175028D01*
X87240Y175009D01*
X87262Y174907D01*
X87279Y174805D01*
X87288Y174788D01*
X87292Y174768D01*
X87345Y174679D01*
X87394Y174588D01*
X87408Y174574D01*
X87418Y174557D01*
X87497Y174490D01*
X87572Y174418D01*
X87590Y174410D01*
X87605Y174397D01*
X87701Y174358D01*
X87795Y174315D01*
X87815Y174313D01*
X87833Y174305D01*
X88000Y174287D01*
X119264Y174287D01*
X119522Y174029D01*
X119580Y173987D01*
X119632Y173938D01*
X119679Y173916D01*
X119721Y173886D01*
X119790Y173864D01*
X119855Y173834D01*
X119907Y173829D01*
X119957Y173813D01*
X120028Y173815D01*
X120099Y173807D01*
X120150Y173818D01*
G37*
%LPC*%
G36*
X173561Y263640D02*
X173561Y263640D01*
X173561Y274055D01*
X173561Y284470D01*
X174277Y284470D01*
X174924Y284297D01*
X175503Y283962D01*
X175788Y283677D01*
X175862Y283624D01*
X175932Y283564D01*
X175962Y283552D01*
X175988Y283533D01*
X176075Y283506D01*
X176160Y283472D01*
X176201Y283468D01*
X176223Y283461D01*
X176255Y283462D01*
X176327Y283454D01*
X179575Y283454D01*
X179762Y283267D01*
X179778Y283255D01*
X179790Y283239D01*
X179877Y283183D01*
X179961Y283123D01*
X179980Y283117D01*
X179997Y283106D01*
X180097Y283081D01*
X180196Y283051D01*
X180216Y283051D01*
X180236Y283046D01*
X180339Y283054D01*
X180442Y283057D01*
X180461Y283064D01*
X180481Y283065D01*
X180576Y283106D01*
X180673Y283141D01*
X180689Y283154D01*
X180707Y283162D01*
X180838Y283267D01*
X181244Y283672D01*
X181255Y283688D01*
X181271Y283700D01*
X181300Y283745D01*
X181328Y283775D01*
X181346Y283815D01*
X181387Y283872D01*
X181393Y283891D01*
X181404Y283907D01*
X181421Y283975D01*
X181432Y283998D01*
X181435Y284026D01*
X181459Y284107D01*
X181459Y284127D01*
X181464Y284146D01*
X181457Y284230D01*
X181459Y284243D01*
X181456Y284257D01*
X181453Y284353D01*
X181446Y284371D01*
X181445Y284391D01*
X181407Y284479D01*
X181406Y284483D01*
X181404Y284487D01*
X181369Y284584D01*
X181356Y284599D01*
X181348Y284617D01*
X181244Y284748D01*
X179980Y286012D01*
X179980Y289988D01*
X182791Y292799D01*
X185730Y292799D01*
X185750Y292802D01*
X185770Y292800D01*
X185871Y292822D01*
X185973Y292838D01*
X185991Y292848D01*
X186010Y292852D01*
X186099Y292905D01*
X186191Y292954D01*
X186204Y292968D01*
X186221Y292978D01*
X186289Y293057D01*
X186360Y293132D01*
X186368Y293150D01*
X186381Y293165D01*
X186420Y293261D01*
X186464Y293355D01*
X186466Y293375D01*
X186473Y293393D01*
X186492Y293560D01*
X186492Y303813D01*
X186488Y303833D01*
X186491Y303852D01*
X186469Y303954D01*
X186452Y304056D01*
X186443Y304073D01*
X186438Y304093D01*
X186385Y304182D01*
X186337Y304273D01*
X186322Y304287D01*
X186312Y304304D01*
X186233Y304371D01*
X186158Y304443D01*
X186140Y304451D01*
X186125Y304464D01*
X186029Y304503D01*
X185935Y304546D01*
X185916Y304548D01*
X185897Y304556D01*
X185730Y304574D01*
X178766Y304574D01*
X178158Y305182D01*
X178142Y305194D01*
X178130Y305210D01*
X178042Y305266D01*
X177959Y305326D01*
X177940Y305332D01*
X177923Y305343D01*
X177822Y305368D01*
X177723Y305398D01*
X177704Y305398D01*
X177684Y305403D01*
X177581Y305395D01*
X177478Y305392D01*
X177459Y305385D01*
X177439Y305384D01*
X177344Y305343D01*
X177247Y305308D01*
X177231Y305295D01*
X177213Y305287D01*
X177082Y305182D01*
X176474Y304574D01*
X163483Y304574D01*
X163437Y304608D01*
X163418Y304613D01*
X163401Y304624D01*
X163301Y304649D01*
X163202Y304680D01*
X163182Y304679D01*
X163163Y304684D01*
X163060Y304676D01*
X162956Y304674D01*
X162937Y304667D01*
X162917Y304665D01*
X162822Y304625D01*
X162725Y304589D01*
X162709Y304577D01*
X162691Y304569D01*
X162560Y304464D01*
X162162Y304066D01*
X161583Y303731D01*
X160936Y303558D01*
X156283Y303558D01*
X156283Y313338D01*
X156280Y313358D01*
X156282Y313377D01*
X156260Y313479D01*
X156243Y313581D01*
X156234Y313598D01*
X156230Y313618D01*
X156177Y313707D01*
X156128Y313798D01*
X156114Y313812D01*
X156104Y313829D01*
X156025Y313896D01*
X155950Y313967D01*
X155932Y313976D01*
X155917Y313989D01*
X155821Y314028D01*
X155727Y314071D01*
X155707Y314073D01*
X155689Y314081D01*
X155522Y314099D01*
X154759Y314099D01*
X154759Y314101D01*
X155522Y314101D01*
X155542Y314104D01*
X155561Y314102D01*
X155663Y314124D01*
X155765Y314141D01*
X155782Y314150D01*
X155802Y314154D01*
X155891Y314207D01*
X155982Y314256D01*
X155996Y314270D01*
X156013Y314280D01*
X156080Y314359D01*
X156151Y314434D01*
X156160Y314452D01*
X156173Y314467D01*
X156212Y314563D01*
X156255Y314657D01*
X156257Y314677D01*
X156265Y314695D01*
X156283Y314862D01*
X156283Y324642D01*
X160936Y324642D01*
X161583Y324469D01*
X162162Y324134D01*
X162560Y323736D01*
X162576Y323724D01*
X162589Y323709D01*
X162676Y323653D01*
X162760Y323592D01*
X162779Y323587D01*
X162796Y323576D01*
X162896Y323551D01*
X162995Y323520D01*
X163015Y323521D01*
X163034Y323516D01*
X163137Y323524D01*
X163241Y323526D01*
X163260Y323533D01*
X163280Y323535D01*
X163375Y323575D01*
X163472Y323611D01*
X163487Y323623D01*
X163493Y323626D01*
X169516Y323626D01*
X169607Y323640D01*
X169697Y323648D01*
X169727Y323660D01*
X169759Y323665D01*
X169840Y323708D01*
X169924Y323744D01*
X169956Y323770D01*
X169977Y323781D01*
X169999Y323804D01*
X170055Y323849D01*
X176053Y329847D01*
X178185Y329847D01*
X178275Y329861D01*
X178366Y329869D01*
X178396Y329881D01*
X178428Y329886D01*
X178508Y329929D01*
X178592Y329965D01*
X178624Y329991D01*
X178645Y330002D01*
X178667Y330025D01*
X178723Y330070D01*
X181012Y332359D01*
X184988Y332359D01*
X187799Y329548D01*
X187799Y325572D01*
X187152Y324925D01*
X187110Y324867D01*
X187060Y324815D01*
X187039Y324768D01*
X187008Y324726D01*
X186987Y324657D01*
X186957Y324592D01*
X186951Y324540D01*
X186936Y324490D01*
X186938Y324419D01*
X186930Y324348D01*
X186941Y324297D01*
X186942Y324245D01*
X186967Y324177D01*
X186982Y324107D01*
X187009Y324062D01*
X187027Y324014D01*
X187071Y323958D01*
X187108Y323896D01*
X187148Y323862D01*
X187180Y323822D01*
X187241Y323783D01*
X187295Y323736D01*
X187343Y323717D01*
X187387Y323689D01*
X187457Y323671D01*
X187523Y323644D01*
X187595Y323636D01*
X187626Y323628D01*
X187649Y323630D01*
X187690Y323626D01*
X191714Y323626D01*
X192607Y322733D01*
X192607Y305467D01*
X191692Y304553D01*
X191686Y304551D01*
X191584Y304535D01*
X191566Y304525D01*
X191547Y304521D01*
X191458Y304468D01*
X191366Y304419D01*
X191353Y304405D01*
X191335Y304395D01*
X191268Y304316D01*
X191197Y304241D01*
X191188Y304223D01*
X191176Y304208D01*
X191137Y304112D01*
X191093Y304018D01*
X191091Y303998D01*
X191084Y303980D01*
X191065Y303813D01*
X191065Y291053D01*
X190089Y290077D01*
X190077Y290060D01*
X190062Y290048D01*
X190008Y289964D01*
X190004Y289960D01*
X190002Y289956D01*
X189945Y289877D01*
X189940Y289858D01*
X189929Y289841D01*
X189905Y289747D01*
X189900Y289737D01*
X189899Y289727D01*
X189873Y289642D01*
X189874Y289622D01*
X189869Y289602D01*
X189876Y289513D01*
X189873Y289493D01*
X189877Y289474D01*
X189879Y289396D01*
X189886Y289377D01*
X189888Y289357D01*
X189918Y289286D01*
X189926Y289252D01*
X189942Y289225D01*
X189964Y289165D01*
X189976Y289149D01*
X189984Y289131D01*
X190039Y289062D01*
X190052Y289041D01*
X190065Y289029D01*
X190089Y289000D01*
X190365Y288724D01*
X195087Y284002D01*
X195087Y283257D01*
X195101Y283167D01*
X195109Y283076D01*
X195121Y283046D01*
X195126Y283014D01*
X195169Y282934D01*
X195205Y282850D01*
X195231Y282817D01*
X195242Y282797D01*
X195265Y282775D01*
X195310Y282719D01*
X195468Y282561D01*
X195468Y265549D01*
X194575Y264656D01*
X191025Y264656D01*
X190838Y264843D01*
X190822Y264855D01*
X190810Y264871D01*
X190722Y264927D01*
X190639Y264987D01*
X190620Y264993D01*
X190603Y265004D01*
X190502Y265029D01*
X190403Y265059D01*
X190383Y265059D01*
X190364Y265064D01*
X190261Y265056D01*
X190158Y265053D01*
X190139Y265046D01*
X190119Y265045D01*
X190024Y265004D01*
X189927Y264969D01*
X189911Y264956D01*
X189893Y264948D01*
X189762Y264843D01*
X189575Y264656D01*
X186025Y264656D01*
X185838Y264843D01*
X185822Y264855D01*
X185810Y264871D01*
X185722Y264927D01*
X185639Y264987D01*
X185620Y264993D01*
X185603Y265004D01*
X185502Y265029D01*
X185403Y265059D01*
X185383Y265059D01*
X185364Y265064D01*
X185261Y265056D01*
X185158Y265053D01*
X185139Y265046D01*
X185119Y265045D01*
X185024Y265004D01*
X184927Y264969D01*
X184911Y264956D01*
X184893Y264948D01*
X184762Y264843D01*
X184575Y264656D01*
X181025Y264656D01*
X180838Y264843D01*
X180822Y264855D01*
X180810Y264871D01*
X180722Y264927D01*
X180639Y264987D01*
X180620Y264993D01*
X180603Y265004D01*
X180502Y265029D01*
X180403Y265059D01*
X180383Y265059D01*
X180364Y265064D01*
X180261Y265056D01*
X180158Y265053D01*
X180139Y265046D01*
X180119Y265045D01*
X180024Y265004D01*
X179927Y264969D01*
X179911Y264956D01*
X179893Y264948D01*
X179762Y264843D01*
X179575Y264656D01*
X176327Y264656D01*
X176237Y264642D01*
X176146Y264634D01*
X176116Y264622D01*
X176084Y264617D01*
X176003Y264574D01*
X175919Y264538D01*
X175887Y264512D01*
X175867Y264501D01*
X175844Y264478D01*
X175788Y264433D01*
X175503Y264148D01*
X174924Y263813D01*
X174277Y263640D01*
X173561Y263640D01*
G37*
%LPD*%
%LPC*%
G36*
X59024Y9065D02*
X59024Y9065D01*
X52955Y11579D01*
X48311Y16223D01*
X45797Y22292D01*
X45797Y28860D01*
X48311Y34929D01*
X52955Y39573D01*
X59024Y42087D01*
X65592Y42087D01*
X71661Y39573D01*
X76305Y34929D01*
X78819Y28860D01*
X78819Y22292D01*
X76305Y16223D01*
X71661Y11579D01*
X65592Y9065D01*
X59024Y9065D01*
G37*
%LPD*%
%LPC*%
G36*
X168011Y54975D02*
X168011Y54975D01*
X162489Y57263D01*
X158263Y61489D01*
X155975Y67011D01*
X155975Y72989D01*
X158263Y78511D01*
X162489Y82737D01*
X168011Y85025D01*
X173989Y85025D01*
X179511Y82737D01*
X183737Y78511D01*
X186025Y72989D01*
X186025Y67011D01*
X183737Y61489D01*
X179511Y57263D01*
X173989Y54975D01*
X168011Y54975D01*
G37*
%LPD*%
%LPC*%
G36*
X218011Y54975D02*
X218011Y54975D01*
X212489Y57263D01*
X208263Y61489D01*
X205975Y67011D01*
X205975Y72989D01*
X208263Y78511D01*
X212489Y82737D01*
X218011Y85025D01*
X223989Y85025D01*
X229511Y82737D01*
X233737Y78511D01*
X236025Y72989D01*
X236025Y67011D01*
X233737Y61489D01*
X229511Y57263D01*
X223989Y54975D01*
X218011Y54975D01*
G37*
%LPD*%
G36*
X69687Y389196D02*
X69687Y389196D01*
X69706Y389194D01*
X69808Y389216D01*
X69910Y389233D01*
X69927Y389242D01*
X69947Y389246D01*
X70036Y389299D01*
X70127Y389348D01*
X70141Y389362D01*
X70158Y389372D01*
X70225Y389451D01*
X70297Y389526D01*
X70305Y389544D01*
X70318Y389559D01*
X70357Y389655D01*
X70400Y389749D01*
X70402Y389769D01*
X70410Y389787D01*
X70428Y389954D01*
X70428Y392433D01*
X76301Y398306D01*
X76354Y398380D01*
X76414Y398449D01*
X76426Y398479D01*
X76445Y398505D01*
X76472Y398592D01*
X76506Y398677D01*
X76510Y398718D01*
X76517Y398741D01*
X76516Y398773D01*
X76524Y398844D01*
X76524Y428562D01*
X76521Y428582D01*
X76523Y428601D01*
X76501Y428703D01*
X76485Y428805D01*
X76475Y428822D01*
X76471Y428842D01*
X76418Y428931D01*
X76369Y429022D01*
X76355Y429036D01*
X76345Y429053D01*
X76266Y429120D01*
X76191Y429192D01*
X76173Y429200D01*
X76158Y429213D01*
X76062Y429252D01*
X75968Y429295D01*
X75948Y429297D01*
X75930Y429305D01*
X75763Y429323D01*
X58237Y429323D01*
X58217Y429320D01*
X58198Y429322D01*
X58096Y429300D01*
X57994Y429284D01*
X57977Y429274D01*
X57957Y429270D01*
X57868Y429217D01*
X57777Y429168D01*
X57763Y429154D01*
X57746Y429144D01*
X57679Y429065D01*
X57608Y428990D01*
X57599Y428972D01*
X57586Y428957D01*
X57547Y428861D01*
X57504Y428767D01*
X57502Y428747D01*
X57494Y428729D01*
X57476Y428562D01*
X57476Y398844D01*
X57491Y398754D01*
X57498Y398663D01*
X57510Y398633D01*
X57516Y398601D01*
X57558Y398521D01*
X57594Y398437D01*
X57620Y398405D01*
X57631Y398384D01*
X57654Y398362D01*
X57699Y398306D01*
X63572Y392433D01*
X63572Y389954D01*
X63575Y389934D01*
X63573Y389915D01*
X63595Y389813D01*
X63612Y389711D01*
X63621Y389694D01*
X63625Y389674D01*
X63678Y389585D01*
X63727Y389494D01*
X63741Y389480D01*
X63751Y389463D01*
X63830Y389396D01*
X63905Y389325D01*
X63923Y389316D01*
X63938Y389303D01*
X64034Y389264D01*
X64128Y389221D01*
X64148Y389219D01*
X64166Y389211D01*
X64333Y389193D01*
X69667Y389193D01*
X69687Y389196D01*
G37*
%LPC*%
G36*
X93118Y411175D02*
X93118Y411175D01*
X92225Y412068D01*
X92225Y441332D01*
X93118Y442225D01*
X104382Y442225D01*
X105275Y441332D01*
X105275Y412068D01*
X104382Y411175D01*
X93118Y411175D01*
G37*
%LPD*%
%LPC*%
G36*
X142618Y411175D02*
X142618Y411175D01*
X141725Y412068D01*
X141725Y441332D01*
X142618Y442225D01*
X153882Y442225D01*
X154775Y441332D01*
X154775Y412068D01*
X153882Y411175D01*
X142618Y411175D01*
G37*
%LPD*%
%LPC*%
G36*
X249056Y10225D02*
X249056Y10225D01*
X245463Y11713D01*
X242713Y14463D01*
X241225Y18056D01*
X241225Y21944D01*
X242713Y25537D01*
X245463Y28287D01*
X249056Y29775D01*
X252944Y29775D01*
X256537Y28287D01*
X259287Y25537D01*
X260775Y21944D01*
X260775Y18056D01*
X259287Y14463D01*
X256537Y11713D01*
X252944Y10225D01*
X249056Y10225D01*
G37*
%LPD*%
%LPC*%
G36*
X139056Y10225D02*
X139056Y10225D01*
X135463Y11713D01*
X132713Y14463D01*
X131225Y18056D01*
X131225Y21944D01*
X132713Y25537D01*
X135463Y28287D01*
X139056Y29775D01*
X142944Y29775D01*
X146537Y28287D01*
X149287Y25537D01*
X150775Y21944D01*
X150775Y18056D01*
X149287Y14463D01*
X146537Y11713D01*
X142944Y10225D01*
X139056Y10225D01*
G37*
%LPD*%
%LPC*%
G36*
X78955Y377253D02*
X78955Y377253D01*
X78062Y378146D01*
X78062Y390586D01*
X78955Y391479D01*
X85045Y391479D01*
X85399Y391124D01*
X85488Y391060D01*
X85573Y390994D01*
X85587Y390989D01*
X85599Y390980D01*
X85703Y390948D01*
X85805Y390913D01*
X85820Y390912D01*
X85834Y390908D01*
X85943Y390911D01*
X86051Y390909D01*
X86065Y390914D01*
X86080Y390914D01*
X86182Y390951D01*
X86285Y390985D01*
X86300Y390995D01*
X86311Y390999D01*
X86334Y391017D01*
X86425Y391077D01*
X91677Y395451D01*
X91679Y395453D01*
X91681Y395454D01*
X91759Y395546D01*
X91838Y395637D01*
X91839Y395639D01*
X91841Y395641D01*
X91887Y395755D01*
X91932Y395865D01*
X91932Y395867D01*
X91933Y395869D01*
X91951Y396036D01*
X91951Y398688D01*
X94762Y401499D01*
X98738Y401499D01*
X101549Y398688D01*
X101549Y394712D01*
X98738Y391901D01*
X94837Y391901D01*
X94781Y391892D01*
X94724Y391893D01*
X94660Y391872D01*
X94594Y391862D01*
X94544Y391835D01*
X94489Y391817D01*
X94404Y391761D01*
X94377Y391746D01*
X94367Y391737D01*
X94349Y391725D01*
X86212Y384948D01*
X86210Y384946D01*
X86208Y384945D01*
X86130Y384853D01*
X86051Y384762D01*
X86050Y384760D01*
X86048Y384758D01*
X86002Y384644D01*
X85957Y384535D01*
X85957Y384532D01*
X85956Y384530D01*
X85938Y384363D01*
X85938Y378146D01*
X85045Y377253D01*
X78955Y377253D01*
G37*
%LPD*%
%LPC*%
G36*
X221512Y262701D02*
X221512Y262701D01*
X218701Y265512D01*
X218701Y269515D01*
X218716Y269547D01*
X218746Y269589D01*
X218768Y269658D01*
X218798Y269723D01*
X218803Y269774D01*
X218819Y269824D01*
X218817Y269896D01*
X218825Y269967D01*
X218814Y270018D01*
X218812Y270070D01*
X218788Y270137D01*
X218773Y270207D01*
X218746Y270252D01*
X218728Y270301D01*
X218683Y270357D01*
X218646Y270419D01*
X218607Y270452D01*
X218574Y270493D01*
X218514Y270532D01*
X218459Y270578D01*
X218411Y270598D01*
X218367Y270626D01*
X218298Y270644D01*
X218231Y270670D01*
X218160Y270678D01*
X218129Y270686D01*
X218106Y270684D01*
X218065Y270689D01*
X215560Y270689D01*
X215540Y270686D01*
X215521Y270688D01*
X215419Y270666D01*
X215317Y270649D01*
X215300Y270640D01*
X215280Y270636D01*
X215191Y270582D01*
X215100Y270534D01*
X215086Y270520D01*
X215069Y270509D01*
X215002Y270431D01*
X214930Y270356D01*
X214922Y270338D01*
X214909Y270322D01*
X214870Y270226D01*
X214827Y270133D01*
X214825Y270113D01*
X214817Y270094D01*
X214799Y269928D01*
X214799Y268012D01*
X211988Y265201D01*
X208012Y265201D01*
X205201Y268012D01*
X205201Y271988D01*
X208012Y274799D01*
X210368Y274799D01*
X210388Y274802D01*
X210407Y274800D01*
X210509Y274822D01*
X210611Y274838D01*
X210628Y274848D01*
X210648Y274852D01*
X210737Y274905D01*
X210828Y274954D01*
X210842Y274968D01*
X210859Y274978D01*
X210926Y275057D01*
X210998Y275132D01*
X211006Y275150D01*
X211019Y275165D01*
X211058Y275261D01*
X211101Y275355D01*
X211103Y275375D01*
X211111Y275393D01*
X211129Y275560D01*
X211129Y277475D01*
X213940Y280286D01*
X217916Y280286D01*
X220727Y277475D01*
X220727Y273473D01*
X220712Y273441D01*
X220682Y273399D01*
X220660Y273330D01*
X220630Y273265D01*
X220625Y273213D01*
X220609Y273164D01*
X220611Y273092D01*
X220603Y273021D01*
X220614Y272970D01*
X220616Y272918D01*
X220640Y272850D01*
X220655Y272780D01*
X220682Y272735D01*
X220700Y272687D01*
X220745Y272631D01*
X220782Y272569D01*
X220821Y272535D01*
X220854Y272495D01*
X220914Y272456D01*
X220969Y272409D01*
X221017Y272390D01*
X221061Y272362D01*
X221130Y272344D01*
X221197Y272317D01*
X221268Y272309D01*
X221299Y272301D01*
X221322Y272303D01*
X221363Y272299D01*
X225488Y272299D01*
X228299Y269488D01*
X228299Y265512D01*
X225488Y262701D01*
X221512Y262701D01*
G37*
%LPD*%
%LPC*%
G36*
X64251Y268399D02*
X64251Y268399D01*
X61440Y271210D01*
X61440Y275186D01*
X63622Y277368D01*
X63634Y277384D01*
X63649Y277396D01*
X63705Y277484D01*
X63766Y277567D01*
X63771Y277586D01*
X63782Y277603D01*
X63808Y277704D01*
X63838Y277802D01*
X63837Y277822D01*
X63842Y277842D01*
X63834Y277945D01*
X63832Y278048D01*
X63825Y278067D01*
X63823Y278087D01*
X63783Y278182D01*
X63747Y278279D01*
X63735Y278295D01*
X63727Y278313D01*
X63622Y278444D01*
X61893Y280173D01*
X61893Y284149D01*
X63183Y285439D01*
X63195Y285455D01*
X63210Y285468D01*
X63266Y285555D01*
X63327Y285639D01*
X63332Y285658D01*
X63343Y285675D01*
X63369Y285775D01*
X63399Y285874D01*
X63398Y285894D01*
X63403Y285913D01*
X63395Y286016D01*
X63393Y286120D01*
X63386Y286139D01*
X63384Y286159D01*
X63344Y286253D01*
X63308Y286351D01*
X63296Y286367D01*
X63288Y286385D01*
X63183Y286516D01*
X61001Y288698D01*
X61001Y292673D01*
X63812Y295484D01*
X67788Y295484D01*
X70599Y292673D01*
X70599Y288698D01*
X69308Y287407D01*
X69297Y287391D01*
X69281Y287379D01*
X69225Y287291D01*
X69165Y287207D01*
X69159Y287189D01*
X69148Y287172D01*
X69123Y287071D01*
X69092Y286972D01*
X69093Y286952D01*
X69088Y286933D01*
X69096Y286830D01*
X69099Y286726D01*
X69106Y286708D01*
X69107Y286688D01*
X69148Y286593D01*
X69183Y286495D01*
X69196Y286480D01*
X69203Y286462D01*
X69308Y286331D01*
X71490Y284149D01*
X71490Y280173D01*
X69308Y277992D01*
X69297Y277976D01*
X69281Y277963D01*
X69225Y277876D01*
X69165Y277792D01*
X69159Y277773D01*
X69148Y277756D01*
X69123Y277656D01*
X69092Y277557D01*
X69093Y277537D01*
X69088Y277518D01*
X69096Y277415D01*
X69099Y277311D01*
X69106Y277292D01*
X69107Y277272D01*
X69148Y277178D01*
X69183Y277080D01*
X69196Y277064D01*
X69203Y277046D01*
X69308Y276915D01*
X71038Y275186D01*
X71038Y271210D01*
X68227Y268399D01*
X64251Y268399D01*
G37*
%LPD*%
%LPC*%
G36*
X29012Y131201D02*
X29012Y131201D01*
X26201Y134012D01*
X26201Y136940D01*
X26198Y136960D01*
X26200Y136979D01*
X26178Y137081D01*
X26162Y137183D01*
X26152Y137200D01*
X26148Y137220D01*
X26095Y137309D01*
X26046Y137400D01*
X26032Y137414D01*
X26022Y137431D01*
X25943Y137498D01*
X25868Y137570D01*
X25850Y137578D01*
X25835Y137591D01*
X25739Y137630D01*
X25645Y137673D01*
X25625Y137675D01*
X25607Y137683D01*
X25440Y137701D01*
X25012Y137701D01*
X22201Y140512D01*
X22201Y144488D01*
X25012Y147299D01*
X28988Y147299D01*
X30212Y146075D01*
X30228Y146063D01*
X30240Y146048D01*
X30328Y145991D01*
X30411Y145931D01*
X30430Y145925D01*
X30447Y145915D01*
X30548Y145889D01*
X30647Y145859D01*
X30666Y145859D01*
X30686Y145854D01*
X30789Y145862D01*
X30892Y145865D01*
X30911Y145872D01*
X30931Y145874D01*
X31026Y145914D01*
X31123Y145950D01*
X31139Y145962D01*
X31157Y145970D01*
X31288Y146075D01*
X32512Y147299D01*
X36488Y147299D01*
X39299Y144488D01*
X39299Y140512D01*
X36477Y137691D01*
X36419Y137678D01*
X36317Y137662D01*
X36300Y137652D01*
X36280Y137648D01*
X36191Y137595D01*
X36100Y137546D01*
X36086Y137532D01*
X36069Y137522D01*
X36002Y137443D01*
X35930Y137368D01*
X35922Y137350D01*
X35909Y137335D01*
X35870Y137239D01*
X35827Y137145D01*
X35825Y137125D01*
X35817Y137107D01*
X35799Y136940D01*
X35799Y134012D01*
X32988Y131201D01*
X29012Y131201D01*
G37*
%LPD*%
%LPC*%
G36*
X26493Y78534D02*
X26493Y78534D01*
X26493Y89077D01*
X37036Y89077D01*
X37036Y80741D01*
X36863Y80094D01*
X36528Y79515D01*
X36055Y79042D01*
X35476Y78707D01*
X34829Y78534D01*
X26493Y78534D01*
G37*
%LPD*%
%LPC*%
G36*
X15111Y78534D02*
X15111Y78534D01*
X14464Y78707D01*
X13885Y79042D01*
X13412Y79515D01*
X13077Y80094D01*
X12904Y80741D01*
X12904Y89077D01*
X23447Y89077D01*
X23447Y78534D01*
X15111Y78534D01*
G37*
%LPD*%
%LPC*%
G36*
X256423Y432477D02*
X256423Y432477D01*
X262441Y432477D01*
X262441Y418666D01*
X262268Y418019D01*
X261933Y417440D01*
X261460Y416967D01*
X260881Y416632D01*
X260234Y416459D01*
X256423Y416459D01*
X256423Y432477D01*
G37*
%LPD*%
%LPC*%
G36*
X249566Y416459D02*
X249566Y416459D01*
X248919Y416632D01*
X248340Y416967D01*
X247867Y417440D01*
X247532Y418019D01*
X247359Y418666D01*
X247359Y432477D01*
X253377Y432477D01*
X253377Y416459D01*
X249566Y416459D01*
G37*
%LPD*%
%LPC*%
G36*
X142012Y345201D02*
X142012Y345201D01*
X139201Y348012D01*
X139201Y351988D01*
X142012Y354799D01*
X145988Y354799D01*
X148799Y351988D01*
X148799Y348012D01*
X145988Y345201D01*
X142012Y345201D01*
G37*
%LPD*%
%LPC*%
G36*
X212512Y216201D02*
X212512Y216201D01*
X209701Y219012D01*
X209701Y222988D01*
X212512Y225799D01*
X216488Y225799D01*
X219299Y222988D01*
X219299Y219012D01*
X216488Y216201D01*
X212512Y216201D01*
G37*
%LPD*%
%LPC*%
G36*
X198012Y213201D02*
X198012Y213201D01*
X195201Y216012D01*
X195201Y219988D01*
X198012Y222799D01*
X201988Y222799D01*
X204799Y219988D01*
X204799Y216012D01*
X201988Y213201D01*
X198012Y213201D01*
G37*
%LPD*%
%LPC*%
G36*
X165947Y325903D02*
X165947Y325903D01*
X163136Y328714D01*
X163136Y332690D01*
X165947Y335501D01*
X169923Y335501D01*
X172734Y332690D01*
X172734Y328714D01*
X169923Y325903D01*
X165947Y325903D01*
G37*
%LPD*%
%LPC*%
G36*
X146377Y315623D02*
X146377Y315623D01*
X146377Y322435D01*
X146550Y323082D01*
X146885Y323661D01*
X147358Y324134D01*
X147937Y324469D01*
X148584Y324642D01*
X153237Y324642D01*
X153237Y315623D01*
X146377Y315623D01*
G37*
%LPD*%
%LPC*%
G36*
X148584Y303558D02*
X148584Y303558D01*
X147937Y303731D01*
X147358Y304066D01*
X146885Y304539D01*
X146550Y305118D01*
X146377Y305765D01*
X146377Y312577D01*
X153237Y312577D01*
X153237Y303558D01*
X148584Y303558D01*
G37*
%LPD*%
%LPC*%
G36*
X256023Y343523D02*
X256023Y343523D01*
X256023Y350762D01*
X257093Y350549D01*
X258711Y349879D01*
X260168Y348906D01*
X261406Y347668D01*
X262379Y346211D01*
X263049Y344593D01*
X263262Y343523D01*
X256023Y343523D01*
G37*
%LPD*%
%LPC*%
G36*
X245738Y343523D02*
X245738Y343523D01*
X245951Y344593D01*
X246621Y346211D01*
X247594Y347668D01*
X248832Y348906D01*
X250289Y349879D01*
X251907Y350549D01*
X252977Y350762D01*
X252977Y343523D01*
X245738Y343523D01*
G37*
%LPD*%
%LPC*%
G36*
X256023Y340477D02*
X256023Y340477D01*
X263262Y340477D01*
X263049Y339407D01*
X262379Y337789D01*
X261406Y336332D01*
X260168Y335094D01*
X258711Y334121D01*
X257093Y333451D01*
X256023Y333238D01*
X256023Y340477D01*
G37*
%LPD*%
%LPC*%
G36*
X169116Y274816D02*
X169116Y274816D01*
X169116Y282263D01*
X169289Y282910D01*
X169624Y283489D01*
X170097Y283962D01*
X170676Y284297D01*
X171323Y284470D01*
X172039Y284470D01*
X172039Y274816D01*
X169116Y274816D01*
G37*
%LPD*%
%LPC*%
G36*
X68333Y376237D02*
X68333Y376237D01*
X68333Y383033D01*
X72208Y383033D01*
X72208Y378444D01*
X72035Y377797D01*
X71700Y377218D01*
X71227Y376745D01*
X70648Y376410D01*
X70001Y376237D01*
X68333Y376237D01*
G37*
%LPD*%
%LPC*%
G36*
X63999Y376237D02*
X63999Y376237D01*
X63352Y376410D01*
X62773Y376745D01*
X62300Y377218D01*
X61965Y377797D01*
X61792Y378444D01*
X61792Y383033D01*
X65667Y383033D01*
X65667Y376237D01*
X63999Y376237D01*
G37*
%LPD*%
%LPC*%
G36*
X171323Y263640D02*
X171323Y263640D01*
X170676Y263813D01*
X170283Y264041D01*
X170193Y264074D01*
X170107Y264115D01*
X170079Y264118D01*
X170053Y264128D01*
X169957Y264131D01*
X169863Y264142D01*
X169835Y264136D01*
X169807Y264137D01*
X169761Y264123D01*
X169761Y272000D01*
X169758Y272020D01*
X169760Y272039D01*
X169738Y272141D01*
X169722Y272243D01*
X169712Y272260D01*
X169708Y272280D01*
X169655Y272369D01*
X169606Y272460D01*
X169592Y272474D01*
X169582Y272491D01*
X169503Y272558D01*
X169428Y272630D01*
X169410Y272638D01*
X169395Y272651D01*
X169299Y272690D01*
X169205Y272733D01*
X169185Y272735D01*
X169167Y272743D01*
X169116Y272748D01*
X169116Y273294D01*
X172039Y273294D01*
X172039Y263640D01*
X171323Y263640D01*
G37*
%LPD*%
%LPC*%
G36*
X155023Y385673D02*
X155023Y385673D01*
X155023Y390191D01*
X157334Y390191D01*
X157981Y390018D01*
X158560Y389683D01*
X159033Y389210D01*
X159368Y388631D01*
X159541Y387984D01*
X159541Y385673D01*
X155023Y385673D01*
G37*
%LPD*%
%LPC*%
G36*
X155023Y378109D02*
X155023Y378109D01*
X155023Y382627D01*
X159541Y382627D01*
X159541Y380316D01*
X159368Y379669D01*
X159033Y379090D01*
X158560Y378617D01*
X157981Y378282D01*
X157334Y378109D01*
X155023Y378109D01*
G37*
%LPD*%
G36*
X177819Y231387D02*
X177819Y231387D01*
X177839Y231385D01*
X177940Y231407D01*
X178042Y231423D01*
X178060Y231433D01*
X178079Y231437D01*
X178169Y231490D01*
X178260Y231538D01*
X178273Y231553D01*
X178291Y231563D01*
X178358Y231642D01*
X178429Y231717D01*
X178438Y231735D01*
X178451Y231750D01*
X178489Y231846D01*
X178533Y231940D01*
X178535Y231960D01*
X178542Y231978D01*
X178561Y232145D01*
X178558Y232165D01*
X178560Y232184D01*
X178560Y232185D01*
X178538Y232286D01*
X178521Y232388D01*
X178512Y232405D01*
X178508Y232425D01*
X178454Y232514D01*
X178406Y232605D01*
X178392Y232619D01*
X178381Y232636D01*
X178303Y232703D01*
X178228Y232775D01*
X178210Y232783D01*
X178195Y232796D01*
X178098Y232835D01*
X178005Y232878D01*
X177985Y232880D01*
X177966Y232888D01*
X177800Y232906D01*
X172800Y232906D01*
X172781Y232903D01*
X172761Y232905D01*
X172660Y232883D01*
X172558Y232867D01*
X172540Y232857D01*
X172521Y232853D01*
X172431Y232800D01*
X172340Y232752D01*
X172327Y232737D01*
X172309Y232727D01*
X172242Y232648D01*
X172171Y232573D01*
X172162Y232555D01*
X172149Y232540D01*
X172111Y232444D01*
X172067Y232350D01*
X172065Y232330D01*
X172058Y232312D01*
X172039Y232145D01*
X172042Y232125D01*
X172040Y232106D01*
X172040Y232105D01*
X172062Y232004D01*
X172079Y231902D01*
X172088Y231885D01*
X172092Y231865D01*
X172146Y231776D01*
X172194Y231685D01*
X172208Y231671D01*
X172219Y231654D01*
X172297Y231587D01*
X172372Y231515D01*
X172390Y231507D01*
X172405Y231494D01*
X172502Y231455D01*
X172595Y231412D01*
X172615Y231410D01*
X172634Y231402D01*
X172800Y231384D01*
X177800Y231384D01*
X177819Y231387D01*
G37*
%LPC*%
G36*
X254499Y341999D02*
X254499Y341999D01*
X254499Y342001D01*
X254501Y342001D01*
X254501Y341999D01*
X254499Y341999D01*
G37*
%LPD*%
D10*
X185240Y314100D03*
X170000Y314100D03*
X154760Y314100D03*
D11*
X242600Y128500D03*
X242600Y145500D03*
X8600Y124300D03*
X8600Y141300D03*
D12*
X24970Y90600D03*
D13*
X49862Y90600D03*
X75008Y90600D03*
X99900Y90600D03*
D14*
X132600Y251100D03*
X160600Y251100D03*
X132600Y201100D03*
X160600Y201100D03*
D15*
X146600Y251100D03*
X146600Y201100D03*
D11*
X243000Y159200D03*
X226000Y159200D03*
X8200Y157800D03*
X25200Y157800D03*
D16*
X82000Y384366D03*
D17*
X67000Y384366D03*
D16*
X52000Y384366D03*
X52000Y420434D03*
X82000Y420434D03*
D18*
X192800Y232145D03*
X187800Y232145D03*
X182800Y232145D03*
X177800Y232145D03*
X172800Y232145D03*
X172800Y274055D03*
X177800Y274055D03*
X182800Y274055D03*
X187800Y274055D03*
X192800Y274055D03*
D19*
X254500Y342000D03*
D20*
X129750Y393200D03*
X117250Y393200D03*
D21*
X98750Y426700D03*
X148250Y426700D03*
D22*
X221000Y70000D03*
X171000Y70000D03*
D23*
X251000Y20000D03*
X141000Y20000D03*
D24*
X255000Y190200D03*
X255000Y215600D03*
X255000Y240000D03*
X255000Y266400D03*
D11*
X129500Y374000D03*
X112500Y374000D03*
D25*
X142500Y384150D03*
X153500Y384150D03*
X153500Y365850D03*
X142500Y365850D03*
D26*
X254900Y434000D03*
X229500Y434000D03*
X205100Y434000D03*
D27*
X184778Y288000D03*
D28*
X192800Y283055D02*
X192800Y274055D01*
X192800Y283055D02*
X187855Y288000D01*
X184778Y288000D01*
D27*
X250000Y252500D03*
D28*
X250000Y261400D01*
X255000Y266400D01*
X185240Y314100D02*
X181327Y312760D01*
X188778Y305309D02*
X188778Y292000D01*
X188778Y305309D02*
X181327Y312760D01*
X188778Y292000D02*
X184778Y288000D01*
D27*
X134020Y173100D03*
D28*
X135120Y172000D01*
X185000Y172000D01*
X188000Y175000D01*
X188000Y200000D01*
X193000Y205000D01*
X193500Y205000D01*
D27*
X193500Y205000D03*
X115000Y440000D03*
X65000Y424000D03*
D28*
X69000Y420000D01*
X69000Y386366D01*
X67000Y384366D01*
D27*
X224000Y276000D03*
X155000Y263000D03*
X183000Y299000D03*
X175000Y235000D03*
X208000Y208000D03*
D28*
X175000Y234345D02*
X172800Y232145D01*
X175000Y234345D02*
X175000Y235000D01*
D27*
X155000Y239000D03*
X155000Y247000D03*
X155000Y255000D03*
X138000Y239000D03*
X138000Y247000D03*
X138000Y255000D03*
X155000Y231000D03*
X138000Y231000D03*
X138000Y263000D03*
X83000Y255000D03*
X91000Y255000D03*
X99000Y255000D03*
X83000Y247000D03*
X91000Y247000D03*
X99000Y247000D03*
X83000Y239000D03*
X91000Y239000D03*
X99000Y239000D03*
X227000Y215000D03*
X94000Y307000D03*
X120000Y317000D03*
X133000Y350000D03*
X131000Y363000D03*
X154000Y351000D03*
X73500Y348000D03*
X81500Y348000D03*
X89500Y348000D03*
X73500Y340000D03*
X81500Y340000D03*
X89500Y340000D03*
X73500Y332000D03*
X81500Y332000D03*
X89500Y332000D03*
X65500Y348000D03*
X65500Y340000D03*
X65500Y332000D03*
X73500Y364500D03*
X81500Y364500D03*
X89500Y364500D03*
X73500Y356500D03*
X81500Y356500D03*
X89500Y356500D03*
X65500Y364500D03*
X65500Y356500D03*
X97500Y348000D03*
X97500Y340000D03*
X97500Y332000D03*
X97500Y364500D03*
X97500Y356500D03*
X106000Y348000D03*
X106000Y340000D03*
X106000Y356500D03*
X166000Y376500D03*
X239000Y356500D03*
X214350Y385000D03*
D28*
X142500Y373785D02*
X142500Y365850D01*
X142500Y373785D02*
X144000Y375285D01*
D27*
X144000Y375285D03*
X244733Y318183D03*
D28*
X247128Y318183D01*
X253048Y312263D01*
X253048Y287681D01*
X237714Y272347D01*
X246000Y240000D02*
X255000Y240000D01*
X246000Y240000D02*
X237714Y248286D01*
X237714Y272347D01*
X233714Y273347D02*
X250000Y289633D01*
X233714Y273347D02*
X233714Y227886D01*
X246000Y215600D02*
X255000Y215600D01*
X246000Y215600D02*
X233714Y227886D01*
X250000Y289633D02*
X250000Y311000D01*
X239173Y320486D02*
X242338Y323651D01*
X239173Y320486D02*
X239173Y315880D01*
X242430Y312623D02*
X248377Y312623D01*
X242430Y312623D02*
X239173Y315880D01*
X248377Y312623D02*
X250000Y311000D01*
D27*
X242338Y333560D03*
D28*
X242338Y323651D01*
X183000Y327560D02*
X177000Y327560D01*
X170000Y320560D01*
X170000Y314100D01*
D27*
X183000Y327560D03*
X175000Y189000D03*
X90000Y193000D03*
X92000Y178000D03*
X100000Y178000D03*
X108000Y178000D03*
X162000Y178000D03*
X170000Y178000D03*
X178000Y178000D03*
X155000Y199000D03*
X155000Y207000D03*
X155000Y215000D03*
X138000Y198000D03*
X138000Y206000D03*
X138000Y214000D03*
X155000Y191000D03*
X138000Y190000D03*
X138000Y182000D03*
X146000Y179000D03*
X93824Y212961D03*
X152000Y166000D03*
D28*
X93824Y204824D02*
X93824Y212961D01*
X80000Y191000D02*
X80000Y176000D01*
X80000Y191000D02*
X93824Y204824D01*
D27*
X243000Y129000D03*
D28*
X242600Y128600D02*
X242600Y128500D01*
X242600Y128600D02*
X243000Y129000D01*
X84000Y172000D02*
X80000Y176000D01*
X84000Y172000D02*
X118317Y172000D01*
X123317Y167000D01*
X136343Y167560D02*
X150440Y167560D01*
X152000Y166000D01*
X135783Y167000D02*
X123317Y167000D01*
X135783Y167000D02*
X136343Y167560D01*
D27*
X160000Y166000D03*
X168000Y166000D03*
X176000Y166000D03*
X152000Y158000D03*
X160000Y158000D03*
X168000Y158000D03*
X176000Y158000D03*
X152000Y150000D03*
X160000Y150000D03*
X168000Y150000D03*
X176000Y150000D03*
X216000Y119000D03*
X212500Y125500D03*
X220000Y125500D03*
X71300Y205126D03*
D28*
X71300Y174302D01*
X74000Y171602D01*
D27*
X74000Y171602D03*
X8600Y124300D03*
X90000Y166000D03*
X98000Y166000D03*
X106000Y166000D03*
X90000Y158000D03*
X98000Y158000D03*
X106000Y158000D03*
X90000Y150000D03*
X98000Y150000D03*
X106000Y150000D03*
X82000Y166000D03*
X82000Y158000D03*
X82000Y150000D03*
X27000Y142500D03*
X34500Y142500D03*
X31000Y136000D03*
D28*
X52000Y420434D02*
X49700Y422734D01*
X49700Y430000D01*
D27*
X49700Y430000D03*
D28*
X55189Y429825D02*
X56974Y431610D01*
X77026Y431610D02*
X78811Y429825D01*
X77026Y431610D02*
X56974Y431610D01*
X55189Y423623D02*
X52000Y420434D01*
X55189Y423623D02*
X55189Y429825D01*
X78811Y429825D02*
X78811Y423623D01*
X82000Y420434D01*
D27*
X231500Y138200D03*
X32000Y170000D03*
X40000Y170000D03*
X48000Y170000D03*
X32000Y162000D03*
X40000Y162000D03*
X48000Y162000D03*
X32000Y154000D03*
X40000Y154000D03*
X48000Y154000D03*
X24000Y170000D03*
X24000Y162000D03*
X24000Y154000D03*
X215500Y154000D03*
X223500Y154000D03*
X231500Y154000D03*
X215500Y146000D03*
X223500Y146000D03*
X231500Y146000D03*
X215500Y138000D03*
X223500Y138000D03*
X207500Y154000D03*
X207500Y146000D03*
X207500Y138000D03*
X17000Y340500D03*
X25000Y340500D03*
X33000Y340500D03*
X17000Y332500D03*
X25000Y332500D03*
X33000Y332500D03*
X17000Y324500D03*
X25000Y324500D03*
X33000Y324500D03*
X9000Y340500D03*
X9000Y332500D03*
X9000Y324500D03*
X17000Y365000D03*
X25000Y365000D03*
X33000Y365000D03*
X17000Y357000D03*
X25000Y357000D03*
X33000Y357000D03*
X17000Y349000D03*
X25000Y349000D03*
X33000Y349000D03*
X9000Y365000D03*
X9000Y357000D03*
X9000Y349000D03*
X41000Y340500D03*
X41000Y332500D03*
X41000Y324500D03*
X41000Y365000D03*
X41000Y357000D03*
X41000Y349000D03*
X49500Y340500D03*
X49500Y332500D03*
X49500Y324500D03*
X49500Y365000D03*
X49500Y357000D03*
X49500Y349000D03*
X187650Y426250D03*
D28*
X188650Y425250D01*
X168600Y405200D01*
X123250Y405200D01*
X117250Y399200D01*
X117250Y393200D01*
X119500Y390950D01*
X119500Y381000D01*
X112500Y374000D01*
D27*
X193850Y420750D03*
D28*
X169200Y401200D02*
X132750Y401200D01*
X129750Y398200D01*
X129750Y393200D01*
X127500Y390950D01*
X127500Y376000D01*
X129500Y374000D01*
X188750Y420750D02*
X193850Y420750D01*
X188750Y420750D02*
X169200Y401200D01*
D27*
X61365Y262072D03*
X223500Y267500D03*
X227000Y327560D03*
X244000Y294000D03*
X62043Y245928D03*
X237000Y287000D03*
X62502Y254000D03*
X236000Y327560D03*
X185000Y217000D03*
D28*
X192800Y224800D02*
X192800Y232145D01*
X192800Y224800D02*
X185000Y217000D01*
D27*
X200000Y218000D03*
X66239Y273198D03*
X125620Y172560D03*
X214500Y221000D03*
D28*
X146600Y215985D02*
X146600Y201100D01*
X146600Y215985D02*
X151600Y220985D01*
X146600Y216352D02*
X146600Y201100D01*
X146600Y216352D02*
X142000Y220952D01*
X83215Y220952D02*
X77680Y215417D01*
D27*
X77680Y215417D03*
D28*
X83215Y220952D02*
X142000Y220952D01*
X182800Y223145D02*
X182800Y232145D01*
X182800Y223145D02*
X180640Y220985D01*
X151600Y220985D01*
X184890Y242305D02*
X186229Y240966D01*
X170710Y242305D02*
X169371Y240966D01*
X186229Y233716D02*
X187800Y232145D01*
X186229Y233716D02*
X186229Y240966D01*
X184890Y242305D02*
X170710Y242305D01*
X169371Y240966D02*
X169371Y225404D01*
X168000Y224033D01*
X151000Y224033D01*
X146600Y228433D01*
X146600Y251100D01*
X8700Y157300D02*
X8200Y157800D01*
X8700Y157300D02*
X8600Y141300D01*
X242600Y145500D02*
X242600Y158800D01*
X243000Y159200D01*
D27*
X80700Y437000D03*
D28*
X47397Y435560D02*
X44140Y432303D01*
X79260Y435560D02*
X80700Y437000D01*
X52000Y409200D02*
X52000Y384366D01*
X47397Y435560D02*
X79260Y435560D01*
X44140Y432303D02*
X44140Y417060D01*
X52000Y409200D01*
D27*
X96750Y396700D03*
D28*
X82300Y384666D01*
X82000Y384366D01*
D27*
X102598Y214602D03*
X231000Y127000D03*
X85752Y213000D03*
X138802Y162000D03*
X65800Y290685D03*
X61000Y307398D03*
X167935Y330702D03*
X210000Y270000D03*
X66691Y282161D03*
X62000Y315470D03*
X144000Y350000D03*
X215928Y275488D03*
D28*
X154383Y365850D02*
X153500Y365850D01*
X154383Y365850D02*
X154798Y365435D01*
D27*
X154798Y365435D03*
X218928Y327560D03*
X208202Y356000D03*
D28*
X208202Y430898D01*
X205100Y434000D01*
D27*
X210856Y328000D03*
D28*
X229500Y346644D01*
X229500Y434000D01*
M02*
