G04 EAGLE Gerber RS-274X export*
G75*
%MOMM*%
%FSLAX34Y34*%
%LPD*%
%INInner Layer 2*%
%IPPOS*%
%AMOC8*
5,1,8,0,0,1.08239X$1,22.5*%
G01*
%ADD10C,1.447800*%
%ADD11C,2.700000*%
%ADD12C,1.650000*%
%ADD13C,0.654800*%
%ADD14C,0.152400*%

G36*
X266718Y2544D02*
X266718Y2544D01*
X266737Y2542D01*
X266839Y2564D01*
X266941Y2580D01*
X266958Y2590D01*
X266978Y2594D01*
X267067Y2647D01*
X267158Y2696D01*
X267172Y2710D01*
X267189Y2720D01*
X267256Y2799D01*
X267328Y2874D01*
X267336Y2892D01*
X267349Y2907D01*
X267388Y3003D01*
X267431Y3097D01*
X267433Y3117D01*
X267441Y3135D01*
X267459Y3302D01*
X267459Y446698D01*
X267456Y446718D01*
X267458Y446737D01*
X267436Y446839D01*
X267420Y446941D01*
X267410Y446958D01*
X267406Y446978D01*
X267353Y447067D01*
X267304Y447158D01*
X267290Y447172D01*
X267280Y447189D01*
X267201Y447256D01*
X267126Y447328D01*
X267108Y447336D01*
X267093Y447349D01*
X266997Y447388D01*
X266903Y447431D01*
X266883Y447433D01*
X266865Y447441D01*
X266698Y447459D01*
X60048Y447459D01*
X60028Y447456D01*
X60009Y447458D01*
X59907Y447436D01*
X59805Y447420D01*
X59788Y447410D01*
X59768Y447406D01*
X59679Y447353D01*
X59588Y447304D01*
X59574Y447290D01*
X59557Y447280D01*
X59490Y447201D01*
X59418Y447126D01*
X59410Y447108D01*
X59397Y447093D01*
X59358Y446997D01*
X59315Y446903D01*
X59313Y446883D01*
X59305Y446865D01*
X59287Y446698D01*
X59287Y321030D01*
X59290Y321010D01*
X59288Y320991D01*
X59310Y320889D01*
X59326Y320787D01*
X59336Y320770D01*
X59340Y320750D01*
X59393Y320661D01*
X59442Y320570D01*
X59456Y320556D01*
X59466Y320539D01*
X59545Y320472D01*
X59620Y320400D01*
X59638Y320392D01*
X59653Y320379D01*
X59749Y320340D01*
X59843Y320297D01*
X59863Y320295D01*
X59881Y320287D01*
X60048Y320269D01*
X63988Y320269D01*
X66799Y317458D01*
X66799Y314221D01*
X66813Y314130D01*
X66821Y314040D01*
X66833Y314010D01*
X66838Y313978D01*
X66881Y313897D01*
X66917Y313813D01*
X66943Y313781D01*
X66954Y313760D01*
X66977Y313738D01*
X67022Y313682D01*
X73647Y307057D01*
X73647Y287435D01*
X71464Y285252D01*
X71452Y285236D01*
X71436Y285223D01*
X71380Y285136D01*
X71320Y285052D01*
X71314Y285033D01*
X71303Y285016D01*
X71278Y284916D01*
X71248Y284817D01*
X71248Y284797D01*
X71243Y284778D01*
X71251Y284675D01*
X71254Y284571D01*
X71261Y284552D01*
X71262Y284533D01*
X71303Y284438D01*
X71338Y284340D01*
X71351Y284325D01*
X71359Y284306D01*
X71464Y284175D01*
X71490Y284149D01*
X71490Y280173D01*
X69308Y277992D01*
X69297Y277975D01*
X69281Y277963D01*
X69225Y277876D01*
X69165Y277792D01*
X69159Y277773D01*
X69148Y277756D01*
X69123Y277656D01*
X69092Y277557D01*
X69093Y277537D01*
X69088Y277518D01*
X69096Y277415D01*
X69099Y277311D01*
X69106Y277292D01*
X69107Y277272D01*
X69148Y277178D01*
X69183Y277080D01*
X69196Y277064D01*
X69203Y277046D01*
X69308Y276915D01*
X71038Y275186D01*
X71038Y271948D01*
X71052Y271858D01*
X71060Y271767D01*
X71072Y271738D01*
X71077Y271706D01*
X71120Y271625D01*
X71156Y271541D01*
X71182Y271509D01*
X71192Y271488D01*
X71216Y271466D01*
X71261Y271410D01*
X73526Y269145D01*
X73526Y235024D01*
X73540Y234933D01*
X73548Y234843D01*
X73560Y234813D01*
X73565Y234781D01*
X73608Y234700D01*
X73644Y234616D01*
X73670Y234584D01*
X73680Y234563D01*
X73704Y234541D01*
X73749Y234485D01*
X81224Y227010D01*
X81298Y226957D01*
X81368Y226897D01*
X81398Y226885D01*
X81424Y226866D01*
X81511Y226839D01*
X81596Y226805D01*
X81637Y226801D01*
X81659Y226794D01*
X81691Y226795D01*
X81763Y226787D01*
X178737Y226787D01*
X178828Y226801D01*
X178918Y226809D01*
X178948Y226821D01*
X178980Y226826D01*
X179061Y226869D01*
X179145Y226905D01*
X179177Y226931D01*
X179198Y226942D01*
X179220Y226965D01*
X179276Y227010D01*
X180553Y228287D01*
X190947Y228287D01*
X196685Y222548D01*
X196702Y222537D01*
X196714Y222521D01*
X196801Y222465D01*
X196885Y222405D01*
X196904Y222399D01*
X196921Y222388D01*
X197021Y222363D01*
X197120Y222333D01*
X197140Y222333D01*
X197160Y222328D01*
X197262Y222336D01*
X197366Y222339D01*
X197385Y222346D01*
X197405Y222347D01*
X197500Y222388D01*
X197597Y222423D01*
X197613Y222436D01*
X197631Y222444D01*
X197762Y222548D01*
X198012Y222799D01*
X201988Y222799D01*
X204803Y219984D01*
X204810Y219937D01*
X204812Y219865D01*
X204830Y219816D01*
X204838Y219765D01*
X204872Y219701D01*
X204897Y219634D01*
X204929Y219593D01*
X204954Y219547D01*
X205005Y219498D01*
X205050Y219442D01*
X205094Y219414D01*
X205132Y219378D01*
X205197Y219348D01*
X205257Y219309D01*
X205308Y219296D01*
X205355Y219274D01*
X205426Y219266D01*
X205496Y219249D01*
X205548Y219253D01*
X205599Y219247D01*
X205670Y219262D01*
X205741Y219268D01*
X205789Y219288D01*
X205840Y219299D01*
X205901Y219336D01*
X205967Y219364D01*
X206023Y219409D01*
X206051Y219426D01*
X206066Y219443D01*
X206098Y219469D01*
X206430Y219801D01*
X206483Y219875D01*
X206543Y219945D01*
X206555Y219975D01*
X206574Y220001D01*
X206601Y220088D01*
X206635Y220173D01*
X206639Y220214D01*
X206646Y220236D01*
X206645Y220268D01*
X206653Y220339D01*
X206653Y224250D01*
X211250Y228847D01*
X219161Y228847D01*
X219251Y228861D01*
X219342Y228869D01*
X219371Y228881D01*
X219403Y228886D01*
X219484Y228929D01*
X219568Y228965D01*
X219600Y228991D01*
X219621Y229002D01*
X219643Y229025D01*
X219699Y229070D01*
X229050Y238421D01*
X229103Y238495D01*
X229163Y238565D01*
X229175Y238595D01*
X229194Y238621D01*
X229221Y238708D01*
X229255Y238793D01*
X229259Y238834D01*
X229266Y238856D01*
X229265Y238888D01*
X229273Y238959D01*
X229273Y241488D01*
X229259Y241578D01*
X229251Y241669D01*
X229239Y241699D01*
X229234Y241731D01*
X229191Y241811D01*
X229155Y241895D01*
X229129Y241927D01*
X229118Y241948D01*
X229095Y241970D01*
X229050Y242026D01*
X221213Y249863D01*
X221213Y262685D01*
X221199Y262775D01*
X221191Y262866D01*
X221179Y262896D01*
X221174Y262928D01*
X221131Y263008D01*
X221095Y263092D01*
X221069Y263124D01*
X221058Y263145D01*
X221035Y263167D01*
X220990Y263223D01*
X218701Y265512D01*
X218701Y269515D01*
X218716Y269547D01*
X218746Y269589D01*
X218768Y269658D01*
X218798Y269723D01*
X218803Y269774D01*
X218819Y269824D01*
X218817Y269896D01*
X218825Y269967D01*
X218814Y270018D01*
X218812Y270070D01*
X218788Y270137D01*
X218773Y270207D01*
X218746Y270252D01*
X218728Y270301D01*
X218683Y270357D01*
X218646Y270419D01*
X218607Y270452D01*
X218574Y270493D01*
X218514Y270532D01*
X218459Y270578D01*
X218411Y270598D01*
X218367Y270626D01*
X218298Y270644D01*
X218231Y270670D01*
X218160Y270678D01*
X218129Y270686D01*
X218106Y270684D01*
X218065Y270689D01*
X215560Y270689D01*
X215540Y270686D01*
X215521Y270688D01*
X215419Y270666D01*
X215317Y270649D01*
X215300Y270640D01*
X215280Y270636D01*
X215191Y270582D01*
X215100Y270534D01*
X215086Y270520D01*
X215069Y270509D01*
X215002Y270431D01*
X214930Y270356D01*
X214922Y270338D01*
X214909Y270322D01*
X214870Y270226D01*
X214827Y270133D01*
X214825Y270113D01*
X214817Y270094D01*
X214799Y269928D01*
X214799Y268012D01*
X211988Y265201D01*
X208012Y265201D01*
X205201Y268012D01*
X205201Y271988D01*
X207490Y274277D01*
X207543Y274351D01*
X207603Y274420D01*
X207615Y274450D01*
X207634Y274476D01*
X207661Y274563D01*
X207695Y274648D01*
X207699Y274689D01*
X207706Y274712D01*
X207705Y274744D01*
X207713Y274815D01*
X207713Y288738D01*
X207699Y288828D01*
X207691Y288919D01*
X207679Y288948D01*
X207674Y288980D01*
X207631Y289061D01*
X207595Y289145D01*
X207569Y289177D01*
X207558Y289198D01*
X207535Y289220D01*
X207490Y289276D01*
X170931Y325835D01*
X170915Y325847D01*
X170902Y325862D01*
X170815Y325918D01*
X170731Y325979D01*
X170712Y325984D01*
X170695Y325995D01*
X170595Y326021D01*
X170496Y326051D01*
X170476Y326050D01*
X170457Y326055D01*
X170354Y326047D01*
X170250Y326045D01*
X170232Y326038D01*
X170212Y326036D01*
X170117Y325996D01*
X170019Y325960D01*
X170004Y325948D01*
X169985Y325940D01*
X169940Y325903D01*
X165947Y325903D01*
X163136Y328714D01*
X163136Y332695D01*
X163164Y332734D01*
X163213Y332786D01*
X163235Y332833D01*
X163266Y332875D01*
X163287Y332944D01*
X163317Y333009D01*
X163323Y333061D01*
X163338Y333110D01*
X163336Y333182D01*
X163344Y333253D01*
X163333Y333304D01*
X163332Y333356D01*
X163307Y333424D01*
X163292Y333494D01*
X163265Y333539D01*
X163247Y333587D01*
X163203Y333643D01*
X163166Y333705D01*
X163126Y333739D01*
X163094Y333779D01*
X163033Y333818D01*
X162979Y333865D01*
X162930Y333884D01*
X162887Y333912D01*
X162817Y333930D01*
X162751Y333957D01*
X162679Y333965D01*
X162648Y333973D01*
X162625Y333971D01*
X162584Y333975D01*
X156791Y333975D01*
X145788Y344978D01*
X145714Y345031D01*
X145644Y345091D01*
X145614Y345103D01*
X145588Y345122D01*
X145501Y345149D01*
X145416Y345183D01*
X145375Y345187D01*
X145353Y345194D01*
X145321Y345193D01*
X145249Y345201D01*
X142012Y345201D01*
X139201Y348012D01*
X139201Y351988D01*
X142012Y354799D01*
X145988Y354799D01*
X148799Y351988D01*
X148799Y348751D01*
X148813Y348660D01*
X148821Y348570D01*
X148833Y348540D01*
X148838Y348508D01*
X148881Y348427D01*
X148917Y348343D01*
X148943Y348311D01*
X148954Y348290D01*
X148977Y348268D01*
X149022Y348212D01*
X158462Y338772D01*
X158536Y338719D01*
X158606Y338659D01*
X158636Y338647D01*
X158662Y338628D01*
X158749Y338601D01*
X158834Y338567D01*
X158875Y338563D01*
X158897Y338556D01*
X158929Y338557D01*
X159001Y338549D01*
X183108Y338549D01*
X190847Y330810D01*
X190847Y317703D01*
X190853Y317666D01*
X190852Y317659D01*
X190860Y317624D01*
X190861Y317612D01*
X190869Y317522D01*
X190881Y317492D01*
X190886Y317460D01*
X190901Y317431D01*
X190904Y317418D01*
X190933Y317371D01*
X190965Y317295D01*
X190991Y317263D01*
X191002Y317242D01*
X191020Y317225D01*
X191030Y317207D01*
X191046Y317194D01*
X191070Y317164D01*
X218215Y290019D01*
X218215Y280303D01*
X218229Y280212D01*
X218237Y280122D01*
X218249Y280092D01*
X218254Y280060D01*
X218297Y279979D01*
X218333Y279895D01*
X218359Y279863D01*
X218370Y279842D01*
X218393Y279820D01*
X218438Y279764D01*
X220727Y277475D01*
X220727Y273473D01*
X220712Y273441D01*
X220682Y273399D01*
X220660Y273330D01*
X220630Y273265D01*
X220625Y273213D01*
X220609Y273164D01*
X220611Y273092D01*
X220603Y273021D01*
X220614Y272970D01*
X220616Y272918D01*
X220640Y272850D01*
X220655Y272780D01*
X220682Y272735D01*
X220700Y272687D01*
X220745Y272631D01*
X220782Y272569D01*
X220821Y272535D01*
X220854Y272495D01*
X220914Y272456D01*
X220969Y272409D01*
X221017Y272390D01*
X221061Y272362D01*
X221130Y272344D01*
X221197Y272317D01*
X221268Y272309D01*
X221299Y272301D01*
X221322Y272303D01*
X221363Y272299D01*
X225488Y272299D01*
X228299Y269488D01*
X228299Y265512D01*
X226010Y263223D01*
X225957Y263149D01*
X225897Y263080D01*
X225885Y263050D01*
X225866Y263024D01*
X225839Y262937D01*
X225805Y262852D01*
X225801Y262811D01*
X225794Y262788D01*
X225795Y262756D01*
X225787Y262685D01*
X225787Y252073D01*
X225801Y251983D01*
X225809Y251892D01*
X225821Y251862D01*
X225826Y251830D01*
X225869Y251750D01*
X225905Y251666D01*
X225931Y251634D01*
X225942Y251613D01*
X225965Y251591D01*
X226010Y251535D01*
X233847Y243698D01*
X233847Y236750D01*
X221370Y224273D01*
X219851Y224273D01*
X219780Y224262D01*
X219708Y224260D01*
X219659Y224242D01*
X219608Y224234D01*
X219545Y224200D01*
X219477Y224175D01*
X219437Y224143D01*
X219391Y224118D01*
X219342Y224067D01*
X219285Y224022D01*
X219257Y223978D01*
X219221Y223940D01*
X219191Y223875D01*
X219152Y223815D01*
X219140Y223764D01*
X219118Y223717D01*
X219110Y223646D01*
X219092Y223576D01*
X219096Y223524D01*
X219091Y223473D01*
X219106Y223402D01*
X219112Y223331D01*
X219132Y223283D01*
X219143Y223232D01*
X219180Y223171D01*
X219208Y223105D01*
X219253Y223049D01*
X219269Y223021D01*
X219287Y223006D01*
X219299Y222991D01*
X219299Y219012D01*
X216488Y216201D01*
X212512Y216201D01*
X211444Y217270D01*
X211427Y217282D01*
X211415Y217297D01*
X211328Y217353D01*
X211244Y217414D01*
X211225Y217419D01*
X211208Y217430D01*
X211108Y217455D01*
X211009Y217486D01*
X210989Y217485D01*
X210970Y217490D01*
X210867Y217482D01*
X210763Y217480D01*
X210744Y217473D01*
X210724Y217471D01*
X210629Y217431D01*
X210532Y217395D01*
X210516Y217383D01*
X210498Y217375D01*
X210367Y217270D01*
X203250Y210153D01*
X196971Y210153D01*
X196900Y210142D01*
X196829Y210140D01*
X196780Y210122D01*
X196728Y210114D01*
X196665Y210080D01*
X196598Y210055D01*
X196557Y210023D01*
X196511Y209998D01*
X196461Y209946D01*
X196405Y209902D01*
X196377Y209858D01*
X196341Y209820D01*
X196311Y209755D01*
X196272Y209695D01*
X196260Y209644D01*
X196238Y209597D01*
X196230Y209526D01*
X196212Y209456D01*
X196216Y209404D01*
X196211Y209353D01*
X196226Y209282D01*
X196232Y209211D01*
X196252Y209163D01*
X196263Y209112D01*
X196300Y209051D01*
X196328Y208985D01*
X196373Y208929D01*
X196389Y208901D01*
X196407Y208886D01*
X196433Y208854D01*
X198299Y206988D01*
X198299Y203012D01*
X195488Y200201D01*
X191512Y200201D01*
X188701Y203012D01*
X188701Y206988D01*
X191512Y209799D01*
X195266Y209799D01*
X195337Y209810D01*
X195409Y209812D01*
X195458Y209830D01*
X195509Y209838D01*
X195573Y209872D01*
X195640Y209897D01*
X195681Y209929D01*
X195727Y209954D01*
X195776Y210005D01*
X195832Y210050D01*
X195860Y210094D01*
X195896Y210132D01*
X195926Y210197D01*
X195965Y210257D01*
X195978Y210308D01*
X196000Y210355D01*
X196008Y210426D01*
X196025Y210496D01*
X196021Y210548D01*
X196027Y210599D01*
X196011Y210670D01*
X196006Y210741D01*
X195986Y210789D01*
X195974Y210840D01*
X195938Y210901D01*
X195910Y210967D01*
X195865Y211023D01*
X195848Y211051D01*
X195831Y211066D01*
X195805Y211098D01*
X195187Y211716D01*
X191098Y215805D01*
X191040Y215847D01*
X190988Y215896D01*
X190941Y215918D01*
X190899Y215948D01*
X190830Y215969D01*
X190765Y216000D01*
X190713Y216005D01*
X190663Y216021D01*
X190592Y216019D01*
X190521Y216027D01*
X190470Y216016D01*
X190418Y216014D01*
X190350Y215990D01*
X190280Y215974D01*
X190235Y215948D01*
X190187Y215930D01*
X190131Y215885D01*
X190069Y215848D01*
X190035Y215809D01*
X189995Y215776D01*
X189956Y215716D01*
X189909Y215661D01*
X189890Y215613D01*
X189862Y215569D01*
X189844Y215500D01*
X189817Y215433D01*
X189809Y215362D01*
X189801Y215331D01*
X189803Y215307D01*
X189799Y215266D01*
X189799Y215012D01*
X186988Y212201D01*
X183012Y212201D01*
X180201Y215012D01*
X180201Y217952D01*
X180198Y217972D01*
X180200Y217991D01*
X180178Y218093D01*
X180162Y218195D01*
X180152Y218212D01*
X180148Y218232D01*
X180095Y218321D01*
X180046Y218412D01*
X180032Y218426D01*
X180022Y218443D01*
X179943Y218510D01*
X179868Y218582D01*
X179850Y218590D01*
X179835Y218603D01*
X179739Y218642D01*
X179645Y218685D01*
X179625Y218687D01*
X179607Y218695D01*
X179440Y218713D01*
X171358Y218713D01*
X171288Y218702D01*
X171216Y218700D01*
X171167Y218682D01*
X171116Y218674D01*
X171052Y218640D01*
X170985Y218615D01*
X170944Y218583D01*
X170898Y218558D01*
X170849Y218506D01*
X170793Y218462D01*
X170765Y218418D01*
X170729Y218380D01*
X170699Y218315D01*
X170660Y218255D01*
X170647Y218204D01*
X170625Y218157D01*
X170617Y218086D01*
X170600Y218016D01*
X170604Y217964D01*
X170598Y217913D01*
X170613Y217842D01*
X170619Y217771D01*
X170639Y217723D01*
X170650Y217672D01*
X170687Y217611D01*
X170715Y217545D01*
X170760Y217489D01*
X170777Y217461D01*
X170794Y217446D01*
X170820Y217414D01*
X187287Y200947D01*
X187287Y174053D01*
X185947Y172713D01*
X184858Y172713D01*
X184788Y172702D01*
X184716Y172700D01*
X184667Y172682D01*
X184616Y172674D01*
X184552Y172640D01*
X184485Y172615D01*
X184444Y172583D01*
X184398Y172558D01*
X184349Y172506D01*
X184293Y172462D01*
X184265Y172418D01*
X184229Y172380D01*
X184199Y172315D01*
X184160Y172255D01*
X184147Y172204D01*
X184125Y172157D01*
X184117Y172086D01*
X184100Y172016D01*
X184104Y171964D01*
X184098Y171913D01*
X184113Y171842D01*
X184119Y171771D01*
X184139Y171723D01*
X184150Y171672D01*
X184187Y171611D01*
X184215Y171545D01*
X184260Y171489D01*
X184277Y171461D01*
X184294Y171446D01*
X184320Y171414D01*
X186010Y169724D01*
X192414Y163320D01*
X192472Y163278D01*
X192524Y163229D01*
X192571Y163207D01*
X192613Y163177D01*
X192682Y163156D01*
X192747Y163125D01*
X192799Y163120D01*
X192849Y163104D01*
X192920Y163106D01*
X192991Y163098D01*
X193042Y163109D01*
X193094Y163111D01*
X193162Y163135D01*
X193232Y163150D01*
X193277Y163177D01*
X193325Y163195D01*
X193381Y163240D01*
X193443Y163277D01*
X193477Y163316D01*
X193517Y163349D01*
X193556Y163409D01*
X193603Y163464D01*
X193622Y163512D01*
X193650Y163556D01*
X193668Y163625D01*
X193695Y163692D01*
X193703Y163763D01*
X193711Y163794D01*
X193709Y163818D01*
X193713Y163858D01*
X193713Y180947D01*
X218053Y205287D01*
X242947Y205287D01*
X244287Y203947D01*
X244287Y142553D01*
X236820Y135086D01*
X236778Y135028D01*
X236729Y134976D01*
X236707Y134929D01*
X236677Y134887D01*
X236656Y134818D01*
X236625Y134753D01*
X236620Y134701D01*
X236604Y134651D01*
X236606Y134580D01*
X236598Y134509D01*
X236609Y134458D01*
X236611Y134406D01*
X236635Y134338D01*
X236650Y134268D01*
X236677Y134223D01*
X236695Y134175D01*
X236740Y134119D01*
X236777Y134057D01*
X236816Y134023D01*
X236849Y133983D01*
X236909Y133944D01*
X236964Y133897D01*
X237012Y133878D01*
X237056Y133850D01*
X237125Y133832D01*
X237192Y133805D01*
X237263Y133797D01*
X237294Y133789D01*
X237318Y133791D01*
X237358Y133787D01*
X240685Y133787D01*
X240758Y133799D01*
X245196Y133799D01*
X245212Y133794D01*
X245244Y133795D01*
X245315Y133787D01*
X249447Y133787D01*
X252287Y130947D01*
X252287Y39053D01*
X250947Y37713D01*
X197053Y37713D01*
X196038Y38728D01*
X196022Y38739D01*
X196010Y38755D01*
X195922Y38811D01*
X195839Y38871D01*
X195820Y38877D01*
X195803Y38888D01*
X195702Y38913D01*
X195603Y38944D01*
X195584Y38943D01*
X195564Y38948D01*
X195461Y38940D01*
X195358Y38937D01*
X195339Y38930D01*
X195319Y38929D01*
X195224Y38889D01*
X195127Y38853D01*
X195111Y38840D01*
X195093Y38833D01*
X194962Y38728D01*
X193947Y37713D01*
X149053Y37713D01*
X117713Y69053D01*
X117713Y80737D01*
X117699Y80828D01*
X117691Y80918D01*
X117679Y80948D01*
X117674Y80980D01*
X117631Y81061D01*
X117595Y81145D01*
X117569Y81177D01*
X117558Y81198D01*
X117535Y81220D01*
X117490Y81276D01*
X115062Y83704D01*
X115004Y83746D01*
X114952Y83795D01*
X114905Y83817D01*
X114863Y83847D01*
X114794Y83868D01*
X114729Y83899D01*
X114677Y83904D01*
X114627Y83920D01*
X114556Y83918D01*
X114485Y83926D01*
X114434Y83915D01*
X114382Y83913D01*
X114314Y83889D01*
X114244Y83874D01*
X114199Y83847D01*
X114151Y83829D01*
X114095Y83784D01*
X114033Y83747D01*
X113999Y83708D01*
X113959Y83675D01*
X113920Y83615D01*
X113873Y83560D01*
X113854Y83512D01*
X113826Y83468D01*
X113808Y83399D01*
X113781Y83332D01*
X113773Y83261D01*
X113765Y83230D01*
X113767Y83206D01*
X113763Y83166D01*
X113763Y78684D01*
X110316Y75237D01*
X12684Y75237D01*
X9237Y78684D01*
X9237Y96952D01*
X9235Y96965D01*
X9236Y96975D01*
X9235Y96981D01*
X9236Y96991D01*
X9214Y97093D01*
X9198Y97195D01*
X9188Y97212D01*
X9184Y97232D01*
X9131Y97321D01*
X9082Y97412D01*
X9068Y97426D01*
X9058Y97443D01*
X8979Y97510D01*
X8904Y97582D01*
X8886Y97590D01*
X8871Y97603D01*
X8775Y97642D01*
X8681Y97685D01*
X8661Y97687D01*
X8643Y97695D01*
X8476Y97713D01*
X3302Y97713D01*
X3282Y97710D01*
X3263Y97712D01*
X3161Y97690D01*
X3059Y97674D01*
X3042Y97664D01*
X3022Y97660D01*
X2933Y97607D01*
X2842Y97558D01*
X2828Y97544D01*
X2811Y97534D01*
X2744Y97455D01*
X2672Y97380D01*
X2664Y97362D01*
X2651Y97347D01*
X2612Y97251D01*
X2569Y97157D01*
X2567Y97137D01*
X2559Y97119D01*
X2541Y96952D01*
X2541Y3302D01*
X2544Y3282D01*
X2542Y3263D01*
X2564Y3161D01*
X2580Y3059D01*
X2590Y3042D01*
X2594Y3022D01*
X2647Y2933D01*
X2696Y2842D01*
X2710Y2828D01*
X2720Y2811D01*
X2799Y2744D01*
X2874Y2672D01*
X2892Y2664D01*
X2907Y2651D01*
X3003Y2612D01*
X3097Y2569D01*
X3117Y2567D01*
X3135Y2559D01*
X3302Y2541D01*
X266698Y2541D01*
X266718Y2544D01*
G37*
G36*
X70020Y149242D02*
X70020Y149242D01*
X70039Y149240D01*
X70141Y149262D01*
X70243Y149279D01*
X70260Y149288D01*
X70280Y149292D01*
X70369Y149345D01*
X70460Y149394D01*
X70474Y149408D01*
X70491Y149418D01*
X70558Y149497D01*
X70630Y149572D01*
X70638Y149590D01*
X70651Y149605D01*
X70690Y149701D01*
X70733Y149795D01*
X70735Y149815D01*
X70743Y149833D01*
X70761Y150000D01*
X70761Y167739D01*
X70747Y167829D01*
X70739Y167920D01*
X70727Y167950D01*
X70722Y167982D01*
X70679Y168062D01*
X70643Y168146D01*
X70617Y168179D01*
X70606Y168199D01*
X70583Y168221D01*
X70538Y168277D01*
X69201Y169614D01*
X69201Y173590D01*
X70538Y174927D01*
X70591Y175001D01*
X70651Y175070D01*
X70663Y175100D01*
X70682Y175126D01*
X70709Y175213D01*
X70743Y175298D01*
X70747Y175339D01*
X70754Y175362D01*
X70753Y175394D01*
X70761Y175465D01*
X70761Y199566D01*
X70758Y199586D01*
X70760Y199605D01*
X70738Y199707D01*
X70722Y199809D01*
X70712Y199826D01*
X70708Y199846D01*
X70655Y199935D01*
X70606Y200026D01*
X70592Y200040D01*
X70582Y200057D01*
X70503Y200124D01*
X70428Y200196D01*
X70410Y200204D01*
X70395Y200217D01*
X70299Y200256D01*
X70205Y200299D01*
X70185Y200301D01*
X70167Y200309D01*
X70000Y200327D01*
X69312Y200327D01*
X66501Y203138D01*
X66501Y207114D01*
X69312Y209925D01*
X69314Y209925D01*
X69385Y209936D01*
X69456Y209938D01*
X69505Y209956D01*
X69557Y209964D01*
X69620Y209998D01*
X69687Y210023D01*
X69728Y210055D01*
X69774Y210080D01*
X69823Y210131D01*
X69879Y210176D01*
X69908Y210220D01*
X69944Y210258D01*
X69974Y210323D01*
X70012Y210383D01*
X70025Y210434D01*
X70047Y210481D01*
X70055Y210552D01*
X70073Y210622D01*
X70068Y210674D01*
X70074Y210725D01*
X70059Y210796D01*
X70053Y210867D01*
X70033Y210915D01*
X70022Y210966D01*
X69985Y211027D01*
X69957Y211093D01*
X69912Y211149D01*
X69896Y211177D01*
X69878Y211192D01*
X69852Y211224D01*
X57761Y223315D01*
X57761Y243108D01*
X57747Y243198D01*
X57739Y243289D01*
X57727Y243318D01*
X57722Y243350D01*
X57679Y243431D01*
X57643Y243515D01*
X57617Y243547D01*
X57606Y243568D01*
X57583Y243590D01*
X57538Y243646D01*
X57244Y243940D01*
X57244Y247916D01*
X57538Y248210D01*
X57592Y248284D01*
X57651Y248353D01*
X57663Y248384D01*
X57682Y248410D01*
X57709Y248497D01*
X57743Y248582D01*
X57747Y248623D01*
X57754Y248645D01*
X57753Y248677D01*
X57761Y248748D01*
X57761Y251639D01*
X57747Y251729D01*
X57739Y251820D01*
X57727Y251850D01*
X57722Y251882D01*
X57703Y251916D01*
X57703Y256092D01*
X57709Y256109D01*
X57743Y256194D01*
X57747Y256235D01*
X57754Y256257D01*
X57753Y256289D01*
X57761Y256361D01*
X57761Y258574D01*
X57747Y258664D01*
X57739Y258755D01*
X57727Y258785D01*
X57722Y258817D01*
X57679Y258897D01*
X57643Y258981D01*
X57617Y259013D01*
X57606Y259034D01*
X57583Y259056D01*
X57538Y259112D01*
X56566Y260084D01*
X56566Y264060D01*
X57538Y265032D01*
X57591Y265106D01*
X57651Y265175D01*
X57663Y265205D01*
X57682Y265231D01*
X57709Y265319D01*
X57743Y265403D01*
X57747Y265444D01*
X57754Y265467D01*
X57753Y265499D01*
X57761Y265570D01*
X57761Y303535D01*
X57747Y303625D01*
X57739Y303716D01*
X57727Y303746D01*
X57722Y303778D01*
X57679Y303858D01*
X57643Y303942D01*
X57617Y303975D01*
X57606Y303995D01*
X57583Y304017D01*
X57538Y304073D01*
X56201Y305410D01*
X56201Y309386D01*
X57538Y310723D01*
X57591Y310797D01*
X57651Y310866D01*
X57663Y310896D01*
X57682Y310922D01*
X57709Y311009D01*
X57743Y311094D01*
X57747Y311135D01*
X57754Y311158D01*
X57753Y311190D01*
X57761Y311261D01*
X57761Y312607D01*
X57747Y312697D01*
X57739Y312788D01*
X57727Y312818D01*
X57722Y312850D01*
X57679Y312930D01*
X57643Y313014D01*
X57617Y313047D01*
X57606Y313067D01*
X57583Y313089D01*
X57538Y313145D01*
X57201Y313482D01*
X57201Y317458D01*
X57538Y317795D01*
X57592Y317869D01*
X57651Y317938D01*
X57663Y317968D01*
X57682Y317994D01*
X57709Y318081D01*
X57743Y318166D01*
X57747Y318207D01*
X57754Y318230D01*
X57753Y318262D01*
X57761Y318333D01*
X57761Y446698D01*
X57758Y446718D01*
X57760Y446737D01*
X57738Y446839D01*
X57721Y446941D01*
X57712Y446958D01*
X57708Y446978D01*
X57655Y447067D01*
X57606Y447158D01*
X57592Y447172D01*
X57582Y447189D01*
X57503Y447256D01*
X57428Y447328D01*
X57410Y447336D01*
X57395Y447349D01*
X57299Y447388D01*
X57205Y447431D01*
X57185Y447433D01*
X57167Y447441D01*
X57000Y447459D01*
X3302Y447459D01*
X3282Y447456D01*
X3263Y447458D01*
X3161Y447436D01*
X3059Y447420D01*
X3042Y447410D01*
X3022Y447406D01*
X2933Y447353D01*
X2842Y447304D01*
X2828Y447290D01*
X2811Y447280D01*
X2744Y447201D01*
X2672Y447126D01*
X2664Y447108D01*
X2651Y447093D01*
X2612Y446997D01*
X2569Y446903D01*
X2567Y446883D01*
X2559Y446865D01*
X2541Y446698D01*
X2541Y150000D01*
X2544Y149980D01*
X2542Y149961D01*
X2564Y149859D01*
X2580Y149757D01*
X2590Y149740D01*
X2594Y149720D01*
X2647Y149631D01*
X2696Y149540D01*
X2710Y149526D01*
X2720Y149509D01*
X2799Y149442D01*
X2874Y149371D01*
X2892Y149362D01*
X2907Y149349D01*
X3003Y149310D01*
X3097Y149267D01*
X3117Y149265D01*
X3135Y149257D01*
X3302Y149239D01*
X70000Y149239D01*
X70020Y149242D01*
G37*
G36*
X193020Y39242D02*
X193020Y39242D01*
X193039Y39240D01*
X193141Y39262D01*
X193243Y39279D01*
X193260Y39288D01*
X193280Y39292D01*
X193369Y39345D01*
X193460Y39394D01*
X193474Y39408D01*
X193491Y39418D01*
X193558Y39497D01*
X193630Y39572D01*
X193638Y39590D01*
X193651Y39605D01*
X193690Y39701D01*
X193733Y39795D01*
X193735Y39815D01*
X193743Y39833D01*
X193761Y40000D01*
X193761Y84000D01*
X193747Y84090D01*
X193739Y84181D01*
X193727Y84211D01*
X193722Y84243D01*
X193679Y84323D01*
X193643Y84407D01*
X193617Y84439D01*
X193606Y84460D01*
X193583Y84482D01*
X193538Y84538D01*
X141761Y136315D01*
X141761Y156440D01*
X141758Y156460D01*
X141760Y156479D01*
X141738Y156581D01*
X141722Y156683D01*
X141712Y156700D01*
X141708Y156720D01*
X141655Y156809D01*
X141606Y156900D01*
X141592Y156914D01*
X141582Y156931D01*
X141503Y156998D01*
X141428Y157070D01*
X141410Y157078D01*
X141395Y157091D01*
X141299Y157130D01*
X141205Y157173D01*
X141185Y157175D01*
X141167Y157183D01*
X141000Y157201D01*
X136814Y157201D01*
X134003Y160012D01*
X134003Y163952D01*
X134000Y163972D01*
X134002Y163991D01*
X133980Y164093D01*
X133964Y164195D01*
X133954Y164212D01*
X133950Y164232D01*
X133897Y164321D01*
X133848Y164412D01*
X133834Y164426D01*
X133824Y164443D01*
X133745Y164510D01*
X133670Y164582D01*
X133652Y164590D01*
X133637Y164603D01*
X133541Y164642D01*
X133447Y164685D01*
X133427Y164687D01*
X133409Y164695D01*
X133242Y164713D01*
X121370Y164713D01*
X116593Y169490D01*
X116519Y169543D01*
X116449Y169603D01*
X116419Y169615D01*
X116393Y169634D01*
X116306Y169661D01*
X116221Y169695D01*
X116180Y169699D01*
X116158Y169706D01*
X116126Y169705D01*
X116054Y169713D01*
X83053Y169713D01*
X82228Y170538D01*
X82154Y170591D01*
X82084Y170651D01*
X82054Y170663D01*
X82028Y170682D01*
X81941Y170709D01*
X81856Y170743D01*
X81815Y170747D01*
X81793Y170754D01*
X81761Y170753D01*
X81690Y170761D01*
X74000Y170761D01*
X73980Y170758D01*
X73961Y170760D01*
X73859Y170738D01*
X73757Y170722D01*
X73740Y170712D01*
X73720Y170708D01*
X73631Y170655D01*
X73540Y170606D01*
X73526Y170592D01*
X73509Y170582D01*
X73442Y170503D01*
X73371Y170428D01*
X73362Y170410D01*
X73349Y170395D01*
X73310Y170299D01*
X73267Y170205D01*
X73265Y170185D01*
X73257Y170167D01*
X73239Y170000D01*
X73239Y149315D01*
X70685Y146761D01*
X3302Y146761D01*
X3282Y146758D01*
X3263Y146760D01*
X3161Y146738D01*
X3059Y146722D01*
X3042Y146712D01*
X3022Y146708D01*
X2933Y146655D01*
X2842Y146606D01*
X2828Y146592D01*
X2811Y146582D01*
X2744Y146503D01*
X2672Y146428D01*
X2664Y146410D01*
X2651Y146395D01*
X2612Y146299D01*
X2569Y146205D01*
X2567Y146185D01*
X2559Y146167D01*
X2541Y146000D01*
X2541Y100000D01*
X2544Y99980D01*
X2542Y99961D01*
X2564Y99859D01*
X2580Y99757D01*
X2590Y99740D01*
X2594Y99720D01*
X2647Y99631D01*
X2696Y99540D01*
X2710Y99526D01*
X2720Y99509D01*
X2799Y99442D01*
X2874Y99371D01*
X2892Y99362D01*
X2907Y99349D01*
X3003Y99310D01*
X3097Y99267D01*
X3117Y99265D01*
X3135Y99257D01*
X3302Y99239D01*
X8476Y99239D01*
X8496Y99242D01*
X8515Y99240D01*
X8617Y99262D01*
X8719Y99279D01*
X8736Y99288D01*
X8756Y99292D01*
X8845Y99345D01*
X8936Y99394D01*
X8950Y99408D01*
X8967Y99418D01*
X9034Y99497D01*
X9106Y99572D01*
X9114Y99590D01*
X9127Y99605D01*
X9166Y99701D01*
X9209Y99795D01*
X9211Y99815D01*
X9219Y99833D01*
X9237Y100000D01*
X9237Y102316D01*
X11684Y104763D01*
X107316Y104763D01*
X113763Y98316D01*
X113763Y87476D01*
X113777Y87386D01*
X113785Y87295D01*
X113797Y87265D01*
X113802Y87233D01*
X113845Y87153D01*
X113881Y87069D01*
X113907Y87037D01*
X113918Y87016D01*
X113941Y86994D01*
X113986Y86938D01*
X119239Y81685D01*
X119239Y70000D01*
X119254Y69910D01*
X119261Y69819D01*
X119273Y69789D01*
X119279Y69757D01*
X119321Y69677D01*
X119357Y69593D01*
X119383Y69561D01*
X119394Y69540D01*
X119417Y69518D01*
X119462Y69462D01*
X149462Y39462D01*
X149536Y39409D01*
X149605Y39349D01*
X149635Y39337D01*
X149661Y39318D01*
X149748Y39291D01*
X149833Y39257D01*
X149874Y39253D01*
X149897Y39246D01*
X149929Y39247D01*
X150000Y39239D01*
X193000Y39239D01*
X193020Y39242D01*
G37*
G36*
X250020Y39242D02*
X250020Y39242D01*
X250039Y39240D01*
X250141Y39262D01*
X250243Y39279D01*
X250260Y39288D01*
X250280Y39292D01*
X250369Y39345D01*
X250460Y39394D01*
X250474Y39408D01*
X250491Y39418D01*
X250558Y39497D01*
X250630Y39572D01*
X250638Y39590D01*
X250651Y39605D01*
X250690Y39701D01*
X250733Y39795D01*
X250735Y39815D01*
X250743Y39833D01*
X250761Y40000D01*
X250761Y130000D01*
X250747Y130090D01*
X250739Y130181D01*
X250727Y130211D01*
X250722Y130243D01*
X250679Y130323D01*
X250643Y130407D01*
X250617Y130439D01*
X250606Y130460D01*
X250583Y130482D01*
X250538Y130538D01*
X249038Y132038D01*
X248964Y132091D01*
X248895Y132151D01*
X248865Y132163D01*
X248839Y132182D01*
X248752Y132209D01*
X248667Y132243D01*
X248626Y132247D01*
X248603Y132254D01*
X248571Y132253D01*
X248500Y132261D01*
X234363Y132261D01*
X234292Y132250D01*
X234221Y132248D01*
X234172Y132230D01*
X234120Y132222D01*
X234057Y132188D01*
X233990Y132163D01*
X233949Y132131D01*
X233903Y132106D01*
X233854Y132055D01*
X233798Y132010D01*
X233769Y131966D01*
X233733Y131928D01*
X233703Y131863D01*
X233665Y131803D01*
X233652Y131752D01*
X233630Y131705D01*
X233622Y131634D01*
X233604Y131564D01*
X233609Y131512D01*
X233603Y131461D01*
X233618Y131390D01*
X233624Y131319D01*
X233644Y131271D01*
X233655Y131220D01*
X233692Y131159D01*
X233720Y131093D01*
X233765Y131037D01*
X233781Y131009D01*
X233799Y130994D01*
X233825Y130962D01*
X235799Y128988D01*
X235799Y125012D01*
X232988Y122201D01*
X229012Y122201D01*
X226723Y124490D01*
X226649Y124543D01*
X226580Y124603D01*
X226550Y124615D01*
X226524Y124634D01*
X226437Y124661D01*
X226352Y124695D01*
X226311Y124699D01*
X226288Y124706D01*
X226256Y124705D01*
X226185Y124713D01*
X225416Y124713D01*
X221579Y128550D01*
X221505Y128603D01*
X221435Y128663D01*
X221405Y128675D01*
X221379Y128694D01*
X221292Y128721D01*
X221207Y128755D01*
X221166Y128759D01*
X221144Y128766D01*
X221112Y128765D01*
X221041Y128773D01*
X205630Y128773D01*
X191653Y142750D01*
X191653Y156797D01*
X191639Y156888D01*
X191631Y156978D01*
X191619Y157008D01*
X191614Y157040D01*
X191571Y157121D01*
X191535Y157205D01*
X191509Y157237D01*
X191498Y157258D01*
X191475Y157280D01*
X191430Y157336D01*
X179276Y169490D01*
X179202Y169543D01*
X179132Y169603D01*
X179102Y169615D01*
X179076Y169634D01*
X178989Y169661D01*
X178904Y169695D01*
X178863Y169699D01*
X178841Y169706D01*
X178809Y169705D01*
X178737Y169713D01*
X145263Y169713D01*
X145172Y169699D01*
X145082Y169691D01*
X145052Y169679D01*
X145020Y169674D01*
X144939Y169631D01*
X144855Y169595D01*
X144823Y169569D01*
X144802Y169558D01*
X144780Y169535D01*
X144724Y169490D01*
X144462Y169228D01*
X144409Y169154D01*
X144349Y169084D01*
X144337Y169054D01*
X144318Y169028D01*
X144291Y168941D01*
X144257Y168856D01*
X144253Y168815D01*
X144246Y168793D01*
X144247Y168761D01*
X144239Y168690D01*
X144239Y137000D01*
X144254Y136910D01*
X144261Y136819D01*
X144273Y136789D01*
X144279Y136757D01*
X144321Y136677D01*
X144357Y136593D01*
X144383Y136561D01*
X144394Y136540D01*
X144417Y136518D01*
X144462Y136462D01*
X197239Y83685D01*
X197239Y40000D01*
X197242Y39980D01*
X197240Y39961D01*
X197262Y39859D01*
X197279Y39757D01*
X197288Y39740D01*
X197292Y39720D01*
X197345Y39631D01*
X197394Y39540D01*
X197408Y39526D01*
X197418Y39509D01*
X197497Y39442D01*
X197572Y39371D01*
X197590Y39362D01*
X197605Y39349D01*
X197701Y39310D01*
X197795Y39267D01*
X197815Y39265D01*
X197833Y39257D01*
X198000Y39239D01*
X250000Y39239D01*
X250020Y39242D01*
G37*
G36*
X120287Y174254D02*
X120287Y174254D01*
X120378Y174261D01*
X120408Y174273D01*
X120440Y174279D01*
X120520Y174321D01*
X120604Y174357D01*
X120636Y174383D01*
X120657Y174394D01*
X120679Y174417D01*
X120735Y174462D01*
X123632Y177359D01*
X127608Y177359D01*
X129012Y175955D01*
X129028Y175943D01*
X129040Y175928D01*
X129121Y175876D01*
X129126Y175872D01*
X129129Y175870D01*
X129211Y175811D01*
X129230Y175805D01*
X129247Y175795D01*
X129348Y175769D01*
X129447Y175739D01*
X129466Y175739D01*
X129486Y175734D01*
X129589Y175742D01*
X129692Y175745D01*
X129711Y175752D01*
X129731Y175754D01*
X129826Y175794D01*
X129923Y175830D01*
X129939Y175842D01*
X129957Y175850D01*
X130088Y175955D01*
X132032Y177899D01*
X136008Y177899D01*
X138819Y175088D01*
X138819Y175000D01*
X138822Y174980D01*
X138820Y174961D01*
X138842Y174859D01*
X138858Y174757D01*
X138868Y174740D01*
X138872Y174720D01*
X138925Y174631D01*
X138974Y174540D01*
X138988Y174526D01*
X138998Y174509D01*
X139077Y174442D01*
X139152Y174371D01*
X139170Y174362D01*
X139185Y174349D01*
X139281Y174310D01*
X139375Y174267D01*
X139395Y174265D01*
X139413Y174257D01*
X139580Y174239D01*
X142690Y174239D01*
X142780Y174254D01*
X142871Y174261D01*
X142900Y174273D01*
X142932Y174279D01*
X142948Y174287D01*
X181071Y174287D01*
X181144Y174257D01*
X181185Y174253D01*
X181207Y174246D01*
X181239Y174247D01*
X181310Y174239D01*
X185000Y174239D01*
X185020Y174242D01*
X185039Y174240D01*
X185141Y174262D01*
X185243Y174279D01*
X185260Y174288D01*
X185280Y174292D01*
X185369Y174345D01*
X185460Y174394D01*
X185474Y174408D01*
X185491Y174418D01*
X185558Y174497D01*
X185630Y174572D01*
X185638Y174590D01*
X185651Y174605D01*
X185690Y174701D01*
X185733Y174795D01*
X185735Y174815D01*
X185743Y174833D01*
X185761Y175000D01*
X185761Y200000D01*
X185747Y200090D01*
X185739Y200181D01*
X185727Y200211D01*
X185722Y200243D01*
X185679Y200323D01*
X185643Y200407D01*
X185617Y200439D01*
X185606Y200460D01*
X185583Y200482D01*
X185538Y200538D01*
X167586Y218490D01*
X167512Y218543D01*
X167443Y218603D01*
X167413Y218615D01*
X167387Y218634D01*
X167300Y218661D01*
X167215Y218695D01*
X167174Y218699D01*
X167151Y218706D01*
X167119Y218705D01*
X167048Y218713D01*
X110952Y218713D01*
X110862Y218699D01*
X110771Y218691D01*
X110741Y218679D01*
X110709Y218674D01*
X110629Y218631D01*
X110545Y218595D01*
X110513Y218569D01*
X110492Y218558D01*
X110470Y218535D01*
X110414Y218490D01*
X107620Y215696D01*
X107567Y215622D01*
X107507Y215553D01*
X107495Y215523D01*
X107476Y215496D01*
X107449Y215410D01*
X107415Y215325D01*
X107411Y215284D01*
X107404Y215261D01*
X107405Y215229D01*
X107397Y215158D01*
X107397Y212614D01*
X104586Y209803D01*
X102353Y209803D01*
X102262Y209789D01*
X102172Y209781D01*
X102142Y209769D01*
X102110Y209764D01*
X102029Y209721D01*
X101945Y209685D01*
X101913Y209659D01*
X101892Y209648D01*
X101870Y209625D01*
X101814Y209580D01*
X87462Y195228D01*
X87409Y195154D01*
X87349Y195084D01*
X87337Y195054D01*
X87318Y195028D01*
X87291Y194941D01*
X87257Y194856D01*
X87253Y194815D01*
X87246Y194793D01*
X87247Y194761D01*
X87239Y194690D01*
X87239Y175048D01*
X87242Y175028D01*
X87240Y175009D01*
X87262Y174907D01*
X87279Y174805D01*
X87288Y174788D01*
X87292Y174768D01*
X87345Y174679D01*
X87394Y174588D01*
X87408Y174574D01*
X87418Y174557D01*
X87497Y174490D01*
X87572Y174418D01*
X87590Y174410D01*
X87605Y174397D01*
X87701Y174358D01*
X87795Y174315D01*
X87815Y174313D01*
X87833Y174305D01*
X88000Y174287D01*
X118387Y174287D01*
X118461Y174257D01*
X118502Y174253D01*
X118524Y174246D01*
X118556Y174247D01*
X118627Y174239D01*
X120197Y174239D01*
X120287Y174254D01*
G37*
G36*
X233590Y134254D02*
X233590Y134254D01*
X233681Y134261D01*
X233711Y134273D01*
X233743Y134279D01*
X233823Y134321D01*
X233907Y134357D01*
X233939Y134383D01*
X233960Y134394D01*
X233982Y134417D01*
X234038Y134462D01*
X242538Y142962D01*
X242591Y143036D01*
X242651Y143105D01*
X242663Y143135D01*
X242682Y143161D01*
X242709Y143248D01*
X242743Y143333D01*
X242747Y143374D01*
X242754Y143397D01*
X242753Y143429D01*
X242761Y143500D01*
X242761Y203000D01*
X242758Y203020D01*
X242760Y203039D01*
X242738Y203141D01*
X242722Y203243D01*
X242712Y203260D01*
X242708Y203280D01*
X242655Y203369D01*
X242606Y203460D01*
X242592Y203474D01*
X242582Y203491D01*
X242503Y203558D01*
X242428Y203630D01*
X242410Y203638D01*
X242395Y203651D01*
X242299Y203690D01*
X242205Y203733D01*
X242185Y203735D01*
X242167Y203743D01*
X242000Y203761D01*
X219000Y203761D01*
X218910Y203747D01*
X218819Y203739D01*
X218789Y203727D01*
X218757Y203722D01*
X218677Y203679D01*
X218593Y203643D01*
X218561Y203617D01*
X218540Y203606D01*
X218518Y203583D01*
X218462Y203538D01*
X195462Y180538D01*
X195409Y180464D01*
X195349Y180395D01*
X195337Y180365D01*
X195318Y180339D01*
X195291Y180252D01*
X195257Y180167D01*
X195253Y180126D01*
X195246Y180103D01*
X195247Y180071D01*
X195239Y180000D01*
X195239Y160310D01*
X195254Y160220D01*
X195261Y160129D01*
X195273Y160100D01*
X195279Y160068D01*
X195321Y159987D01*
X195357Y159903D01*
X195383Y159871D01*
X195394Y159850D01*
X195417Y159828D01*
X195462Y159772D01*
X196227Y159007D01*
X196227Y145512D01*
X196241Y145422D01*
X196249Y145331D01*
X196261Y145301D01*
X196266Y145269D01*
X196309Y145189D01*
X196345Y145105D01*
X196371Y145073D01*
X196382Y145052D01*
X196405Y145030D01*
X196450Y144974D01*
X206962Y134462D01*
X207036Y134409D01*
X207105Y134349D01*
X207135Y134337D01*
X207161Y134318D01*
X207248Y134291D01*
X207333Y134257D01*
X207374Y134253D01*
X207397Y134246D01*
X207429Y134247D01*
X207500Y134239D01*
X233500Y134239D01*
X233590Y134254D01*
G37*
%LPC*%
G36*
X59024Y9065D02*
X59024Y9065D01*
X52955Y11579D01*
X48311Y16223D01*
X45797Y22292D01*
X45797Y28860D01*
X48311Y34929D01*
X52955Y39573D01*
X59024Y42087D01*
X65592Y42087D01*
X71661Y39573D01*
X76305Y34929D01*
X78819Y28860D01*
X78819Y22292D01*
X76305Y16223D01*
X71661Y11579D01*
X65592Y9065D01*
X59024Y9065D01*
G37*
%LPD*%
%LPC*%
G36*
X216940Y322761D02*
X216940Y322761D01*
X215210Y324491D01*
X215194Y324503D01*
X215182Y324518D01*
X215094Y324575D01*
X215011Y324635D01*
X214992Y324641D01*
X214975Y324651D01*
X214874Y324677D01*
X214775Y324707D01*
X214756Y324707D01*
X214736Y324712D01*
X214633Y324704D01*
X214530Y324701D01*
X214511Y324694D01*
X214491Y324692D01*
X214396Y324652D01*
X214299Y324616D01*
X214283Y324604D01*
X214265Y324596D01*
X214134Y324491D01*
X212844Y323201D01*
X208868Y323201D01*
X206057Y326012D01*
X206057Y329988D01*
X208868Y332799D01*
X212844Y332799D01*
X214574Y331069D01*
X214590Y331057D01*
X214602Y331042D01*
X214690Y330985D01*
X214773Y330925D01*
X214792Y330919D01*
X214809Y330909D01*
X214910Y330883D01*
X215009Y330853D01*
X215028Y330853D01*
X215048Y330848D01*
X215151Y330856D01*
X215254Y330859D01*
X215273Y330866D01*
X215293Y330868D01*
X215388Y330908D01*
X215485Y330944D01*
X215501Y330956D01*
X215519Y330964D01*
X215650Y331069D01*
X216940Y332359D01*
X220916Y332359D01*
X222426Y330849D01*
X222442Y330837D01*
X222454Y330822D01*
X222524Y330777D01*
X222555Y330750D01*
X222573Y330743D01*
X222625Y330705D01*
X222644Y330699D01*
X222661Y330689D01*
X222762Y330663D01*
X222861Y330633D01*
X222880Y330633D01*
X222900Y330628D01*
X223003Y330636D01*
X223106Y330639D01*
X223125Y330646D01*
X223145Y330648D01*
X223219Y330679D01*
X223221Y330679D01*
X223225Y330682D01*
X223240Y330688D01*
X223337Y330724D01*
X223353Y330736D01*
X223371Y330744D01*
X223427Y330789D01*
X223438Y330794D01*
X223449Y330806D01*
X223502Y330849D01*
X225012Y332359D01*
X228988Y332359D01*
X230962Y330385D01*
X230978Y330373D01*
X230990Y330358D01*
X231078Y330301D01*
X231161Y330241D01*
X231180Y330235D01*
X231197Y330225D01*
X231298Y330199D01*
X231397Y330169D01*
X231416Y330169D01*
X231436Y330164D01*
X231539Y330172D01*
X231642Y330175D01*
X231661Y330182D01*
X231681Y330184D01*
X231776Y330224D01*
X231873Y330260D01*
X231889Y330272D01*
X231907Y330280D01*
X232038Y330385D01*
X234012Y332359D01*
X236778Y332359D01*
X236798Y332362D01*
X236818Y332360D01*
X236919Y332382D01*
X237021Y332398D01*
X237039Y332408D01*
X237058Y332412D01*
X237147Y332465D01*
X237239Y332514D01*
X237252Y332528D01*
X237269Y332538D01*
X237337Y332617D01*
X237408Y332692D01*
X237416Y332710D01*
X237429Y332725D01*
X237468Y332821D01*
X237512Y332915D01*
X237514Y332935D01*
X237521Y332953D01*
X237540Y333120D01*
X237540Y335548D01*
X240351Y338359D01*
X244326Y338359D01*
X247137Y335548D01*
X247137Y331572D01*
X244326Y328761D01*
X241560Y328761D01*
X241540Y328758D01*
X241521Y328760D01*
X241419Y328738D01*
X241317Y328722D01*
X241300Y328712D01*
X241280Y328708D01*
X241191Y328655D01*
X241100Y328606D01*
X241086Y328592D01*
X241069Y328582D01*
X241002Y328503D01*
X240930Y328428D01*
X240922Y328410D01*
X240909Y328395D01*
X240870Y328299D01*
X240827Y328205D01*
X240825Y328185D01*
X240817Y328167D01*
X240799Y328000D01*
X240799Y325572D01*
X237988Y322761D01*
X234012Y322761D01*
X232038Y324735D01*
X232022Y324747D01*
X232010Y324762D01*
X231922Y324819D01*
X231839Y324879D01*
X231820Y324885D01*
X231803Y324895D01*
X231702Y324921D01*
X231603Y324951D01*
X231584Y324951D01*
X231564Y324956D01*
X231461Y324948D01*
X231358Y324945D01*
X231339Y324938D01*
X231319Y324936D01*
X231224Y324896D01*
X231127Y324860D01*
X231111Y324848D01*
X231093Y324840D01*
X230962Y324735D01*
X228988Y322761D01*
X225012Y322761D01*
X223502Y324271D01*
X223486Y324283D01*
X223474Y324298D01*
X223386Y324355D01*
X223303Y324415D01*
X223284Y324421D01*
X223267Y324431D01*
X223166Y324457D01*
X223067Y324487D01*
X223048Y324487D01*
X223028Y324492D01*
X222925Y324484D01*
X222822Y324481D01*
X222803Y324474D01*
X222783Y324472D01*
X222688Y324432D01*
X222591Y324396D01*
X222575Y324384D01*
X222557Y324376D01*
X222426Y324271D01*
X220916Y322761D01*
X216940Y322761D01*
G37*
%LPD*%
%LPC*%
G36*
X249056Y10225D02*
X249056Y10225D01*
X245463Y11713D01*
X242713Y14463D01*
X241225Y18056D01*
X241225Y21944D01*
X242713Y25537D01*
X245463Y28287D01*
X249056Y29775D01*
X252944Y29775D01*
X256537Y28287D01*
X259287Y25537D01*
X260775Y21944D01*
X260775Y18056D01*
X259287Y14463D01*
X256537Y11713D01*
X252944Y10225D01*
X249056Y10225D01*
G37*
%LPD*%
%LPC*%
G36*
X139056Y10225D02*
X139056Y10225D01*
X135463Y11713D01*
X132713Y14463D01*
X131225Y18056D01*
X131225Y21944D01*
X132713Y25537D01*
X135463Y28287D01*
X139056Y29775D01*
X142944Y29775D01*
X146537Y28287D01*
X149287Y25537D01*
X150775Y21944D01*
X150775Y18056D01*
X149287Y14463D01*
X146537Y11713D01*
X142944Y10225D01*
X139056Y10225D01*
G37*
%LPD*%
%LPC*%
G36*
X235012Y282201D02*
X235012Y282201D01*
X232201Y285012D01*
X232201Y288988D01*
X235012Y291799D01*
X238440Y291799D01*
X238460Y291802D01*
X238479Y291800D01*
X238581Y291822D01*
X238683Y291838D01*
X238700Y291848D01*
X238720Y291852D01*
X238809Y291905D01*
X238900Y291954D01*
X238914Y291968D01*
X238931Y291978D01*
X238998Y292057D01*
X239070Y292132D01*
X239078Y292150D01*
X239091Y292165D01*
X239130Y292261D01*
X239173Y292355D01*
X239175Y292375D01*
X239183Y292393D01*
X239201Y292560D01*
X239201Y295988D01*
X242012Y298799D01*
X245988Y298799D01*
X248799Y295988D01*
X248799Y292012D01*
X245988Y289201D01*
X242560Y289201D01*
X242540Y289198D01*
X242521Y289200D01*
X242419Y289178D01*
X242317Y289162D01*
X242300Y289152D01*
X242280Y289148D01*
X242191Y289095D01*
X242100Y289046D01*
X242086Y289032D01*
X242069Y289022D01*
X242002Y288943D01*
X241930Y288868D01*
X241922Y288850D01*
X241909Y288835D01*
X241870Y288739D01*
X241827Y288645D01*
X241825Y288625D01*
X241817Y288607D01*
X241799Y288440D01*
X241799Y285012D01*
X238988Y282201D01*
X235012Y282201D01*
G37*
%LPD*%
%LPC*%
G36*
X191862Y415951D02*
X191862Y415951D01*
X189051Y418762D01*
X189051Y420690D01*
X189048Y420710D01*
X189050Y420729D01*
X189028Y420831D01*
X189012Y420933D01*
X189002Y420950D01*
X188998Y420970D01*
X188945Y421059D01*
X188896Y421150D01*
X188882Y421164D01*
X188872Y421181D01*
X188793Y421248D01*
X188718Y421320D01*
X188700Y421328D01*
X188685Y421341D01*
X188589Y421380D01*
X188495Y421423D01*
X188475Y421425D01*
X188457Y421433D01*
X188290Y421451D01*
X185662Y421451D01*
X182851Y424262D01*
X182851Y428238D01*
X185662Y431049D01*
X189638Y431049D01*
X192449Y428238D01*
X192449Y426310D01*
X192452Y426290D01*
X192450Y426271D01*
X192472Y426169D01*
X192488Y426067D01*
X192498Y426050D01*
X192502Y426030D01*
X192555Y425941D01*
X192604Y425850D01*
X192618Y425836D01*
X192628Y425819D01*
X192707Y425752D01*
X192782Y425680D01*
X192800Y425672D01*
X192815Y425659D01*
X192911Y425620D01*
X193005Y425577D01*
X193025Y425575D01*
X193043Y425567D01*
X193210Y425549D01*
X195838Y425549D01*
X198649Y422738D01*
X198649Y418762D01*
X195838Y415951D01*
X191862Y415951D01*
G37*
%LPD*%
%LPC*%
G36*
X78712Y432201D02*
X78712Y432201D01*
X75901Y435012D01*
X75901Y438988D01*
X78712Y441799D01*
X82688Y441799D01*
X85499Y438988D01*
X85499Y435012D01*
X82688Y432201D01*
X78712Y432201D01*
G37*
%LPD*%
%LPC*%
G36*
X94762Y391901D02*
X94762Y391901D01*
X91951Y394712D01*
X91951Y398688D01*
X94762Y401499D01*
X98738Y401499D01*
X101549Y398688D01*
X101549Y394712D01*
X98738Y391901D01*
X94762Y391901D01*
G37*
%LPD*%
%LPC*%
G36*
X212362Y380201D02*
X212362Y380201D01*
X209551Y383012D01*
X209551Y386988D01*
X212362Y389799D01*
X216338Y389799D01*
X219149Y386988D01*
X219149Y383012D01*
X216338Y380201D01*
X212362Y380201D01*
G37*
%LPD*%
%LPC*%
G36*
X142012Y370487D02*
X142012Y370487D01*
X139201Y373298D01*
X139201Y377273D01*
X142012Y380084D01*
X145988Y380084D01*
X148799Y377273D01*
X148799Y373298D01*
X145988Y370487D01*
X142012Y370487D01*
G37*
%LPD*%
%LPC*%
G36*
X152810Y360636D02*
X152810Y360636D01*
X149999Y363447D01*
X149999Y367423D01*
X152810Y370234D01*
X156786Y370234D01*
X159597Y367423D01*
X159597Y363447D01*
X156786Y360636D01*
X152810Y360636D01*
G37*
%LPD*%
%LPC*%
G36*
X206214Y351201D02*
X206214Y351201D01*
X203403Y354012D01*
X203403Y357988D01*
X206214Y360799D01*
X210190Y360799D01*
X213001Y357988D01*
X213001Y354012D01*
X210190Y351201D01*
X206214Y351201D01*
G37*
%LPD*%
%LPC*%
G36*
X242745Y313384D02*
X242745Y313384D01*
X239934Y316195D01*
X239934Y320171D01*
X242745Y322982D01*
X246721Y322982D01*
X249532Y320171D01*
X249532Y316195D01*
X246721Y313384D01*
X242745Y313384D01*
G37*
%LPD*%
%LPC*%
G36*
X182791Y283201D02*
X182791Y283201D01*
X179980Y286012D01*
X179980Y289988D01*
X182791Y292799D01*
X186766Y292799D01*
X189577Y289988D01*
X189577Y286012D01*
X186766Y283201D01*
X182791Y283201D01*
G37*
%LPD*%
%LPC*%
G36*
X248012Y247701D02*
X248012Y247701D01*
X245201Y250512D01*
X245201Y254488D01*
X248012Y257299D01*
X251988Y257299D01*
X254799Y254488D01*
X254799Y250512D01*
X251988Y247701D01*
X248012Y247701D01*
G37*
%LPD*%
D10*
X24970Y90600D03*
X49862Y90600D03*
X75008Y90600D03*
X99900Y90600D03*
D11*
X221000Y70000D03*
X171000Y70000D03*
D12*
X251000Y20000D03*
X141000Y20000D03*
D13*
X184778Y288000D03*
X250000Y252500D03*
X134020Y173100D03*
X193500Y205000D03*
X115000Y440000D03*
X65000Y424000D03*
X224000Y276000D03*
X155000Y263000D03*
X183000Y299000D03*
X175000Y235000D03*
X208000Y208000D03*
X155000Y239000D03*
X155000Y247000D03*
X155000Y255000D03*
X138000Y239000D03*
X138000Y247000D03*
X138000Y255000D03*
X155000Y231000D03*
X138000Y231000D03*
X138000Y263000D03*
X83000Y255000D03*
X91000Y255000D03*
X99000Y255000D03*
X83000Y247000D03*
X91000Y247000D03*
X99000Y247000D03*
X83000Y239000D03*
X91000Y239000D03*
X99000Y239000D03*
X227000Y215000D03*
X94000Y307000D03*
X120000Y317000D03*
X133000Y350000D03*
X131000Y363000D03*
X154000Y351000D03*
X73500Y348000D03*
X81500Y348000D03*
X89500Y348000D03*
X73500Y340000D03*
X81500Y340000D03*
X89500Y340000D03*
X73500Y332000D03*
X81500Y332000D03*
X89500Y332000D03*
X65500Y348000D03*
X65500Y340000D03*
X65500Y332000D03*
X73500Y364500D03*
X81500Y364500D03*
X89500Y364500D03*
X73500Y356500D03*
X81500Y356500D03*
X89500Y356500D03*
X65500Y364500D03*
X65500Y356500D03*
X97500Y348000D03*
X97500Y340000D03*
X97500Y332000D03*
X97500Y364500D03*
X97500Y356500D03*
X106000Y348000D03*
X106000Y340000D03*
X106000Y356500D03*
X166000Y376500D03*
X239000Y356500D03*
X214350Y385000D03*
X144000Y375285D03*
X244733Y318183D03*
X242338Y333560D03*
X183000Y327560D03*
X175000Y189000D03*
X90000Y193000D03*
X92000Y178000D03*
X100000Y178000D03*
X108000Y178000D03*
X162000Y178000D03*
X170000Y178000D03*
X178000Y178000D03*
X155000Y199000D03*
X155000Y207000D03*
X155000Y215000D03*
X138000Y198000D03*
X138000Y206000D03*
X138000Y214000D03*
X155000Y191000D03*
X138000Y190000D03*
X138000Y182000D03*
X146000Y179000D03*
X93824Y212961D03*
X152000Y166000D03*
X243000Y129000D03*
X160000Y166000D03*
X168000Y166000D03*
X176000Y166000D03*
X152000Y158000D03*
X160000Y158000D03*
X168000Y158000D03*
X176000Y158000D03*
X152000Y150000D03*
X160000Y150000D03*
X168000Y150000D03*
X176000Y150000D03*
X216000Y119000D03*
X212500Y125500D03*
X220000Y125500D03*
X71300Y205126D03*
X74000Y171602D03*
X8600Y124300D03*
X90000Y166000D03*
X98000Y166000D03*
X106000Y166000D03*
X90000Y158000D03*
X98000Y158000D03*
X106000Y158000D03*
X90000Y150000D03*
X98000Y150000D03*
X106000Y150000D03*
X82000Y166000D03*
X82000Y158000D03*
X82000Y150000D03*
X27000Y142500D03*
X34500Y142500D03*
X31000Y136000D03*
X49700Y430000D03*
X231500Y138200D03*
X32000Y170000D03*
X40000Y170000D03*
X48000Y170000D03*
X32000Y162000D03*
X40000Y162000D03*
X48000Y162000D03*
X32000Y154000D03*
X40000Y154000D03*
X48000Y154000D03*
X24000Y170000D03*
X24000Y162000D03*
X24000Y154000D03*
X215500Y154000D03*
X223500Y154000D03*
X231500Y154000D03*
X215500Y146000D03*
X223500Y146000D03*
X231500Y146000D03*
X215500Y138000D03*
X223500Y138000D03*
X207500Y154000D03*
X207500Y146000D03*
X207500Y138000D03*
X17000Y340500D03*
X25000Y340500D03*
X33000Y340500D03*
X17000Y332500D03*
X25000Y332500D03*
X33000Y332500D03*
X17000Y324500D03*
X25000Y324500D03*
X33000Y324500D03*
X9000Y340500D03*
X9000Y332500D03*
X9000Y324500D03*
X17000Y365000D03*
X25000Y365000D03*
X33000Y365000D03*
X17000Y357000D03*
X25000Y357000D03*
X33000Y357000D03*
X17000Y349000D03*
X25000Y349000D03*
X33000Y349000D03*
X9000Y365000D03*
X9000Y357000D03*
X9000Y349000D03*
X41000Y340500D03*
X41000Y332500D03*
X41000Y324500D03*
X41000Y365000D03*
X41000Y357000D03*
X41000Y349000D03*
X49500Y340500D03*
X49500Y332500D03*
X49500Y324500D03*
X49500Y365000D03*
X49500Y357000D03*
X49500Y349000D03*
X187650Y426250D03*
X193850Y420750D03*
X61365Y262072D03*
D14*
X63877Y259560D01*
X64805Y259560D01*
X68062Y256303D01*
X68062Y251697D01*
X68000Y251635D01*
X68000Y232000D02*
X79000Y221000D01*
X181137Y221000D01*
D13*
X223500Y267500D03*
D14*
X223500Y250811D01*
X231560Y242751D02*
X231560Y237697D01*
X231560Y242751D02*
X223500Y250811D01*
X68000Y251635D02*
X68000Y232000D01*
X181137Y221000D02*
X182697Y222560D01*
X220423Y226560D02*
X231560Y237697D01*
X187577Y222560D02*
X182697Y222560D01*
X187577Y222560D02*
X197697Y212440D01*
X208940Y223303D02*
X212197Y226560D01*
X208940Y219077D02*
X202303Y212440D01*
X208940Y219077D02*
X208940Y223303D01*
X202303Y212440D02*
X197697Y212440D01*
X212197Y226560D02*
X220423Y226560D01*
D13*
X227000Y327560D03*
X244000Y294000D03*
X62043Y245928D03*
X237000Y287000D03*
X62502Y254000D03*
X236000Y327560D03*
X185000Y217000D03*
X200000Y218000D03*
D14*
X80500Y224500D02*
X71239Y233761D01*
X71239Y268198D01*
X66239Y273198D01*
D13*
X66239Y273198D03*
D14*
X198000Y218000D02*
X200000Y218000D01*
X181500Y226000D02*
X180000Y224500D01*
X181500Y226000D02*
X190000Y226000D01*
X180000Y224500D02*
X80500Y224500D01*
X190000Y226000D02*
X198000Y218000D01*
D13*
X125620Y172560D03*
X214500Y221000D03*
X77680Y215417D03*
X80700Y437000D03*
X96750Y396700D03*
D14*
X80000Y191000D02*
X80000Y176000D01*
X100598Y212602D02*
X102598Y214602D01*
X100598Y212602D02*
X100598Y211598D01*
X80000Y191000D01*
D13*
X102598Y214602D03*
X231000Y127000D03*
D14*
X117317Y172000D02*
X84000Y172000D01*
X117317Y172000D02*
X122317Y167000D01*
X144000Y172000D02*
X180000Y172000D01*
X84000Y172000D02*
X80000Y176000D01*
X122317Y167000D02*
X135783Y167000D01*
X136343Y167560D01*
X139560Y167560D02*
X144000Y172000D01*
X139560Y167560D02*
X136343Y167560D01*
X193940Y158060D02*
X193940Y143697D01*
X222303Y131060D02*
X226363Y127000D01*
X231000Y127000D01*
X222303Y131060D02*
X206577Y131060D01*
X193940Y158060D02*
X180000Y172000D01*
X193940Y143697D02*
X206577Y131060D01*
D13*
X85752Y213000D03*
X138802Y162000D03*
X65800Y290685D03*
D14*
X61000Y295485D02*
X61000Y307398D01*
X61000Y295485D02*
X65800Y290685D01*
D13*
X61000Y307398D03*
D14*
X169298Y330702D02*
X210000Y290000D01*
D13*
X167935Y330702D03*
D14*
X169298Y330702D01*
D13*
X210000Y270000D03*
D14*
X210000Y290000D01*
D13*
X66691Y282161D03*
X62000Y315470D03*
D14*
X66691Y283714D02*
X66691Y282161D01*
X66691Y283714D02*
X71360Y288382D01*
X71360Y306110D01*
X62000Y315470D01*
D13*
X144000Y350000D03*
D14*
X157738Y336262D01*
X188560Y329863D02*
X188560Y316440D01*
X182161Y336262D02*
X157738Y336262D01*
X182161Y336262D02*
X188560Y329863D01*
X188560Y316440D02*
X215928Y289072D01*
X215928Y275488D01*
D13*
X215928Y275488D03*
X154798Y365435D03*
X218928Y327560D03*
X208202Y356000D03*
X210856Y328000D03*
M02*
