M48
;GenerationSoftware,Autodesk,EAGLE,9.6.2*%
;CreationDate,2025-12-02T16:10:50Z*%
FMAT,2
ICI,OFF
METRIC,TZ,000.000
T5C0.350
T4C0.940
T3C1.100
T2C1.800
T1C2.794
%
G90
M71
T1
X6231Y2558
T2
X22100Y7000
X17100Y7000
T3
X14100Y2000
X25100Y2000
T4
X2497Y9060
X4986Y9060
X7501Y9060
X9990Y9060
T5
X17500Y23500
X20800Y20800
X15500Y23900
X15500Y24700
X15500Y25500
X13800Y23900
X13800Y24700
X13800Y25500
X15500Y23100
X13800Y23100
X13800Y26300
X8300Y25500
X9100Y25500
X9900Y25500
X8300Y24700
X9100Y24700
X9900Y24700
X8300Y23900
X9100Y23900
X9900Y23900
X22700Y21500
X9400Y30700
X12000Y31700
X13300Y35000
X13100Y36300
X15400Y35100
X7350Y34800
X8150Y34800
X8950Y34800
X7350Y34000
X8150Y34000
X8950Y34000
X7350Y33200
X8150Y33200
X8950Y33200
X6550Y34800
X6550Y34000
X6550Y33200
X7350Y36450
X8150Y36450
X8950Y36450
X7350Y35650
X8150Y35650
X8950Y35650
X6550Y36450
X6550Y35650
X9750Y34800
X9750Y34000
X9750Y33200
X9750Y36450
X9750Y35650
X10600Y34800
X10600Y34000
X10600Y35650
X16600Y37650
X23900Y35650
X21435Y38500
X14400Y37529
X24473Y31818
X24234Y33356
X18300Y32756
X17500Y18900
X9000Y19300
X9200Y17800
X10000Y17800
X10800Y17800
X16200Y17800
X17000Y17800
X17800Y17800
X15500Y19900
X15500Y20700
X15500Y21500
X13800Y19800
X13800Y20600
X13800Y21400
X15500Y19100
X13800Y19000
X13800Y18200
X14600Y17900
X9382Y21296
X15200Y16600
X24300Y12900
X16000Y16600
X16800Y16600
X17600Y16600
X15200Y15800
X16000Y15800
X16800Y15800
X17600Y15800
X15200Y15000
X16000Y15000
X16800Y15000
X17600Y15000
X21600Y11900
X21250Y12550
X22000Y12550
X7130Y20513
X7400Y17160
X860Y12430
X9000Y16600
X9800Y16600
X10600Y16600
X9000Y15800
X9800Y15800
X10600Y15800
X9000Y15000
X9800Y15000
X10600Y15000
X8200Y16600
X8200Y15800
X8200Y15000
X2700Y14250
X3450Y14250
X3100Y13600
X4970Y43000
X23150Y13820
X3200Y17000
X4000Y17000
X4800Y17000
X3200Y16200
X4000Y16200
X4800Y16200
X3200Y15400
X4000Y15400
X4800Y15400
X2400Y17000
X2400Y16200
X2400Y15400
X21550Y15400
X22350Y15400
X23150Y15400
X21550Y14600
X22350Y14600
X23150Y14600
X21550Y13800
X22350Y13800
X20750Y15400
X20750Y14600
X20750Y13800
X1700Y34050
X2500Y34050
X3300Y34050
X1700Y33250
X2500Y33250
X3300Y33250
X1700Y32450
X2500Y32450
X3300Y32450
X900Y34050
X900Y33250
X900Y32450
X1700Y36500
X2500Y36500
X3300Y36500
X1700Y35700
X2500Y35700
X3300Y35700
X1700Y34900
X2500Y34900
X3300Y34900
X900Y36500
X18478Y28800
X900Y34900
X4100Y34050
X4100Y33250
X4100Y32450
X4100Y36500
X4100Y35700
X4100Y34900
X4950Y34050
X4950Y33250
X4950Y32450
X4950Y36500
X4950Y35700
X4950Y34900
X18765Y42625
X19385Y42075
X6136Y26207
X22350Y26750
X22700Y32756
X24400Y29400
X6204Y24593
X23700Y28700
X6250Y25400
X23600Y32756
X18500Y21700
X20000Y21800
X6624Y27320
X12562Y17256
X900Y35700
X7768Y21542
X8070Y43700
X9675Y39670
X10260Y21460
X23100Y12700
X8575Y21300
X13880Y16200
X6580Y29069
X6100Y30740
X16793Y33070
X21000Y27000
X6669Y28216
X6200Y31547
X14400Y35000
X21593Y27549
X15480Y36543
X21893Y32756
X20820Y35600
X21086Y32800
X25000Y25250
X13402Y17310
X19350Y20500
X11500Y44000
X6500Y42400
X22400Y27600
X15500Y26300
X18300Y29900
X21450Y22100
M30