G04 EAGLE Gerber RS-274X export*
G75*
%MOMM*%
%FSLAX34Y34*%
%LPD*%
%INTop Silkscreen*%
%IPPOS*%
%AMOC8*
5,1,8,0,0,1.08239X$1,22.5*%
G01*
%ADD10C,0.152400*%
%ADD11C,0.076200*%
%ADD12C,0.050800*%
%ADD13C,0.500000*%
%ADD14C,0.120000*%
%ADD15C,0.200000*%
%ADD16C,0.101600*%
%ADD17R,1.100000X0.600000*%
%ADD18C,0.127000*%
%ADD19C,0.250000*%
%ADD20C,0.100000*%
%ADD21C,0.100000*%

G36*
X227407Y347384D02*
X227407Y347384D01*
X227409Y347383D01*
X227452Y347403D01*
X227496Y347421D01*
X227496Y347423D01*
X227498Y347424D01*
X227531Y347509D01*
X227531Y350049D01*
X227530Y350051D01*
X227531Y350053D01*
X227511Y350096D01*
X227493Y350140D01*
X227491Y350140D01*
X227490Y350142D01*
X227405Y350175D01*
X223595Y350175D01*
X223593Y350174D01*
X223591Y350175D01*
X223548Y350155D01*
X223504Y350137D01*
X223504Y350135D01*
X223502Y350134D01*
X223469Y350049D01*
X223469Y347509D01*
X223470Y347507D01*
X223469Y347505D01*
X223489Y347462D01*
X223507Y347418D01*
X223509Y347418D01*
X223510Y347416D01*
X223595Y347383D01*
X227405Y347383D01*
X227407Y347384D01*
G37*
G36*
X266551Y291970D02*
X266551Y291970D01*
X266553Y291969D01*
X266596Y291989D01*
X266640Y292007D01*
X266640Y292009D01*
X266642Y292010D01*
X266675Y292095D01*
X266675Y295905D01*
X266674Y295907D01*
X266675Y295909D01*
X266655Y295952D01*
X266637Y295996D01*
X266635Y295996D01*
X266634Y295998D01*
X266549Y296031D01*
X264009Y296031D01*
X264007Y296030D01*
X264005Y296031D01*
X263962Y296011D01*
X263918Y295993D01*
X263918Y295991D01*
X263916Y295990D01*
X263883Y295905D01*
X263883Y292095D01*
X263884Y292093D01*
X263883Y292091D01*
X263903Y292048D01*
X263921Y292004D01*
X263923Y292004D01*
X263924Y292002D01*
X264009Y291969D01*
X266549Y291969D01*
X266551Y291970D01*
G37*
G36*
X161993Y276970D02*
X161993Y276970D01*
X161995Y276969D01*
X162038Y276989D01*
X162082Y277007D01*
X162082Y277009D01*
X162084Y277010D01*
X162117Y277095D01*
X162117Y280905D01*
X162116Y280907D01*
X162117Y280909D01*
X162097Y280952D01*
X162079Y280996D01*
X162077Y280996D01*
X162076Y280998D01*
X161991Y281031D01*
X159451Y281031D01*
X159449Y281030D01*
X159447Y281031D01*
X159404Y281011D01*
X159360Y280993D01*
X159360Y280991D01*
X159358Y280990D01*
X159325Y280905D01*
X159325Y277095D01*
X159326Y277093D01*
X159325Y277091D01*
X159345Y277048D01*
X159363Y277004D01*
X159365Y277004D01*
X159366Y277002D01*
X159451Y276969D01*
X161991Y276969D01*
X161993Y276970D01*
G37*
G36*
X222407Y242826D02*
X222407Y242826D01*
X222409Y242825D01*
X222452Y242845D01*
X222496Y242863D01*
X222496Y242865D01*
X222498Y242866D01*
X222531Y242951D01*
X222531Y245491D01*
X222530Y245493D01*
X222531Y245495D01*
X222511Y245538D01*
X222493Y245582D01*
X222491Y245582D01*
X222490Y245584D01*
X222405Y245617D01*
X218595Y245617D01*
X218593Y245616D01*
X218591Y245617D01*
X218548Y245597D01*
X218504Y245579D01*
X218504Y245577D01*
X218502Y245576D01*
X218469Y245491D01*
X218469Y242951D01*
X218470Y242949D01*
X218469Y242947D01*
X218489Y242904D01*
X218507Y242860D01*
X218509Y242860D01*
X218510Y242858D01*
X218595Y242825D01*
X222405Y242825D01*
X222407Y242826D01*
G37*
D10*
X126062Y125906D02*
X-1446Y125906D01*
X-1446Y-2618D01*
X126062Y-2618D01*
X126062Y125906D01*
D11*
X100714Y93916D02*
X100714Y84631D01*
X100714Y93916D02*
X100716Y94018D01*
X100722Y94119D01*
X100732Y94220D01*
X100745Y94321D01*
X100763Y94421D01*
X100784Y94520D01*
X100809Y94619D01*
X100838Y94716D01*
X100870Y94813D01*
X100906Y94908D01*
X100946Y95001D01*
X100989Y95093D01*
X101036Y95183D01*
X101087Y95272D01*
X101140Y95358D01*
X101197Y95442D01*
X101257Y95524D01*
X101320Y95604D01*
X101386Y95681D01*
X101455Y95756D01*
X101527Y95828D01*
X101602Y95897D01*
X101679Y95963D01*
X101759Y96026D01*
X101841Y96086D01*
X101925Y96143D01*
X102011Y96196D01*
X102100Y96247D01*
X102190Y96294D01*
X102282Y96337D01*
X102375Y96377D01*
X102470Y96413D01*
X102567Y96445D01*
X102664Y96474D01*
X102763Y96499D01*
X102862Y96520D01*
X102962Y96538D01*
X103063Y96551D01*
X103164Y96561D01*
X103265Y96567D01*
X103367Y96569D01*
X104693Y96569D01*
X95576Y96569D02*
X91596Y96569D01*
X91494Y96567D01*
X91393Y96561D01*
X91292Y96551D01*
X91191Y96538D01*
X91091Y96520D01*
X90992Y96499D01*
X90893Y96474D01*
X90796Y96445D01*
X90699Y96413D01*
X90604Y96377D01*
X90511Y96337D01*
X90419Y96294D01*
X90329Y96247D01*
X90240Y96196D01*
X90154Y96143D01*
X90070Y96086D01*
X89988Y96026D01*
X89908Y95963D01*
X89831Y95897D01*
X89756Y95828D01*
X89684Y95756D01*
X89615Y95681D01*
X89549Y95604D01*
X89486Y95524D01*
X89426Y95442D01*
X89369Y95358D01*
X89316Y95272D01*
X89265Y95183D01*
X89218Y95093D01*
X89175Y95001D01*
X89135Y94908D01*
X89099Y94813D01*
X89067Y94717D01*
X89038Y94619D01*
X89013Y94521D01*
X88992Y94421D01*
X88974Y94321D01*
X88961Y94220D01*
X88951Y94119D01*
X88945Y94018D01*
X88943Y93916D01*
X88943Y92590D01*
X88945Y92488D01*
X88951Y92387D01*
X88961Y92286D01*
X88974Y92185D01*
X88992Y92085D01*
X89013Y91986D01*
X89038Y91887D01*
X89067Y91790D01*
X89099Y91693D01*
X89135Y91598D01*
X89175Y91505D01*
X89218Y91413D01*
X89265Y91323D01*
X89316Y91234D01*
X89369Y91148D01*
X89426Y91064D01*
X89486Y90982D01*
X89549Y90902D01*
X89615Y90825D01*
X89684Y90750D01*
X89756Y90678D01*
X89831Y90609D01*
X89908Y90543D01*
X89988Y90480D01*
X90070Y90420D01*
X90154Y90363D01*
X90240Y90310D01*
X90329Y90259D01*
X90419Y90212D01*
X90511Y90169D01*
X90604Y90129D01*
X90699Y90093D01*
X90796Y90061D01*
X90893Y90032D01*
X90992Y90007D01*
X91091Y89986D01*
X91191Y89968D01*
X91292Y89955D01*
X91393Y89945D01*
X91494Y89939D01*
X91596Y89937D01*
X95576Y89937D01*
X95576Y84631D01*
X88943Y84631D01*
D12*
X120454Y179654D02*
X120454Y184146D01*
X121702Y184146D01*
X121771Y184144D01*
X121839Y184138D01*
X121907Y184129D01*
X121975Y184116D01*
X122042Y184099D01*
X122107Y184078D01*
X122172Y184054D01*
X122235Y184027D01*
X122296Y183996D01*
X122356Y183961D01*
X122413Y183924D01*
X122469Y183883D01*
X122522Y183839D01*
X122572Y183793D01*
X122620Y183743D01*
X122665Y183691D01*
X122708Y183637D01*
X122747Y183581D01*
X122783Y183522D01*
X122816Y183462D01*
X122845Y183399D01*
X122871Y183336D01*
X122893Y183271D01*
X122912Y183204D01*
X122927Y183137D01*
X122938Y183069D01*
X122946Y183001D01*
X122950Y182932D01*
X122950Y182864D01*
X122946Y182795D01*
X122938Y182727D01*
X122927Y182659D01*
X122912Y182592D01*
X122893Y182525D01*
X122871Y182460D01*
X122845Y182397D01*
X122816Y182334D01*
X122783Y182274D01*
X122747Y182215D01*
X122708Y182159D01*
X122665Y182105D01*
X122620Y182053D01*
X122572Y182003D01*
X122522Y181957D01*
X122469Y181913D01*
X122413Y181872D01*
X122356Y181835D01*
X122296Y181800D01*
X122235Y181769D01*
X122172Y181742D01*
X122107Y181718D01*
X122042Y181697D01*
X121975Y181680D01*
X121907Y181667D01*
X121839Y181658D01*
X121771Y181652D01*
X121702Y181650D01*
X120454Y181650D01*
X121951Y181650D02*
X122950Y179654D01*
X125869Y179654D02*
X125869Y184146D01*
X124621Y184146D02*
X127117Y184146D01*
X128821Y183148D02*
X130069Y184146D01*
X130069Y179654D01*
X128821Y179654D02*
X131317Y179654D01*
D10*
X175916Y259416D02*
X180742Y259416D01*
X250084Y259416D02*
X250084Y264242D01*
X250084Y333584D02*
X245258Y333584D01*
X175916Y333584D02*
X175916Y328758D01*
X175916Y264242D02*
X175916Y259416D01*
X245258Y259416D02*
X250084Y259416D01*
X250084Y328758D02*
X250084Y333584D01*
X180742Y333584D02*
X175916Y333584D01*
X160168Y323932D02*
X160166Y323878D01*
X160160Y323824D01*
X160151Y323770D01*
X160137Y323717D01*
X160120Y323666D01*
X160099Y323615D01*
X160075Y323567D01*
X160047Y323520D01*
X160016Y323475D01*
X159982Y323433D01*
X159945Y323393D01*
X159905Y323356D01*
X159863Y323322D01*
X159818Y323291D01*
X159771Y323263D01*
X159723Y323239D01*
X159672Y323218D01*
X159621Y323201D01*
X159568Y323187D01*
X159514Y323178D01*
X159460Y323172D01*
X159406Y323170D01*
X159352Y323172D01*
X159298Y323178D01*
X159244Y323187D01*
X159191Y323201D01*
X159140Y323218D01*
X159089Y323239D01*
X159041Y323263D01*
X158994Y323291D01*
X158949Y323322D01*
X158907Y323356D01*
X158867Y323393D01*
X158830Y323433D01*
X158796Y323475D01*
X158765Y323520D01*
X158737Y323567D01*
X158713Y323615D01*
X158692Y323666D01*
X158675Y323717D01*
X158661Y323770D01*
X158652Y323824D01*
X158646Y323878D01*
X158644Y323932D01*
X158646Y323986D01*
X158652Y324040D01*
X158661Y324094D01*
X158675Y324147D01*
X158692Y324198D01*
X158713Y324249D01*
X158737Y324297D01*
X158765Y324344D01*
X158796Y324389D01*
X158830Y324431D01*
X158867Y324471D01*
X158907Y324508D01*
X158949Y324542D01*
X158994Y324573D01*
X159041Y324601D01*
X159089Y324625D01*
X159140Y324646D01*
X159191Y324663D01*
X159244Y324677D01*
X159298Y324686D01*
X159352Y324692D01*
X159406Y324694D01*
X159460Y324692D01*
X159514Y324686D01*
X159568Y324677D01*
X159621Y324663D01*
X159672Y324646D01*
X159723Y324625D01*
X159771Y324601D01*
X159818Y324573D01*
X159863Y324542D01*
X159905Y324508D01*
X159945Y324471D01*
X159982Y324431D01*
X160016Y324389D01*
X160047Y324344D01*
X160075Y324297D01*
X160099Y324249D01*
X160120Y324198D01*
X160137Y324147D01*
X160151Y324094D01*
X160160Y324040D01*
X160166Y323986D01*
X160168Y323932D01*
D13*
X126314Y377560D03*
D14*
X128214Y382600D02*
X128214Y396600D01*
X138314Y396600D01*
X159586Y396600D02*
X159586Y382600D01*
X159586Y396600D02*
X149486Y396600D01*
D15*
X159800Y301000D02*
X129800Y301000D01*
D16*
X145900Y420700D02*
X145900Y437700D01*
X156900Y437700D02*
X156900Y420700D01*
D17*
X151400Y425700D03*
D16*
X157708Y414708D02*
X169392Y414708D01*
X157708Y414708D02*
X157708Y417954D01*
X157710Y418067D01*
X157716Y418180D01*
X157726Y418293D01*
X157740Y418406D01*
X157757Y418518D01*
X157779Y418629D01*
X157804Y418739D01*
X157834Y418849D01*
X157867Y418957D01*
X157904Y419064D01*
X157944Y419170D01*
X157989Y419274D01*
X158037Y419377D01*
X158088Y419478D01*
X158143Y419577D01*
X158201Y419674D01*
X158263Y419769D01*
X158328Y419862D01*
X158396Y419952D01*
X158467Y420040D01*
X158542Y420126D01*
X158619Y420209D01*
X158699Y420289D01*
X158782Y420366D01*
X158868Y420441D01*
X158956Y420512D01*
X159046Y420580D01*
X159139Y420645D01*
X159234Y420707D01*
X159331Y420765D01*
X159430Y420820D01*
X159531Y420871D01*
X159634Y420919D01*
X159738Y420964D01*
X159844Y421004D01*
X159951Y421041D01*
X160059Y421074D01*
X160169Y421104D01*
X160279Y421129D01*
X160390Y421151D01*
X160502Y421168D01*
X160615Y421182D01*
X160728Y421192D01*
X160841Y421198D01*
X160954Y421200D01*
X160954Y421199D02*
X166146Y421199D01*
X166146Y421200D02*
X166259Y421198D01*
X166372Y421192D01*
X166485Y421182D01*
X166598Y421168D01*
X166710Y421151D01*
X166821Y421129D01*
X166931Y421104D01*
X167041Y421074D01*
X167149Y421041D01*
X167256Y421004D01*
X167362Y420964D01*
X167466Y420919D01*
X167569Y420871D01*
X167670Y420820D01*
X167769Y420765D01*
X167866Y420707D01*
X167961Y420645D01*
X168054Y420580D01*
X168144Y420512D01*
X168232Y420441D01*
X168318Y420366D01*
X168401Y420289D01*
X168481Y420209D01*
X168558Y420126D01*
X168633Y420040D01*
X168704Y419952D01*
X168772Y419862D01*
X168837Y419769D01*
X168899Y419674D01*
X168957Y419577D01*
X169012Y419478D01*
X169063Y419377D01*
X169111Y419274D01*
X169156Y419170D01*
X169196Y419064D01*
X169233Y418957D01*
X169266Y418849D01*
X169296Y418739D01*
X169321Y418629D01*
X169343Y418518D01*
X169360Y418406D01*
X169374Y418293D01*
X169384Y418180D01*
X169390Y418067D01*
X169392Y417954D01*
X169392Y414708D01*
X160304Y426519D02*
X157708Y429765D01*
X169392Y429765D01*
X169392Y433010D02*
X169392Y426519D01*
X67600Y410300D02*
X67600Y393300D01*
X56600Y393300D02*
X56600Y410300D01*
D17*
X62100Y405300D03*
D16*
X60108Y360490D02*
X71792Y360490D01*
X60108Y360490D02*
X60108Y363735D01*
X60110Y363848D01*
X60116Y363961D01*
X60126Y364074D01*
X60140Y364187D01*
X60157Y364299D01*
X60179Y364410D01*
X60204Y364520D01*
X60234Y364630D01*
X60267Y364738D01*
X60304Y364845D01*
X60344Y364951D01*
X60389Y365055D01*
X60437Y365158D01*
X60488Y365259D01*
X60543Y365358D01*
X60601Y365455D01*
X60663Y365550D01*
X60728Y365643D01*
X60796Y365733D01*
X60867Y365821D01*
X60942Y365907D01*
X61019Y365990D01*
X61099Y366070D01*
X61182Y366147D01*
X61268Y366222D01*
X61356Y366293D01*
X61446Y366361D01*
X61539Y366426D01*
X61634Y366488D01*
X61731Y366546D01*
X61830Y366601D01*
X61931Y366652D01*
X62034Y366700D01*
X62138Y366745D01*
X62244Y366785D01*
X62351Y366822D01*
X62459Y366855D01*
X62569Y366885D01*
X62679Y366910D01*
X62790Y366932D01*
X62902Y366949D01*
X63015Y366963D01*
X63128Y366973D01*
X63241Y366979D01*
X63354Y366981D01*
X68546Y366981D01*
X68546Y366982D02*
X68659Y366980D01*
X68772Y366974D01*
X68885Y366964D01*
X68998Y366950D01*
X69110Y366933D01*
X69221Y366911D01*
X69331Y366886D01*
X69441Y366856D01*
X69549Y366823D01*
X69656Y366786D01*
X69762Y366746D01*
X69866Y366701D01*
X69969Y366653D01*
X70070Y366602D01*
X70169Y366547D01*
X70266Y366489D01*
X70361Y366427D01*
X70454Y366362D01*
X70544Y366294D01*
X70632Y366223D01*
X70718Y366148D01*
X70801Y366071D01*
X70881Y365991D01*
X70958Y365908D01*
X71033Y365822D01*
X71104Y365734D01*
X71172Y365644D01*
X71237Y365551D01*
X71299Y365456D01*
X71357Y365359D01*
X71412Y365260D01*
X71463Y365159D01*
X71511Y365056D01*
X71556Y364952D01*
X71596Y364846D01*
X71633Y364739D01*
X71666Y364631D01*
X71696Y364521D01*
X71721Y364411D01*
X71743Y364300D01*
X71760Y364188D01*
X71774Y364075D01*
X71784Y363962D01*
X71790Y363849D01*
X71792Y363736D01*
X71792Y363735D02*
X71792Y360490D01*
X60108Y375871D02*
X60110Y375978D01*
X60116Y376084D01*
X60126Y376190D01*
X60139Y376296D01*
X60157Y376402D01*
X60178Y376506D01*
X60203Y376610D01*
X60232Y376713D01*
X60264Y376814D01*
X60301Y376914D01*
X60341Y377013D01*
X60384Y377111D01*
X60431Y377207D01*
X60482Y377301D01*
X60536Y377393D01*
X60593Y377483D01*
X60653Y377571D01*
X60717Y377656D01*
X60784Y377739D01*
X60854Y377820D01*
X60926Y377898D01*
X61002Y377974D01*
X61080Y378046D01*
X61161Y378116D01*
X61244Y378183D01*
X61329Y378247D01*
X61417Y378307D01*
X61507Y378364D01*
X61599Y378418D01*
X61693Y378469D01*
X61789Y378516D01*
X61887Y378559D01*
X61986Y378599D01*
X62086Y378636D01*
X62187Y378668D01*
X62290Y378697D01*
X62394Y378722D01*
X62498Y378743D01*
X62604Y378761D01*
X62710Y378774D01*
X62816Y378784D01*
X62922Y378790D01*
X63029Y378792D01*
X60108Y375871D02*
X60110Y375750D01*
X60116Y375629D01*
X60126Y375509D01*
X60139Y375388D01*
X60157Y375269D01*
X60178Y375149D01*
X60203Y375031D01*
X60232Y374914D01*
X60265Y374797D01*
X60301Y374682D01*
X60342Y374568D01*
X60385Y374455D01*
X60433Y374343D01*
X60484Y374234D01*
X60539Y374126D01*
X60597Y374019D01*
X60658Y373915D01*
X60723Y373813D01*
X60791Y373713D01*
X60862Y373615D01*
X60936Y373519D01*
X61013Y373426D01*
X61094Y373336D01*
X61177Y373248D01*
X61263Y373163D01*
X61352Y373080D01*
X61443Y373001D01*
X61537Y372924D01*
X61633Y372851D01*
X61731Y372781D01*
X61832Y372714D01*
X61935Y372650D01*
X62040Y372590D01*
X62147Y372532D01*
X62255Y372479D01*
X62365Y372429D01*
X62477Y372383D01*
X62590Y372340D01*
X62705Y372301D01*
X65301Y377818D02*
X65223Y377897D01*
X65143Y377973D01*
X65060Y378046D01*
X64974Y378116D01*
X64887Y378183D01*
X64796Y378247D01*
X64704Y378307D01*
X64610Y378365D01*
X64513Y378419D01*
X64415Y378469D01*
X64315Y378516D01*
X64214Y378560D01*
X64111Y378600D01*
X64006Y378636D01*
X63901Y378668D01*
X63794Y378697D01*
X63687Y378722D01*
X63578Y378744D01*
X63469Y378761D01*
X63360Y378775D01*
X63250Y378784D01*
X63139Y378790D01*
X63029Y378792D01*
X65301Y377818D02*
X71792Y372301D01*
X71792Y378792D01*
D18*
X202400Y122800D02*
X204250Y122800D01*
X233850Y122800D02*
X235400Y122800D01*
X202400Y122800D02*
X202400Y155800D01*
X235400Y155800D02*
X235400Y122800D01*
X204250Y155800D02*
X202400Y155800D01*
X233850Y155800D02*
X235400Y155800D01*
D15*
X208900Y113300D02*
X208902Y113363D01*
X208908Y113425D01*
X208918Y113487D01*
X208931Y113549D01*
X208949Y113609D01*
X208970Y113668D01*
X208995Y113726D01*
X209024Y113782D01*
X209056Y113836D01*
X209091Y113888D01*
X209129Y113937D01*
X209171Y113985D01*
X209215Y114029D01*
X209263Y114071D01*
X209312Y114109D01*
X209364Y114144D01*
X209418Y114176D01*
X209474Y114205D01*
X209532Y114230D01*
X209591Y114251D01*
X209651Y114269D01*
X209713Y114282D01*
X209775Y114292D01*
X209837Y114298D01*
X209900Y114300D01*
X209963Y114298D01*
X210025Y114292D01*
X210087Y114282D01*
X210149Y114269D01*
X210209Y114251D01*
X210268Y114230D01*
X210326Y114205D01*
X210382Y114176D01*
X210436Y114144D01*
X210488Y114109D01*
X210537Y114071D01*
X210585Y114029D01*
X210629Y113985D01*
X210671Y113937D01*
X210709Y113888D01*
X210744Y113836D01*
X210776Y113782D01*
X210805Y113726D01*
X210830Y113668D01*
X210851Y113609D01*
X210869Y113549D01*
X210882Y113487D01*
X210892Y113425D01*
X210898Y113363D01*
X210900Y113300D01*
X210898Y113237D01*
X210892Y113175D01*
X210882Y113113D01*
X210869Y113051D01*
X210851Y112991D01*
X210830Y112932D01*
X210805Y112874D01*
X210776Y112818D01*
X210744Y112764D01*
X210709Y112712D01*
X210671Y112663D01*
X210629Y112615D01*
X210585Y112571D01*
X210537Y112529D01*
X210488Y112491D01*
X210436Y112456D01*
X210382Y112424D01*
X210326Y112395D01*
X210268Y112370D01*
X210209Y112349D01*
X210149Y112331D01*
X210087Y112318D01*
X210025Y112308D01*
X209963Y112302D01*
X209900Y112300D01*
X209837Y112302D01*
X209775Y112308D01*
X209713Y112318D01*
X209651Y112331D01*
X209591Y112349D01*
X209532Y112370D01*
X209474Y112395D01*
X209418Y112424D01*
X209364Y112456D01*
X209312Y112491D01*
X209263Y112529D01*
X209215Y112571D01*
X209171Y112615D01*
X209129Y112663D01*
X209091Y112712D01*
X209056Y112764D01*
X209024Y112818D01*
X208995Y112874D01*
X208970Y112932D01*
X208949Y112991D01*
X208931Y113051D01*
X208918Y113113D01*
X208908Y113175D01*
X208902Y113237D01*
X208900Y113300D01*
D18*
X181100Y179000D02*
X179250Y179000D01*
X149650Y179000D02*
X148100Y179000D01*
X181100Y179000D02*
X181100Y146000D01*
X148100Y146000D02*
X148100Y179000D01*
X179250Y146000D02*
X181100Y146000D01*
X149650Y146000D02*
X148100Y146000D01*
D15*
X172600Y188500D02*
X172602Y188563D01*
X172608Y188625D01*
X172618Y188687D01*
X172631Y188749D01*
X172649Y188809D01*
X172670Y188868D01*
X172695Y188926D01*
X172724Y188982D01*
X172756Y189036D01*
X172791Y189088D01*
X172829Y189137D01*
X172871Y189185D01*
X172915Y189229D01*
X172963Y189271D01*
X173012Y189309D01*
X173064Y189344D01*
X173118Y189376D01*
X173174Y189405D01*
X173232Y189430D01*
X173291Y189451D01*
X173351Y189469D01*
X173413Y189482D01*
X173475Y189492D01*
X173537Y189498D01*
X173600Y189500D01*
X173663Y189498D01*
X173725Y189492D01*
X173787Y189482D01*
X173849Y189469D01*
X173909Y189451D01*
X173968Y189430D01*
X174026Y189405D01*
X174082Y189376D01*
X174136Y189344D01*
X174188Y189309D01*
X174237Y189271D01*
X174285Y189229D01*
X174329Y189185D01*
X174371Y189137D01*
X174409Y189088D01*
X174444Y189036D01*
X174476Y188982D01*
X174505Y188926D01*
X174530Y188868D01*
X174551Y188809D01*
X174569Y188749D01*
X174582Y188687D01*
X174592Y188625D01*
X174598Y188563D01*
X174600Y188500D01*
X174598Y188437D01*
X174592Y188375D01*
X174582Y188313D01*
X174569Y188251D01*
X174551Y188191D01*
X174530Y188132D01*
X174505Y188074D01*
X174476Y188018D01*
X174444Y187964D01*
X174409Y187912D01*
X174371Y187863D01*
X174329Y187815D01*
X174285Y187771D01*
X174237Y187729D01*
X174188Y187691D01*
X174136Y187656D01*
X174082Y187624D01*
X174026Y187595D01*
X173968Y187570D01*
X173909Y187549D01*
X173849Y187531D01*
X173787Y187518D01*
X173725Y187508D01*
X173663Y187502D01*
X173600Y187500D01*
X173537Y187502D01*
X173475Y187508D01*
X173413Y187518D01*
X173351Y187531D01*
X173291Y187549D01*
X173232Y187570D01*
X173174Y187595D01*
X173118Y187624D01*
X173064Y187656D01*
X173012Y187691D01*
X172963Y187729D01*
X172915Y187771D01*
X172871Y187815D01*
X172829Y187863D01*
X172791Y187912D01*
X172756Y187964D01*
X172724Y188018D01*
X172695Y188074D01*
X172670Y188132D01*
X172649Y188191D01*
X172631Y188251D01*
X172618Y188313D01*
X172608Y188375D01*
X172602Y188437D01*
X172600Y188500D01*
D18*
X20750Y140200D02*
X18900Y140200D01*
X50350Y140200D02*
X51900Y140200D01*
X18900Y140200D02*
X18900Y173200D01*
X51900Y173200D02*
X51900Y140200D01*
X20750Y173200D02*
X18900Y173200D01*
X50350Y173200D02*
X51900Y173200D01*
D15*
X25400Y130700D02*
X25402Y130763D01*
X25408Y130825D01*
X25418Y130887D01*
X25431Y130949D01*
X25449Y131009D01*
X25470Y131068D01*
X25495Y131126D01*
X25524Y131182D01*
X25556Y131236D01*
X25591Y131288D01*
X25629Y131337D01*
X25671Y131385D01*
X25715Y131429D01*
X25763Y131471D01*
X25812Y131509D01*
X25864Y131544D01*
X25918Y131576D01*
X25974Y131605D01*
X26032Y131630D01*
X26091Y131651D01*
X26151Y131669D01*
X26213Y131682D01*
X26275Y131692D01*
X26337Y131698D01*
X26400Y131700D01*
X26463Y131698D01*
X26525Y131692D01*
X26587Y131682D01*
X26649Y131669D01*
X26709Y131651D01*
X26768Y131630D01*
X26826Y131605D01*
X26882Y131576D01*
X26936Y131544D01*
X26988Y131509D01*
X27037Y131471D01*
X27085Y131429D01*
X27129Y131385D01*
X27171Y131337D01*
X27209Y131288D01*
X27244Y131236D01*
X27276Y131182D01*
X27305Y131126D01*
X27330Y131068D01*
X27351Y131009D01*
X27369Y130949D01*
X27382Y130887D01*
X27392Y130825D01*
X27398Y130763D01*
X27400Y130700D01*
X27398Y130637D01*
X27392Y130575D01*
X27382Y130513D01*
X27369Y130451D01*
X27351Y130391D01*
X27330Y130332D01*
X27305Y130274D01*
X27276Y130218D01*
X27244Y130164D01*
X27209Y130112D01*
X27171Y130063D01*
X27129Y130015D01*
X27085Y129971D01*
X27037Y129929D01*
X26988Y129891D01*
X26936Y129856D01*
X26882Y129824D01*
X26826Y129795D01*
X26768Y129770D01*
X26709Y129749D01*
X26649Y129731D01*
X26587Y129718D01*
X26525Y129708D01*
X26463Y129702D01*
X26400Y129700D01*
X26337Y129702D01*
X26275Y129708D01*
X26213Y129718D01*
X26151Y129731D01*
X26091Y129749D01*
X26032Y129770D01*
X25974Y129795D01*
X25918Y129824D01*
X25864Y129856D01*
X25812Y129891D01*
X25763Y129929D01*
X25715Y129971D01*
X25671Y130015D01*
X25629Y130063D01*
X25591Y130112D01*
X25556Y130164D01*
X25524Y130218D01*
X25495Y130274D01*
X25470Y130332D01*
X25449Y130391D01*
X25431Y130451D01*
X25418Y130513D01*
X25408Y130575D01*
X25402Y130637D01*
X25400Y130700D01*
D18*
X109250Y180600D02*
X111100Y180600D01*
X79650Y180600D02*
X78100Y180600D01*
X111100Y180600D02*
X111100Y147600D01*
X78100Y147600D02*
X78100Y180600D01*
X109250Y147600D02*
X111100Y147600D01*
X79650Y147600D02*
X78100Y147600D01*
D15*
X102600Y190100D02*
X102602Y190163D01*
X102608Y190225D01*
X102618Y190287D01*
X102631Y190349D01*
X102649Y190409D01*
X102670Y190468D01*
X102695Y190526D01*
X102724Y190582D01*
X102756Y190636D01*
X102791Y190688D01*
X102829Y190737D01*
X102871Y190785D01*
X102915Y190829D01*
X102963Y190871D01*
X103012Y190909D01*
X103064Y190944D01*
X103118Y190976D01*
X103174Y191005D01*
X103232Y191030D01*
X103291Y191051D01*
X103351Y191069D01*
X103413Y191082D01*
X103475Y191092D01*
X103537Y191098D01*
X103600Y191100D01*
X103663Y191098D01*
X103725Y191092D01*
X103787Y191082D01*
X103849Y191069D01*
X103909Y191051D01*
X103968Y191030D01*
X104026Y191005D01*
X104082Y190976D01*
X104136Y190944D01*
X104188Y190909D01*
X104237Y190871D01*
X104285Y190829D01*
X104329Y190785D01*
X104371Y190737D01*
X104409Y190688D01*
X104444Y190636D01*
X104476Y190582D01*
X104505Y190526D01*
X104530Y190468D01*
X104551Y190409D01*
X104569Y190349D01*
X104582Y190287D01*
X104592Y190225D01*
X104598Y190163D01*
X104600Y190100D01*
X104598Y190037D01*
X104592Y189975D01*
X104582Y189913D01*
X104569Y189851D01*
X104551Y189791D01*
X104530Y189732D01*
X104505Y189674D01*
X104476Y189618D01*
X104444Y189564D01*
X104409Y189512D01*
X104371Y189463D01*
X104329Y189415D01*
X104285Y189371D01*
X104237Y189329D01*
X104188Y189291D01*
X104136Y189256D01*
X104082Y189224D01*
X104026Y189195D01*
X103968Y189170D01*
X103909Y189149D01*
X103849Y189131D01*
X103787Y189118D01*
X103725Y189108D01*
X103663Y189102D01*
X103600Y189100D01*
X103537Y189102D01*
X103475Y189108D01*
X103413Y189118D01*
X103351Y189131D01*
X103291Y189149D01*
X103232Y189170D01*
X103174Y189195D01*
X103118Y189224D01*
X103064Y189256D01*
X103012Y189291D01*
X102963Y189329D01*
X102915Y189371D01*
X102871Y189415D01*
X102829Y189463D01*
X102791Y189512D01*
X102756Y189564D01*
X102724Y189618D01*
X102695Y189674D01*
X102670Y189732D01*
X102649Y189791D01*
X102631Y189851D01*
X102618Y189913D01*
X102608Y189975D01*
X102602Y190037D01*
X102600Y190100D01*
D19*
X114050Y226400D02*
X114052Y226470D01*
X114058Y226540D01*
X114068Y226609D01*
X114081Y226678D01*
X114099Y226746D01*
X114120Y226813D01*
X114145Y226878D01*
X114174Y226942D01*
X114206Y227005D01*
X114242Y227065D01*
X114281Y227123D01*
X114323Y227179D01*
X114368Y227233D01*
X114416Y227284D01*
X114467Y227332D01*
X114521Y227377D01*
X114577Y227419D01*
X114635Y227458D01*
X114695Y227494D01*
X114758Y227526D01*
X114822Y227555D01*
X114887Y227580D01*
X114954Y227601D01*
X115022Y227619D01*
X115091Y227632D01*
X115160Y227642D01*
X115230Y227648D01*
X115300Y227650D01*
X115370Y227648D01*
X115440Y227642D01*
X115509Y227632D01*
X115578Y227619D01*
X115646Y227601D01*
X115713Y227580D01*
X115778Y227555D01*
X115842Y227526D01*
X115905Y227494D01*
X115965Y227458D01*
X116023Y227419D01*
X116079Y227377D01*
X116133Y227332D01*
X116184Y227284D01*
X116232Y227233D01*
X116277Y227179D01*
X116319Y227123D01*
X116358Y227065D01*
X116394Y227005D01*
X116426Y226942D01*
X116455Y226878D01*
X116480Y226813D01*
X116501Y226746D01*
X116519Y226678D01*
X116532Y226609D01*
X116542Y226540D01*
X116548Y226470D01*
X116550Y226400D01*
X116548Y226330D01*
X116542Y226260D01*
X116532Y226191D01*
X116519Y226122D01*
X116501Y226054D01*
X116480Y225987D01*
X116455Y225922D01*
X116426Y225858D01*
X116394Y225795D01*
X116358Y225735D01*
X116319Y225677D01*
X116277Y225621D01*
X116232Y225567D01*
X116184Y225516D01*
X116133Y225468D01*
X116079Y225423D01*
X116023Y225381D01*
X115965Y225342D01*
X115905Y225306D01*
X115842Y225274D01*
X115778Y225245D01*
X115713Y225220D01*
X115646Y225199D01*
X115578Y225181D01*
X115509Y225168D01*
X115440Y225158D01*
X115370Y225152D01*
X115300Y225150D01*
X115230Y225152D01*
X115160Y225158D01*
X115091Y225168D01*
X115022Y225181D01*
X114954Y225199D01*
X114887Y225220D01*
X114822Y225245D01*
X114758Y225274D01*
X114695Y225306D01*
X114635Y225342D01*
X114577Y225381D01*
X114521Y225423D01*
X114467Y225468D01*
X114416Y225516D01*
X114368Y225567D01*
X114323Y225621D01*
X114281Y225677D01*
X114242Y225735D01*
X114206Y225795D01*
X114174Y225858D01*
X114145Y225922D01*
X114120Y225987D01*
X114099Y226054D01*
X114081Y226122D01*
X114068Y226191D01*
X114058Y226260D01*
X114052Y226330D01*
X114050Y226400D01*
D16*
X80992Y230558D02*
X80992Y242242D01*
X79694Y230558D02*
X82290Y230558D01*
X82290Y242242D02*
X79694Y242242D01*
X89454Y230558D02*
X92050Y230558D01*
X89454Y230558D02*
X89355Y230560D01*
X89255Y230566D01*
X89156Y230575D01*
X89058Y230588D01*
X88960Y230605D01*
X88862Y230626D01*
X88766Y230651D01*
X88671Y230679D01*
X88577Y230711D01*
X88484Y230746D01*
X88392Y230785D01*
X88302Y230828D01*
X88214Y230873D01*
X88127Y230923D01*
X88043Y230975D01*
X87960Y231031D01*
X87880Y231089D01*
X87802Y231151D01*
X87727Y231216D01*
X87654Y231284D01*
X87584Y231354D01*
X87516Y231427D01*
X87451Y231502D01*
X87389Y231580D01*
X87331Y231660D01*
X87275Y231743D01*
X87223Y231827D01*
X87173Y231914D01*
X87128Y232002D01*
X87085Y232092D01*
X87046Y232184D01*
X87011Y232277D01*
X86979Y232371D01*
X86951Y232466D01*
X86926Y232562D01*
X86905Y232660D01*
X86888Y232758D01*
X86875Y232856D01*
X86866Y232955D01*
X86860Y233055D01*
X86858Y233154D01*
X86857Y233154D02*
X86857Y239646D01*
X86858Y239646D02*
X86860Y239745D01*
X86866Y239845D01*
X86875Y239944D01*
X86888Y240042D01*
X86905Y240140D01*
X86926Y240238D01*
X86951Y240334D01*
X86979Y240429D01*
X87011Y240523D01*
X87046Y240616D01*
X87085Y240708D01*
X87128Y240798D01*
X87173Y240886D01*
X87223Y240973D01*
X87275Y241057D01*
X87331Y241140D01*
X87389Y241220D01*
X87451Y241298D01*
X87516Y241373D01*
X87584Y241446D01*
X87654Y241516D01*
X87727Y241584D01*
X87802Y241649D01*
X87880Y241711D01*
X87960Y241769D01*
X88043Y241825D01*
X88127Y241877D01*
X88214Y241927D01*
X88302Y241972D01*
X88392Y242015D01*
X88484Y242054D01*
X88576Y242089D01*
X88671Y242121D01*
X88766Y242149D01*
X88862Y242174D01*
X88960Y242195D01*
X89058Y242212D01*
X89156Y242225D01*
X89255Y242234D01*
X89355Y242240D01*
X89454Y242242D01*
X92050Y242242D01*
X96415Y239646D02*
X99661Y242242D01*
X99661Y230558D01*
X102906Y230558D02*
X96415Y230558D01*
D18*
X166000Y20000D02*
X176000Y20000D01*
X171000Y25000D02*
X171000Y15000D01*
X245500Y10000D02*
X262500Y10000D01*
X245500Y10000D02*
X146500Y10000D01*
X129500Y10000D01*
X233500Y30000D02*
X262500Y30000D01*
X233500Y30000D02*
X208500Y30000D01*
X129500Y30000D01*
X262500Y30000D02*
X262500Y10000D01*
X129500Y10000D02*
X129500Y30000D01*
X146500Y-10000D02*
X191000Y-10000D01*
X192000Y-10000D01*
X193000Y-10000D01*
X194000Y-10000D01*
X195000Y-10000D01*
X196000Y-10000D01*
X197000Y-10000D01*
X198000Y-10000D01*
X199000Y-10000D01*
X200000Y-10000D01*
X201000Y-10000D01*
X245500Y-10000D01*
X245500Y10000D01*
X146500Y10000D02*
X146500Y-10000D01*
X208500Y49000D02*
X208500Y50000D01*
X208500Y49000D02*
X208500Y48000D01*
X208500Y47000D01*
X208500Y46000D01*
X208500Y45000D01*
X208500Y44000D01*
X208500Y43000D01*
X208500Y42000D01*
X208500Y41000D01*
X208500Y40000D01*
X208500Y39000D01*
X208500Y38000D01*
X208500Y37000D01*
X208500Y36000D01*
X208500Y35000D01*
X208500Y34000D01*
X208500Y33000D01*
X208500Y32000D01*
X208500Y31000D01*
X208500Y30000D01*
X233500Y30000D02*
X233500Y31000D01*
X233500Y32000D01*
X233500Y33000D01*
X233500Y34000D01*
X233500Y35000D01*
X233500Y36000D01*
X233500Y37000D01*
X233500Y38000D01*
X233500Y39000D01*
X233500Y40000D01*
X233500Y41000D01*
X233500Y42000D01*
X233500Y43000D01*
X233500Y44000D01*
X233500Y45000D01*
X233500Y46000D01*
X233500Y47000D01*
X233500Y48000D01*
X233500Y49000D01*
X233500Y50000D01*
X231000Y50000D01*
X211000Y50000D01*
X208500Y50000D01*
X208500Y49000D02*
X233500Y49000D01*
X233500Y48000D02*
X208500Y48000D01*
X208500Y47000D02*
X233500Y47000D01*
X233500Y46000D02*
X208500Y46000D01*
X208500Y45000D02*
X233500Y45000D01*
X233500Y44000D02*
X208500Y44000D01*
X208500Y43000D02*
X233500Y43000D01*
X233500Y42000D02*
X208500Y42000D01*
X208500Y41000D02*
X233500Y41000D01*
X233500Y40000D02*
X208500Y40000D01*
X208500Y39000D02*
X233500Y39000D01*
X233500Y38000D02*
X208500Y38000D01*
X208500Y37000D02*
X233500Y37000D01*
X233500Y36000D02*
X208500Y36000D01*
X208500Y35000D02*
X233500Y35000D01*
X233500Y34000D02*
X208500Y34000D01*
X208500Y33000D02*
X233500Y33000D01*
X233500Y32000D02*
X208500Y32000D01*
X208500Y31000D02*
X233500Y31000D01*
X183500Y30000D02*
X181000Y30000D01*
X161000Y30000D02*
X158500Y30000D01*
X158500Y49000D02*
X158500Y50000D01*
X158500Y49000D02*
X158500Y48000D01*
X158500Y47000D01*
X158500Y46000D01*
X158500Y45000D01*
X158500Y44000D01*
X158500Y43000D01*
X158500Y42000D01*
X158500Y41000D01*
X158500Y40000D01*
X158500Y39000D01*
X158500Y38000D01*
X158500Y37000D01*
X158500Y36000D01*
X158500Y35000D01*
X158500Y34000D01*
X158500Y33000D01*
X158500Y32000D01*
X158500Y31000D01*
X158500Y30000D01*
X183500Y30000D02*
X183500Y31000D01*
X183500Y32000D01*
X183500Y33000D01*
X183500Y34000D01*
X183500Y35000D01*
X183500Y36000D01*
X183500Y37000D01*
X183500Y38000D01*
X183500Y39000D01*
X183500Y40000D01*
X183500Y41000D01*
X183500Y42000D01*
X183500Y43000D01*
X183500Y44000D01*
X183500Y45000D01*
X183500Y46000D01*
X183500Y47000D01*
X183500Y48000D01*
X183500Y49000D01*
X183500Y50000D01*
X158500Y50000D01*
X158500Y49000D02*
X183500Y49000D01*
X183500Y48000D02*
X158500Y48000D01*
X158500Y47000D02*
X183500Y47000D01*
X183500Y46000D02*
X158500Y46000D01*
X158500Y45000D02*
X183500Y45000D01*
X183500Y44000D02*
X158500Y44000D01*
X158500Y43000D02*
X183500Y43000D01*
X183500Y42000D02*
X158500Y42000D01*
X158500Y41000D02*
X183500Y41000D01*
X183500Y40000D02*
X158500Y40000D01*
X158500Y39000D02*
X183500Y39000D01*
X183500Y38000D02*
X158500Y38000D01*
X158500Y37000D02*
X183500Y37000D01*
X183500Y36000D02*
X158500Y36000D01*
X158500Y35000D02*
X183500Y35000D01*
X183500Y34000D02*
X158500Y34000D01*
X158500Y33000D02*
X183500Y33000D01*
X183500Y32000D02*
X158500Y32000D01*
X158500Y31000D02*
X183500Y31000D01*
X231000Y50000D02*
X231000Y51000D01*
X231000Y52000D01*
X231000Y53000D01*
X231000Y54000D01*
X231000Y55000D01*
X211000Y55000D01*
X211000Y54000D01*
X211000Y53000D01*
X211000Y52000D01*
X211000Y51000D01*
X211000Y50000D01*
X211000Y54000D02*
X231000Y54000D01*
X231000Y53000D02*
X211000Y53000D01*
X211000Y52000D02*
X231000Y52000D01*
X231000Y51000D02*
X211000Y51000D01*
X181000Y51000D02*
X181000Y50000D01*
X181000Y51000D02*
X181000Y52000D01*
X181000Y53000D01*
X181000Y54000D01*
X181000Y55000D01*
X161000Y55000D01*
X161000Y54000D01*
X161000Y53000D01*
X161000Y52000D01*
X161000Y51000D01*
X161000Y50000D01*
X161000Y54000D02*
X181000Y54000D01*
X181000Y53000D02*
X161000Y53000D01*
X161000Y52000D02*
X181000Y52000D01*
X181000Y51000D02*
X161000Y51000D01*
D15*
X179000Y346500D02*
X219000Y346500D01*
X219000Y375500D02*
X179000Y375500D01*
D20*
X231000Y361000D03*
D21*
X231002Y360956D01*
X231008Y360913D01*
X231017Y360871D01*
X231030Y360829D01*
X231047Y360789D01*
X231067Y360750D01*
X231090Y360713D01*
X231117Y360679D01*
X231146Y360646D01*
X231179Y360617D01*
X231213Y360590D01*
X231250Y360567D01*
X231289Y360547D01*
X231329Y360530D01*
X231371Y360517D01*
X231413Y360508D01*
X231456Y360502D01*
X231500Y360500D01*
X231544Y360502D01*
X231587Y360508D01*
X231629Y360517D01*
X231671Y360530D01*
X231711Y360547D01*
X231750Y360567D01*
X231787Y360590D01*
X231821Y360617D01*
X231854Y360646D01*
X231883Y360679D01*
X231910Y360713D01*
X231933Y360750D01*
X231953Y360789D01*
X231970Y360829D01*
X231983Y360871D01*
X231992Y360913D01*
X231998Y360956D01*
X232000Y361000D01*
D20*
X232000Y361000D03*
D21*
X231998Y361044D01*
X231992Y361087D01*
X231983Y361129D01*
X231970Y361171D01*
X231953Y361211D01*
X231933Y361250D01*
X231910Y361287D01*
X231883Y361321D01*
X231854Y361354D01*
X231821Y361383D01*
X231787Y361410D01*
X231750Y361433D01*
X231711Y361453D01*
X231671Y361470D01*
X231629Y361483D01*
X231587Y361492D01*
X231544Y361498D01*
X231500Y361500D01*
X231456Y361498D01*
X231413Y361492D01*
X231371Y361483D01*
X231329Y361470D01*
X231289Y361453D01*
X231250Y361433D01*
X231213Y361410D01*
X231179Y361383D01*
X231146Y361354D01*
X231117Y361321D01*
X231090Y361287D01*
X231067Y361250D01*
X231047Y361211D01*
X231030Y361171D01*
X231017Y361129D01*
X231008Y361087D01*
X231002Y361044D01*
X231000Y361000D01*
D15*
X183500Y396000D02*
X183500Y428000D01*
X232500Y428000D01*
X232500Y396000D01*
X183500Y396000D01*
X181950Y392500D02*
X181950Y377000D01*
D16*
X51001Y365708D02*
X48404Y365708D01*
X48305Y365710D01*
X48205Y365716D01*
X48106Y365725D01*
X48008Y365738D01*
X47910Y365755D01*
X47812Y365776D01*
X47716Y365801D01*
X47621Y365829D01*
X47527Y365861D01*
X47434Y365896D01*
X47342Y365935D01*
X47252Y365978D01*
X47164Y366023D01*
X47077Y366073D01*
X46993Y366125D01*
X46910Y366181D01*
X46830Y366239D01*
X46752Y366301D01*
X46677Y366366D01*
X46604Y366434D01*
X46534Y366504D01*
X46466Y366577D01*
X46401Y366652D01*
X46339Y366730D01*
X46281Y366810D01*
X46225Y366893D01*
X46173Y366977D01*
X46123Y367064D01*
X46078Y367152D01*
X46035Y367242D01*
X45996Y367334D01*
X45961Y367427D01*
X45929Y367521D01*
X45901Y367616D01*
X45876Y367712D01*
X45855Y367810D01*
X45838Y367908D01*
X45825Y368006D01*
X45816Y368105D01*
X45810Y368205D01*
X45808Y368304D01*
X45808Y374796D01*
X45810Y374895D01*
X45816Y374995D01*
X45825Y375094D01*
X45838Y375192D01*
X45855Y375290D01*
X45876Y375388D01*
X45901Y375484D01*
X45929Y375579D01*
X45961Y375673D01*
X45996Y375766D01*
X46035Y375858D01*
X46078Y375948D01*
X46123Y376036D01*
X46173Y376123D01*
X46225Y376207D01*
X46281Y376290D01*
X46339Y376370D01*
X46401Y376448D01*
X46466Y376523D01*
X46534Y376596D01*
X46604Y376666D01*
X46677Y376734D01*
X46752Y376799D01*
X46830Y376861D01*
X46910Y376919D01*
X46993Y376975D01*
X47077Y377027D01*
X47164Y377077D01*
X47252Y377122D01*
X47342Y377165D01*
X47434Y377204D01*
X47526Y377239D01*
X47621Y377271D01*
X47716Y377299D01*
X47812Y377324D01*
X47910Y377345D01*
X48008Y377362D01*
X48106Y377375D01*
X48205Y377384D01*
X48305Y377390D01*
X48404Y377392D01*
X51001Y377392D01*
X58936Y377392D02*
X59043Y377390D01*
X59149Y377384D01*
X59255Y377374D01*
X59361Y377361D01*
X59467Y377343D01*
X59571Y377322D01*
X59675Y377297D01*
X59778Y377268D01*
X59879Y377236D01*
X59979Y377199D01*
X60078Y377159D01*
X60176Y377116D01*
X60272Y377069D01*
X60366Y377018D01*
X60458Y376964D01*
X60548Y376907D01*
X60636Y376847D01*
X60721Y376783D01*
X60804Y376716D01*
X60885Y376646D01*
X60963Y376574D01*
X61039Y376498D01*
X61111Y376420D01*
X61181Y376339D01*
X61248Y376256D01*
X61312Y376171D01*
X61372Y376083D01*
X61429Y375993D01*
X61483Y375901D01*
X61534Y375807D01*
X61581Y375711D01*
X61624Y375613D01*
X61664Y375514D01*
X61701Y375414D01*
X61733Y375313D01*
X61762Y375210D01*
X61787Y375106D01*
X61808Y375002D01*
X61826Y374896D01*
X61839Y374790D01*
X61849Y374684D01*
X61855Y374578D01*
X61857Y374471D01*
X58936Y377392D02*
X58815Y377390D01*
X58694Y377384D01*
X58574Y377374D01*
X58453Y377361D01*
X58334Y377343D01*
X58214Y377322D01*
X58096Y377297D01*
X57979Y377268D01*
X57862Y377235D01*
X57747Y377199D01*
X57633Y377158D01*
X57520Y377115D01*
X57408Y377067D01*
X57299Y377016D01*
X57191Y376961D01*
X57084Y376903D01*
X56980Y376842D01*
X56878Y376777D01*
X56778Y376709D01*
X56680Y376638D01*
X56584Y376564D01*
X56491Y376487D01*
X56401Y376406D01*
X56313Y376323D01*
X56228Y376237D01*
X56145Y376148D01*
X56066Y376057D01*
X55989Y375963D01*
X55916Y375867D01*
X55846Y375769D01*
X55779Y375668D01*
X55715Y375565D01*
X55655Y375460D01*
X55598Y375353D01*
X55544Y375245D01*
X55494Y375135D01*
X55448Y375023D01*
X55405Y374910D01*
X55366Y374795D01*
X60884Y372199D02*
X60963Y372276D01*
X61039Y372357D01*
X61112Y372440D01*
X61182Y372525D01*
X61249Y372613D01*
X61313Y372703D01*
X61373Y372795D01*
X61430Y372890D01*
X61484Y372986D01*
X61535Y373084D01*
X61582Y373184D01*
X61626Y373286D01*
X61666Y373389D01*
X61702Y373493D01*
X61734Y373599D01*
X61763Y373705D01*
X61788Y373813D01*
X61810Y373921D01*
X61827Y374031D01*
X61841Y374140D01*
X61850Y374250D01*
X61856Y374361D01*
X61858Y374471D01*
X60884Y372199D02*
X55366Y365708D01*
X61857Y365708D01*
X69393Y370901D02*
X73287Y370901D01*
X69393Y370901D02*
X69294Y370903D01*
X69194Y370909D01*
X69095Y370918D01*
X68997Y370931D01*
X68899Y370948D01*
X68801Y370969D01*
X68705Y370994D01*
X68610Y371022D01*
X68516Y371054D01*
X68423Y371089D01*
X68331Y371128D01*
X68241Y371171D01*
X68153Y371216D01*
X68066Y371266D01*
X67982Y371318D01*
X67899Y371374D01*
X67819Y371432D01*
X67741Y371494D01*
X67666Y371559D01*
X67593Y371627D01*
X67523Y371697D01*
X67455Y371770D01*
X67390Y371845D01*
X67328Y371923D01*
X67270Y372003D01*
X67214Y372086D01*
X67162Y372170D01*
X67112Y372257D01*
X67067Y372345D01*
X67024Y372435D01*
X66985Y372527D01*
X66950Y372620D01*
X66918Y372714D01*
X66890Y372809D01*
X66865Y372905D01*
X66844Y373003D01*
X66827Y373101D01*
X66814Y373199D01*
X66805Y373298D01*
X66799Y373398D01*
X66797Y373497D01*
X66796Y373497D02*
X66796Y374146D01*
X66798Y374259D01*
X66804Y374372D01*
X66814Y374485D01*
X66828Y374598D01*
X66845Y374710D01*
X66867Y374821D01*
X66892Y374931D01*
X66922Y375041D01*
X66955Y375149D01*
X66992Y375256D01*
X67032Y375362D01*
X67077Y375466D01*
X67125Y375569D01*
X67176Y375670D01*
X67231Y375769D01*
X67289Y375866D01*
X67351Y375961D01*
X67416Y376054D01*
X67484Y376144D01*
X67555Y376232D01*
X67630Y376318D01*
X67707Y376401D01*
X67787Y376481D01*
X67870Y376558D01*
X67956Y376633D01*
X68044Y376704D01*
X68134Y376772D01*
X68227Y376837D01*
X68322Y376899D01*
X68419Y376957D01*
X68518Y377012D01*
X68619Y377063D01*
X68722Y377111D01*
X68826Y377156D01*
X68932Y377196D01*
X69039Y377233D01*
X69147Y377266D01*
X69257Y377296D01*
X69367Y377321D01*
X69478Y377343D01*
X69590Y377360D01*
X69703Y377374D01*
X69816Y377384D01*
X69929Y377390D01*
X70042Y377392D01*
X70155Y377390D01*
X70268Y377384D01*
X70381Y377374D01*
X70494Y377360D01*
X70606Y377343D01*
X70717Y377321D01*
X70827Y377296D01*
X70937Y377266D01*
X71045Y377233D01*
X71152Y377196D01*
X71258Y377156D01*
X71362Y377111D01*
X71465Y377063D01*
X71566Y377012D01*
X71665Y376957D01*
X71762Y376899D01*
X71857Y376837D01*
X71950Y376772D01*
X72040Y376704D01*
X72128Y376633D01*
X72214Y376558D01*
X72297Y376481D01*
X72377Y376401D01*
X72454Y376318D01*
X72529Y376232D01*
X72600Y376144D01*
X72668Y376054D01*
X72733Y375961D01*
X72795Y375866D01*
X72853Y375769D01*
X72908Y375670D01*
X72959Y375569D01*
X73007Y375466D01*
X73052Y375362D01*
X73092Y375256D01*
X73129Y375149D01*
X73162Y375041D01*
X73192Y374931D01*
X73217Y374821D01*
X73239Y374710D01*
X73256Y374598D01*
X73270Y374485D01*
X73280Y374372D01*
X73286Y374259D01*
X73288Y374146D01*
X73287Y374146D02*
X73287Y370901D01*
X73285Y370758D01*
X73279Y370615D01*
X73269Y370472D01*
X73255Y370330D01*
X73238Y370188D01*
X73216Y370046D01*
X73191Y369905D01*
X73161Y369765D01*
X73128Y369626D01*
X73091Y369488D01*
X73050Y369351D01*
X73006Y369215D01*
X72957Y369080D01*
X72905Y368947D01*
X72850Y368815D01*
X72790Y368685D01*
X72727Y368556D01*
X72661Y368429D01*
X72591Y368304D01*
X72518Y368182D01*
X72441Y368061D01*
X72361Y367942D01*
X72278Y367826D01*
X72192Y367711D01*
X72103Y367600D01*
X72010Y367490D01*
X71915Y367384D01*
X71816Y367280D01*
X71715Y367179D01*
X71611Y367080D01*
X71505Y366985D01*
X71395Y366892D01*
X71284Y366803D01*
X71169Y366717D01*
X71053Y366634D01*
X70934Y366554D01*
X70813Y366477D01*
X70690Y366404D01*
X70566Y366334D01*
X70439Y366268D01*
X70310Y366205D01*
X70180Y366145D01*
X70048Y366090D01*
X69915Y366038D01*
X69780Y365989D01*
X69644Y365945D01*
X69507Y365904D01*
X69369Y365867D01*
X69230Y365834D01*
X69090Y365804D01*
X68949Y365779D01*
X68807Y365757D01*
X68665Y365740D01*
X68523Y365726D01*
X68380Y365716D01*
X68237Y365710D01*
X68094Y365708D01*
X51001Y388708D02*
X48404Y388708D01*
X48305Y388710D01*
X48205Y388716D01*
X48106Y388725D01*
X48008Y388738D01*
X47910Y388755D01*
X47812Y388776D01*
X47716Y388801D01*
X47621Y388829D01*
X47527Y388861D01*
X47434Y388896D01*
X47342Y388935D01*
X47252Y388978D01*
X47164Y389023D01*
X47077Y389073D01*
X46993Y389125D01*
X46910Y389181D01*
X46830Y389239D01*
X46752Y389301D01*
X46677Y389366D01*
X46604Y389434D01*
X46534Y389504D01*
X46466Y389577D01*
X46401Y389652D01*
X46339Y389730D01*
X46281Y389810D01*
X46225Y389893D01*
X46173Y389977D01*
X46123Y390064D01*
X46078Y390152D01*
X46035Y390242D01*
X45996Y390334D01*
X45961Y390427D01*
X45929Y390521D01*
X45901Y390616D01*
X45876Y390712D01*
X45855Y390810D01*
X45838Y390908D01*
X45825Y391006D01*
X45816Y391105D01*
X45810Y391205D01*
X45808Y391304D01*
X45808Y397796D01*
X45810Y397895D01*
X45816Y397995D01*
X45825Y398094D01*
X45838Y398192D01*
X45855Y398290D01*
X45876Y398388D01*
X45901Y398484D01*
X45929Y398579D01*
X45961Y398673D01*
X45996Y398766D01*
X46035Y398858D01*
X46078Y398948D01*
X46123Y399036D01*
X46173Y399123D01*
X46225Y399207D01*
X46281Y399290D01*
X46339Y399370D01*
X46401Y399448D01*
X46466Y399523D01*
X46534Y399596D01*
X46604Y399666D01*
X46677Y399734D01*
X46752Y399799D01*
X46830Y399861D01*
X46910Y399919D01*
X46993Y399975D01*
X47077Y400027D01*
X47164Y400077D01*
X47252Y400122D01*
X47342Y400165D01*
X47434Y400204D01*
X47526Y400239D01*
X47621Y400271D01*
X47716Y400299D01*
X47812Y400324D01*
X47910Y400345D01*
X48008Y400362D01*
X48106Y400375D01*
X48205Y400384D01*
X48305Y400390D01*
X48404Y400392D01*
X51001Y400392D01*
X55366Y388708D02*
X58612Y388708D01*
X58725Y388710D01*
X58838Y388716D01*
X58951Y388726D01*
X59064Y388740D01*
X59176Y388757D01*
X59287Y388779D01*
X59397Y388804D01*
X59507Y388834D01*
X59615Y388867D01*
X59722Y388904D01*
X59828Y388944D01*
X59932Y388989D01*
X60035Y389037D01*
X60136Y389088D01*
X60235Y389143D01*
X60332Y389201D01*
X60427Y389263D01*
X60520Y389328D01*
X60610Y389396D01*
X60698Y389467D01*
X60784Y389542D01*
X60867Y389619D01*
X60947Y389699D01*
X61024Y389782D01*
X61099Y389868D01*
X61170Y389956D01*
X61238Y390046D01*
X61303Y390139D01*
X61365Y390234D01*
X61423Y390331D01*
X61478Y390430D01*
X61529Y390531D01*
X61577Y390634D01*
X61622Y390738D01*
X61662Y390844D01*
X61699Y390951D01*
X61732Y391059D01*
X61762Y391169D01*
X61787Y391279D01*
X61809Y391390D01*
X61826Y391502D01*
X61840Y391615D01*
X61850Y391728D01*
X61856Y391841D01*
X61858Y391954D01*
X61856Y392067D01*
X61850Y392180D01*
X61840Y392293D01*
X61826Y392406D01*
X61809Y392518D01*
X61787Y392629D01*
X61762Y392739D01*
X61732Y392849D01*
X61699Y392957D01*
X61662Y393064D01*
X61622Y393170D01*
X61577Y393274D01*
X61529Y393377D01*
X61478Y393478D01*
X61423Y393577D01*
X61365Y393674D01*
X61303Y393769D01*
X61238Y393862D01*
X61170Y393952D01*
X61099Y394040D01*
X61024Y394126D01*
X60947Y394209D01*
X60867Y394289D01*
X60784Y394366D01*
X60698Y394441D01*
X60610Y394512D01*
X60520Y394580D01*
X60427Y394645D01*
X60332Y394707D01*
X60235Y394765D01*
X60136Y394820D01*
X60035Y394871D01*
X59932Y394919D01*
X59828Y394964D01*
X59722Y395004D01*
X59615Y395041D01*
X59507Y395074D01*
X59397Y395104D01*
X59287Y395129D01*
X59176Y395151D01*
X59064Y395168D01*
X58951Y395182D01*
X58838Y395192D01*
X58725Y395198D01*
X58612Y395200D01*
X59261Y400392D02*
X55366Y400392D01*
X59261Y400392D02*
X59362Y400390D01*
X59462Y400384D01*
X59562Y400374D01*
X59662Y400361D01*
X59761Y400343D01*
X59860Y400322D01*
X59957Y400297D01*
X60054Y400268D01*
X60149Y400235D01*
X60243Y400199D01*
X60335Y400159D01*
X60426Y400116D01*
X60515Y400069D01*
X60602Y400019D01*
X60688Y399965D01*
X60771Y399908D01*
X60851Y399848D01*
X60930Y399785D01*
X61006Y399718D01*
X61079Y399649D01*
X61149Y399577D01*
X61217Y399503D01*
X61282Y399426D01*
X61343Y399346D01*
X61402Y399264D01*
X61457Y399180D01*
X61509Y399094D01*
X61558Y399006D01*
X61603Y398916D01*
X61645Y398824D01*
X61683Y398731D01*
X61717Y398636D01*
X61748Y398541D01*
X61775Y398444D01*
X61798Y398346D01*
X61818Y398247D01*
X61833Y398147D01*
X61845Y398047D01*
X61853Y397947D01*
X61857Y397846D01*
X61857Y397746D01*
X61853Y397645D01*
X61845Y397545D01*
X61833Y397445D01*
X61818Y397345D01*
X61798Y397246D01*
X61775Y397148D01*
X61748Y397051D01*
X61717Y396956D01*
X61683Y396861D01*
X61645Y396768D01*
X61603Y396676D01*
X61558Y396586D01*
X61509Y396498D01*
X61457Y396412D01*
X61402Y396328D01*
X61343Y396246D01*
X61282Y396166D01*
X61217Y396089D01*
X61149Y396015D01*
X61079Y395943D01*
X61006Y395874D01*
X60930Y395807D01*
X60851Y395744D01*
X60771Y395684D01*
X60688Y395627D01*
X60602Y395573D01*
X60515Y395523D01*
X60426Y395476D01*
X60335Y395433D01*
X60243Y395393D01*
X60149Y395357D01*
X60054Y395324D01*
X59957Y395295D01*
X59860Y395270D01*
X59761Y395249D01*
X59662Y395231D01*
X59562Y395218D01*
X59462Y395208D01*
X59362Y395202D01*
X59261Y395200D01*
X59261Y395199D02*
X56664Y395199D01*
X66797Y394550D02*
X66800Y394780D01*
X66808Y395010D01*
X66822Y395239D01*
X66841Y395468D01*
X66866Y395697D01*
X66896Y395924D01*
X66931Y396152D01*
X66972Y396378D01*
X67018Y396603D01*
X67070Y396827D01*
X67127Y397049D01*
X67189Y397271D01*
X67257Y397490D01*
X67330Y397708D01*
X67408Y397925D01*
X67491Y398139D01*
X67579Y398351D01*
X67672Y398561D01*
X67771Y398769D01*
X67770Y398769D02*
X67803Y398859D01*
X67839Y398948D01*
X67879Y399036D01*
X67923Y399121D01*
X67970Y399205D01*
X68020Y399287D01*
X68074Y399367D01*
X68130Y399444D01*
X68190Y399520D01*
X68253Y399593D01*
X68318Y399663D01*
X68387Y399731D01*
X68458Y399795D01*
X68531Y399857D01*
X68607Y399916D01*
X68685Y399972D01*
X68766Y400025D01*
X68848Y400074D01*
X68932Y400120D01*
X69019Y400163D01*
X69106Y400202D01*
X69196Y400238D01*
X69286Y400270D01*
X69378Y400298D01*
X69471Y400323D01*
X69565Y400344D01*
X69659Y400361D01*
X69754Y400375D01*
X69850Y400384D01*
X69946Y400390D01*
X70042Y400392D01*
X70138Y400390D01*
X70234Y400384D01*
X70330Y400375D01*
X70425Y400361D01*
X70519Y400344D01*
X70613Y400323D01*
X70706Y400298D01*
X70798Y400270D01*
X70888Y400238D01*
X70978Y400202D01*
X71065Y400163D01*
X71152Y400120D01*
X71236Y400074D01*
X71318Y400025D01*
X71399Y399972D01*
X71477Y399916D01*
X71553Y399857D01*
X71626Y399795D01*
X71697Y399731D01*
X71766Y399663D01*
X71831Y399593D01*
X71894Y399520D01*
X71954Y399444D01*
X72010Y399367D01*
X72064Y399287D01*
X72114Y399205D01*
X72161Y399121D01*
X72205Y399036D01*
X72245Y398948D01*
X72281Y398859D01*
X72314Y398769D01*
X72413Y398562D01*
X72506Y398352D01*
X72594Y398139D01*
X72677Y397925D01*
X72755Y397709D01*
X72828Y397491D01*
X72896Y397271D01*
X72958Y397050D01*
X73015Y396827D01*
X73067Y396603D01*
X73113Y396378D01*
X73154Y396152D01*
X73189Y395925D01*
X73219Y395697D01*
X73244Y395468D01*
X73263Y395239D01*
X73277Y395010D01*
X73285Y394780D01*
X73288Y394550D01*
X66796Y394550D02*
X66799Y394320D01*
X66807Y394090D01*
X66821Y393861D01*
X66840Y393632D01*
X66865Y393403D01*
X66895Y393175D01*
X66930Y392948D01*
X66971Y392722D01*
X67017Y392497D01*
X67069Y392273D01*
X67126Y392050D01*
X67188Y391829D01*
X67256Y391609D01*
X67329Y391391D01*
X67407Y391175D01*
X67490Y390961D01*
X67578Y390749D01*
X67671Y390538D01*
X67770Y390331D01*
X67803Y390241D01*
X67839Y390152D01*
X67880Y390064D01*
X67923Y389979D01*
X67970Y389895D01*
X68020Y389813D01*
X68074Y389733D01*
X68130Y389656D01*
X68190Y389580D01*
X68253Y389507D01*
X68318Y389437D01*
X68387Y389369D01*
X68458Y389305D01*
X68531Y389243D01*
X68607Y389184D01*
X68685Y389128D01*
X68766Y389075D01*
X68848Y389026D01*
X68932Y388980D01*
X69019Y388937D01*
X69106Y388898D01*
X69196Y388862D01*
X69286Y388830D01*
X69378Y388802D01*
X69471Y388777D01*
X69565Y388756D01*
X69659Y388739D01*
X69754Y388725D01*
X69850Y388716D01*
X69946Y388710D01*
X70042Y388708D01*
X72314Y390331D02*
X72413Y390538D01*
X72506Y390749D01*
X72594Y390961D01*
X72677Y391175D01*
X72755Y391391D01*
X72828Y391609D01*
X72896Y391829D01*
X72958Y392050D01*
X73015Y392273D01*
X73067Y392497D01*
X73113Y392722D01*
X73154Y392948D01*
X73189Y393175D01*
X73219Y393403D01*
X73244Y393632D01*
X73263Y393861D01*
X73277Y394090D01*
X73285Y394320D01*
X73288Y394550D01*
X72314Y390331D02*
X72281Y390241D01*
X72245Y390152D01*
X72205Y390064D01*
X72161Y389979D01*
X72114Y389895D01*
X72064Y389813D01*
X72010Y389733D01*
X71954Y389656D01*
X71894Y389580D01*
X71831Y389507D01*
X71766Y389437D01*
X71697Y389369D01*
X71626Y389305D01*
X71553Y389243D01*
X71477Y389184D01*
X71399Y389128D01*
X71318Y389075D01*
X71236Y389026D01*
X71152Y388980D01*
X71065Y388937D01*
X70978Y388898D01*
X70888Y388862D01*
X70798Y388830D01*
X70706Y388802D01*
X70613Y388777D01*
X70519Y388756D01*
X70425Y388739D01*
X70330Y388725D01*
X70234Y388716D01*
X70138Y388710D01*
X70042Y388708D01*
X67445Y391304D02*
X72638Y397796D01*
X232904Y186708D02*
X235501Y186708D01*
X232904Y186708D02*
X232805Y186710D01*
X232705Y186716D01*
X232606Y186725D01*
X232508Y186738D01*
X232410Y186755D01*
X232312Y186776D01*
X232216Y186801D01*
X232121Y186829D01*
X232027Y186861D01*
X231934Y186896D01*
X231842Y186935D01*
X231752Y186978D01*
X231664Y187023D01*
X231577Y187073D01*
X231493Y187125D01*
X231410Y187181D01*
X231330Y187239D01*
X231252Y187301D01*
X231177Y187366D01*
X231104Y187434D01*
X231034Y187504D01*
X230966Y187577D01*
X230901Y187652D01*
X230839Y187730D01*
X230781Y187810D01*
X230725Y187893D01*
X230673Y187977D01*
X230623Y188064D01*
X230578Y188152D01*
X230535Y188242D01*
X230496Y188334D01*
X230461Y188427D01*
X230429Y188521D01*
X230401Y188616D01*
X230376Y188712D01*
X230355Y188810D01*
X230338Y188908D01*
X230325Y189006D01*
X230316Y189105D01*
X230310Y189205D01*
X230308Y189304D01*
X230308Y195796D01*
X230310Y195895D01*
X230316Y195995D01*
X230325Y196094D01*
X230338Y196192D01*
X230355Y196290D01*
X230376Y196388D01*
X230401Y196484D01*
X230429Y196579D01*
X230461Y196673D01*
X230496Y196766D01*
X230535Y196858D01*
X230578Y196948D01*
X230623Y197036D01*
X230673Y197123D01*
X230725Y197207D01*
X230781Y197290D01*
X230839Y197370D01*
X230901Y197448D01*
X230966Y197523D01*
X231034Y197596D01*
X231104Y197666D01*
X231177Y197734D01*
X231252Y197799D01*
X231330Y197861D01*
X231410Y197919D01*
X231493Y197975D01*
X231577Y198027D01*
X231664Y198077D01*
X231752Y198122D01*
X231842Y198165D01*
X231934Y198204D01*
X232026Y198239D01*
X232121Y198271D01*
X232216Y198299D01*
X232312Y198324D01*
X232410Y198345D01*
X232508Y198362D01*
X232606Y198375D01*
X232705Y198384D01*
X232805Y198390D01*
X232904Y198392D01*
X235501Y198392D01*
X239866Y186708D02*
X243112Y186708D01*
X243225Y186710D01*
X243338Y186716D01*
X243451Y186726D01*
X243564Y186740D01*
X243676Y186757D01*
X243787Y186779D01*
X243897Y186804D01*
X244007Y186834D01*
X244115Y186867D01*
X244222Y186904D01*
X244328Y186944D01*
X244432Y186989D01*
X244535Y187037D01*
X244636Y187088D01*
X244735Y187143D01*
X244832Y187201D01*
X244927Y187263D01*
X245020Y187328D01*
X245110Y187396D01*
X245198Y187467D01*
X245284Y187542D01*
X245367Y187619D01*
X245447Y187699D01*
X245524Y187782D01*
X245599Y187868D01*
X245670Y187956D01*
X245738Y188046D01*
X245803Y188139D01*
X245865Y188234D01*
X245923Y188331D01*
X245978Y188430D01*
X246029Y188531D01*
X246077Y188634D01*
X246122Y188738D01*
X246162Y188844D01*
X246199Y188951D01*
X246232Y189059D01*
X246262Y189169D01*
X246287Y189279D01*
X246309Y189390D01*
X246326Y189502D01*
X246340Y189615D01*
X246350Y189728D01*
X246356Y189841D01*
X246358Y189954D01*
X246356Y190067D01*
X246350Y190180D01*
X246340Y190293D01*
X246326Y190406D01*
X246309Y190518D01*
X246287Y190629D01*
X246262Y190739D01*
X246232Y190849D01*
X246199Y190957D01*
X246162Y191064D01*
X246122Y191170D01*
X246077Y191274D01*
X246029Y191377D01*
X245978Y191478D01*
X245923Y191577D01*
X245865Y191674D01*
X245803Y191769D01*
X245738Y191862D01*
X245670Y191952D01*
X245599Y192040D01*
X245524Y192126D01*
X245447Y192209D01*
X245367Y192289D01*
X245284Y192366D01*
X245198Y192441D01*
X245110Y192512D01*
X245020Y192580D01*
X244927Y192645D01*
X244832Y192707D01*
X244735Y192765D01*
X244636Y192820D01*
X244535Y192871D01*
X244432Y192919D01*
X244328Y192964D01*
X244222Y193004D01*
X244115Y193041D01*
X244007Y193074D01*
X243897Y193104D01*
X243787Y193129D01*
X243676Y193151D01*
X243564Y193168D01*
X243451Y193182D01*
X243338Y193192D01*
X243225Y193198D01*
X243112Y193200D01*
X243761Y198392D02*
X239866Y198392D01*
X243761Y198392D02*
X243862Y198390D01*
X243962Y198384D01*
X244062Y198374D01*
X244162Y198361D01*
X244261Y198343D01*
X244360Y198322D01*
X244457Y198297D01*
X244554Y198268D01*
X244649Y198235D01*
X244743Y198199D01*
X244835Y198159D01*
X244926Y198116D01*
X245015Y198069D01*
X245102Y198019D01*
X245188Y197965D01*
X245271Y197908D01*
X245351Y197848D01*
X245430Y197785D01*
X245506Y197718D01*
X245579Y197649D01*
X245649Y197577D01*
X245717Y197503D01*
X245782Y197426D01*
X245843Y197346D01*
X245902Y197264D01*
X245957Y197180D01*
X246009Y197094D01*
X246058Y197006D01*
X246103Y196916D01*
X246145Y196824D01*
X246183Y196731D01*
X246217Y196636D01*
X246248Y196541D01*
X246275Y196444D01*
X246298Y196346D01*
X246318Y196247D01*
X246333Y196147D01*
X246345Y196047D01*
X246353Y195947D01*
X246357Y195846D01*
X246357Y195746D01*
X246353Y195645D01*
X246345Y195545D01*
X246333Y195445D01*
X246318Y195345D01*
X246298Y195246D01*
X246275Y195148D01*
X246248Y195051D01*
X246217Y194956D01*
X246183Y194861D01*
X246145Y194768D01*
X246103Y194676D01*
X246058Y194586D01*
X246009Y194498D01*
X245957Y194412D01*
X245902Y194328D01*
X245843Y194246D01*
X245782Y194166D01*
X245717Y194089D01*
X245649Y194015D01*
X245579Y193943D01*
X245506Y193874D01*
X245430Y193807D01*
X245351Y193744D01*
X245271Y193684D01*
X245188Y193627D01*
X245102Y193573D01*
X245015Y193523D01*
X244926Y193476D01*
X244835Y193433D01*
X244743Y193393D01*
X244649Y193357D01*
X244554Y193324D01*
X244457Y193295D01*
X244360Y193270D01*
X244261Y193249D01*
X244162Y193231D01*
X244062Y193218D01*
X243962Y193208D01*
X243862Y193202D01*
X243761Y193200D01*
X243761Y193199D02*
X241164Y193199D01*
X251296Y195796D02*
X254542Y198392D01*
X254542Y186708D01*
X257787Y186708D02*
X251296Y186708D01*
M02*
